<?xml version="1.0" encoding="utf-8"?>
<!-- Generator: Adobe Illustrator 27.0.0, SVG Export Plug-In . SVG Version: 6.00 Build 0)  -->
<svg version="1.1" id="Layer_1" xmlns="http://www.w3.org/2000/svg" xmlns:xlink="http://www.w3.org/1999/xlink" x="0px" y="0px"
	 viewBox="0 0 100 100" style="enable-background:new 0 0 100 100;" xml:space="preserve">
<style type="text/css">
	.st0{fill:#F68E33;}
	.st1{fill:#107742;}
	.st2{fill:none;stroke:#FFFFFF;stroke-width:0.15;stroke-miterlimit:10;}
	
		.st3{clip-path:url(#SVGID_00000029737443901816670280000014621058399580791217_);fill:url(#SVGID_00000055665165723622018940000017310252445735081631_);}
	.st4{fill:url(#SVGID_00000167380080136807909770000016276674506530251198_);}
	.st5{fill:none;}
	
		.st6{clip-path:url(#SVGID_00000114047585786052406880000009757499304994450086_);fill:url(#SVGID_00000027567243848991007280000017760042354354039733_);}
	.st7{fill:none;stroke:#FFFFFF;stroke-width:0.1;stroke-miterlimit:10;}
	.st8{fill:#FFFDFD;}
</style>
<line class="st0" x1="92.87" y1="94.19" x2="92.87" y2="95.06"/>
<path class="st1" d="M12.26,73.29c0,0-0.06-9.27,6.06-16.3c6.12-7.03,6-7.27,5.03-6.97c0,0-12.85,10.12-12.18,22.79
	c0.67,12.67,6.08,12.24,6.08,12.24s6.82,0.61,6.83-10.12C24.09,67.5,16.44,66.81,12.26,73.29 M17.96,80.14
	c-1.75,0.58-2.45-0.34-3.01-1.22c-0.5-0.78-0.53-1.62-0.27-2.31c0.26-0.69,3.06-2.46,3.95-2.41C20.75,74.32,23.29,78.38,17.96,80.14
	"/>
<path class="st2" d="M12.26,73.29c0,0-0.06-9.27,6.06-16.3c6.12-7.03,6-7.27,5.03-6.97c0,0-12.85,10.12-12.18,22.79
	c0.67,12.67,6.08,12.24,6.08,12.24s6.82,0.61,6.83-10.12C24.09,67.5,16.44,66.81,12.26,73.29z M17.96,80.14
	c-1.75,0.58-2.45-0.34-3.01-1.22c-0.5-0.78-0.53-1.62-0.27-2.31c0.26-0.69,3.06-2.46,3.95-2.41C20.75,74.32,23.29,78.38,17.96,80.14
	z"/>
<polygon class="st1" points="19.96,56.2 18.17,59.58 20.5,62.14 18.84,65.05 21.66,67.43 23.69,64.02 21.13,61.75 22.76,59.08 "/>
<polygon class="st2" points="19.96,56.2 18.17,59.58 20.5,62.14 18.84,65.05 21.66,67.43 23.69,64.02 21.13,61.75 22.76,59.08 "/>
<path class="st1" d="M26.75,68.93c0,0,3.27-4.55,7.21-4.3c3.94,0.24,3.33,4.3,3.33,4.3s1.09,18.55-25.33,26c0,0-0.97,1.03,1.94,0.3
	c2.91-0.73,15.58-1.15,21.7-9.27c6.12-8.12,7.15-28.91-2.91-28.49c0,0-3.15,0.48-6.12,4.61c0,0-3.88-11.09,5.15-20.85
	c0,0,6.55-8.3,7.88-3.03c0,0,1.88,3.09,1.82,19.27c-0.06,16.18,4.67,21.88,8.73,22c4.06,0.12,5.88-4.48,5.88-4.48s2.18-7.76-1.09-12
	c-0.82-1.06-1.46-1.97-1.82-1.7c-0.69,0.52-1.39,4.3-1.39,4.3s2.91,2.36,2.97,5.15c0,0-2.67,6.06-5.88,2.18
	c-3.21-3.88-3.52-12.91-3.52-12.91s-1.27-17.76-2.06-21.82c-0.79-4.06-3.64-9.94-10.24-3.15C26.38,41.84,22.51,56.69,26.75,68.93"/>
<path class="st2" d="M26.75,68.93c0,0,3.27-4.55,7.21-4.3c3.94,0.24,3.33,4.3,3.33,4.3s1.09,18.55-25.33,26c0,0-0.97,1.03,1.94,0.3
	c2.91-0.73,15.58-1.15,21.7-9.27c6.12-8.12,7.15-28.91-2.91-28.49c0,0-3.15,0.48-6.12,4.61c0,0-3.88-11.09,5.15-20.85
	c0,0,6.55-8.3,7.88-3.03c0,0,1.88,3.09,1.82,19.27c-0.06,16.18,4.67,21.88,8.73,22c4.06,0.12,5.88-4.48,5.88-4.48s2.18-7.76-1.09-12
	c-0.82-1.06-1.46-1.97-1.82-1.7c-0.69,0.52-1.39,4.3-1.39,4.3s2.91,2.36,2.97,5.15c0,0-2.67,6.06-5.88,2.18
	c-3.21-3.88-3.52-12.91-3.52-12.91s-1.27-17.76-2.06-21.82c-0.79-4.06-3.64-9.94-10.24-3.15C26.38,41.84,22.51,56.69,26.75,68.93z"
	/>
<path class="st1" d="M30.3,47.11c0,0.38,0.05,0.76,0.63,1.03c1.45,0.67,0.12-2.18,1.15,0.3c1.03,2.48,0.48,3.27,1.33,2.85
	c0.85-0.42-0.36-4,1.15-5.27c1.52-1.27-0.41,2.02,1.45-0.61c1.64-2.3-3.03-2.97-3.03,3.52c0,0-0.17-1.67-0.97-2.48
	C31.74,46.16,30.28,45.53,30.3,47.11"/>
<path class="st2" d="M30.3,47.11c0,0.38,0.05,0.76,0.63,1.03c1.45,0.67,0.12-2.18,1.15,0.3c1.03,2.48,0.48,3.27,1.33,2.85
	c0.85-0.42-0.36-4,1.15-5.27c1.52-1.27-0.41,2.02,1.45-0.61c1.64-2.3-3.03-2.97-3.03,3.52c0,0-0.17-1.67-0.97-2.48
	C31.74,46.16,30.28,45.53,30.3,47.11z"/>
<path class="st1" d="M60.11,43.78l-11.05,9.02c0,0-0.67,1.09-0.67-0.85c0,0,8.64-7.38,11.21-9.03
	C60.73,42.2,60.11,43.78,60.11,43.78"/>
<path class="st2" d="M60.11,43.78l-11.05,9.02c0,0-0.67,1.09-0.67-0.85c0,0,8.64-7.38,11.21-9.03
	C60.73,42.2,60.11,43.78,60.11,43.78z"/>
<path class="st1" d="M50.81,40.32c0,0-0.36,2.79,1.27,2.73c1.64-0.06,0.73-3.03,0.73-3.03s-0.35-1.03,0.25-1.09
	c0.6-0.06,0.66,1.33,0.66,1.33s0.61,1.88,1.58,1.21c0.97-0.67,0-2.55,0-2.55s-0.47-1.09,0.43-0.66c0,0,1.53,2.69,0.48,3.88
	c-1.45,1.65-2.26-0.5-2.5,0.6c-0.23,1.1-0.84,2.74-2.17,1.65c-1.33-1.09-1.58-4.06-1.58-4.06S50.57,39.35,50.81,40.32"/>
<path class="st2" d="M50.81,40.32c0,0-0.36,2.79,1.27,2.73c1.64-0.06,0.73-3.03,0.73-3.03s-0.35-1.03,0.25-1.09
	c0.6-0.06,0.66,1.33,0.66,1.33s0.61,1.88,1.58,1.21c0.97-0.67,0-2.55,0-2.55s-0.47-1.09,0.43-0.66c0,0,1.53,2.69,0.48,3.88
	c-1.45,1.65-2.26-0.5-2.5,0.6c-0.23,1.1-0.84,2.74-2.17,1.65c-1.33-1.09-1.58-4.06-1.58-4.06S50.57,39.35,50.81,40.32z"/>
<polygon class="st1" points="48.15,84.02 49.72,81.47 52.75,84.26 50.69,87.72 48.38,85.72 46.63,88.02 43.17,84.75 45.17,81.47 "/>
<polygon class="st2" points="48.15,84.02 49.72,81.47 52.75,84.26 50.69,87.72 48.38,85.72 46.63,88.02 43.17,84.75 45.17,81.47 "/>
<path class="st1" d="M80.99,70.32l-4.97-28c0,0-0.42-1.76,0.48-1.39c0.91,0.36,11.45,11.45,13.15,24.73
	c1.7,13.27,0.85,25.21-10.79,30.61c0,0-6.12,3.09-22.61,0.36c0,0-2.12,4.06-5.94,3.27c-3.82-0.79-10.3-5.64-10.18-12.55
	c0.12-6.91,0.36-8.49,1.03-9.03c0.67-0.55,0.12,3.82,0.12,3.82s-0.12,7.88,1.88,10.12c2,2.24,5.33,3.82,7.39,2.97
	c2.16-0.89,3.94-1.88,4.85-9.09c0.32-2.52,1.03-4.57,1.79-6.29c2.51-5.65,7.55-7.71,9.65-9.35c2.46-1.91,5.28-4.6,5.35-6.79
	c0.12-4.06-0.36-13.52-8-23.7l1.82,18.49c0,0-0.01,2.8-0.94,0c-0.26-0.78-0.67-2.62-1.12-4.06l-1.82-19.27c0,0-0.48-4.06,0.97-2.55
	c1.45,1.52,11.03,12.67,11.27,25.46c0.09,4.65-0.2,7.38-0.24,9.35c-0.12,5.8-8.55,10.27-11.13,12.45c-1.74,1.47-3.37,3.07-3.9,4.26
	c-1.33,2.97-1.47,9.44-2.67,11.64c0,0,7.03,1.75,16-1.64c0,0,11.72-2.98,14.67-14.3c2.89-11.11,0.3-19.94-9.15-32.25l3.82,19.7
	C81.78,67.29,81.96,71.35,80.99,70.32"/>
<path class="st2" d="M80.99,70.32l-4.97-28c0,0-0.42-1.76,0.48-1.39c0.91,0.36,11.45,11.45,13.15,24.73
	c1.7,13.27,0.85,25.21-10.79,30.61c0,0-6.12,3.09-22.61,0.36c0,0-2.12,4.06-5.94,3.27c-3.82-0.79-10.3-5.64-10.18-12.55
	c0.12-6.91,0.36-8.49,1.03-9.03c0.67-0.55,0.12,3.82,0.12,3.82s-0.12,7.88,1.88,10.12c2,2.24,5.33,3.82,7.39,2.97
	c2.16-0.89,3.94-1.88,4.85-9.09c0.32-2.52,1.03-4.57,1.79-6.29c2.51-5.65,7.55-7.71,9.65-9.35c2.46-1.91,5.28-4.6,5.35-6.79
	c0.12-4.06-0.36-13.52-8-23.7l1.82,18.49c0,0-0.01,2.8-0.94,0c-0.26-0.78-0.67-2.62-1.12-4.06l-1.82-19.27c0,0-0.48-4.06,0.97-2.55
	c1.45,1.52,11.03,12.67,11.27,25.46c0.09,4.65-0.2,7.38-0.24,9.35c-0.12,5.8-8.55,10.27-11.13,12.45c-1.74,1.47-3.37,3.07-3.9,4.26
	c-1.33,2.97-1.47,9.44-2.67,11.64c0,0,7.03,1.75,16-1.64c0,0,11.72-2.98,14.67-14.3c2.89-11.11,0.3-19.94-9.15-32.25l3.82,19.7
	C81.78,67.29,81.96,71.35,80.99,70.32z"/>
<g>
	<defs>
		<path id="SVGID_1_" d="M26.04,12.82c0,0-3.67,13,1.65,17.78L43.5,17.81c0,0,0.26-3.67-0.53-5.11
			C42.97,12.7,41.57,16.88,26.04,12.82"/>
	</defs>
	<clipPath id="SVGID_00000167367584515000358600000011867484650006685312_">
		<use xlink:href="#SVGID_1_"  style="overflow:visible;"/>
	</clipPath>
	
		<linearGradient id="SVGID_00000175304221077342959390000007086398881520343733_" gradientUnits="userSpaceOnUse" x1="-1651.4125" y1="897.6248" x2="-1651.3068" y2="897.6248" gradientTransform="matrix(0 -169.267 169.267 0 -151905.1562 -279499)">
		<stop  offset="0" style="stop-color:#D82C34"/>
		<stop  offset="0.0877" style="stop-color:#C42930"/>
		<stop  offset="0.2611" style="stop-color:#A22529"/>
		<stop  offset="0.4382" style="stop-color:#872124"/>
		<stop  offset="0.6183" style="stop-color:#741F20"/>
		<stop  offset="0.8031" style="stop-color:#691D1E"/>
		<stop  offset="1" style="stop-color:#651D1D"/>
	</linearGradient>
	
		<rect x="22.37" y="12.7" style="clip-path:url(#SVGID_00000167367584515000358600000011867484650006685312_);fill:url(#SVGID_00000175304221077342959390000007086398881520343733_);" width="21.38" height="17.9"/>
</g>
<g>
	<path class="st2" d="M26.04,12.82c0,0-3.67,13,1.65,17.78L43.5,17.81c0,0,0.26-3.67-0.53-5.11C42.97,12.7,41.57,16.88,26.04,12.82z
		"/>
</g>
<g>
	
		<linearGradient id="SVGID_00000137120113606715664080000006064791994224823968_" gradientUnits="userSpaceOnUse" x1="-1654.1705" y1="899.4728" x2="-1654.0084" y2="899.4728" gradientTransform="matrix(72.1061 -124.8914 124.8914 72.1061 6971.521 -271435.4688)">
		<stop  offset="0" style="stop-color:#D82C34"/>
		<stop  offset="0.0877" style="stop-color:#C42930"/>
		<stop  offset="0.2611" style="stop-color:#A22529"/>
		<stop  offset="0.4382" style="stop-color:#872124"/>
		<stop  offset="0.6183" style="stop-color:#741F20"/>
		<stop  offset="0.8031" style="stop-color:#691D1E"/>
		<stop  offset="1" style="stop-color:#651D1D"/>
	</linearGradient>
	<path style="fill:url(#SVGID_00000137120113606715664080000006064791994224823968_);" d="M43.54,4.31c0,0-3.1-1.02-7.67-1.02
		c-2.29,0-4.94,0.26-7.75,1.02c0,0-2.08,1.71-2.03,7.53c0,0,11.27,3.24,15.6,0.85C45.38,10.67,43.54,4.31,43.54,4.31z M40.14,11.2
		c-0.97,0.58-2.6,0.93-4.55,0.93c-2.02,0-4.39-0.38-6.73-1.31c0,0-0.21-4.22,1.71-5.29c1.92-1.07,10.37,0,10.37,0
		S42.12,10.03,40.14,11.2z"/>
	<path class="st5" d="M40.14,11.2c-0.97,0.58-2.6,0.93-4.55,0.93c-2.02,0-4.39-0.38-6.73-1.31c0,0-0.21-4.22,1.71-5.29
		c1.92-1.07,10.37,0,10.37,0S42.12,10.03,40.14,11.2z"/>
</g>
<g>
	<defs>
		<path id="SVGID_00000101784523088304371690000013415007005793700283_" d="M44.84,5.43C45.54,9.71,44,11.41,44,11.41
			c1.75,6.79,0,7.32,0,7.32L27.1,32.29c-3.1-1.36-3.58-8.53-3.58-8.53l-5.35,4.65c0,0-7.31,18.27-8.27,22.99
			c-0.96,4.72,3.9-0.45,3.9-0.45c25.91-26.77,37.14-29.88,37.14-29.88C64.78,26.94,87.26,50.1,89.03,51.4
			c1.76,1.3,3.53,3.45,2.35-1.09c-1.18-4.54-7.96-21.85-7.96-21.85C70.86,10.45,50.83,0.19,50.83,0.19
			C47.09,1.58,44.84,5.43,44.84,5.43"/>
	</defs>
	<clipPath id="SVGID_00000144320544285440033730000012146058580182738879_">
		<use xlink:href="#SVGID_00000101784523088304371690000013415007005793700283_"  style="overflow:visible;"/>
	</clipPath>
	
		<linearGradient id="SVGID_00000051363208908684398790000018395550222967469981_" gradientUnits="userSpaceOnUse" x1="-1649.4286" y1="899.567" x2="-1649.3229" y2="899.567" gradientTransform="matrix(0 -503.0443 503.0443 0 -452471.3125 -829682.25)">
		<stop  offset="0" style="stop-color:#D82C34"/>
		<stop  offset="0.0877" style="stop-color:#C42930"/>
		<stop  offset="0.2611" style="stop-color:#A22529"/>
		<stop  offset="0.4382" style="stop-color:#872124"/>
		<stop  offset="0.6183" style="stop-color:#741F20"/>
		<stop  offset="0.8031" style="stop-color:#691D1E"/>
		<stop  offset="1" style="stop-color:#651D1D"/>
	</linearGradient>
	
		<rect x="8.94" y="0.19" style="clip-path:url(#SVGID_00000144320544285440033730000012146058580182738879_);fill:url(#SVGID_00000051363208908684398790000018395550222967469981_);" width="83.62" height="55.93"/>
</g>
<g>
	<path class="st7" d="M89.03,51.4c-1.76-1.3-24.25-24.46-38.09-30.33c0,0-11.23,3.12-37.14,29.88c0,0-4.86,5.17-3.9,0.45
		c0.96-4.72,8.27-23,8.27-23l5.35-4.65c0,0,0.48,7.17,3.58,8.53L44,18.73c0,0,1.75-0.53,0-7.32c0,0,1.54-1.71,0.84-5.98
		c0,0,2.24-3.85,5.98-5.24c0,0,20.04,10.26,32.59,28.26c0,0,6.79,17.31,7.96,21.85C92.55,54.85,90.79,52.7,89.03,51.4z"/>
</g>
<g>
	<path class="st8" d="M56.8,17.58c-0.41-0.26-0.73-0.55-0.94-0.85c-0.21-0.3-0.35-0.61-0.41-0.92c-0.06-0.31-0.05-0.61,0.02-0.91
		c0.07-0.3,0.19-0.57,0.35-0.82c0.2-0.32,0.45-0.59,0.74-0.81c0.29-0.22,0.6-0.38,0.93-0.48c0.33-0.1,0.66-0.12,1.01-0.08
		c0.34,0.04,0.68,0.16,1,0.37c0.29,0.19,0.53,0.4,0.71,0.66c0.18,0.25,0.3,0.52,0.36,0.81c0.06,0.29,0.06,0.59-0.01,0.89
		c-0.07,0.31-0.19,0.61-0.38,0.91l-0.77,1.21l0.72,0.46c0.1,0.06,0.15,0.13,0.16,0.21c0.01,0.08-0.01,0.16-0.06,0.24l-0.39,0.62
		c-0.03,0.05-0.1,0.1-0.18,0.14c-0.09,0.04-0.18,0.03-0.27-0.03L56.8,17.58z M58.83,10.95c0.1-0.16,0.25-0.27,0.44-0.31
		c0.19-0.04,0.37-0.01,0.55,0.1c0.18,0.11,0.29,0.26,0.33,0.45c0.04,0.19,0.01,0.36-0.09,0.53c-0.1,0.16-0.25,0.27-0.44,0.31
		c-0.19,0.04-0.37,0.01-0.55-0.1c-0.18-0.11-0.29-0.26-0.33-0.45C58.7,11.29,58.73,11.11,58.83,10.95z M58.24,16.83l0.58-0.91
		c0.25-0.39,0.36-0.73,0.35-1.03c-0.02-0.3-0.17-0.54-0.45-0.72c-0.12-0.08-0.26-0.13-0.4-0.15c-0.14-0.02-0.29-0.01-0.44,0.02
		c-0.15,0.04-0.29,0.1-0.42,0.2c-0.14,0.09-0.26,0.22-0.36,0.39c-0.12,0.19-0.19,0.37-0.22,0.54c-0.02,0.17-0.01,0.33,0.04,0.48
		c0.05,0.15,0.13,0.28,0.24,0.41c0.11,0.12,0.23,0.23,0.38,0.32L58.24,16.83z M60.42,11.95c0.1-0.16,0.25-0.27,0.44-0.31
		c0.19-0.04,0.37-0.01,0.55,0.1c0.18,0.11,0.29,0.26,0.33,0.45c0.04,0.19,0.01,0.36-0.09,0.53c-0.1,0.16-0.25,0.27-0.44,0.31
		c-0.19,0.04-0.37,0.01-0.55-0.1s-0.29-0.26-0.33-0.45C60.29,12.29,60.32,12.12,60.42,11.95z"/>
	<path class="st8" d="M59.31,19.17c-0.1-0.06-0.16-0.14-0.16-0.22c-0.01-0.08,0.01-0.16,0.05-0.22l0.38-0.6
		c0.05-0.08,0.12-0.13,0.2-0.17c0.09-0.04,0.18-0.03,0.27,0.03l1.42,0.9L63.31,16l1.17,0.74l-0.54,0.86
		c0.52-0.19,1.05-0.27,1.58-0.22c0.54,0.04,1.01,0.2,1.42,0.46c0.38,0.24,0.67,0.52,0.88,0.83c0.21,0.31,0.34,0.64,0.39,1
		c0.05,0.35,0.03,0.72-0.07,1.09c-0.1,0.38-0.27,0.75-0.5,1.11l-1.17,1.84L59.31,19.17z M66.42,21.2c0.18-0.29,0.3-0.54,0.36-0.78
		c0.06-0.23,0.07-0.44,0.03-0.63c-0.04-0.19-0.12-0.36-0.25-0.51c-0.13-0.15-0.29-0.29-0.48-0.41c-0.22-0.14-0.48-0.24-0.78-0.29
		c-0.29-0.05-0.6-0.04-0.91,0.01c-0.31,0.05-0.62,0.17-0.92,0.34c-0.3,0.17-0.58,0.4-0.82,0.7l3.38,2.14L66.42,21.2z M66.98,16.11
		c0.1-0.16,0.25-0.26,0.44-0.31c0.19-0.04,0.37-0.01,0.54,0.1c0.18,0.11,0.29,0.26,0.33,0.45c0.04,0.19,0.02,0.37-0.09,0.53
		c-0.1,0.16-0.25,0.27-0.44,0.31c-0.19,0.04-0.37,0.01-0.55-0.11c-0.17-0.11-0.28-0.25-0.32-0.45
		C66.84,16.45,66.87,16.27,66.98,16.11z"/>
	<path class="st8" d="M70.05,25.98c-0.42-0.27-0.74-0.55-0.95-0.85c-0.21-0.3-0.35-0.61-0.41-0.91c-0.06-0.31-0.05-0.61,0.02-0.91
		s0.19-0.57,0.35-0.82c0.2-0.32,0.45-0.59,0.74-0.81c0.29-0.22,0.6-0.38,0.92-0.48c0.33-0.1,0.66-0.12,1.01-0.08
		c0.34,0.04,0.68,0.16,1,0.37c0.3,0.19,0.54,0.41,0.72,0.66c0.18,0.25,0.3,0.52,0.35,0.81c0.06,0.29,0.05,0.58-0.01,0.89
		c-0.07,0.31-0.19,0.61-0.38,0.91l-1.42,2.24c-0.27,0.43-0.57,0.75-0.89,0.97c-0.32,0.22-0.66,0.35-1.01,0.39
		c-0.35,0.04-0.72,0-1.1-0.12c-0.38-0.12-0.76-0.3-1.15-0.54c-0.14-0.09-0.3-0.2-0.46-0.32c-0.17-0.12-0.35-0.26-0.53-0.43l0.8-1.09
		c0.18,0.15,0.36,0.29,0.53,0.42c0.17,0.13,0.32,0.23,0.44,0.31c0.19,0.12,0.38,0.22,0.57,0.3c0.19,0.08,0.37,0.12,0.55,0.13
		c0.18,0,0.35-0.04,0.52-0.13c0.17-0.09,0.34-0.24,0.5-0.46L70.05,25.98z M71.49,25.23l0.58-0.91c0.25-0.39,0.36-0.73,0.34-1.04
		c-0.02-0.3-0.17-0.54-0.44-0.71c-0.12-0.08-0.26-0.13-0.4-0.15c-0.14-0.02-0.29-0.01-0.44,0.02c-0.15,0.03-0.29,0.1-0.43,0.19
		c-0.14,0.09-0.26,0.22-0.36,0.39c-0.12,0.19-0.19,0.37-0.22,0.54c-0.02,0.17-0.01,0.33,0.04,0.48c0.05,0.15,0.13,0.29,0.24,0.41
		c0.11,0.12,0.24,0.23,0.38,0.32L71.49,25.23z"/>
	<path class="st8" d="M75.36,29.11c-0.19,0.31-0.42,0.57-0.67,0.78c-0.25,0.21-0.52,0.37-0.81,0.46c-0.29,0.09-0.59,0.12-0.9,0.08
		c-0.31-0.04-0.62-0.16-0.93-0.35c-0.13-0.08-0.25-0.16-0.35-0.24c-0.1-0.08-0.19-0.15-0.26-0.22c-0.04-0.04-0.08-0.07-0.12-0.11
		c-0.04-0.04-0.08-0.07-0.12-0.12l0.87-1.08l0.25,0.24c0.07,0.07,0.15,0.13,0.23,0.2c0.08,0.07,0.16,0.12,0.24,0.17
		c0.3,0.19,0.56,0.22,0.78,0.1c0.22-0.13,0.45-0.37,0.68-0.74l2.41-3.8l1.16,0.74L75.36,29.11z"/>
</g>
</svg>
