<?xml version="1.0" encoding="utf-8"?>
<!-- Generator: Adobe Illustrator 27.0.0, SVG Export Plug-In . SVG Version: 6.00 Build 0)  -->
<svg version="1.1" id="Layer_1" xmlns="http://www.w3.org/2000/svg" xmlns:xlink="http://www.w3.org/1999/xlink" x="0px" y="0px"
	 viewBox="0 0 371 220" style="enable-background:new 0 0 371 220;" xml:space="preserve">
<style type="text/css">
	.st0{fill:#FFFFFF;}
	.st1{fill:#FDEDEF;}
	.st2{fill:none;stroke:#EE4A62;stroke-width:2;stroke-linecap:round;stroke-linejoin:round;}
	.st3{fill:none;stroke:#EE4A62;stroke-width:2;stroke-miterlimit:10;}
	.st4{fill:#525252;}
	.st5{fill:#EF5269;}
</style>
<g>
	<path shape-rendering="crispEdges" class="st0" d="M60,70c0-27.61,22.39-50,50-50h191c5.52,0,10,4.48,10,10v40
		c0,27.61-22.39,50-50,50H70c-5.52,0-10-4.48-10-10V70z"/>
	<circle class="st1" cx="119" cy="70" r="30"/>
	<path class="st2" d="M126.7,61.84c-0.27,3.61-3.01,6.56-6.02,6.56c-3.01,0-5.75-2.95-6.01-6.56c-0.27-3.76,2.39-6.56,6.01-6.56
		C124.31,55.28,126.98,58.15,126.7,61.84z"/>
	<path class="st3" d="M120.69,72.78c-5.95,0-11.98,3.28-13.1,9.47c-0.14,0.75,0.29,1.46,1.07,1.46h24.06c0.78,0,1.2-0.72,1.07-1.46
		C132.67,76.06,126.64,72.78,120.69,72.78z"/>
	<path class="st2" d="M107.02,64.03v7.66 M110.84,67.86h-7.66"/>
	<g>
		<path class="st4" d="M171.2,85.5c0,0.06-0.01,0.11-0.04,0.15c-0.03,0.05-0.07,0.07-0.13,0.08c-0.16,0.02-0.37,0.04-0.65,0.04
			c-0.27,0.01-0.56,0.01-0.88,0.03c-0.31,0.01-0.63,0.02-0.94,0.02s-0.6,0-0.85,0c-1.2,0-2.1-0.24-2.71-0.73s-0.91-1.3-0.91-2.43
			v-6.54c0-1.13,0.3-1.94,0.91-2.43s1.51-0.73,2.71-0.73c0.25,0,0.53,0,0.84,0.01c0.31,0.01,0.62,0.01,0.93,0.02
			c0.31,0.01,0.6,0.02,0.87,0.03s0.5,0.03,0.68,0.04c0.06,0.01,0.1,0.04,0.13,0.08c0.03,0.05,0.04,0.1,0.04,0.15v0.85
			c0,0.14-0.06,0.2-0.19,0.2h-3.28c-0.45,0-0.82,0.03-1.09,0.09c-0.27,0.06-0.48,0.16-0.63,0.31c-0.15,0.14-0.25,0.33-0.3,0.55
			c-0.05,0.23-0.08,0.5-0.08,0.82v2.36h5.22c0.09,0,0.17,0.03,0.24,0.1s0.1,0.15,0.1,0.24v0.65c0,0.09-0.03,0.17-0.1,0.24
			s-0.15,0.1-0.24,0.1h-5.22v2.86c0,0.33,0.03,0.6,0.08,0.82c0.05,0.22,0.15,0.4,0.3,0.54c0.15,0.14,0.36,0.24,0.63,0.31
			c0.27,0.06,0.63,0.09,1.09,0.09h3.28c0.12,0,0.19,0.07,0.19,0.2V85.5z"/>
		<path class="st4" d="M180.45,85.36c0,0.09-0.03,0.17-0.1,0.24s-0.15,0.1-0.24,0.1h-0.82c-0.09,0-0.17-0.03-0.24-0.1
			s-0.1-0.15-0.1-0.24v-5.59c0-0.43-0.04-0.79-0.11-1.08c-0.07-0.29-0.19-0.52-0.34-0.69c-0.15-0.17-0.35-0.29-0.59-0.37
			c-0.24-0.07-0.52-0.11-0.83-0.11c-0.36,0-0.74,0.06-1.12,0.19c-0.39,0.12-0.78,0.28-1.17,0.48v7.17c0,0.09-0.03,0.17-0.1,0.24
			c-0.07,0.07-0.15,0.1-0.24,0.1h-0.83c-0.09,0-0.17-0.03-0.23-0.1c-0.06-0.07-0.09-0.15-0.09-0.24v-8.67
			c0-0.09,0.03-0.17,0.09-0.24c0.06-0.07,0.14-0.1,0.23-0.1h0.85c0.09,0,0.17,0.03,0.23,0.1c0.06,0.07,0.09,0.15,0.09,0.24v0.32
			c0.48-0.26,0.92-0.46,1.33-0.59s0.87-0.2,1.38-0.2c1.03,0,1.78,0.31,2.25,0.92c0.47,0.61,0.71,1.48,0.71,2.62V85.36z"/>
		<path class="st4" d="M186.96,77.24c0,0.19-0.12,0.29-0.36,0.29c-0.4,0-0.78,0.05-1.15,0.16c-0.37,0.11-0.77,0.29-1.2,0.55v7.12
			c0,0.09-0.03,0.17-0.1,0.24c-0.07,0.07-0.15,0.1-0.24,0.1h-0.83c-0.09,0-0.17-0.03-0.23-0.1c-0.06-0.07-0.09-0.15-0.09-0.24v-8.67
			c0-0.09,0.03-0.17,0.09-0.24c0.06-0.07,0.14-0.1,0.23-0.1h0.8c0.09,0,0.17,0.03,0.23,0.1c0.06,0.07,0.09,0.15,0.09,0.24v0.36
			c0.43-0.29,0.84-0.5,1.23-0.63c0.39-0.12,0.78-0.19,1.16-0.19c0.24,0,0.36,0.1,0.36,0.31V77.24z"/>
		<path class="st4" d="M195.83,81.67c0,0.62-0.08,1.19-0.24,1.7c-0.16,0.51-0.4,0.95-0.71,1.31s-0.71,0.64-1.19,0.84
			c-0.48,0.2-1.03,0.3-1.65,0.3s-1.17-0.1-1.64-0.3c-0.47-0.2-0.86-0.48-1.18-0.84s-0.56-0.8-0.71-1.31
			c-0.16-0.51-0.24-1.08-0.24-1.7v-1.29c0-0.62,0.08-1.19,0.24-1.7c0.16-0.51,0.4-0.95,0.71-1.31c0.32-0.36,0.71-0.64,1.18-0.84
			s1.02-0.3,1.64-0.3s1.17,0.1,1.65,0.3c0.48,0.2,0.87,0.48,1.19,0.84c0.32,0.36,0.56,0.8,0.71,1.31c0.16,0.51,0.24,1.08,0.24,1.7
			V81.67z M194.34,80.38c0-0.87-0.18-1.56-0.54-2.07c-0.36-0.51-0.95-0.77-1.75-0.77c-0.79,0-1.37,0.25-1.73,0.76
			c-0.36,0.5-0.54,1.2-0.54,2.08v1.29c0,0.87,0.18,1.56,0.54,2.07c0.36,0.51,0.94,0.77,1.74,0.77c0.79,0,1.37-0.25,1.74-0.76
			s0.55-1.2,0.55-2.08V80.38z"/>
		<path class="st4" d="M199.51,85.36c0,0.09-0.03,0.17-0.08,0.24c-0.06,0.07-0.13,0.1-0.22,0.1h-0.88c-0.09,0-0.16-0.03-0.22-0.1
			s-0.08-0.15-0.08-0.24V73.24c0-0.09,0.03-0.17,0.08-0.23c0.06-0.06,0.13-0.09,0.22-0.09h0.88c0.09,0,0.16,0.03,0.22,0.09
			c0.06,0.06,0.08,0.14,0.08,0.23V85.36z"/>
		<path class="st4" d="M203.65,85.36c0,0.09-0.03,0.17-0.08,0.24c-0.06,0.07-0.13,0.1-0.22,0.1h-0.88c-0.09,0-0.16-0.03-0.22-0.1
			s-0.08-0.15-0.08-0.24V73.24c0-0.09,0.03-0.17,0.08-0.23c0.06-0.06,0.13-0.09,0.22-0.09h0.88c0.09,0,0.16,0.03,0.22,0.09
			c0.06,0.06,0.08,0.14,0.08,0.23V85.36z"/>
		<path class="st4" d="M213.34,81.13c0,0.25-0.11,0.37-0.32,0.37h-5.7v0.24c0,1.01,0.2,1.72,0.6,2.14c0.4,0.42,0.99,0.63,1.77,0.63
			c0.5,0,1.03-0.02,1.59-0.05c0.56-0.03,1.04-0.08,1.44-0.14h0.08c0.07,0,0.13,0.02,0.19,0.05c0.06,0.03,0.08,0.1,0.08,0.19v0.58
			c0,0.11-0.02,0.2-0.07,0.26c-0.05,0.06-0.14,0.1-0.27,0.13c-0.49,0.09-0.97,0.16-1.45,0.21c-0.48,0.05-1.01,0.08-1.59,0.08
			c-0.49,0-0.96-0.07-1.43-0.2c-0.46-0.13-0.88-0.35-1.23-0.66c-0.36-0.31-0.65-0.73-0.87-1.25c-0.22-0.52-0.33-1.18-0.33-1.97
			v-1.53c0-1.22,0.32-2.19,0.97-2.91c0.65-0.71,1.58-1.07,2.8-1.07c0.62,0,1.17,0.09,1.63,0.28s0.85,0.45,1.17,0.8
			c0.31,0.35,0.55,0.77,0.71,1.26c0.16,0.49,0.24,1.04,0.24,1.64V81.13z M211.83,80.21c0-0.96-0.18-1.65-0.55-2.06
			c-0.37-0.41-0.93-0.61-1.67-0.61c-0.74,0-1.3,0.22-1.69,0.65c-0.39,0.43-0.59,1.1-0.59,2.02v0.15h4.5V80.21z"/>
		<path class="st4" d="M222.27,85.14c0,0.11-0.02,0.2-0.06,0.26s-0.14,0.1-0.3,0.13c-0.53,0.1-1.06,0.18-1.57,0.22
			s-1.03,0.07-1.56,0.07c-0.63,0-1.18-0.1-1.65-0.3c-0.46-0.2-0.85-0.48-1.16-0.84s-0.53-0.8-0.68-1.33
			c-0.15-0.52-0.22-1.1-0.22-1.73V80.4c0-1.34,0.31-2.37,0.92-3.09c0.61-0.72,1.54-1.08,2.79-1.08c0.26,0,0.58,0.01,0.94,0.04
			s0.72,0.07,1.05,0.13v-3.16c0-0.09,0.03-0.17,0.09-0.23c0.06-0.06,0.14-0.09,0.23-0.09h0.87c0.09,0,0.16,0.03,0.22,0.09
			c0.06,0.06,0.08,0.14,0.08,0.23V85.14z M220.77,77.66c-0.28-0.06-0.62-0.09-1-0.1c-0.39-0.01-0.71-0.02-0.99-0.02
			c-0.42,0-0.77,0.06-1.05,0.19c-0.28,0.12-0.51,0.31-0.68,0.55s-0.29,0.54-0.37,0.9c-0.07,0.36-0.11,0.76-0.11,1.22v1.22
			c0,0.93,0.16,1.64,0.48,2.14c0.32,0.5,0.89,0.75,1.73,0.75c0.29,0,0.63-0.01,1-0.03c0.37-0.02,0.7-0.04,0.99-0.07V77.66z"/>
		<path class="st4" d="M236.94,76.86c0,0.71-0.12,1.31-0.36,1.79s-0.57,0.87-0.99,1.17c-0.43,0.3-0.93,0.52-1.5,0.65
			c-0.58,0.13-1.21,0.2-1.9,0.2c-0.27,0-0.57-0.01-0.88-0.03s-0.59-0.04-0.82-0.06v4.78c0,0.09-0.03,0.17-0.08,0.24
			c-0.06,0.07-0.13,0.1-0.22,0.1h-0.92c-0.09,0-0.16-0.03-0.22-0.1s-0.08-0.15-0.08-0.24V73.51c0-0.25,0.14-0.39,0.41-0.42
			c0.36-0.05,0.8-0.08,1.31-0.1c0.51-0.02,1.01-0.03,1.51-0.03c0.69,0,1.33,0.07,1.9,0.2c0.58,0.13,1.08,0.34,1.5,0.63
			c0.42,0.29,0.76,0.67,0.99,1.14c0.24,0.47,0.36,1.05,0.36,1.73V76.86z M235.39,76.64c0-0.86-0.26-1.47-0.78-1.84
			c-0.52-0.36-1.33-0.54-2.43-0.54c-0.26,0-0.56,0.01-0.89,0.02c-0.33,0.01-0.6,0.03-0.81,0.05v4.98c0.1,0,0.23,0.01,0.37,0.02
			c0.15,0.01,0.3,0.02,0.46,0.03c0.16,0.01,0.31,0.01,0.47,0.02c0.15,0.01,0.29,0.01,0.4,0.01c1.17,0,2-0.2,2.48-0.59
			c0.49-0.4,0.73-1.04,0.73-1.92V76.64z"/>
		<path class="st4" d="M240.58,74.52c0,0.09-0.03,0.17-0.1,0.24c-0.07,0.07-0.15,0.1-0.24,0.1h-0.87c-0.09,0-0.17-0.03-0.24-0.1
			c-0.07-0.07-0.1-0.15-0.1-0.24v-1.36c0-0.09,0.03-0.17,0.1-0.24c0.07-0.07,0.15-0.1,0.24-0.1h0.87c0.09,0,0.17,0.03,0.24,0.1
			c0.07,0.07,0.1,0.15,0.1,0.24V74.52z M240.54,85.36c0,0.09-0.03,0.17-0.1,0.24c-0.07,0.07-0.15,0.1-0.24,0.1h-0.82
			c-0.09,0-0.17-0.03-0.24-0.1c-0.07-0.07-0.1-0.15-0.1-0.24v-8.67c0-0.09,0.03-0.17,0.1-0.24c0.07-0.07,0.15-0.1,0.24-0.1h0.82
			c0.09,0,0.17,0.03,0.24,0.1c0.07,0.07,0.1,0.15,0.1,0.24V85.36z"/>
		<path class="st4" d="M250.32,81.67c0,0.62-0.08,1.19-0.24,1.7c-0.16,0.51-0.4,0.95-0.71,1.31s-0.71,0.64-1.19,0.84
			c-0.48,0.2-1.03,0.3-1.65,0.3s-1.17-0.1-1.64-0.3c-0.47-0.2-0.86-0.48-1.18-0.84s-0.56-0.8-0.71-1.31
			c-0.16-0.51-0.24-1.08-0.24-1.7v-1.29c0-0.62,0.08-1.19,0.24-1.7c0.16-0.51,0.4-0.95,0.71-1.31c0.32-0.36,0.71-0.64,1.18-0.84
			s1.02-0.3,1.64-0.3s1.17,0.1,1.65,0.3c0.48,0.2,0.87,0.48,1.19,0.84c0.32,0.36,0.56,0.8,0.71,1.31c0.16,0.51,0.24,1.08,0.24,1.7
			V81.67z M248.82,80.38c0-0.87-0.18-1.56-0.54-2.07c-0.36-0.51-0.95-0.77-1.75-0.77c-0.79,0-1.37,0.25-1.73,0.76
			c-0.36,0.5-0.54,1.2-0.54,2.08v1.29c0,0.87,0.18,1.56,0.54,2.07c0.36,0.51,0.94,0.77,1.74,0.77c0.79,0,1.37-0.25,1.74-0.76
			s0.55-1.2,0.55-2.08V80.38z"/>
		<path class="st4" d="M259.48,85.36c0,0.09-0.03,0.17-0.1,0.24s-0.15,0.1-0.24,0.1h-0.82c-0.09,0-0.17-0.03-0.24-0.1
			s-0.1-0.15-0.1-0.24v-5.59c0-0.43-0.04-0.79-0.11-1.08c-0.07-0.29-0.19-0.52-0.34-0.69c-0.15-0.17-0.35-0.29-0.59-0.37
			c-0.24-0.07-0.52-0.11-0.83-0.11c-0.36,0-0.74,0.06-1.12,0.19c-0.39,0.12-0.78,0.28-1.17,0.48v7.17c0,0.09-0.03,0.17-0.1,0.24
			c-0.07,0.07-0.15,0.1-0.24,0.1h-0.83c-0.09,0-0.17-0.03-0.23-0.1c-0.06-0.07-0.09-0.15-0.09-0.24v-8.67
			c0-0.09,0.03-0.17,0.09-0.24c0.06-0.07,0.14-0.1,0.23-0.1h0.85c0.09,0,0.17,0.03,0.23,0.1s0.09,0.15,0.09,0.24v0.32
			c0.48-0.26,0.92-0.46,1.33-0.59c0.41-0.13,0.87-0.2,1.38-0.2c1.03,0,1.78,0.31,2.25,0.92c0.47,0.61,0.71,1.48,0.71,2.62V85.36z"/>
		<path class="st4" d="M269,81.13c0,0.25-0.11,0.37-0.32,0.37h-5.7v0.24c0,1.01,0.2,1.72,0.6,2.14c0.4,0.42,0.99,0.63,1.77,0.63
			c0.5,0,1.03-0.02,1.59-0.05c0.56-0.03,1.04-0.08,1.44-0.14h0.08c0.07,0,0.13,0.02,0.19,0.05c0.06,0.03,0.08,0.1,0.08,0.19v0.58
			c0,0.11-0.02,0.2-0.07,0.26c-0.05,0.06-0.14,0.1-0.27,0.13c-0.49,0.09-0.97,0.16-1.45,0.21c-0.48,0.05-1.01,0.08-1.59,0.08
			c-0.49,0-0.96-0.07-1.43-0.2c-0.46-0.13-0.88-0.35-1.23-0.66c-0.36-0.31-0.65-0.73-0.87-1.25c-0.22-0.52-0.33-1.18-0.33-1.97
			v-1.53c0-1.22,0.32-2.19,0.97-2.91c0.65-0.71,1.58-1.07,2.8-1.07c0.62,0,1.17,0.09,1.63,0.28s0.85,0.45,1.17,0.8
			c0.31,0.35,0.55,0.77,0.71,1.26c0.16,0.49,0.24,1.04,0.24,1.64V81.13z M267.49,80.21c0-0.96-0.18-1.65-0.55-2.06
			c-0.37-0.41-0.93-0.61-1.67-0.61c-0.74,0-1.3,0.22-1.69,0.65c-0.39,0.43-0.59,1.1-0.59,2.02v0.15h4.5V80.21z"/>
		<path class="st4" d="M278.25,81.13c0,0.25-0.11,0.37-0.32,0.37h-5.7v0.24c0,1.01,0.2,1.72,0.6,2.14c0.4,0.42,0.99,0.63,1.77,0.63
			c0.5,0,1.03-0.02,1.59-0.05c0.56-0.03,1.04-0.08,1.44-0.14h0.08c0.07,0,0.13,0.02,0.19,0.05c0.06,0.03,0.08,0.1,0.08,0.19v0.58
			c0,0.11-0.02,0.2-0.07,0.26c-0.05,0.06-0.14,0.1-0.27,0.13c-0.49,0.09-0.97,0.16-1.45,0.21c-0.48,0.05-1.01,0.08-1.59,0.08
			c-0.49,0-0.96-0.07-1.43-0.2c-0.46-0.13-0.88-0.35-1.23-0.66c-0.36-0.31-0.65-0.73-0.87-1.25c-0.22-0.52-0.33-1.18-0.33-1.97
			v-1.53c0-1.22,0.32-2.19,0.97-2.91c0.65-0.71,1.58-1.07,2.8-1.07c0.62,0,1.17,0.09,1.63,0.28s0.85,0.45,1.17,0.8
			c0.31,0.35,0.55,0.77,0.71,1.26c0.16,0.49,0.24,1.04,0.24,1.64V81.13z M276.74,80.21c0-0.96-0.18-1.65-0.55-2.06
			c-0.37-0.41-0.93-0.61-1.67-0.61c-0.74,0-1.3,0.22-1.69,0.65c-0.39,0.43-0.59,1.1-0.59,2.02v0.15h4.5V80.21z"/>
		<path class="st4" d="M284.49,77.24c0,0.19-0.12,0.29-0.36,0.29c-0.4,0-0.78,0.05-1.15,0.16c-0.37,0.11-0.77,0.29-1.2,0.55v7.12
			c0,0.09-0.03,0.17-0.1,0.24c-0.07,0.07-0.15,0.1-0.24,0.1h-0.83c-0.09,0-0.17-0.03-0.23-0.1c-0.06-0.07-0.09-0.15-0.09-0.24v-8.67
			c0-0.09,0.03-0.17,0.09-0.24c0.06-0.07,0.14-0.1,0.23-0.1h0.8c0.09,0,0.17,0.03,0.23,0.1c0.06,0.07,0.09,0.15,0.09,0.24v0.36
			c0.43-0.29,0.84-0.5,1.23-0.63c0.39-0.12,0.78-0.19,1.16-0.19c0.24,0,0.36,0.1,0.36,0.31V77.24z"/>
		<path class="st4" d="M292.02,83.36c0,0.43-0.08,0.8-0.23,1.11c-0.15,0.31-0.37,0.57-0.65,0.77s-0.61,0.35-1,0.44
			c-0.39,0.1-0.82,0.14-1.3,0.14c-0.16,0-0.35,0-0.57-0.01c-0.22-0.01-0.45-0.02-0.7-0.04c-0.24-0.02-0.49-0.05-0.74-0.08
			c-0.25-0.03-0.48-0.07-0.68-0.13c-0.24-0.06-0.36-0.17-0.36-0.34v-0.59c0-0.08,0.03-0.14,0.08-0.19s0.13-0.07,0.22-0.07h0.07
			c0.2,0.02,0.43,0.05,0.67,0.07c0.24,0.02,0.49,0.04,0.74,0.06c0.25,0.02,0.48,0.03,0.7,0.04c0.21,0.01,0.4,0.02,0.56,0.02
			c0.56,0,0.97-0.08,1.26-0.25c0.28-0.17,0.42-0.49,0.42-0.95c0-0.26-0.09-0.49-0.27-0.68c-0.18-0.19-0.52-0.44-1-0.73l-1.72-1.02
			c-0.52-0.32-0.94-0.67-1.26-1.05c-0.32-0.38-0.48-0.84-0.48-1.39c0-0.44,0.08-0.81,0.24-1.1c0.16-0.29,0.37-0.52,0.65-0.7
			c0.27-0.18,0.59-0.3,0.97-0.37c0.37-0.07,0.78-0.1,1.22-0.1c0.48,0,0.94,0.02,1.39,0.06c0.45,0.04,0.87,0.09,1.27,0.16
			c0.21,0.03,0.32,0.15,0.32,0.34v0.56c0,0.19-0.1,0.29-0.29,0.29h-0.05c-0.29-0.02-0.69-0.05-1.18-0.08
			c-0.49-0.03-0.98-0.05-1.45-0.05c-0.48,0-0.86,0.06-1.15,0.17s-0.43,0.39-0.43,0.82c0,0.26,0.1,0.48,0.29,0.67
			s0.49,0.39,0.88,0.62l1.68,1c0.7,0.42,1.19,0.83,1.46,1.22C291.88,82.41,292.02,82.86,292.02,83.36z"/>
	</g>
	<g>
		<path class="st5" d="M176.71,59.73c0,0.12-0.05,0.23-0.14,0.32c-0.09,0.09-0.2,0.14-0.32,0.14h-1.52v3.38
			c0,0.12-0.04,0.23-0.13,0.32c-0.08,0.09-0.19,0.14-0.31,0.14h-3.06c-0.12,0-0.23-0.05-0.31-0.14c-0.08-0.09-0.13-0.2-0.13-0.32
			v-3.38h-6.65c-0.12,0-0.23-0.05-0.32-0.14c-0.09-0.09-0.14-0.2-0.14-0.32V57.5c0-0.23,0.08-0.47,0.25-0.71l7.27-9.52
			c0.08-0.11,0.16-0.19,0.25-0.24c0.09-0.05,0.21-0.08,0.35-0.08h2.46c0.12,0,0.23,0.05,0.32,0.14c0.09,0.09,0.14,0.2,0.14,0.32
			v9.75h1.52c0.12,0,0.23,0.05,0.32,0.14c0.09,0.09,0.14,0.2,0.14,0.32V59.73z M170.91,52.09c0-0.09-0.03-0.14-0.09-0.14
			c-0.02,0-0.04,0.02-0.07,0.05l-3.61,4.92c-0.03,0.03-0.05,0.08-0.05,0.14c0,0.06,0.05,0.09,0.14,0.09h3.68V52.09z"/>
		<path class="st5" d="M191.22,56.49c0,1.38-0.14,2.56-0.43,3.54c-0.28,0.98-0.69,1.78-1.22,2.4s-1.18,1.08-1.94,1.37
			c-0.77,0.29-1.64,0.44-2.62,0.44c-0.98,0-1.86-0.15-2.62-0.44c-0.77-0.29-1.41-0.75-1.94-1.37c-0.53-0.62-0.93-1.42-1.21-2.4
			c-0.28-0.98-0.41-2.16-0.41-3.54v-1.98c0-1.38,0.14-2.56,0.41-3.54c0.28-0.98,0.68-1.79,1.21-2.42c0.53-0.63,1.18-1.09,1.94-1.38
			c0.77-0.29,1.64-0.44,2.62-0.44c0.98,0,1.85,0.15,2.62,0.44c0.77,0.29,1.41,0.75,1.94,1.38c0.53,0.63,0.93,1.43,1.22,2.42
			c0.28,0.98,0.43,2.16,0.43,3.54V56.49z M187.29,54.51c0-0.9-0.06-1.65-0.17-2.23c-0.12-0.58-0.28-1.04-0.48-1.38
			s-0.45-0.57-0.72-0.7c-0.28-0.13-0.58-0.2-0.9-0.2c-0.32,0-0.62,0.07-0.9,0.2c-0.28,0.13-0.51,0.36-0.71,0.7s-0.36,0.8-0.47,1.38
			c-0.12,0.58-0.17,1.33-0.17,2.23v1.98c0,0.9,0.06,1.65,0.17,2.23c0.11,0.58,0.27,1.04,0.47,1.38c0.2,0.34,0.44,0.57,0.71,0.69
			c0.28,0.12,0.58,0.18,0.9,0.18c0.32,0,0.62-0.06,0.9-0.18c0.28-0.12,0.52-0.35,0.72-0.69c0.21-0.34,0.37-0.8,0.48-1.38
			c0.12-0.58,0.17-1.33,0.17-2.23V54.51z"/>
		<path class="st5" d="M206.05,56.49c0,1.38-0.14,2.56-0.43,3.54c-0.28,0.98-0.69,1.78-1.22,2.4s-1.18,1.08-1.94,1.37
			c-0.77,0.29-1.64,0.44-2.62,0.44c-0.98,0-1.86-0.15-2.62-0.44s-1.42-0.75-1.94-1.37c-0.53-0.62-0.93-1.42-1.21-2.4
			c-0.28-0.98-0.41-2.16-0.41-3.54v-1.98c0-1.38,0.14-2.56,0.41-3.54c0.28-0.98,0.68-1.79,1.21-2.42c0.53-0.63,1.18-1.09,1.94-1.38
			c0.77-0.29,1.64-0.44,2.62-0.44c0.98,0,1.85,0.15,2.62,0.44c0.77,0.29,1.41,0.75,1.94,1.38c0.53,0.63,0.93,1.43,1.22,2.42
			c0.28,0.98,0.43,2.16,0.43,3.54V56.49z M202.12,54.51c0-0.9-0.06-1.65-0.17-2.23c-0.12-0.58-0.28-1.04-0.48-1.38
			s-0.45-0.57-0.72-0.7c-0.28-0.13-0.58-0.2-0.9-0.2c-0.32,0-0.62,0.07-0.9,0.2c-0.28,0.13-0.51,0.36-0.71,0.7s-0.36,0.8-0.47,1.38
			c-0.11,0.58-0.17,1.33-0.17,2.23v1.98c0,0.9,0.06,1.65,0.17,2.23c0.12,0.58,0.27,1.04,0.47,1.38c0.2,0.34,0.44,0.57,0.71,0.69
			c0.28,0.12,0.58,0.18,0.9,0.18c0.32,0,0.62-0.06,0.9-0.18c0.28-0.12,0.52-0.35,0.72-0.69c0.21-0.34,0.37-0.8,0.48-1.38
			c0.12-0.58,0.17-1.33,0.17-2.23V54.51z"/>
		<path class="st5" d="M220.45,56.07c0,0.12-0.05,0.21-0.14,0.28c-0.09,0.06-0.2,0.09-0.32,0.09h-3.91v3.89
			c0,0.12-0.03,0.23-0.09,0.32c-0.06,0.09-0.15,0.14-0.28,0.14h-2.07c-0.12,0-0.21-0.05-0.28-0.14c-0.06-0.09-0.09-0.2-0.09-0.32
			v-3.89h-3.89c-0.12,0-0.23-0.03-0.32-0.09c-0.09-0.06-0.14-0.15-0.14-0.28V54c0-0.12,0.05-0.21,0.14-0.28
			c0.09-0.06,0.2-0.09,0.32-0.09h3.89v-3.91c0-0.12,0.03-0.23,0.09-0.32c0.06-0.09,0.15-0.14,0.28-0.14h2.07
			c0.12,0,0.21,0.05,0.28,0.14c0.06,0.09,0.09,0.2,0.09,0.32v3.91h3.91c0.12,0,0.23,0.03,0.32,0.09c0.09,0.06,0.14,0.15,0.14,0.28
			V56.07z"/>
	</g>
</g>
</svg>
