<?xml version="1.0" encoding="utf-8"?>
<!-- Generator: Adobe Illustrator 27.0.0, SVG Export Plug-In . SVG Version: 6.00 Build 0)  -->
<svg version="1.1" id="Layer_1" xmlns="http://www.w3.org/2000/svg" xmlns:xlink="http://www.w3.org/1999/xlink" x="0px" y="0px"
	 viewBox="0 0 360 420" style="enable-background:new 0 0 360 420;" xml:space="preserve">
<style type="text/css">
	.st0{fill:#FFFFFF;}
	.st1{fill:none;}
	.st2{display:none;fill:#181818;}
	.st3{display:none;fill:#89898B;}
	.st4{display:none;fill:#FFFFFF;}
	.st5{fill:#107742;}
	.st6{fill:none;stroke:#FFFFFF;stroke-width:0.15;stroke-miterlimit:10;}
	
		.st7{clip-path:url(#SVGID_00000166642498107333682330000015439176539843310764_);fill:url(#SVGID_00000052072671634236792880000017651588600560475528_);}
	.st8{fill:url(#SVGID_00000123400006522586280360000014262693064036744323_);}
	
		.st9{clip-path:url(#SVGID_00000031893520666185304350000013959480932922617998_);fill:url(#SVGID_00000140695878011773223850000006308845884394642365_);}
	.st10{fill:none;stroke:#FFFFFF;stroke-width:0.1;stroke-miterlimit:10;}
	.st11{fill:#FFFDFD;}
	.st12{fill:#89898B;}
</style>
<g>
	<g>
		
			<image style="overflow:visible;opacity:0.28;enable-background:new    ;" width="256" height="316" xlink:href="1117463E.png"  transform="matrix(1 0 0 1 56 18)">
		</image>
		<g>
			<path class="st0" d="M70,40c0-5.5,4.5-10,10-10h170c22.1,0,40,17.9,40,40v230c0,5.5-4.5,10-10,10H150c-44.2,0-80-35.8-80-80V40z"
				/>
		</g>
	</g>
	<rect x="135" y="69" class="st1" width="90" height="90"/>
	<path class="st2" d="M113.6,199v-16.5h4.7c1.1,0,2,0.2,2.8,0.6c0.8,0.4,1.4,0.9,1.8,1.6c0.4,0.7,0.7,1.6,0.7,2.6
		c0,0.9-0.2,1.6-0.5,2.3s-0.8,1.2-1.5,1.6s-1.4,0.7-2.2,0.8l5.5,6.9h-2.6l-5.1-6.7h-1.6v6.7L113.6,199L113.6,199z M115.6,190.5h2.1
		c0.8,0,1.5-0.1,2-0.4s1-0.6,1.3-1.1s0.5-1.1,0.5-1.7c0-1-0.3-1.8-1-2.3c-0.7-0.6-1.6-0.8-2.8-0.8h-2.1
		C115.6,184.1,115.6,190.5,115.6,190.5z M131.3,199.3c-0.9,0-1.8-0.2-2.6-0.7s-1.4-1.1-1.8-1.9c-0.4-0.8-0.7-1.8-0.7-2.8
		s0.2-2,0.7-2.8c0.4-0.8,1-1.5,1.8-1.9c0.8-0.5,1.6-0.7,2.6-0.7c0.9,0,1.7,0.2,2.4,0.6c0.7,0.4,1.3,0.9,1.7,1.6v-1.9h1.9V199h-1.9
		v-1.9c-0.4,0.7-1,1.3-1.7,1.6S132.2,199.3,131.3,199.3z M131.8,197.6c0.7,0,1.3-0.2,1.9-0.5c0.5-0.3,1-0.8,1.3-1.3
		c0.3-0.6,0.5-1.2,0.5-1.9s-0.1-1.4-0.5-1.9c-0.3-0.6-0.7-1-1.3-1.3c-0.5-0.3-1.1-0.5-1.9-0.5c-0.7,0-1.3,0.2-1.9,0.5
		c-0.5,0.3-1,0.8-1.3,1.3s-0.5,1.2-0.5,1.9s0.1,1.4,0.5,1.9c0.3,0.6,0.7,1,1.3,1.3C130.5,197.5,131.1,197.6,131.8,197.6z
		 M141.8,204.2l2.8-5.8l-4.9-9.7h2.2l3.8,7.8l3.4-7.8h2.2l-7.3,15.4L141.8,204.2L141.8,204.2z M163.2,199.3c-0.8,0-1.6-0.1-2.2-0.3
		c-0.6-0.2-1.2-0.5-1.7-0.9s-0.9-0.7-1.1-1c-0.3-0.3-0.5-0.6-0.7-0.8l1.1-1.6c0.1,0.2,0.4,0.4,0.6,0.7c0.3,0.3,0.6,0.6,1,0.9
		s0.8,0.5,1.3,0.7s1.1,0.3,1.7,0.3c0.6,0,1.2-0.1,1.6-0.3c0.5-0.2,0.9-0.5,1.2-0.9s0.4-0.9,0.4-1.6c0-0.5-0.1-1-0.3-1.3
		s-0.5-0.7-0.9-1s-0.8-0.5-1.3-0.7s-1.1-0.4-1.6-0.7c-0.4-0.2-0.8-0.4-1.3-0.6c-0.4-0.2-0.8-0.5-1.2-0.8s-0.6-0.7-0.9-1.2
		s-0.3-1-0.3-1.6s0.1-1.2,0.4-1.7c0.2-0.6,0.6-1,1-1.4s0.9-0.8,1.5-1s1.2-0.4,2-0.4c0.6,0,1.2,0.1,1.8,0.3s1.1,0.5,1.5,0.8
		s0.8,0.6,1.1,1l-0.9,1.5c-0.2-0.3-0.5-0.6-0.8-0.8c-0.3-0.3-0.7-0.5-1.2-0.6s-0.9-0.2-1.4-0.2c-0.6,0-1.1,0.1-1.6,0.4
		c-0.4,0.2-0.8,0.6-1,1s-0.3,0.8-0.3,1.3c0,0.4,0.1,0.8,0.2,1.1c0.2,0.3,0.4,0.5,0.7,0.7s0.6,0.4,1,0.5s0.7,0.3,1.1,0.4
		c0.7,0.3,1.3,0.5,1.9,0.8c0.6,0.3,1.1,0.6,1.6,1s0.8,0.8,1.1,1.4c0.3,0.5,0.4,1.2,0.4,1.9c0,1-0.2,1.9-0.7,2.6
		c-0.5,0.7-1.1,1.2-1.9,1.6C165.2,199.1,164.3,199.3,163.2,199.3z M176.5,199.3c-0.9,0-1.8-0.2-2.6-0.7s-1.4-1.1-1.8-1.9
		s-0.7-1.8-0.7-2.8s0.2-2,0.7-2.8c0.4-0.8,1-1.5,1.8-1.9s1.6-0.7,2.6-0.7c0.9,0,1.7,0.2,2.4,0.6c0.7,0.4,1.3,0.9,1.7,1.6v-1.9h1.9
		V199h-1.9v-1.9c-0.4,0.7-1,1.3-1.7,1.6S177.4,199.3,176.5,199.3z M177.1,197.6c0.7,0,1.3-0.2,1.9-0.5c0.5-0.3,1-0.8,1.3-1.3
		c0.3-0.6,0.5-1.2,0.5-1.9s-0.1-1.4-0.5-1.9c-0.3-0.6-0.7-1-1.3-1.3c-0.5-0.3-1.1-0.5-1.9-0.5c-0.7,0-1.3,0.2-1.9,0.5
		c-0.5,0.3-1,0.8-1.3,1.3s-0.5,1.2-0.5,1.9s0.1,1.4,0.5,1.9c0.3,0.6,0.7,1,1.3,1.3C175.7,197.5,176.4,197.6,177.1,197.6z M186.6,199
		v-10.2h1.9v1.3c0.3-0.5,0.8-0.9,1.4-1.2c0.6-0.3,1.3-0.5,2.1-0.5s1.5,0.2,2.1,0.5s1,0.8,1.3,1.4c0.3,0.6,0.5,1.4,0.5,2.2v6.4H194
		v-6c0-1-0.2-1.7-0.7-2.2s-1.1-0.8-1.9-0.8c-0.6,0-1.1,0.1-1.5,0.4c-0.4,0.2-0.7,0.5-0.9,0.9s-0.3,0.8-0.3,1.2v6.5h-2.1V199z
		 M204.5,199.3c-0.8,0-1.5-0.1-2.2-0.4c-0.7-0.3-1.3-0.7-1.8-1.1c-0.5-0.5-0.9-1.1-1.2-1.7c-0.3-0.7-0.4-1.4-0.4-2.1
		c0-0.8,0.1-1.5,0.4-2.1c0.3-0.7,0.7-1.2,1.2-1.7s1.1-0.9,1.8-1.2s1.4-0.4,2.2-0.4c0.7,0,1.3,0.1,1.9,0.3c0.6,0.2,1.1,0.5,1.5,0.8
		l-0.7,1.3c-0.7-0.5-1.5-0.8-2.5-0.8c-0.8,0-1.4,0.2-2,0.5s-1,0.8-1.4,1.4c-0.3,0.6-0.5,1.2-0.5,1.9s0.2,1.4,0.5,1.9
		c0.3,0.6,0.8,1,1.4,1.4c0.6,0.3,1.3,0.5,2,0.5c0.5,0,0.9-0.1,1.3-0.2c0.4-0.1,0.8-0.3,1.1-0.6l0.7,1.3c-0.4,0.3-0.9,0.6-1.5,0.8
		C205.9,199.2,205.2,199.3,204.5,199.3z M211,199v-17.2h1.9v8.3c0.3-0.5,0.8-0.9,1.4-1.2s1.3-0.5,2.1-0.5s1.5,0.2,2.1,0.5
		s1,0.8,1.3,1.4c0.3,0.6,0.5,1.4,0.5,2.2v6.4h-1.9v-6c0-1-0.2-1.7-0.7-2.2s-1.1-0.8-1.9-0.8c-0.6,0-1.1,0.1-1.5,0.4
		c-0.4,0.2-0.7,0.5-0.9,0.9s-0.3,0.8-0.3,1.2v6.5H211V199z M228.9,199.3c-1.1,0-2-0.2-2.9-0.7s-1.5-1.1-2-1.9
		c-0.5-0.8-0.7-1.7-0.7-2.8c0-0.8,0.1-1.5,0.4-2.1s0.7-1.2,1.2-1.7s1.1-0.9,1.7-1.2s1.4-0.4,2.1-0.4c1.1,0,2,0.2,2.8,0.7
		c0.8,0.4,1.4,1.1,1.9,1.8c0.4,0.8,0.7,1.7,0.7,2.7c0,0.1,0,0.2,0,0.2s0,0.1,0,0.2h-8.8c0,0.7,0.2,1.3,0.5,1.9
		c0.3,0.6,0.8,1,1.3,1.3c0.6,0.3,1.2,0.5,2,0.5c0.7,0,1.3-0.1,1.9-0.4s1-0.7,1.4-1.3l1.4,0.7c-0.5,0.8-1.2,1.4-2,1.9
		C230.9,199.1,230,199.3,228.9,199.3z M225.4,192.7h6.8c-0.1-0.5-0.3-1-0.6-1.4s-0.7-0.7-1.2-0.9s-1-0.3-1.6-0.3s-1.1,0.1-1.6,0.3
		s-0.9,0.5-1.2,0.9C225.7,191.7,225.5,192.1,225.4,192.7z M236,199l7-8.7h-6.2v-1.5h9.6l-7,8.7h6.8v1.5H236z"/>
	<path class="st3" d="M107.4,224.6V235H106v-7.7l-3.4,7.7h-1l-3.5-7.8v7.8h-1.4v-10.4h1.5l3.8,8.6l3.8-8.6H107.4z M110.4,225.4
		c-0.3,0-0.5-0.1-0.7-0.3s-0.3-0.4-0.3-0.7s0.1-0.5,0.3-0.7c0.2-0.2,0.4-0.3,0.7-0.3c0.2,0,0.5,0.1,0.6,0.3c0.2,0.2,0.3,0.4,0.3,0.7
		s-0.1,0.5-0.3,0.7C110.9,225.4,110.7,225.4,110.4,225.4z M111.1,226.8v8.2h-1.4v-8.2H111.1z M117.4,226.6c1,0,1.8,0.3,2.4,0.9
		c0.6,0.6,0.9,1.5,0.9,2.6v4.8h-1.3v-4.6c0-0.8-0.2-1.4-0.6-1.9c-0.4-0.4-1-0.7-1.7-0.7s-1.3,0.2-1.7,0.7c-0.4,0.4-0.6,1.1-0.6,2
		v4.6h-1.4v-8.2h1.4v1.2c0.3-0.4,0.6-0.7,1.1-1C116.3,226.7,116.8,226.6,117.4,226.6z M123.7,225.4c-0.3,0-0.5-0.1-0.7-0.3
		s-0.3-0.4-0.3-0.7s0.1-0.5,0.3-0.7c0.2-0.2,0.4-0.3,0.7-0.3c0.2,0,0.5,0.1,0.6,0.3c0.2,0.2,0.3,0.4,0.3,0.7s-0.1,0.5-0.3,0.7
		C124.2,225.4,123.9,225.4,123.7,225.4z M124.3,226.8v8.2H123v-8.2H124.3z M136.6,226.6c0.6,0,1.2,0.1,1.7,0.4
		c0.5,0.3,0.9,0.6,1.2,1.2c0.3,0.5,0.4,1.2,0.4,1.9v4.9h-1.4v-4.6c0-0.8-0.2-1.4-0.6-1.9c-0.4-0.4-0.9-0.7-1.6-0.7
		c-0.7,0-1.3,0.2-1.7,0.7c-0.4,0.4-0.6,1.1-0.6,2v4.5h-1.4v-4.6c0-0.8-0.2-1.4-0.6-1.9c-0.4-0.4-0.9-0.7-1.6-0.7
		c-0.7,0-1.3,0.2-1.7,0.7c-0.4,0.4-0.6,1.1-0.6,2v4.5h-1.4v-8.2h1.4v1.2c0.3-0.4,0.6-0.8,1.1-1s1-0.4,1.5-0.4c0.7,0,1.3,0.1,1.8,0.5
		s0.9,0.8,1.2,1.4c0.2-0.6,0.6-1,1.1-1.4C135.3,226.8,135.9,226.6,136.6,226.6z M149.2,233.7l2.6-7h1.5L150,235h-1.6l-3.2-8.2h1.5
		L149.2,233.7z M162,230.6c0,0.3,0,0.5,0,0.8h-6.6c0.1,0.8,0.3,1.4,0.8,1.9c0.5,0.4,1.1,0.7,1.9,0.7c0.6,0,1.1-0.1,1.5-0.4
		c0.4-0.3,0.7-0.6,0.8-1.1h1.5c-0.2,0.8-0.7,1.4-1.3,1.9c-0.7,0.5-1.5,0.7-2.5,0.7c-0.8,0-1.5-0.2-2.1-0.5c-0.6-0.4-1.1-0.9-1.4-1.5
		c-0.4-0.6-0.5-1.4-0.5-2.2s0.2-1.6,0.5-2.2s0.8-1.1,1.4-1.5c0.6-0.4,1.3-0.5,2.1-0.5s1.5,0.2,2.1,0.5s1.1,0.8,1.4,1.4
		C161.9,229.1,162,229.8,162,230.6z M160.6,230.3c0-0.5-0.1-1-0.4-1.3c-0.2-0.4-0.5-0.7-0.9-0.9s-0.8-0.3-1.3-0.3
		c-0.7,0-1.3,0.2-1.8,0.7c-0.5,0.4-0.8,1.1-0.8,1.8H160.6L160.6,230.3z M167.8,226.6c1,0,1.8,0.3,2.4,0.9c0.6,0.6,0.9,1.5,0.9,2.6
		v4.8h-1.4v-4.6c0-0.8-0.2-1.4-0.6-1.9c-0.4-0.4-1-0.7-1.7-0.7s-1.3,0.2-1.7,0.7c-0.4,0.4-0.6,1.1-0.6,2v4.6h-1.4v-8.2h1.4v1.2
		c0.3-0.4,0.6-0.7,1.1-1C166.8,226.7,167.3,226.6,167.8,226.6z M174.1,225.4c-0.3,0-0.5-0.1-0.7-0.3s-0.3-0.4-0.3-0.7
		s0.1-0.5,0.3-0.7s0.4-0.3,0.7-0.3c0.2,0,0.5,0.1,0.6,0.3c0.2,0.2,0.3,0.4,0.3,0.7s-0.1,0.5-0.3,0.7
		C174.6,225.4,174.4,225.4,174.1,225.4z M174.8,226.8v8.2h-1.4v-8.2H174.8z M176.6,230.9c0-0.8,0.2-1.6,0.5-2.2s0.8-1.1,1.4-1.5
		c0.6-0.4,1.3-0.5,2-0.5s1.4,0.1,1.9,0.5s0.9,0.7,1.2,1.2v-1.5h1.4v8.2h-1.4v-1.5c-0.3,0.5-0.7,0.9-1.2,1.2s-1.1,0.5-1.9,0.5
		c-0.7,0-1.4-0.2-2-0.5s-1.1-0.9-1.4-1.5C176.8,232.4,176.6,231.7,176.6,230.9z M183.6,230.9c0-0.6-0.1-1.2-0.4-1.6
		c-0.2-0.5-0.6-0.8-1-1.1c-0.4-0.2-0.9-0.4-1.4-0.4s-1,0.1-1.4,0.4s-0.8,0.6-1,1.1s-0.4,1-0.4,1.6s0.1,1.2,0.4,1.6
		c0.2,0.5,0.6,0.8,1,1.1c0.4,0.2,0.9,0.4,1.4,0.4s1-0.1,1.4-0.4c0.4-0.2,0.8-0.6,1-1.1C183.4,232,183.6,231.5,183.6,230.9z
		 M197.1,226.6c0.6,0,1.2,0.1,1.7,0.4c0.5,0.3,0.9,0.6,1.2,1.2s0.4,1.2,0.4,1.9v4.9H199v-4.6c0-0.8-0.2-1.4-0.6-1.9
		c-0.4-0.4-0.9-0.7-1.6-0.7c-0.7,0-1.3,0.2-1.7,0.7c-0.4,0.4-0.6,1.1-0.6,2v4.5h-1.4v-4.6c0-0.8-0.2-1.4-0.6-1.9
		c-0.4-0.4-0.9-0.7-1.6-0.7c-0.7,0-1.3,0.2-1.7,0.7c-0.4,0.4-0.6,1.1-0.6,2v4.5h-1.4v-8.2h1.4v1.2c0.3-0.4,0.6-0.8,1.1-1
		s1-0.4,1.5-0.4c0.7,0,1.3,0.1,1.8,0.5s0.9,0.8,1.2,1.4c0.2-0.6,0.6-1,1.1-1.4C195.9,226.8,196.5,226.6,197.1,226.6z M210.7,226.6
		c1,0,1.8,0.3,2.4,0.9c0.6,0.6,0.9,1.5,0.9,2.6v4.8h-1.4v-4.6c0-0.8-0.2-1.4-0.6-1.9c-0.4-0.4-1-0.7-1.7-0.7s-1.3,0.2-1.7,0.7
		c-0.4,0.4-0.6,1.1-0.6,2v4.6h-1.4v-8.2h1.4v1.2c0.3-0.4,0.6-0.7,1.1-1C209.6,226.7,210.2,226.6,210.7,226.6z M219.9,235.1
		c-0.8,0-1.5-0.2-2.1-0.5c-0.6-0.4-1.1-0.9-1.5-1.5s-0.5-1.4-0.5-2.2s0.2-1.6,0.5-2.2c0.4-0.6,0.9-1.1,1.5-1.5s1.3-0.5,2.1-0.5
		s1.5,0.2,2.1,0.5s1.1,0.8,1.5,1.5c0.4,0.6,0.6,1.4,0.6,2.2s-0.2,1.6-0.6,2.2c-0.4,0.6-0.9,1.1-1.5,1.5S220.7,235.1,219.9,235.1z
		 M219.9,233.9c0.5,0,0.9-0.1,1.4-0.4c0.4-0.2,0.8-0.6,1-1c0.3-0.5,0.4-1,0.4-1.7s-0.1-1.2-0.4-1.7c-0.3-0.5-0.6-0.8-1-1
		s-0.9-0.4-1.4-0.4s-1,0.1-1.4,0.4c-0.4,0.2-0.7,0.6-1,1s-0.4,1-0.4,1.7s0.1,1.2,0.4,1.7c0.2,0.5,0.6,0.8,1,1
		C218.9,233.8,219.4,233.9,219.9,233.9z M228.8,235.1c-0.6,0-1.2-0.1-1.7-0.3s-0.9-0.5-1.2-0.9s-0.4-0.8-0.5-1.3h1.4
		c0,0.4,0.2,0.7,0.6,1c0.4,0.3,0.8,0.4,1.4,0.4c0.5,0,0.9-0.1,1.2-0.4c0.3-0.2,0.4-0.5,0.4-0.9s-0.2-0.6-0.5-0.8s-0.8-0.4-1.5-0.5
		c-0.6-0.2-1.1-0.3-1.5-0.5s-0.7-0.4-1-0.7s-0.4-0.8-0.4-1.3c0-0.4,0.1-0.8,0.4-1.1c0.2-0.4,0.6-0.6,1.1-0.8s1-0.3,1.6-0.3
		c0.9,0,1.6,0.2,2.2,0.7c0.6,0.5,0.9,1.1,0.9,1.9h-1.4c0-0.4-0.2-0.8-0.5-1c-0.3-0.3-0.7-0.4-1.3-0.4c-0.5,0-0.9,0.1-1.2,0.3
		s-0.4,0.5-0.4,0.8s0.1,0.5,0.3,0.7s0.4,0.3,0.7,0.4c0.3,0.1,0.6,0.2,1.1,0.4c0.6,0.2,1.1,0.3,1.4,0.5c0.4,0.1,0.7,0.4,0.9,0.7
		c0.3,0.3,0.4,0.7,0.4,1.2c0,0.4-0.1,0.9-0.4,1.2s-0.6,0.6-1.1,0.9C229.9,235,229.4,235.1,228.8,235.1z M235.4,227.9v4.9
		c0,0.4,0.1,0.7,0.2,0.9c0.2,0.2,0.5,0.2,0.9,0.2h1v1.2h-1.2c-0.8,0-1.3-0.2-1.7-0.5c-0.4-0.4-0.6-0.9-0.6-1.7V228h-1v-1.1h1.1v-2.1
		h1.4v2.1h2.1v1.1L235.4,227.9L235.4,227.9z M240.6,228.1c0.2-0.5,0.6-0.8,1-1.1s1-0.4,1.6-0.4v1.4h-0.4c-1.5,0-2.3,0.8-2.3,2.5v4.5
		h-1.4v-8.2h1.4L240.6,228.1L240.6,228.1z M252.1,226.8v8.2h-1.4v-1.2c-0.3,0.4-0.6,0.8-1.1,1s-1,0.4-1.5,0.4
		c-0.6,0-1.2-0.1-1.7-0.4c-0.5-0.3-0.9-0.7-1.2-1.2s-0.4-1.2-0.4-1.9v-4.8h1.4v4.6c0,0.8,0.2,1.4,0.6,1.9c0.4,0.4,1,0.6,1.7,0.6
		s1.3-0.2,1.7-0.7c0.4-0.4,0.6-1.1,0.6-2v-4.5L252.1,226.8L252.1,226.8z M253.9,230.9c0-0.8,0.2-1.6,0.5-2.2s0.8-1.1,1.4-1.5
		c0.6-0.4,1.3-0.5,2-0.5c0.6,0,1.2,0.1,1.8,0.4c0.5,0.3,1,0.7,1.3,1.1v-4.4h1.4V235h-1.4v-1.5c-0.3,0.5-0.7,0.9-1.2,1.2
		s-1.1,0.5-1.9,0.5c-0.7,0-1.4-0.2-2-0.5c-0.6-0.4-1.1-0.9-1.4-1.5C254.1,232.4,253.9,231.7,253.9,230.9z M260.9,230.9
		c0-0.6-0.1-1.2-0.4-1.6c-0.2-0.5-0.6-0.8-1-1.1c-0.4-0.2-0.9-0.4-1.4-0.4s-1,0.1-1.4,0.4c-0.4,0.2-0.8,0.6-1,1.1s-0.4,1-0.4,1.6
		s0.1,1.2,0.4,1.6c0.2,0.5,0.6,0.8,1,1.1c0.4,0.2,0.9,0.4,1.4,0.4s1-0.1,1.4-0.4c0.4-0.2,0.8-0.6,1-1.1S260.9,231.5,260.9,230.9z
		 M140.5,256.6c0,0.3,0,0.5,0,0.8h-6.6c0.1,0.8,0.3,1.5,0.8,1.9c0.5,0.5,1.1,0.7,1.9,0.7c0.6,0,1.1-0.1,1.5-0.4s0.7-0.6,0.8-1.1h1.5
		c-0.2,0.8-0.7,1.4-1.3,1.9c-0.7,0.5-1.5,0.7-2.5,0.7c-0.8,0-1.5-0.2-2.1-0.5c-0.6-0.4-1.1-0.8-1.4-1.5c-0.4-0.6-0.5-1.4-0.5-2.2
		s0.2-1.6,0.5-2.2s0.8-1.1,1.4-1.5c0.6-0.4,1.3-0.5,2.1-0.5s1.5,0.2,2.1,0.5s1.1,0.8,1.4,1.4C140.4,255.1,140.5,255.8,140.5,256.6z
		 M139.1,256.3c0-0.5-0.1-1-0.4-1.3c-0.2-0.4-0.5-0.7-0.9-0.9s-0.8-0.3-1.3-0.3c-0.7,0-1.3,0.2-1.8,0.7c-0.5,0.4-0.8,1.1-0.8,1.8
		H139.1z M146.6,261l-1.9-3.1l-1.9,3.1h-1.4l2.6-4.1l-2.6-4.1h1.5l1.9,3l1.9-3h1.4l-2.6,4.1l2.6,4.1H146.6z M157,256.6
		c0,0.3,0,0.5,0,0.8h-6.6c0.1,0.8,0.3,1.5,0.8,1.9c0.5,0.5,1.1,0.7,1.9,0.7c0.6,0,1.1-0.1,1.5-0.4s0.7-0.6,0.8-1.1h1.5
		c-0.2,0.8-0.7,1.4-1.3,1.9c-0.7,0.5-1.5,0.7-2.5,0.7c-0.8,0-1.5-0.2-2.1-0.5c-0.6-0.4-1.1-0.8-1.4-1.5c-0.4-0.6-0.5-1.4-0.5-2.2
		s0.2-1.6,0.5-2.2s0.8-1.1,1.4-1.5c0.6-0.4,1.3-0.5,2.1-0.5s1.5,0.2,2.1,0.5s1.1,0.8,1.4,1.4C156.8,255.1,157,255.8,157,256.6z
		 M155.6,256.3c0-0.5-0.1-1-0.4-1.3c-0.2-0.4-0.5-0.7-0.9-0.9s-0.8-0.3-1.3-0.3c-0.7,0-1.3,0.2-1.8,0.7c-0.5,0.4-0.8,1.1-0.8,1.8
		H155.6z M160.2,254.1c0.2-0.5,0.6-0.8,1-1.1s1-0.4,1.6-0.4v1.4h-0.4c-1.5,0-2.3,0.8-2.3,2.5v4.5h-1.4v-8.2h1.4L160.2,254.1
		L160.2,254.1z M167.9,256.9c0-0.9,0.2-1.6,0.5-2.2c0.3-0.6,0.8-1.1,1.4-1.5c0.6-0.4,1.3-0.5,2.1-0.5c1,0,1.8,0.2,2.5,0.7
		s1.1,1.2,1.3,2h-1.5c-0.1-0.5-0.4-0.9-0.8-1.2c-0.4-0.3-0.9-0.4-1.5-0.4c-0.8,0-1.4,0.3-1.9,0.8s-0.7,1.3-0.7,2.3
		c0,1,0.2,1.8,0.7,2.3s1.1,0.8,1.9,0.8c0.6,0,1.1-0.1,1.5-0.4s0.7-0.7,0.8-1.2h1.5c-0.2,0.8-0.7,1.5-1.3,2c-0.7,0.5-1.5,0.8-2.5,0.8
		c-0.8,0-1.5-0.2-2.1-0.5c-0.6-0.4-1.1-0.8-1.4-1.5S167.9,257.7,167.9,256.9z M178.2,251.4c-0.3,0-0.5-0.1-0.7-0.3s-0.3-0.4-0.3-0.7
		s0.1-0.5,0.3-0.7s0.4-0.3,0.7-0.3c0.2,0,0.5,0.1,0.6,0.3c0.2,0.2,0.3,0.4,0.3,0.7s-0.1,0.5-0.3,0.7
		C178.7,251.4,178.5,251.4,178.2,251.4z M178.9,252.8v8.2h-1.4v-8.2H178.9z M182.9,253.9v4.9c0,0.4,0.1,0.7,0.3,0.9
		c0.2,0.2,0.5,0.2,0.9,0.2h1v1.2h-1.2c-0.8,0-1.3-0.2-1.7-0.5s-0.6-0.9-0.6-1.7V254h-1.1v-1.1h1.1v-2.1h1.4v2.1h2.1v1.1h-2.2V253.9z
		 M186.1,256.9c0-0.8,0.2-1.6,0.5-2.2c0.3-0.6,0.8-1.1,1.4-1.5c0.6-0.4,1.3-0.5,2-0.5s1.4,0.1,1.9,0.5s0.9,0.7,1.2,1.2v-1.5h1.4v8.2
		h-1.4v-1.5c-0.3,0.5-0.7,0.9-1.2,1.2c-0.5,0.3-1.1,0.5-1.9,0.5c-0.7,0-1.4-0.2-2-0.5c-0.6-0.4-1.1-0.9-1.4-1.5
		C186.3,258.4,186.1,257.7,186.1,256.9z M193.1,256.9c0-0.6-0.1-1.2-0.4-1.6c-0.2-0.5-0.6-0.8-1-1.1c-0.4-0.2-0.9-0.4-1.4-0.4
		s-1,0.1-1.4,0.4s-0.8,0.6-1,1.1s-0.4,1-0.4,1.6s0.1,1.2,0.4,1.6c0.2,0.5,0.6,0.8,1,1.1c0.4,0.2,0.9,0.4,1.4,0.4s1-0.1,1.4-0.4
		c0.4-0.2,0.8-0.6,1-1.1C193,258,193.1,257.5,193.1,256.9z M198.5,253.9v4.9c0,0.4,0.1,0.7,0.3,0.9c0.2,0.2,0.5,0.2,0.9,0.2h1v1.2
		h-1.2c-0.8,0-1.3-0.2-1.7-0.5s-0.6-0.9-0.6-1.7V254H196v-1.1h1.1v-2.1h1.4v2.1h2.1v1.1h-2.1V253.9z M203,251.4
		c-0.3,0-0.5-0.1-0.7-0.3s-0.3-0.4-0.3-0.7s0.1-0.5,0.3-0.7s0.4-0.3,0.7-0.3c0.2,0,0.5,0.1,0.6,0.3c0.2,0.2,0.3,0.4,0.3,0.7
		s-0.1,0.5-0.3,0.7C203.4,251.4,203.2,251.4,203,251.4z M203.6,252.8v8.2h-1.4v-8.2H203.6z M209.5,261.1c-0.8,0-1.5-0.2-2.1-0.5
		c-0.6-0.4-1.1-0.8-1.5-1.5c-0.4-0.6-0.5-1.4-0.5-2.2c0-0.8,0.2-1.6,0.5-2.2c0.4-0.6,0.9-1.1,1.5-1.5s1.3-0.5,2.1-0.5
		s1.5,0.2,2.1,0.5s1.1,0.8,1.5,1.5c0.4,0.6,0.6,1.4,0.6,2.2s-0.2,1.6-0.6,2.2c-0.4,0.6-0.9,1.1-1.5,1.5S210.3,261.1,209.5,261.1z
		 M209.5,259.9c0.5,0,0.9-0.1,1.4-0.4c0.4-0.2,0.8-0.6,1-1c0.3-0.5,0.4-1,0.4-1.7s-0.1-1.2-0.4-1.7c-0.3-0.5-0.6-0.8-1-1
		s-0.9-0.4-1.4-0.4s-1,0.1-1.4,0.4c-0.4,0.2-0.7,0.6-1,1s-0.4,1-0.4,1.7s0.1,1.2,0.4,1.7c0.2,0.5,0.6,0.8,1,1
		C208.6,259.8,209.1,259.9,209.5,259.9z M219.6,252.6c1,0,1.8,0.3,2.4,0.9c0.6,0.6,0.9,1.5,0.9,2.6v4.9h-1.4v-4.6
		c0-0.8-0.2-1.4-0.6-1.9c-0.4-0.4-1-0.7-1.7-0.7s-1.3,0.2-1.7,0.7c-0.4,0.4-0.6,1.1-0.6,2v4.6h-1.4v-8.2h1.4v1.2
		c0.3-0.4,0.6-0.7,1.1-1C218.5,252.7,219,252.6,219.6,252.6z M225.6,261.1c-0.3,0-0.5-0.1-0.7-0.3c-0.2-0.2-0.3-0.4-0.3-0.7
		s0.1-0.5,0.3-0.7s0.4-0.3,0.7-0.3c0.2,0,0.5,0.1,0.6,0.3c0.2,0.2,0.3,0.4,0.3,0.7s-0.1,0.5-0.3,0.7
		C226,261,225.8,261.1,225.6,261.1z"/>
</g>
<g>
	<g>
		<path class="st4" d="M353.9,115.9c0.5,0,0.8-0.3,1-0.5l8.8-6.6c0.1-0.1,0.2-0.2,0.3-0.4c0.3-0.6,0.3-1.2,0-1.5
			c-0.2-0.3-0.6-0.5-0.9-0.5s-0.6,0.1-0.9,0.3c-2.1,1.2-8.8,6.5-9.1,6.8c-0.2,0.2-0.3,0.4-0.3,0.7c0,0.4,0,0.7,0.1,1
			C353,115.7,353.5,115.9,353.9,115.9"/>
		<path class="st4" d="M355.6,109.2c0.4,0.3,0.8,0.5,1.3,0.5s1.3-0.2,1.8-1.5c0.1,0,0.2,0,0.4,0c0.6,0,1.1-0.3,1.6-0.8
			c1.2-1.3,0-3.5-0.3-3.9c-0.1-0.2-0.2-0.3-0.4-0.4c-0.2-0.1-0.5-0.2-0.7-0.2c-0.4,0-0.7,0.2-0.9,0.5c-0.1,0.1-0.1,0.2-0.2,0.3
			c-0.2-0.2-0.4-0.2-0.7-0.2h-0.1c-0.4,0-0.7,0.2-0.9,0.5c-0.1,0.2-0.2,0.4-0.2,0.5c-0.3-0.3-0.7-0.3-0.8-0.3
			c-0.7,0-1.1,0.5-1.2,0.7s-0.2,0.4-0.1,0.5C354,105.9,354.2,108.2,355.6,109.2"/>
		<line class="st1" x1="221.8" y1="163.4" x2="221.8" y2="164.2"/>
		<path class="st5" d="M140,143.9c0,0-0.1-8.6,6.1-15.2c6.2-6.6,6.1-6.8,5.1-6.5c0,0-13,9.4-12.4,21.2c0.7,11.8,6.2,11.4,6.2,11.4
			s6.9,0.6,6.9-9.4C152,138.5,144.2,137.9,140,143.9 M145.8,150.3c-1.8,0.5-2.5-0.3-3.1-1.1c-0.5-0.7-0.6-1.5-0.3-2.2s3.1-2.3,4-2.3
			C148.6,144.9,151.2,148.7,145.8,150.3"/>
		<path class="st6" d="M140,143.9c0,0-0.1-8.6,6.1-15.2c6.2-6.6,6.1-6.8,5.1-6.5c0,0-13,9.4-12.4,21.2c0.7,11.8,6.2,11.4,6.2,11.4
			s6.9,0.6,6.9-9.4C152,138.5,144.2,137.9,140,143.9z M145.8,150.3c-1.8,0.5-2.5-0.3-3.1-1.1c-0.5-0.7-0.6-1.5-0.3-2.2
			s3.1-2.3,4-2.3C148.6,144.9,151.2,148.7,145.8,150.3z"/>
		<polygon class="st5" points="147.8,128 146,131.1 148.4,133.5 146.7,136.2 149.5,138.5 151.6,135.3 149,133.2 150.7,130.7 		"/>
		<polygon class="st6" points="147.8,128 146,131.1 148.4,133.5 146.7,136.2 149.5,138.5 151.6,135.3 149,133.2 150.7,130.7 		"/>
		<path class="st5" d="M154.7,139.8c0,0,3.3-4.2,7.3-4s3.4,4,3.4,4s1.1,17.3-25.7,24.2c0,0-1,1,2,0.3s15.8-1.1,22-8.6
			c6.2-7.6,7.3-27-3-26.6c0,0-3.2,0.5-6.2,4.3c0,0-3.9-10.3,5.2-19.4c0,0,6.6-7.7,8-2.8c0,0,1.9,2.9,1.8,18
			c-0.1,15.1,4.7,20.4,8.9,20.5c4.1,0.1,6-4.2,6-4.2s2.2-7.2-1.1-11.2c-0.8-1-1.5-1.8-1.8-1.6c-0.7,0.5-1.4,4-1.4,4s3,2.2,3,4.8
			c0,0-2.7,5.6-6,2s-3.6-12-3.6-12s-1.3-16.6-2.1-20.3c-0.8-3.8-3.7-9.3-10.4-2.9C154.3,114.6,150.4,128.4,154.7,139.8"/>
		<path class="st6" d="M154.7,139.8c0,0,3.3-4.2,7.3-4s3.4,4,3.4,4s1.1,17.3-25.7,24.2c0,0-1,1,2,0.3s15.8-1.1,22-8.6
			c6.2-7.6,7.3-27-3-26.6c0,0-3.2,0.5-6.2,4.3c0,0-3.9-10.3,5.2-19.4c0,0,6.6-7.7,8-2.8c0,0,1.9,2.9,1.8,18
			c-0.1,15.1,4.7,20.4,8.9,20.5c4.1,0.1,6-4.2,6-4.2s2.2-7.2-1.1-11.2c-0.8-1-1.5-1.8-1.8-1.6c-0.7,0.5-1.4,4-1.4,4s3,2.2,3,4.8
			c0,0-2.7,5.6-6,2s-3.6-12-3.6-12s-1.3-16.6-2.1-20.3c-0.8-3.8-3.7-9.3-10.4-2.9C154.3,114.6,150.4,128.4,154.7,139.8z"/>
		<path class="st5" d="M158.3,119.5c0,0.4,0.1,0.7,0.6,1c1.5,0.6,0.1-2,1.2,0.3c1,2.3,0.5,3.1,1.3,2.7c0.9-0.4-0.4-3.7,1.2-4.9
			c1.5-1.2-0.4,1.9,1.5-0.6c1.7-2.1-3.1-2.8-3.1,3.3c0,0-0.2-1.6-1-2.3C159.8,118.6,158.3,118,158.3,119.5"/>
		<path class="st6" d="M158.3,119.5c0,0.4,0.1,0.7,0.6,1c1.5,0.6,0.1-2,1.2,0.3c1,2.3,0.5,3.1,1.3,2.7c0.9-0.4-0.4-3.7,1.2-4.9
			c1.5-1.2-0.4,1.9,1.5-0.6c1.7-2.1-3.1-2.8-3.1,3.3c0,0-0.2-1.6-1-2.3C159.8,118.6,158.3,118,158.3,119.5z"/>
		<path class="st5" d="M188.6,116.4l-11.2,8.4c0,0-0.7,1-0.7-0.8c0,0,8.8-6.9,11.4-8.4C189.2,114.9,188.6,116.4,188.6,116.4"/>
		<path class="st6" d="M188.6,116.4l-11.2,8.4c0,0-0.7,1-0.7-0.8c0,0,8.8-6.9,11.4-8.4C189.2,114.9,188.6,116.4,188.6,116.4z"/>
		<path class="st5" d="M179.1,113.2c0,0-0.4,2.6,1.3,2.6c1.7-0.1,0.7-2.8,0.7-2.8s-0.3-1,0.3-1c0.6-0.1,0.7,1.2,0.7,1.2
			s0.6,1.7,1.6,1.1s0-2.4,0-2.4s-0.5-1,0.4-0.6c0,0,1.6,2.5,0.5,3.6c-1.5,1.5-2.3-0.5-2.5,0.6c-0.2,1-0.9,2.6-2.2,1.5
			c-1.3-1-1.6-3.8-1.6-3.8S178.9,112.3,179.1,113.2"/>
		<path class="st6" d="M179.1,113.2c0,0-0.4,2.6,1.3,2.6c1.7-0.1,0.7-2.8,0.7-2.8s-0.3-1,0.3-1c0.6-0.1,0.7,1.2,0.7,1.2
			s0.6,1.7,1.6,1.1s0-2.4,0-2.4s-0.5-1,0.4-0.6c0,0,1.6,2.5,0.5,3.6c-1.5,1.5-2.3-0.5-2.5,0.6c-0.2,1-0.9,2.6-2.2,1.5
			c-1.3-1-1.6-3.8-1.6-3.8S178.9,112.3,179.1,113.2z"/>
		<polygon class="st5" points="176.4,153.9 178,151.6 181.1,154.2 179,157.4 176.7,155.5 174.9,157.6 171.4,154.6 173.4,151.6 		"/>
		<polygon class="st6" points="176.4,153.9 178,151.6 181.1,154.2 179,157.4 176.7,155.5 174.9,157.6 171.4,154.6 173.4,151.6 		"/>
		<path class="st5" d="M209.8,141.2l-5-26.1c0,0-0.4-1.6,0.5-1.3c0.9,0.3,11.6,10.7,13.4,23c1.7,12.4,0.9,23.5-10.9,28.5
			c0,0-6.2,2.9-23,0.3c0,0-2.1,3.8-6,3.1s-10.5-5.3-10.3-11.7c0.1-6.5,0.4-7.9,1-8.4c0.7-0.5,0.1,3.6,0.1,3.6s-0.1,7.4,1.9,9.4
			c2,2.1,5.4,3.6,7.5,2.8c2.2-0.8,4-1.7,4.9-8.5c0.3-2.3,1-4.3,1.8-5.9c2.6-5.3,7.7-7.2,9.8-8.7c2.5-1.8,5.4-4.3,5.4-6.3
			c0.1-3.8-0.4-12.6-8.1-22.1l1.8,17.2c0,0,0,2.6-1,0c-0.3-0.7-0.7-2.4-1.1-3.8l-1.8-18c0,0-0.5-3.8,1-2.4s11.2,11.8,11.4,23.7
			c0.1,4.3-0.2,6.9-0.2,8.7c-0.1,5.4-8.7,9.6-11.3,11.6c-1.8,1.4-3.4,2.9-4,4c-1.3,2.8-1.5,8.8-2.7,10.9c0,0,7.1,1.6,16.2-1.5
			c0,0,11.9-2.8,14.9-13.3c2.9-10.4,0.3-18.6-9.3-30.1l3.9,18.4C210.6,138.3,210.8,142.1,209.8,141.2"/>
		<path class="st6" d="M209.8,141.2l-5-26.1c0,0-0.4-1.6,0.5-1.3c0.9,0.3,11.6,10.7,13.4,23c1.7,12.4,0.9,23.5-10.9,28.5
			c0,0-6.2,2.9-23,0.3c0,0-2.1,3.8-6,3.1s-10.5-5.3-10.3-11.7c0.1-6.5,0.4-7.9,1-8.4c0.7-0.5,0.1,3.6,0.1,3.6s-0.1,7.4,1.9,9.4
			c2,2.1,5.4,3.6,7.5,2.8c2.2-0.8,4-1.7,4.9-8.5c0.3-2.3,1-4.3,1.8-5.9c2.6-5.3,7.7-7.2,9.8-8.7c2.5-1.8,5.4-4.3,5.4-6.3
			c0.1-3.8-0.4-12.6-8.1-22.1l1.8,17.2c0,0,0,2.6-1,0c-0.3-0.7-0.7-2.4-1.1-3.8l-1.8-18c0,0-0.5-3.8,1-2.4s11.2,11.8,11.4,23.7
			c0.1,4.3-0.2,6.9-0.2,8.7c-0.1,5.4-8.7,9.6-11.3,11.6c-1.8,1.4-3.4,2.9-4,4c-1.3,2.8-1.5,8.8-2.7,10.9c0,0,7.1,1.6,16.2-1.5
			c0,0,11.9-2.8,14.9-13.3c2.9-10.4,0.3-18.6-9.3-30.1l3.9,18.4C210.6,138.3,210.8,142.1,209.8,141.2z"/>
	</g>
	<g>
		<g>
			<g>
				<g>
					<defs>
						<path id="SVGID_1_" d="M154,87.5c0,0-3.7,12.1,1.7,16.6l16-11.9c0,0,0.3-3.4-0.5-4.8C171.2,87.4,169.7,91.3,154,87.5"/>
					</defs>
					<clipPath id="SVGID_00000104684966131914878090000006681906880043642549_">
						<use xlink:href="#SVGID_1_"  style="overflow:visible;"/>
					</clipPath>
					
						<linearGradient id="SVGID_00000028309924201821703270000009550842052847378099_" gradientUnits="userSpaceOnUse" x1="-3966.8254" y1="-136.0225" x2="-3966.7271" y2="-136.0225" gradientTransform="matrix(0 -169.267 -169.267 0 -22862.9688 -671348.5)">
						<stop  offset="0" style="stop-color:#D82C34"/>
						<stop  offset="8.770000e-02" style="stop-color:#C42930"/>
						<stop  offset="0.2611" style="stop-color:#A22529"/>
						<stop  offset="0.4382" style="stop-color:#872124"/>
						<stop  offset="0.6183" style="stop-color:#741F20"/>
						<stop  offset="0.8031" style="stop-color:#691D1E"/>
						<stop  offset="1" style="stop-color:#651D1D"/>
					</linearGradient>
					
						<rect x="150.3" y="87.4" style="clip-path:url(#SVGID_00000104684966131914878090000006681906880043642549_);fill:url(#SVGID_00000028309924201821703270000009550842052847378099_);" width="21.7" height="16.7"/>
				</g>
			</g>
		</g>
	</g>
	<g>
		<path class="st6" d="M154,87.5c0,0-3.7,12.1,1.7,16.6l16-11.9c0,0,0.3-3.4-0.5-4.8C171.2,87.4,169.7,91.3,154,87.5z"/>
	</g>
	<g>
		
			<linearGradient id="SVGID_00000033362811324898383840000007507193611525356437_" gradientUnits="userSpaceOnUse" x1="-3961.2485" y1="-141.8762" x2="-3961.0898" y2="-141.8762" gradientTransform="matrix(72.1061 -124.8914 -124.8914 -72.1061 268071.25 -504867.375)">
			<stop  offset="0" style="stop-color:#D82C34"/>
			<stop  offset="8.770000e-02" style="stop-color:#C42930"/>
			<stop  offset="0.2611" style="stop-color:#A22529"/>
			<stop  offset="0.4382" style="stop-color:#872124"/>
			<stop  offset="0.6183" style="stop-color:#741F20"/>
			<stop  offset="0.8031" style="stop-color:#691D1E"/>
			<stop  offset="1" style="stop-color:#651D1D"/>
		</linearGradient>
		<path style="fill:url(#SVGID_00000033362811324898383840000007507193611525356437_);" d="M171.7,79.6c0,0-3.1-1-7.8-1
			c-2.3,0-5,0.2-7.9,1c0,0-2.1,1.6-2.1,7c0,0,11.4,3,15.8,0.8C173.6,85.5,171.7,79.6,171.7,79.6z M168.3,86c-1,0.5-2.6,0.9-4.6,0.9
			s-4.5-0.4-6.8-1.2c0,0-0.2-3.9,1.7-4.9c2-1,10.5,0,10.5,0S170.3,84.9,168.3,86z"/>
		<path class="st1" d="M168.3,86c-1,0.5-2.6,0.9-4.6,0.9s-4.5-0.4-6.8-1.2c0,0-0.2-3.9,1.7-4.9c2-1,10.5,0,10.5,0
			S170.3,84.9,168.3,86z"/>
	</g>
	<g>
		<g>
			<g>
				<g>
					<defs>
						<path id="SVGID_00000122692557758855925380000012396029924522903228_" d="M173.1,80.6c0.7,4-0.9,5.6-0.9,5.6
							c1.8,6.3,0,6.8,0,6.8L155,105.6c-3.1-1.3-3.6-8-3.6-8l-5.4,4.3c0,0-7.4,17-8.4,21.4s4-0.4,4-0.4c26.3-25,37.7-27.9,37.7-27.9
							c14,5.5,36.9,27.1,38.7,28.3c1.8,1.2,3.6,3.2,2.4-1s-8.1-20.4-8.1-20.4c-12.8-16.8-33.1-26.4-33.1-26.4
							C175.3,77.1,173.1,80.6,173.1,80.6"/>
					</defs>
					<clipPath id="SVGID_00000140700536885130323490000010073278316989149349_">
						<use xlink:href="#SVGID_00000122692557758855925380000012396029924522903228_"  style="overflow:visible;"/>
					</clipPath>
					
						<linearGradient id="SVGID_00000129890745104746389300000001830753965591597734_" gradientUnits="userSpaceOnUse" x1="-3960.5835" y1="-128.4121" x2="-3960.4851" y2="-128.4121" gradientTransform="matrix(0 -503.0443 -503.0443 0 -64417.9102 -1992223.5)">
						<stop  offset="0" style="stop-color:#D82C34"/>
						<stop  offset="8.770000e-02" style="stop-color:#C42930"/>
						<stop  offset="0.2611" style="stop-color:#A22529"/>
						<stop  offset="0.4382" style="stop-color:#872124"/>
						<stop  offset="0.6183" style="stop-color:#741F20"/>
						<stop  offset="0.8031" style="stop-color:#691D1E"/>
						<stop  offset="1" style="stop-color:#651D1D"/>
					</linearGradient>
					
						<rect x="136.6" y="75.8" style="clip-path:url(#SVGID_00000140700536885130323490000010073278316989149349_);fill:url(#SVGID_00000129890745104746389300000001830753965591597734_);" width="84.9" height="52.2"/>
				</g>
			</g>
		</g>
	</g>
	<g>
		<path class="st10" d="M217.9,123.5c-1.8-1.2-24.6-22.8-38.7-28.3c0,0-11.4,2.9-37.7,27.9c0,0-4.9,4.8-4,0.4
			c1-4.4,8.4-21.4,8.4-21.4l5.4-4.3c0,0,0.5,6.7,3.6,8l17.2-12.6c0,0,1.8-0.5,0-6.8c0,0,1.6-1.6,0.9-5.6c0,0,2.3-3.6,6.1-4.9
			c0,0,20.3,9.6,33.1,26.4c0,0,6.9,16.1,8.1,20.4C221.5,126.7,219.7,124.7,217.9,123.5z"/>
	</g>
</g>
<g>
	<path class="st11" d="M185.2,92c-0.4-0.2-0.7-0.5-1-0.8c-0.2-0.3-0.3-0.6-0.4-0.9c-0.1-0.3-0.1-0.6,0-0.8c0.1-0.3,0.2-0.5,0.3-0.8
		c0.2-0.3,0.4-0.5,0.8-0.8c0.3-0.2,0.6-0.4,0.9-0.5c0.3-0.1,0.7-0.1,1-0.1s0.7,0.2,1,0.3c0.3,0.2,0.5,0.4,0.7,0.6s0.3,0.5,0.4,0.8
		c0.1,0.3,0.1,0.5,0,0.8s-0.2,0.6-0.4,0.8l-0.8,1.1l0.7,0.4c0.1,0.1,0.1,0.1,0.2,0.2c0,0.1,0,0.2-0.1,0.2l-0.4,0.6
		c0,0.1-0.1,0.1-0.2,0.1c-0.1,0-0.2,0-0.3,0L185.2,92z M187.3,85.8c0.1-0.2,0.2-0.2,0.4-0.3c0.2,0,0.4,0,0.6,0.1
		c0.2,0.1,0.3,0.2,0.3,0.4c0,0.2,0,0.3-0.1,0.5s-0.2,0.2-0.4,0.3c-0.2,0-0.4,0-0.6-0.1c-0.2-0.1-0.3-0.2-0.3-0.4
		C187.1,86.1,187.2,85.9,187.3,85.8z M186.7,91.3l0.6-0.8c0.2-0.4,0.4-0.7,0.3-1c0-0.3-0.2-0.5-0.4-0.7c-0.1-0.1-0.3-0.1-0.4-0.1
		c-0.1,0-0.3,0-0.4,0c-0.1,0-0.3,0.1-0.4,0.2s-0.3,0.2-0.4,0.4c-0.1,0.2-0.2,0.3-0.2,0.5s0,0.3,0,0.5c0,0.1,0.1,0.3,0.2,0.4
		c0.1,0.1,0.2,0.2,0.4,0.3L186.7,91.3z M188.9,86.7c0.1-0.2,0.2-0.2,0.4-0.3c0.2,0,0.4,0,0.6,0.1s0.3,0.2,0.3,0.4s0,0.3-0.1,0.5
		s-0.2,0.2-0.4,0.3c-0.2,0-0.4,0-0.6-0.1c-0.2-0.1-0.3-0.2-0.3-0.4C188.8,87.1,188.8,86.9,188.9,86.7z"/>
	<path class="st11" d="M187.8,93.4c-0.1-0.1-0.2-0.1-0.2-0.2s0-0.2,0.1-0.2l0.4-0.6c0-0.1,0.1-0.1,0.2-0.2c0.1,0,0.2,0,0.3,0L190,93
		l1.9-2.7l1.2,0.7l-0.6,0.8c0.5-0.2,1.1-0.2,1.6-0.2c0.6,0,1,0.2,1.4,0.4c0.4,0.2,0.7,0.5,0.9,0.8s0.3,0.6,0.4,0.9
		c0.1,0.3,0,0.7-0.1,1c-0.1,0.4-0.3,0.7-0.5,1l-1.2,1.7L187.8,93.4z M195,95.3c0.2-0.3,0.3-0.5,0.4-0.7c0.1-0.2,0.1-0.4,0-0.6
		c0-0.2-0.1-0.3-0.2-0.5c-0.1-0.2-0.3-0.3-0.5-0.4s-0.5-0.2-0.8-0.3c-0.3,0-0.6,0-0.9,0c-0.3,0.1-0.6,0.2-0.9,0.3
		c-0.3,0.2-0.6,0.4-0.8,0.7l3.4,2L195,95.3z M195.5,90.6c0.1-0.2,0.2-0.2,0.4-0.3c0.2,0,0.4,0,0.6,0.1c0.2,0.1,0.3,0.2,0.3,0.4
		c0,0.2,0,0.3-0.1,0.5s-0.2,0.2-0.4,0.3c-0.2,0-0.4,0-0.6-0.1c-0.2-0.1-0.3-0.2-0.3-0.4S195.4,90.7,195.5,90.6z"/>
	<path class="st11" d="M198.7,99.8c-0.4-0.2-0.8-0.5-1-0.8s-0.3-0.6-0.4-0.8c-0.1-0.3,0-0.6,0-0.8c0.1-0.3,0.2-0.5,0.3-0.8
		c0.2-0.3,0.4-0.5,0.8-0.8c0.3-0.2,0.6-0.4,0.9-0.5c0.3-0.1,0.7-0.1,1-0.1s0.7,0.2,1,0.3c0.3,0.2,0.6,0.4,0.7,0.6
		c0.2,0.2,0.3,0.5,0.4,0.8c0.1,0.3,0.1,0.5,0,0.8s-0.2,0.6-0.4,0.8l-1.4,2.1c-0.3,0.4-0.6,0.7-0.9,0.9s-0.7,0.3-1,0.4
		c-0.4,0-0.7,0-1.1-0.1c-0.4-0.1-0.8-0.3-1.2-0.5c-0.1-0.1-0.3-0.2-0.5-0.3c-0.2-0.1-0.3-0.2-0.6-0.4l0.8-1c0.2,0.2,0.4,0.3,0.5,0.4
		c0.2,0.1,0.3,0.2,0.4,0.3c0.2,0.1,0.4,0.2,0.6,0.3s0.4,0.1,0.6,0.1s0.4,0,0.5-0.1c0.2-0.1,0.3-0.2,0.5-0.4L198.7,99.8z M200.1,99.1
		l0.6-0.8c0.2-0.4,0.4-0.7,0.3-1c0-0.3-0.2-0.5-0.4-0.7c-0.1-0.1-0.3-0.1-0.4-0.1c-0.1,0-0.3,0-0.4,0c-0.1,0-0.3,0.1-0.4,0.2
		c-0.1,0.1-0.3,0.2-0.4,0.4c-0.1,0.2-0.2,0.3-0.2,0.5s0,0.3,0,0.5c0,0.1,0.1,0.3,0.2,0.4c0.1,0.1,0.2,0.2,0.4,0.3L200.1,99.1z"/>
	<path class="st11" d="M204.1,102.7c-0.2,0.3-0.4,0.5-0.7,0.7c-0.2,0.2-0.5,0.3-0.8,0.4s-0.6,0.1-0.9,0.1c-0.3,0-0.6-0.2-0.9-0.3
		c-0.1-0.1-0.2-0.2-0.3-0.2c-0.1-0.1-0.2-0.2-0.3-0.2l-0.1-0.1L200,103l0.9-1l0.2,0.2c0.1,0.1,0.1,0.1,0.2,0.2
		c0.1,0.1,0.2,0.1,0.2,0.2c0.3,0.2,0.6,0.2,0.8,0.1s0.4-0.3,0.7-0.7l2.5-3.5l1.2,0.7L204.1,102.7z"/>
</g>
<g>
	<path d="M97.9,200c0-1.5,0.4-2.6,1.3-3.5c0.9-0.8,2.1-1.2,3.8-1.2c0.5,0,1,0,1.5,0.1s0.9,0.1,1.2,0.2c0.1,0,0.2,0.1,0.3,0.1
		s0.1,0.1,0.1,0.2v5.2c0,0.4,0.1,0.7,0.3,0.8c0.2,0.1,0.5,0.2,0.9,0.2h0.5v2.4h-0.9c-0.7,0-1.2-0.1-1.6-0.2
		c-0.4-0.2-0.7-0.4-0.9-0.8c-0.3,0.3-0.6,0.4-1,0.6c-0.4,0.1-0.9,0.2-1.3,0.2h-0.2c-0.5,0-1-0.1-1.5-0.2s-0.9-0.4-1.2-0.7
		c-0.3-0.3-0.6-0.7-0.8-1.2c-0.2-0.5-0.3-1.1-0.3-1.8V200H97.9z M99.3,191.6c0-0.1,0-0.2,0.1-0.3s0.2-0.1,0.3-0.1h1.3
		c0.1,0,0.2,0,0.3,0.1c0.1,0.1,0.1,0.2,0.1,0.3v1.5c0,0.1-0.1,0.2-0.2,0.3s-0.2,0.1-0.3,0.1h-1.3c-0.1,0-0.2,0-0.3-0.1
		c-0.1-0.1-0.1-0.2-0.1-0.3L99.3,191.6L99.3,191.6z M100.3,200c0,0.7,0.1,1.2,0.4,1.5c0.3,0.3,0.7,0.5,1.3,0.5h0.3
		c0.4,0,0.8-0.1,1-0.2s0.4-0.4,0.4-0.6v-3.5c-0.1,0-0.2,0-0.4,0c-0.2,0-0.4,0-0.5,0c-0.8,0-1.4,0.2-1.8,0.5
		c-0.4,0.4-0.6,0.9-0.6,1.6v0.2H100.3z M102.8,191.6c0-0.1,0-0.2,0.1-0.3s0.2-0.1,0.3-0.1h1.3c0.1,0,0.2,0,0.3,0.1
		c0.1,0.1,0.1,0.2,0.1,0.3v1.5c0,0.1,0,0.2-0.1,0.3s-0.2,0.1-0.3,0.1h-1.3c-0.1,0-0.2,0-0.3-0.1c-0.1-0.1-0.1-0.2-0.1-0.3V191.6z"/>
	<path d="M106.9,202.4c0-0.1,0.1-0.1,0.2-0.2c0.1,0,0.3-0.1,0.4-0.1h0.9c0.1,0,0.2,0,0.4,0c0.1,0,0.2,0,0.3-0.1
		c0.1,0,0.2-0.1,0.3-0.2c0.1-0.1,0.1-0.2,0.1-0.3v-4.7c0-0.1,0-0.2,0.1-0.3s0.2-0.1,0.3-0.1h1.6c0.1,0,0.2,0,0.3,0.1
		c0.1,0.1,0.1,0.2,0.1,0.3v5c0,0.1,0.1,0.1,0.2,0.2c0.1,0.1,0.2,0.1,0.3,0.1c0.1,0,0.2,0,0.4,0c0.1,0,0.2,0,0.3,0h0.5v2.4h-0.2
		c-0.5,0-1,0-1.5-0.1s-0.9-0.3-1.2-0.5c-0.2,0.1-0.4,0.2-0.6,0.3s-0.4,0.1-0.7,0.2c-0.2,0.1-0.5,0.1-0.7,0.1s-0.4,0-0.6,0h-0.5
		c-0.1,0-0.3,0-0.4-0.1c-0.1,0-0.2-0.1-0.2-0.2v-1.8H106.9z M107.6,206.6c0-0.1,0-0.2,0.1-0.3s0.2-0.1,0.3-0.1h1.3
		c0.1,0,0.2,0,0.3,0.1c0.1,0.1,0.1,0.2,0.1,0.3v1.5c0,0.1-0.1,0.2-0.2,0.3s-0.2,0.1-0.3,0.1H108c-0.1,0-0.2,0-0.3-0.1
		c-0.1-0.1-0.1-0.2-0.1-0.3V206.6z M111.1,206.6c0-0.1,0-0.2,0.1-0.3s0.2-0.1,0.3-0.1h1.3c0.1,0,0.2,0,0.3,0.1
		c0.1,0.1,0.1,0.2,0.1,0.3v1.5c0,0.1,0,0.2-0.1,0.3s-0.2,0.1-0.3,0.1h-1.3c-0.1,0-0.2,0-0.3-0.1s-0.1-0.2-0.1-0.3V206.6z"/>
	<path d="M112.8,202.4c0-0.1,0.1-0.1,0.2-0.2c0.1,0,0.3-0.1,0.4-0.1h0.6c0.1,0,0.2,0,0.3,0c0.1,0,0.2,0,0.3,0c0.1,0,0.2-0.1,0.3-0.1
		c0.1-0.1,0.1-0.1,0.2-0.2c0-0.1,0.1-0.3,0.1-0.5v-1.6c0-1.4,0.4-2.4,1.1-3.1c0.8-0.7,1.8-1.1,3.1-1.1c1.3,0,2.3,0.3,3,1
		c0.7,0.7,1.1,1.7,1.1,3.1v1.1c0,0.1,0,0.3,0,0.4c0,0.1,0,0.3,0,0.4s0.1,0.2,0.2,0.3s0.2,0.1,0.3,0.2c0.1,0,0.2,0.1,0.4,0.1
		c0.1,0,0.2,0,0.3,0h0.4v2.4h-0.4c-0.4,0-0.8,0-1.3-0.2c-0.4-0.1-0.8-0.3-1.1-0.5c-0.3,0.4-0.7,0.6-1.3,0.8
		c-0.5,0.2-1.1,0.3-1.7,0.3s-1.3-0.1-1.9-0.3c-0.6-0.2-1-0.4-1.3-0.8c-0.3,0.3-0.6,0.4-1,0.5s-0.8,0.1-1.2,0.1h-0.5
		c-0.1,0-0.3,0-0.4-0.1c-0.1,0-0.2-0.1-0.2-0.2V202.4z M117.5,199.9v0.8c0,0.3,0,0.6,0.1,0.8c0.1,0.5,0.3,0.8,0.6,1
		c0.3,0.2,0.7,0.3,1.2,0.3c0.6,0,1.1-0.2,1.4-0.5c0.3-0.3,0.4-0.9,0.4-1.6v-0.8c0-0.8-0.1-1.3-0.4-1.7s-0.7-0.5-1.4-0.5
		c-0.6,0-1.1,0.2-1.4,0.5C117.7,198.5,117.5,199,117.5,199.9z"/>
	<path d="M124.3,202.4c0-0.1,0.1-0.1,0.2-0.2c0.1,0,0.3-0.1,0.4-0.1h1.3c0.3,0,0.5,0,0.6-0.1s0.1-0.2,0.1-0.5v-10.9
		c0-0.1,0-0.2,0.1-0.3s0.2-0.1,0.3-0.1h1.7c0.1,0,0.2,0,0.3,0.1s0.1,0.2,0.1,0.3v10.9c0,0.3,0,0.7,0,1.1s0,0.8-0.1,1.1
		c0,0.1-0.1,0.2-0.1,0.3c-0.1,0.1-0.2,0.2-0.3,0.2s-0.3,0.1-0.6,0.1c-0.2,0-0.5,0-0.8,0.1c-0.3,0-0.6,0-0.9,0s-0.6,0-0.8,0H125
		c-0.1,0-0.3,0-0.4-0.1c-0.1,0-0.2-0.1-0.2-0.2L124.3,202.4L124.3,202.4z"/>
	<path d="M132.2,190.5c0-0.1,0-0.2,0.1-0.3s0.2-0.1,0.3-0.1h1.7c0.1,0,0.2,0,0.3,0.1s0.1,0.2,0.1,0.3v10.6c0,0.4,0.1,0.7,0.3,0.8
		s0.4,0.2,0.8,0.2h0.6v2.4H135c-0.4,0-0.8,0-1.2-0.1c-0.3-0.1-0.6-0.2-0.9-0.4c-0.2-0.2-0.4-0.5-0.6-0.8c-0.1-0.3-0.2-0.8-0.2-1.3
		L132.2,190.5L132.2,190.5z"/>
	<path d="M135.5,202.4c0-0.1,0.1-0.1,0.2-0.2c0.1,0,0.3-0.1,0.4-0.1h2.6l-1.4-3.6c0-0.1-0.1-0.1-0.1-0.3c0-0.1,0-0.2,0-0.3v-1
		c0-0.1,0-0.2,0.1-0.3s0.2-0.2,0.3-0.3c0.2-0.2,0.5-0.3,0.8-0.5c0.3-0.2,0.7-0.3,1-0.4c0.4-0.1,0.7-0.2,1.1-0.3
		c0.4-0.1,0.8-0.1,1.1-0.1c0.6,0,1.2,0.1,1.8,0.2c0.6,0.1,1,0.3,1.4,0.6c0.4,0.3,0.7,0.7,1,1.2c0.2,0.5,0.3,1.1,0.3,1.8v0.4
		c0,0.3,0,0.5-0.1,0.8c-0.1,0.3-0.1,0.5-0.2,0.8c-0.1,0.2-0.2,0.5-0.3,0.7c-0.1,0.2-0.3,0.4-0.4,0.5h2.3v2.4h-11.6
		c-0.1,0-0.3,0-0.4-0.1c-0.1,0-0.2-0.1-0.2-0.2v-1.7H135.5z M142.3,202.1c0.3,0,0.5-0.2,0.8-0.3c0.2-0.2,0.4-0.4,0.5-0.6
		s0.3-0.5,0.3-0.8c0.1-0.3,0.1-0.6,0.1-0.9v-0.2c0-0.7-0.2-1.2-0.6-1.5c-0.4-0.3-0.9-0.5-1.6-0.5c-0.3,0-0.6,0-1,0.1
		s-0.8,0.2-1.1,0.5l1.7,4.2H142.3z"/>
	<path d="M147,202.4c0-0.1,0.1-0.1,0.2-0.2c0.1,0,0.3-0.1,0.4-0.1h1.3c0.3,0,0.5,0,0.6-0.1s0.1-0.2,0.1-0.5v-10.9
		c0-0.1,0-0.2,0.1-0.3s0.2-0.1,0.3-0.1h1.7c0.1,0,0.2,0,0.3,0.1s0.1,0.2,0.1,0.3v10.9c0,0.3,0,0.7,0,1.1s0,0.8-0.1,1.1
		c0,0.1-0.1,0.2-0.1,0.3c-0.1,0.1-0.2,0.2-0.3,0.2s-0.3,0.1-0.6,0.1c-0.2,0-0.5,0-0.8,0.1c-0.3,0-0.6,0-0.9,0c-0.3,0-0.6,0-0.8,0
		h-0.8c-0.1,0-0.3,0-0.4-0.1c-0.1,0-0.2-0.1-0.2-0.2v-1.7H147z"/>
	<path d="M155,190.5c0-0.1,0-0.2,0.1-0.3s0.2-0.1,0.3-0.1h1.7c0.1,0,0.2,0,0.3,0.1s0.1,0.2,0.1,0.3v13.6c0,0.1,0,0.2-0.1,0.3
		s-0.2,0.1-0.3,0.1h-1.7c-0.1,0-0.2,0-0.3-0.1s-0.1-0.2-0.1-0.3V190.5z"/>
	<path d="M164.7,200c0-1.5,0.4-2.6,1.2-3.4s2.1-1.2,3.7-1.2c0.3,0,0.5,0,0.8,0s0.5,0,0.8,0.1c0.3,0,0.5,0.1,0.7,0.1s0.4,0.1,0.5,0.1
		c0.1,0.1,0.2,0.1,0.3,0.1c0,0,0.1,0.1,0.1,0.2v5.2c0,0.4,0,0.9,0,1.4s0,1-0.1,1.5c0,0.1,0,0.2-0.1,0.3s-0.2,0.1-0.3,0.1
		c-0.5,0-1,0-1.5,0.1c-0.4,0-0.9,0-1.3,0h-0.4c-1.4,0-2.5-0.3-3.3-1c-0.8-0.7-1.1-1.7-1.1-3.1L164.7,200L164.7,200z M166.1,191.6
		c0-0.1,0-0.2,0.1-0.3s0.2-0.1,0.3-0.1h1.3c0.1,0,0.2,0,0.3,0.1s0.1,0.2,0.1,0.3v1.5c0,0.1-0.1,0.2-0.2,0.3
		c-0.1,0.1-0.2,0.1-0.3,0.1h-1.3c-0.1,0-0.2,0-0.3-0.1s-0.1-0.2-0.1-0.3L166.1,191.6L166.1,191.6z M167.1,200.1
		c0,0.7,0.2,1.2,0.5,1.6c0.3,0.3,0.8,0.5,1.5,0.5c0.2,0,0.4,0,0.7,0s0.5,0,0.6,0v-4.6c-0.2,0-0.3,0-0.5,0s-0.3,0-0.6,0
		c-0.8,0-1.3,0.2-1.7,0.6s-0.6,1-0.6,1.7v0.2H167.1z M169.6,191.6c0-0.1,0-0.2,0.1-0.3s0.2-0.1,0.3-0.1h1.3c0.1,0,0.2,0,0.3,0.1
		s0.1,0.2,0.1,0.3v1.5c0,0.1,0,0.2-0.1,0.3s-0.2,0.1-0.3,0.1H170c-0.1,0-0.2,0-0.3-0.1s-0.1-0.2-0.1-0.3L169.6,191.6L169.6,191.6z"
		/>
	<path d="M175,202.5c0-0.1,0-0.2,0.1-0.2c0.1-0.1,0.2-0.1,0.3-0.1h4.9v-1.7c0-0.5-0.1-0.9-0.2-1.2c-0.1-0.4-0.3-0.7-0.6-0.9
		c-0.3-0.3-0.6-0.4-1-0.6s-0.9-0.2-1.5-0.2c-0.1,0-0.1,0-0.2,0s-0.2,0-0.3,0s-0.2,0-0.3,0s-0.2,0-0.3,0c-0.2,0-0.4-0.1-0.4-0.3v-1.4
		c0-0.1,0-0.2,0.1-0.3s0.2-0.1,0.3-0.1c0.4-0.1,0.7-0.1,1.1-0.1s0.6,0,0.8,0c0.9,0,1.7,0.1,2.3,0.4s1.1,0.6,1.5,1.1s0.6,1,0.8,1.6
		s0.3,1.2,0.3,1.9c0,0.1,0,0.2,0,0.4c0,0.2,0,0.4,0,0.6c0,0.2,0,0.4,0,0.7c0,0.3,0,0.4,0,0.5c0,0.2,0,0.4,0,0.7c0,0.3,0,0.6,0,0.8
		c0,0.1,0,0.2-0.1,0.3s-0.2,0.1-0.3,0.1h-6.8c-0.1,0-0.2,0-0.3-0.1s-0.1-0.1-0.1-0.2v-1.7H175z"/>
	<path d="M188.2,206.6c0-0.1,0-0.2,0.1-0.3s0.2-0.1,0.3-0.1h1.3c0.1,0,0.2,0,0.3,0.1s0.1,0.2,0.1,0.3v1.5c0,0.1-0.1,0.2-0.2,0.3
		s-0.2,0.1-0.3,0.1h-1.3c-0.1,0-0.2,0-0.3-0.1s-0.1-0.2-0.1-0.3L188.2,206.6L188.2,206.6z M188.5,202.4c0-0.1,0.1-0.1,0.2-0.2
		c0.1,0,0.3-0.1,0.4-0.1h1.2c0.3,0,0.5,0,0.6-0.1s0.2-0.2,0.2-0.5c0-0.7,0-1.5,0-2.2c0-0.8,0-1.6,0-2.5c0-0.1,0-0.2,0.1-0.3
		s0.2-0.1,0.3-0.1h1.6c0.1,0,0.2,0,0.3,0.1s0.1,0.2,0.1,0.3c0,0.4,0,0.8,0,1.1c0,0.3,0,0.6,0,0.9s0,0.6,0,0.8c0,0.2,0,0.6,0,0.9
		c0,0.8,0,1.5,0,2s0,1-0.1,1.3c0,0.1-0.1,0.2-0.1,0.3s-0.2,0.2-0.3,0.2s-0.3,0.1-0.6,0.1c-0.2,0-0.5,0-0.8,0.1c-0.3,0-0.6,0-0.9,0
		c-0.3,0-0.6,0-0.8,0h-0.8c-0.1,0-0.3,0-0.4-0.1c-0.1,0-0.2-0.1-0.2-0.2V202.4z M191.7,206.6c0-0.1,0-0.2,0.1-0.3s0.2-0.1,0.3-0.1
		h1.3c0.1,0,0.2,0,0.3,0.1s0.1,0.2,0.1,0.3v1.5c0,0.1,0,0.2-0.1,0.3s-0.2,0.1-0.3,0.1h-1.3c-0.1,0-0.2,0-0.3-0.1s-0.1-0.2-0.1-0.3
		V206.6z"/>
	<path d="M194.1,207.2c0-0.2,0.1-0.3,0.3-0.3h0.4c0.4,0,0.7,0,0.9,0s0.4-0.1,0.6-0.2c0.2-0.1,0.3-0.3,0.3-0.5
		c0.1-0.2,0.1-0.5,0.1-0.9v-8.5c0-0.1,0-0.2,0.1-0.3s0.2-0.1,0.3-0.1h1.6c0.1,0,0.2,0,0.3,0.1s0.1,0.2,0.1,0.3v5.3h1.7v2.4h-1.7v0.9
		c0,0.4,0,0.8-0.1,1.2s-0.2,0.7-0.3,0.9c-0.3,0.5-0.7,0.9-1.2,1.1c-0.5,0.2-1.1,0.3-1.9,0.3c-0.1,0-0.3,0-0.5,0s-0.5,0-0.6,0
		c-0.2,0-0.3-0.2-0.3-0.4v-1.3H194.1z"/>
	<path d="M185.1,190.5c0-0.1,0-0.2,0.1-0.3s0.2-0.1,0.3-0.1h1.7c0.1,0,0.2,0,0.3,0.1s0.1,0.2,0.1,0.3v10.6c0,0.4,0.1,0.7,0.3,0.8
		s0.4,0.2,0.8,0.2h0.6v2.4H188c-0.4,0-0.8,0-1.2-0.1c-0.3-0.1-0.6-0.2-0.9-0.4c-0.2-0.2-0.4-0.5-0.6-0.8c-0.1-0.3-0.2-0.8-0.2-1.3
		L185.1,190.5L185.1,190.5z"/>
	<path d="M200,202.4c0-0.1,0.1-0.1,0.2-0.2c0.1,0,0.3-0.1,0.4-0.1h1.3c0.3,0,0.5,0,0.6-0.1s0.1-0.2,0.1-0.5v-10.9
		c0-0.1,0-0.2,0.1-0.3s0.2-0.1,0.3-0.1h1.7c0.1,0,0.2,0,0.3,0.1s0.1,0.2,0.1,0.3v10.9c0,0.3,0,0.7,0,1.1s0,0.8-0.1,1.1
		c0,0.1-0.1,0.2-0.1,0.3s-0.2,0.2-0.3,0.2s-0.3,0.1-0.6,0.1c-0.2,0-0.5,0-0.8,0.1c-0.3,0-0.6,0-0.9,0s-0.6,0-0.8,0h-0.8
		c-0.1,0-0.3,0-0.4-0.1c-0.1,0-0.2-0.1-0.2-0.2v-1.7H200z"/>
	<path d="M208,190.5c0-0.1,0-0.2,0.1-0.3s0.2-0.1,0.3-0.1h1.7c0.1,0,0.2,0,0.3,0.1s0.1,0.2,0.1,0.3v13.6c0,0.1,0,0.2-0.1,0.3
		s-0.2,0.1-0.3,0.1h-1.7c-0.1,0-0.2,0-0.3-0.1s-0.1-0.2-0.1-0.3V190.5z"/>
	<path d="M217.7,200c0-1.5,0.4-2.6,1.3-3.5s2.1-1.2,3.8-1.2c0.5,0,1,0,1.5,0.1s0.9,0.1,1.2,0.2c0.1,0,0.2,0.1,0.3,0.1
		c0,0.1,0.1,0.1,0.1,0.2v5.2c0,0.4,0.1,0.7,0.3,0.8s0.5,0.2,0.9,0.2h0.5v2.4h-0.9c-0.7,0-1.2-0.1-1.6-0.2c-0.4-0.2-0.7-0.4-0.9-0.8
		c-0.3,0.3-0.6,0.4-1,0.6s-0.9,0.2-1.3,0.2h-0.2c-0.5,0-1-0.1-1.5-0.2s-0.9-0.4-1.2-0.7c-0.3-0.3-0.6-0.7-0.8-1.2s-0.3-1.1-0.3-1.8
		V200H217.7z M219.1,191.6c0-0.1,0-0.2,0.1-0.3s0.2-0.1,0.3-0.1h1.3c0.1,0,0.2,0,0.3,0.1s0.1,0.2,0.1,0.3v1.5c0,0.1-0.1,0.2-0.2,0.3
		c-0.1,0.1-0.2,0.1-0.3,0.1h-1.3c-0.1,0-0.2,0-0.3-0.1s-0.1-0.2-0.1-0.3L219.1,191.6L219.1,191.6z M220.1,200c0,0.7,0.1,1.2,0.4,1.5
		c0.3,0.3,0.7,0.5,1.3,0.5h0.3c0.4,0,0.8-0.1,1-0.2c0.2-0.1,0.4-0.4,0.4-0.6v-3.5c-0.1,0-0.2,0-0.4,0s-0.4,0-0.5,0
		c-0.8,0-1.4,0.2-1.8,0.5c-0.4,0.4-0.6,0.9-0.6,1.6L220.1,200L220.1,200z M222.6,191.6c0-0.1,0-0.2,0.1-0.3s0.2-0.1,0.3-0.1h1.3
		c0.1,0,0.2,0,0.3,0.1s0.1,0.2,0.1,0.3v1.5c0,0.1,0,0.2-0.1,0.3s-0.2,0.1-0.3,0.1H223c-0.1,0-0.2,0-0.3-0.1s-0.1-0.2-0.1-0.3
		L222.6,191.6L222.6,191.6z"/>
	<path d="M226.7,202.4c0-0.1,0.1-0.1,0.2-0.2c0.1,0,0.3-0.1,0.4-0.1h1.9v-6.4c0-0.1,0-0.2,0.1-0.3s0.2-0.1,0.3-0.1h1.6
		c0.1,0,0.2,0,0.3,0.1s0.1,0.2,0.1,0.3v0.7c0.3-0.2,0.7-0.4,1.1-0.6c0.4-0.1,0.8-0.3,1.2-0.3c0.4-0.1,0.7-0.1,1.1-0.2
		c0.3,0,0.6,0,0.8,0c0.8,0,1.5,0.1,2.2,0.3c0.7,0.2,1.2,0.5,1.7,0.9s0.8,0.9,1.1,1.6c0.3,0.6,0.4,1.4,0.4,2.4v0.8
		c0,0.4,0,0.9-0.1,1.4c0,0.5-0.1,1-0.2,1.3c0,0.1-0.1,0.2-0.2,0.3c-0.1,0.1-0.2,0.2-0.4,0.2s-0.5,0-0.9,0s-0.8,0-1.3,0s-0.9,0-1.4,0
		s-0.8,0-1.1,0h-8.3c-0.1,0-0.3,0-0.4-0.1c-0.1,0-0.2-0.1-0.2-0.2L226.7,202.4L226.7,202.4z M231.6,202.1c0.3,0,0.6,0,1,0
		s0.8,0,1.3,0h4.4c0.2,0,0.3-0.1,0.3-0.2c0-0.2,0.1-0.5,0.1-1v-0.3c0-0.6-0.1-1-0.2-1.4s-0.4-0.7-0.6-0.9c-0.3-0.2-0.7-0.4-1.1-0.5
		s-1-0.2-1.6-0.2c-0.2,0-0.5,0-0.8,0s-0.6,0.1-1,0.1s-0.7,0.2-1,0.3s-0.6,0.3-0.8,0.4L231.6,202.1L231.6,202.1z M234.1,191.5
		c0-0.1,0-0.2,0.1-0.3s0.2-0.1,0.3-0.1h1.5c0.1,0,0.2,0,0.3,0.1s0.1,0.2,0.1,0.3v1.5c0,0.1,0,0.2-0.1,0.3s-0.2,0.1-0.3,0.1h-1.5
		c-0.1,0-0.2,0-0.3-0.1s-0.1-0.2-0.1-0.3V191.5z"/>
	<path d="M243.9,207.2c0-0.2,0.1-0.3,0.3-0.3h1.7c0.5,0,0.9,0,1.3-0.1c0.4-0.1,0.7-0.1,0.9-0.3c0.2-0.1,0.4-0.3,0.6-0.5
		c0.1-0.2,0.2-0.5,0.2-0.9v-0.9c-0.1,0.1-0.2,0.1-0.3,0.2c-0.1,0-0.3,0.1-0.4,0.1c-0.2,0-0.3,0-0.4,0s-0.3,0-0.4,0
		c-1.3,0-2.3-0.3-3-1c-0.7-0.7-1.1-1.7-1.1-3.1V200c0-1.5,0.4-2.6,1.3-3.4c0.9-0.8,2.1-1.2,3.7-1.2c0.2,0,0.5,0,0.8,0s0.5,0,0.8,0.1
		c0.3,0,0.5,0.1,0.7,0.1s0.4,0.1,0.5,0.1c0.1,0.1,0.2,0.1,0.3,0.1c0,0,0.1,0.1,0.1,0.2v8.6c0,0.9-0.1,1.7-0.4,2.2
		c-0.3,0.6-0.6,1-1.1,1.3c-0.5,0.3-1,0.5-1.6,0.6s-1.2,0.2-1.9,0.2c-0.1,0-0.3,0-0.5,0s-0.4,0-0.7,0c-0.2,0-0.5,0-0.7,0
		s-0.3,0-0.4,0c-0.1,0-0.2-0.1-0.2-0.1s-0.1-0.1-0.1-0.2L243.9,207.2L243.9,207.2z M249,197.6c-0.4,0-0.7-0.1-1.1-0.1
		c-0.7,0-1.3,0.2-1.7,0.6s-0.6,1-0.6,1.7v0.2c0,0.7,0.2,1.2,0.5,1.6c0.3,0.3,0.8,0.5,1.5,0.5c0.4,0,0.7,0,1-0.1
		c0.3,0,0.4-0.2,0.4-0.4L249,197.6L249,197.6z"/>
	<path d="M252.1,207.2c0-0.2,0.1-0.3,0.3-0.3h0.4c0.4,0,0.7,0,0.9,0s0.4-0.1,0.6-0.2c0.2-0.1,0.3-0.3,0.3-0.5
		c0.1-0.2,0.1-0.5,0.1-0.9v-8.5c0-0.1,0-0.2,0.1-0.3s0.2-0.1,0.3-0.1h1.6c0.1,0,0.2,0,0.3,0.1c0.1,0.1,0.1,0.2,0.1,0.3v8.2
		c0,0.5,0,0.9-0.1,1.4c-0.1,0.4-0.2,0.8-0.4,1.2c-0.3,0.5-0.7,0.9-1.2,1.1c-0.5,0.2-1.1,0.3-1.9,0.3c-0.1,0-0.3,0-0.5,0
		s-0.5,0-0.6,0c-0.2,0-0.3-0.2-0.3-0.4V207.2z"/>
</g>
<g>
	<path class="st12" d="M135.8,236.3c0-0.1,0-0.2,0.1-0.2c0.1-0.1,0.2-0.1,0.3-0.1h5.1v-2.3c0-1.1-0.3-1.9-0.8-2.5
		c-0.5-0.5-1.4-0.8-2.6-0.8c-0.1,0-0.3,0-0.6,0s-0.5,0-0.7,0c-0.3,0-0.4-0.1-0.4-0.3v-0.8c0-0.1,0-0.2,0.1-0.2
		c0.1-0.1,0.2-0.1,0.3-0.1c0.3,0,0.6-0.1,0.9-0.1c0.3,0,0.5,0,0.6,0c0.9,0,1.6,0.1,2.2,0.3c0.6,0.2,1.1,0.5,1.4,1
		c0.4,0.4,0.6,0.9,0.8,1.5s0.3,1.2,0.3,1.9c0,0.1,0,0.2,0,0.4s0,0.4,0,0.7c0,0.2,0,0.5,0,0.7s0,0.4,0,0.4c0,0.1,0,0.2,0,0.3
		s0,0.3,0,0.4c0,0.1,0,0.3,0,0.4c0,0.1,0,0.3,0,0.3c0,0.3-0.1,0.4-0.4,0.4h-6.3c-0.1,0-0.2,0-0.3-0.1s-0.1-0.1-0.1-0.2L135.8,236.3
		L135.8,236.3z"/>
	<path class="st12" d="M145.7,223.8c0-0.1,0-0.2,0.1-0.3s0.2-0.1,0.3-0.1h0.9c0.1,0,0.2,0,0.2,0.1c0.1,0.1,0.1,0.2,0.1,0.3v13.4
		c0,0.1,0,0.2-0.1,0.3s-0.1,0.1-0.2,0.1h-0.9c-0.1,0-0.2,0-0.3-0.1s-0.1-0.2-0.1-0.3V223.8z"/>
	<path class="st12" d="M150.9,240.7c0-0.2,0.1-0.3,0.3-0.3s0.5,0,0.8,0s0.6,0,0.8,0c0.5,0,1,0,1.4-0.1s0.7-0.2,1-0.3
		c0.3-0.2,0.5-0.4,0.7-0.7s0.2-0.7,0.2-1.1v-1.1c-0.1,0.1-0.2,0.1-0.4,0.2s-0.4,0.1-0.6,0.1c-0.2,0-0.4,0.1-0.6,0.1
		c-0.2,0-0.4,0-0.5,0c-1.1,0-2.1-0.3-2.7-1s-1-1.6-1-3V233c0-1.3,0.4-2.4,1.2-3.1s1.9-1.1,3.3-1.1c0.5,0,1,0,1.5,0.1
		c0.5,0,0.9,0.1,1.2,0.2c0.1,0,0.2,0.1,0.2,0.1s0.1,0.1,0.1,0.2v8.5c0,0.8-0.1,1.4-0.3,1.9s-0.5,0.9-0.9,1.2s-0.9,0.5-1.4,0.6
		c-0.6,0.1-1.2,0.2-1.8,0.2c-0.1,0-0.3,0-0.5,0s-0.4,0-0.6,0c-0.2,0-0.4,0-0.5,0c-0.2,0-0.3,0-0.3,0c-0.1,0-0.2-0.1-0.2-0.1
		s-0.1-0.1-0.1-0.2v-0.8H150.9z M156.1,230.4c-0.3,0-0.5,0-0.7-0.1c-0.2,0-0.5,0-0.8,0c-0.8,0-1.5,0.2-2,0.7s-0.7,1.1-0.7,2v0.4
		c0,0.9,0.2,1.5,0.6,1.9c0.4,0.4,1,0.6,1.9,0.6c0.5,0,0.9,0,1.3-0.1c0.4-0.1,0.5-0.2,0.5-0.5v-4.9H156.1z"/>
	<path class="st12" d="M158.5,240.7c0-0.2,0.1-0.3,0.3-0.3h0.4c0.4,0,0.8,0,1-0.1c0.3,0,0.5-0.1,0.6-0.2c0.2-0.1,0.3-0.3,0.3-0.6
		s0.1-0.6,0.1-1v-8.3c0-0.1,0-0.2,0.1-0.3s0.1-0.1,0.2-0.1h0.9c0.1,0,0.2,0,0.2,0.1s0.1,0.2,0.1,0.3v8.2c0,0.4,0,0.8-0.1,1.2
		s-0.1,0.7-0.3,1c-0.3,0.4-0.6,0.7-1,0.9s-1,0.3-1.8,0.3c-0.1,0-0.2,0-0.4,0s-0.4,0-0.5-0.1c-0.1,0-0.2-0.1-0.2-0.1
		s-0.1-0.1-0.1-0.2v-0.7H158.5z"/>
	<path class="st12" d="M175,240.9c0.3,0,0.4,0.1,0.4,0.3v0.8c0,0.2-0.1,0.3-0.4,0.4c-0.1,0-0.2,0-0.3,0s-0.1,0-0.2,0
		c-1.6,0-2.7-0.4-3.3-1.1c-0.7-0.7-1-1.8-1-3.2c0-0.1,0-0.2,0-0.4s0-0.3,0-0.5s0-0.3,0-0.5s0-0.3,0-0.4c0-0.1,0.1-0.2,0.1-0.3
		c0.1-0.1,0.2-0.1,0.3-0.1c0.2,0,0.4,0,0.7,0s0.6,0,0.8,0h0.6l-1.8-4.5c0,0,0-0.1,0-0.2c0-0.1,0-0.1,0-0.2v-0.5c0-0.1,0-0.2,0.1-0.2
		c0-0.1,0.1-0.1,0.2-0.2c0.4-0.4,1-0.7,1.8-0.9c0.7-0.2,1.5-0.3,2.2-0.3c0.6,0,1.2,0.1,1.7,0.2c0.5,0.1,1,0.4,1.3,0.7
		s0.7,0.7,0.9,1.1c0.2,0.5,0.3,1,0.3,1.7v0.4c0,0.3,0,0.7-0.1,1s-0.2,0.6-0.3,0.9c-0.1,0.3-0.2,0.5-0.4,0.7s-0.3,0.4-0.5,0.5h2.6
		v1.6h-7.5c-0.2,0-0.5,0-0.8,0s-0.6,0-0.8,0c0,0.1,0,0.2,0,0.4s0,0.3,0,0.3c0,0.5,0.1,0.8,0.2,1.2s0.3,0.6,0.5,0.8s0.5,0.4,0.9,0.5
		s0.9,0.2,1.4,0.2h0.4V240.9z M175.8,235.9c0.7-0.2,1.2-0.5,1.6-1.1c0.4-0.6,0.5-1.3,0.5-2v-0.2c0-0.8-0.2-1.4-0.7-1.8
		s-1.1-0.6-1.9-0.6c-0.2,0-0.4,0-0.6,0c-0.2,0-0.5,0-0.7,0.1c-0.2,0-0.5,0.1-0.7,0.2s-0.5,0.2-0.7,0.4l1.9,5L175.8,235.9
		L175.8,235.9z"/>
	<path class="st12" d="M180.6,237.5c-0.2,0-0.3,0-0.5-0.1c-0.1,0-0.2-0.1-0.2-0.2v-1.1c0-0.1,0.1-0.1,0.2-0.2c0.1,0,0.3-0.1,0.5-0.1
		h4.2v1.6h-4.2V237.5z"/>
	<path class="st12" d="M184.7,237.5c-0.2,0-0.3,0-0.5-0.1c-0.1,0-0.2-0.1-0.2-0.2v-1.1c0-0.1,0.1-0.1,0.2-0.2c0.1,0,0.3-0.1,0.5-0.1
		h4.2v1.6h-4.2V237.5z"/>
	<path class="st12" d="M188.7,237.5c-0.2,0-0.3,0-0.5-0.1c-0.1,0-0.2-0.1-0.2-0.2v-1.1c0-0.1,0.1-0.1,0.2-0.2c0.1,0,0.3-0.1,0.5-0.1
		h4.2v1.6h-4.2V237.5z"/>
	<path class="st12" d="M192.8,237.5c-0.2,0-0.3,0-0.5-0.1c-0.1,0-0.2-0.1-0.2-0.2v-1.1c0-0.1,0.1-0.1,0.2-0.2c0.1,0,0.3-0.1,0.5-0.1
		h4.2v1.6h-4.2V237.5z"/>
	<path class="st12" d="M196.2,236.2c0-0.1,0.1-0.1,0.2-0.2c0.1,0,0.3-0.1,0.5-0.1h0.8c0.1,0,0.3,0,0.4,0c0.2,0,0.3,0,0.4-0.1
		c0.1,0,0.3-0.1,0.3-0.2c0.1-0.1,0.1-0.2,0.1-0.4v-4.9c0-0.1,0-0.2,0.1-0.3s0.2-0.1,0.3-0.1h0.9c0.1,0,0.2,0,0.3,0.1
		s0.1,0.2,0.1,0.3v5.2c0,0.1,0.1,0.2,0.2,0.2c0.1,0.1,0.3,0.1,0.4,0.1s0.3,0.1,0.4,0.1s0.3,0,0.4,0h0.3v1.6h-0.2
		c-0.4,0-0.8,0-1.3-0.1c-0.4-0.1-0.8-0.2-1.1-0.5c-0.3,0.3-0.7,0.4-1.1,0.5c-0.4,0.1-0.8,0.1-1.2,0.1h-0.6c-0.2,0-0.3,0-0.5-0.1
		c-0.1,0-0.2-0.1-0.2-0.2v-1H196.2z M199,226.1c0-0.1,0-0.2,0.1-0.3s0.2-0.1,0.3-0.1h0.8c0.1,0,0.2,0,0.3,0.1s0.1,0.2,0.1,0.3v1
		c0,0.1,0,0.2-0.1,0.3s-0.2,0.1-0.3,0.1h-0.8c-0.1,0-0.2,0-0.3-0.1s-0.1-0.2-0.1-0.3V226.1z"/>
	<path class="st12" d="M201.6,236.2c0-0.1,0.1-0.1,0.2-0.2c0.1,0,0.3-0.1,0.5-0.1h2.1v-6.6c0-0.1,0-0.2,0.1-0.3s0.2-0.1,0.3-0.1h0.9
		c0.1,0,0.2,0,0.3,0.1s0.1,0.2,0.1,0.3v0.8c0.3-0.3,0.7-0.5,1.1-0.6c0.4-0.2,0.8-0.3,1.2-0.4c0.4-0.1,0.8-0.1,1.1-0.2
		c0.3,0,0.6,0,0.8,0c0.8,0,1.5,0.1,2.1,0.3s1.1,0.5,1.6,0.8c0.4,0.4,0.8,0.9,1,1.5s0.3,1.4,0.3,2.2v0.3c0,0.1,0,0.3,0,0.5
		s0,0.4,0,0.5s0,0.3-0.1,0.5c0,0.2-0.1,0.3-0.1,0.4h1.5v1.6h-14.3c-0.2,0-0.3,0-0.5-0.1c-0.1,0-0.2-0.1-0.2-0.2L201.6,236.2
		L201.6,236.2z M205.9,235.9c0.3,0,0.6,0,1,0c0.3,0,0.8,0,1.3,0h4.9c0.2,0,0.3-0.1,0.4-0.3s0.1-0.6,0.1-1.3V234
		c0-0.7-0.1-1.3-0.2-1.7s-0.4-0.8-0.7-1.1s-0.7-0.5-1.2-0.6s-1-0.2-1.7-0.2c-0.2,0-0.4,0-0.8,0s-0.7,0.1-1,0.2
		c-0.4,0.1-0.7,0.2-1.1,0.3c-0.4,0.1-0.7,0.3-0.9,0.5v4.5H205.9z"/>
	<path class="st12" d="M215.8,236.2c0-0.1,0.1-0.1,0.2-0.2c0.1,0,0.3-0.1,0.5-0.1h1.3c0.4,0,0.6,0,0.7-0.1c0.1-0.1,0.2-0.3,0.2-0.6
		c0-0.4,0-0.9,0-1.2c0-0.4,0-0.8,0-1.2s0-0.8,0-1.2s0-0.9,0-1.4c0-0.1,0-0.2,0.1-0.3s0.1-0.1,0.2-0.1h0.9c0.1,0,0.2,0,0.3,0.1
		s0.1,0.2,0.1,0.3c0,0.4,0,0.8,0,1.1s0,0.6,0,0.8c0,0.3,0,0.5,0,0.8s0,0.6,0,1c0,0.6,0,1.2,0,1.7s0,0.9-0.1,1.2
		c0,0.1-0.1,0.2-0.1,0.3c-0.1,0.1-0.2,0.2-0.3,0.2s-0.2,0.1-0.4,0.1s-0.4,0-0.6,0.1c-0.2,0-0.5,0-0.7,0s-0.5,0-0.7,0h-0.8
		c-0.2,0-0.3,0-0.5-0.1c-0.1,0-0.2-0.1-0.2-0.2L215.8,236.2L215.8,236.2z M218.4,226.1c0-0.1,0-0.2,0.1-0.3s0.2-0.1,0.3-0.1h0.8
		c0.1,0,0.2,0,0.3,0.1s0.1,0.2,0.1,0.3v1c0,0.1,0,0.2-0.1,0.3s-0.2,0.1-0.3,0.1h-0.8c-0.1,0-0.2,0-0.3-0.1s-0.1-0.2-0.1-0.3V226.1z"
		/>
	<path class="st12" d="M146,254.9c0.2,0,0.3,0.1,0.3,0.4c0,0.3-0.1,0.6-0.1,0.9s0,0.6,0,0.8c0,0.7,0,1.3,0.1,1.8
		c0.1,0.6,0.3,1.1,0.6,1.5s0.7,0.8,1.3,1s1.3,0.4,2.3,0.4c0.3,0,0.5,0,0.8,0s0.6,0,0.8-0.1c0-0.4,0-0.7,0-0.9c0-0.3,0-0.5,0-0.8
		s0-0.5,0-0.7s0-0.5,0-0.7v-12.1c0-0.1,0-0.2,0.1-0.3s0.1-0.1,0.2-0.1h0.9c0.1,0,0.2,0,0.2,0.1c0.1,0.1,0.1,0.2,0.1,0.3v12.2h1.7
		v1.6h-1.7c0,0.2,0,0.4,0,0.6s0,0.5,0,0.7s0,0.5,0,0.7s0,0.4,0,0.5s-0.1,0.2-0.1,0.3c-0.1,0-0.2,0.1-0.3,0.1
		c-0.4,0.1-0.9,0.2-1.4,0.2s-1,0.1-1.5,0.1c-1.1,0-2-0.1-2.8-0.4c-0.7-0.3-1.3-0.6-1.8-1.1c-0.4-0.5-0.8-1.1-1-1.8s-0.3-1.5-0.3-2.4
		c0-0.1,0-0.3,0-0.5s0-0.4,0-0.6s0-0.4,0.1-0.7s0.1-0.4,0.1-0.6c0-0.2,0.2-0.4,0.3-0.4L146,254.9L146,254.9z"/>
	<path class="st12" d="M154.8,258.8c0-0.1,0.1-0.1,0.2-0.2c0.1,0,0.3-0.1,0.5-0.1h0.8c0.1,0,0.3,0,0.4,0c0.2,0,0.3,0,0.4-0.1
		c0.1,0,0.3-0.1,0.3-0.2s0.1-0.2,0.1-0.4v-4.9c0-0.1,0-0.2,0.1-0.3s0.2-0.1,0.3-0.1h0.9c0.1,0,0.2,0,0.3,0.1s0.1,0.2,0.1,0.3v5.2
		c0,0.1,0.1,0.2,0.2,0.2c0.1,0.1,0.3,0.1,0.4,0.1s0.3,0.1,0.4,0.1s0.3,0,0.4,0h0.3v1.6h-0.2c-0.4,0-0.8,0-1.3-0.1
		c-0.4-0.1-0.8-0.2-1.1-0.5c-0.3,0.3-0.7,0.4-1.1,0.5c-0.4,0.1-0.8,0.1-1.2,0.1h-0.6c-0.2,0-0.3,0-0.5-0.1c-0.1,0-0.2-0.1-0.2-0.2
		v-1H154.8z M157.5,262.3c0-0.1,0-0.2,0.1-0.3c0.1-0.1,0.2-0.1,0.3-0.1h0.8c0.1,0,0.2,0,0.3,0.1s0.1,0.2,0.1,0.3v1
		c0,0.1,0,0.2-0.1,0.3s-0.2,0.1-0.3,0.1h-0.8c-0.1,0-0.2,0-0.3-0.1s-0.1-0.2-0.1-0.3V262.3z"/>
	<path class="st12" d="M160.2,258.8c0-0.1,0.1-0.1,0.2-0.2c0.1,0,0.3-0.1,0.5-0.1h2.5c-0.3-0.3-0.6-0.6-0.8-1.1
		c-0.2-0.4-0.3-1-0.3-1.6v-0.5c0-1.3,0.4-2.3,1.2-3s1.8-1.1,3.2-1.1c0.5,0,1,0,1.5,0.1s0.9,0.1,1.3,0.2c0.1,0,0.2,0.1,0.2,0.1
		c0,0.1,0.1,0.1,0.1,0.2v6.5h1.6v1.6h-10.5c-0.2,0-0.3,0-0.5-0.1c-0.1,0-0.2-0.1-0.2-0.2V258.8z M168.2,258.6V253
		c-0.3,0-0.5-0.1-0.8-0.1s-0.5,0-0.9,0c-0.9,0-1.5,0.2-2,0.7c-0.5,0.4-0.7,1.1-0.7,1.9v0.4c0,0.9,0.2,1.5,0.6,2
		c0.4,0.5,1,0.7,1.9,0.7L168.2,258.6L168.2,258.6z M163.9,247.9c0-0.1,0-0.2,0.1-0.3s0.2-0.1,0.3-0.1h0.7c0.1,0,0.2,0,0.3,0.1
		s0.1,0.2,0.1,0.3v1c0,0.1,0,0.2-0.1,0.3s-0.2,0.1-0.3,0.1h-0.7c-0.1,0-0.2,0-0.3-0.1s-0.1-0.2-0.1-0.3V247.9z M167,247.9
		c0-0.1,0-0.2,0.1-0.3s0.2-0.1,0.3-0.1h0.7c0.1,0,0.2,0,0.3,0.1s0.1,0.2,0.1,0.3v1c0,0.1,0,0.2-0.1,0.3s-0.2,0.1-0.3,0.1h-0.7
		c-0.1,0-0.2,0-0.3-0.1s-0.1-0.2-0.1-0.3V247.9z"/>
	<path class="st12" d="M170.6,258.8c0-0.1,0.1-0.1,0.2-0.2c0.1,0,0.3-0.1,0.5-0.1h0.8c0.1,0,0.3,0,0.4,0c0.2,0,0.3,0,0.4-0.1
		c0.1,0,0.3-0.1,0.3-0.2s0.1-0.2,0.1-0.4v-4.9c0-0.1,0-0.2,0.1-0.3s0.2-0.1,0.3-0.1h0.9c0.1,0,0.2,0,0.3,0.1s0.1,0.2,0.1,0.3v5.2
		c0,0.1,0.1,0.2,0.2,0.2c0.1,0.1,0.3,0.1,0.4,0.1s0.3,0.1,0.4,0.1s0.3,0,0.4,0h0.3v1.6h-0.2c-0.4,0-0.8,0-1.3-0.1
		c-0.4-0.1-0.8-0.2-1.1-0.5c-0.3,0.3-0.7,0.4-1.1,0.5c-0.4,0.1-0.8,0.1-1.2,0.1h-0.6c-0.2,0-0.3,0-0.5-0.1c-0.1,0-0.2-0.1-0.2-0.2
		v-1H170.6z M171.8,248.7c0-0.1,0-0.2,0.1-0.3s0.2-0.1,0.3-0.1h0.7c0.1,0,0.2,0,0.3,0.1s0.1,0.2,0.1,0.3v1c0,0.1,0,0.2-0.1,0.3
		s-0.2,0.1-0.3,0.1h-0.7c-0.1,0-0.2,0-0.3-0.1s-0.1-0.2-0.1-0.3V248.7z M174.9,248.7c0-0.1,0-0.2,0.1-0.3s0.2-0.1,0.3-0.1h0.7
		c0.1,0,0.2,0,0.3,0.1s0.1,0.2,0.1,0.3v1c0,0.1,0,0.2-0.1,0.3s-0.2,0.1-0.3,0.1h-0.7c-0.1,0-0.2,0-0.3-0.1s-0.1-0.2-0.1-0.3V248.7z"
		/>
	<path class="st12" d="M176,258.8c0-0.1,0.1-0.1,0.2-0.2c0.1,0,0.3-0.1,0.5-0.1h0.7c0.1,0,0.3,0,0.4,0c0.2,0,0.3,0,0.4-0.1
		s0.2-0.1,0.3-0.2s0.1-0.2,0.1-0.4v-4.1c0-0.1,0-0.2,0.1-0.3s0.1-0.1,0.2-0.1h0.9c0.1,0,0.2,0,0.2,0.1c0.1,0.1,0.1,0.2,0.1,0.3v4.4
		c0,0.1,0.1,0.2,0.2,0.2s0.3,0.1,0.4,0.1s0.3,0.1,0.4,0.1c0.2,0,0.3,0,0.4,0h0.4c0.1,0,0.2,0,0.4,0c0.1,0,0.3,0,0.4-0.1
		c0.1,0,0.2-0.1,0.3-0.2s0.1-0.2,0.1-0.4V253c0-0.1,0-0.2,0.1-0.3s0.2-0.1,0.3-0.1h0.9c0.1,0,0.2,0,0.2,0.1c0.1,0.1,0.1,0.2,0.1,0.3
		v5c0.1,0.2,0.3,0.3,0.6,0.4c0.3,0,0.6,0.1,0.9,0.1h0.2c0.1,0,0.2,0,0.4,0s0.3,0,0.4-0.1c0.1,0,0.3-0.1,0.3-0.2
		c0.1-0.1,0.1-0.2,0.1-0.4v-5.5c0-0.1,0-0.2,0.1-0.3s0.2-0.1,0.3-0.1h0.9c0.1,0,0.2,0,0.2,0.1c0.1,0.1,0.1,0.2,0.1,0.3v5.7
		c0,0.1,0.1,0.2,0.2,0.2c0.1,0.1,0.3,0.1,0.4,0.1c0.2,0,0.3,0.1,0.5,0.1s0.3,0,0.4,0h0.4v1.6h-0.3c-0.3,0-0.7,0-1.2-0.1
		c-0.4-0.1-0.8-0.2-1.1-0.5c-0.3,0.3-0.6,0.4-1,0.5s-0.8,0.1-1.1,0.1h-0.3c-0.4,0-0.8,0-1.2-0.1c-0.3-0.1-0.7-0.2-1-0.5
		c-0.5,0.4-1.2,0.6-2.2,0.6h-0.3c-0.3,0-0.7,0-1.1-0.1c-0.4-0.1-0.7-0.2-1-0.5c-0.2,0.1-0.3,0.2-0.5,0.3c-0.2,0.1-0.4,0.1-0.6,0.2
		c-0.2,0.1-0.4,0.1-0.6,0.1s-0.4,0-0.5,0h-0.6c-0.2,0-0.3,0-0.5-0.1c-0.1,0-0.2-0.1-0.2-0.2v-0.9H176z"/>
	<path class="st12" d="M190.7,258.8c0-0.1,0.1-0.1,0.2-0.2c0.1,0,0.3-0.1,0.5-0.1h0.6c0.1,0,0.2,0,0.3,0s0.3,0,0.4-0.1
		c0.1,0,0.3-0.1,0.4-0.2c0.1-0.1,0.2-0.2,0.2-0.3c0-0.2,0.1-0.3,0.1-0.5v-1.8c0-1.3,0.3-2.3,1-3s1.6-1,2.9-1s2.2,0.3,2.8,1
		s1,1.7,1,3v1.1c0,0.2,0,0.3,0,0.5s0,0.3,0,0.5s0.1,0.3,0.2,0.4c0.1,0.1,0.2,0.2,0.4,0.3c0.1,0.1,0.3,0.1,0.4,0.1s0.3,0,0.4,0h0.2
		v1.6h-0.2c-0.4,0-0.8-0.1-1.2-0.2s-0.7-0.3-1-0.6c-0.6,0.9-1.6,1.3-3,1.3c-0.7,0-1.3-0.1-1.9-0.3c-0.5-0.2-1-0.5-1.3-1
		c-0.3,0.3-0.6,0.5-1,0.6s-0.8,0.1-1.3,0.1h-0.5c-0.2,0-0.3,0-0.5-0.1c-0.1,0-0.2-0.1-0.2-0.2v-0.9H190.7z M194.9,255.8v0.9
		c0,0.4,0,0.8,0.1,1.1c0.1,0.5,0.4,0.9,0.7,1.1c0.4,0.2,0.9,0.4,1.5,0.4c0.8,0,1.4-0.2,1.8-0.6c0.3-0.4,0.5-1.1,0.5-1.9v-0.9
		c0-0.9-0.2-1.5-0.5-2s-0.9-0.7-1.7-0.7s-1.4,0.2-1.8,0.7C195.1,254.2,194.9,254.9,194.9,255.8z"/>
	<path class="st12" d="M201.8,258.8c0-0.1,0.1-0.1,0.2-0.2c0.1,0,0.3-0.1,0.5-0.1h1.5c0.4,0,0.6,0,0.7-0.1c0.1-0.1,0.1-0.3,0.1-0.6
		v-11.5c0-0.1,0-0.2,0.1-0.3s0.2-0.1,0.3-0.1h0.9c0.1,0,0.2,0,0.2,0.1c0.1,0.1,0.1,0.2,0.1,0.3v10.9c0,0.2,0,0.3,0,0.5s0,0.4,0,0.6
		s0,0.4,0,0.6s0,0.4-0.1,0.5c0,0.1-0.1,0.2-0.1,0.3c0,0.1-0.2,0.2-0.3,0.2s-0.2,0.1-0.4,0.1s-0.4,0-0.6,0.1c-0.2,0-0.5,0-0.7,0
		s-0.5,0-0.7,0h-1c-0.2,0-0.3,0-0.5-0.1c-0.1,0-0.2-0.1-0.2-0.2V258.8z"/>
	<path class="st12" d="M209.6,246.4c0-0.1,0-0.2,0.1-0.3s0.2-0.1,0.3-0.1h0.9c0.1,0,0.2,0,0.2,0.1s0.1,0.2,0.1,0.3v13.4
		c0,0.1,0,0.2-0.1,0.3s-0.1,0.1-0.2,0.1H210c-0.1,0-0.2,0-0.3-0.1s-0.1-0.2-0.1-0.3L209.6,246.4L209.6,246.4z"/>
</g>
</svg>
