<?xml version="1.0" encoding="utf-8"?>
<!-- Generator: Adobe Illustrator 27.0.0, SVG Export Plug-In . SVG Version: 6.00 Build 0)  -->
<svg version="1.1" id="Layer_1" xmlns="http://www.w3.org/2000/svg" xmlns:xlink="http://www.w3.org/1999/xlink" x="0px" y="0px"
	 viewBox="0 0 40 40" style="enable-background:new 0 0 40 40;" xml:space="preserve">
<style type="text/css">
	.st0{fill:#F8941F;}
	.st1{display:none;fill:#FFFFFF;}
</style>
<g>
	<path class="st0" d="M39.74,22.81c0,5.46,0,10.93,0,16.39c-0.17-0.01-0.33-0.02-0.5-0.02c-5.12,0-10.23,0-15.35,0.01
		c-0.33,0-0.54-0.1-0.75-0.34c-0.67-0.76-1.37-1.49-2.05-2.24c-0.07-0.08-0.12-0.19-0.18-0.28c-0.04,0.02-0.08,0.05-0.13,0.07
		c0,0.91,0,1.83,0,2.76c-0.16,0.01-0.27,0.02-0.39,0.02c-5.19,0-10.39,0-15.58-0.01c-0.19,0-0.42-0.11-0.55-0.25
		c-1.19-1.26-2.35-2.55-3.53-3.81c-0.28-0.3-0.4-0.63-0.4-1.04c0.01-4.98,0-9.95,0-14.93c0-0.13,0-0.27,0-0.44c2.03,0,3.99,0,6.02,0
		c-0.37-0.4-0.67-0.76-1.01-1.09c-0.31-0.3-0.42-0.64-0.42-1.07c0.01-4.96,0-9.93,0-14.89c0-0.14,0-0.28,0-0.46
		c0.18,0,0.32,0,0.46,0c4.96,0,9.93,0.01,14.89,0.01c0.41,0,0.74,0.12,1.04,0.4c1.21,1.13,2.41,2.27,3.66,3.35
		c0.33,0.29,0.39,0.56,0.39,0.94c-0.01,4.12,0,8.23,0,12.35c0,0.15,0,0.3,0,0.48c0.2,0,0.35,0,0.5,0c2.94,0,5.87,0.01,8.81,0
		c0.4,0,0.72,0.11,1,0.39c0.9,0.84,1.8,1.68,2.71,2.51C38.82,22.04,39.28,22.42,39.74,22.81z M37.96,37.43c0-4.35,0-8.66,0-12.97
		c-4.33,0-8.63,0-12.93,0c0,4.34,0,8.65,0,12.97C29.35,37.43,33.64,37.43,37.96,37.43z M10.62,6.91c0,0.17,0,0.29,0,0.4
		c-0.01,1.67-0.02,3.33-0.03,5c0,2.5,0.01,5-0.01,7.5c0,0.35,0.08,0.45,0.44,0.45c4.06-0.01,8.13-0.01,12.19-0.01
		c0.13,0,0.27-0.01,0.42-0.02c0-0.2,0-0.35,0-0.51c-0.01-4.11-0.02-8.23-0.01-12.34c0-0.41-0.13-0.48-0.5-0.48
		c-4.01,0.01-8.02,0.01-12.04,0.01C10.96,6.91,10.82,6.91,10.62,6.91z M19.02,24.46c-4.34,0-8.65,0-12.96,0c0,4.34,0,8.65,0,12.96
		c4.33,0,8.64,0,12.96,0C19.02,33.1,19.02,28.79,19.02,24.46z M9.05,19.38c0.03-0.14,0.04-0.17,0.04-0.19c0-4.02,0-8.05-0.01-12.07
		c0-0.16-0.1-0.34-0.2-0.47c-0.83-0.96-1.66-1.91-2.5-2.87C6.33,3.72,6.27,3.68,6.18,3.6C6.17,3.69,6.15,3.74,6.15,3.79
		c0,4.02,0,8.05,0.01,12.07c0,0.16,0.1,0.34,0.21,0.46c0.79,0.91,1.6,1.8,2.4,2.7C8.85,19.12,8.92,19.22,9.05,19.38z M1.6,21.23
		c-0.02,0.13-0.03,0.16-0.03,0.2c0,4.04,0,8.08,0.01,12.12c0,0.15,0.08,0.32,0.18,0.43c0.81,0.93,1.64,1.84,2.46,2.76
		c0.07,0.08,0.12,0.18,0.18,0.27c0.1-0.13,0.11-0.2,0.11-0.26c0-3.99,0-7.98,0-11.97c0-0.11-0.02-0.24-0.08-0.32
		C3.5,23.4,2.57,22.34,1.6,21.23z M20.58,21.23c-0.01,0.15-0.02,0.2-0.02,0.25c0,4.01,0,8.03,0.01,12.04c0,0.16,0.08,0.35,0.19,0.47
		c0.47,0.56,0.97,1.1,1.46,1.64c0.41,0.45,0.81,0.9,1.26,1.4c0.01-0.12,0.03-0.16,0.03-0.21c0-4.01,0-8.03-0.01-12.04
		c0-0.15-0.09-0.32-0.18-0.43c-0.78-0.91-1.56-1.8-2.35-2.7C20.85,21.53,20.75,21.42,20.58,21.23z M22.6,5.18
		c-0.79-0.73-1.47-1.38-2.18-2.01c-0.14-0.12-0.35-0.21-0.54-0.21c-3.87-0.01-7.74-0.01-11.62-0.01c-0.09,0-0.19,0.02-0.35,0.03
		c0.67,0.67,1.3,1.29,1.91,1.92c0.19,0.2,0.39,0.28,0.67,0.28c3.87-0.01,7.74-0.01,11.62-0.01C22.24,5.18,22.36,5.18,22.6,5.18z
		 M23.42,21.67c0.34,0.33,0.59,0.6,0.87,0.83c0.13,0.11,0.33,0.2,0.5,0.2c3.92,0.01,7.84,0.01,11.77,0.01c0.1,0,0.2-0.02,0.38-0.04
		c-0.75-0.7-1.43-1.34-2.13-1.96c-0.15-0.13-0.38-0.22-0.57-0.22c-2.83-0.01-5.66-0.01-8.5-0.01c-0.12,0-0.24,0.02-0.41,0.03
		c0,0.4,0,0.76,0,1.16C24.71,21.67,24.13,21.67,23.42,21.67z M17.99,22.68c-0.29-0.27-0.54-0.48-0.75-0.71
		c-0.22-0.25-0.48-0.33-0.81-0.33c-2.04,0.01-4.08-0.04-6.11,0.03c-0.9,0.03-1.59-0.14-2.08-0.92c-0.14-0.23-0.36-0.28-0.62-0.28
		c-1.28,0.01-2.56,0.01-3.84,0.01c-0.12,0-0.24,0.01-0.46,0.03c0.7,0.69,1.32,1.33,1.98,1.94c0.15,0.14,0.39,0.24,0.6,0.24
		c3.88,0.01,7.77,0.01,11.65,0.01C17.65,22.71,17.78,22.69,17.99,22.68z"/>
	<path class="st1" d="M39.74,22.81c-0.45-0.39-0.92-0.78-1.36-1.18c-0.91-0.83-1.81-1.67-2.71-2.51c-0.29-0.27-0.61-0.39-1-0.39
		c-2.94,0.01-5.87,0-8.81,0c-0.15,0-0.3,0-0.5,0c0-0.18,0-0.33,0-0.48c0-4.12,0-8.23,0-12.35c0-0.38-0.06-0.65-0.39-0.94
		c-1.25-1.08-2.45-2.22-3.66-3.35c-0.3-0.28-0.63-0.4-1.04-0.4c-4.96,0-9.93,0-14.89-0.01c-0.14,0-0.28,0-0.46,0
		c0,0.18,0,0.32,0,0.46c0,4.96,0.01,9.93,0,14.89c0,0.43,0.12,0.77,0.42,1.07c0.34,0.33,0.64,0.69,1.01,1.09c-2.03,0-3.99,0-6.02,0
		c0,0.17,0,0.3,0,0.44c0,4.98,0,9.95,0,14.93c0,0.41,0.12,0.73,0.4,1.04c1.18,1.26,2.34,2.55,3.53,3.81
		c0.13,0.14,0.36,0.25,0.55,0.25c5.19,0.01,10.39,0.01,15.58,0.01c0.11,0,0.22-0.01,0.39-0.02c0-0.93,0-1.84,0-2.76
		c0.04-0.02,0.08-0.05,0.13-0.07c0.06,0.09,0.11,0.2,0.18,0.28c0.68,0.75,1.38,1.48,2.05,2.24c0.21,0.24,0.43,0.34,0.75,0.34
		c5.12-0.01,10.23-0.01,15.35-0.01c0.17,0,0.33,0.01,0.5,0.02c0,0.26,0,0.51,0,0.77c-13.16,0-26.31,0-39.47,0
		c0-13.15,0-26.31,0-39.47c13.15,0,26.31,0,39.47,0C39.74,7.94,39.74,15.38,39.74,22.81z"/>
	<path class="st1" d="M37.96,37.43c-4.32,0-8.61,0-12.93,0c0-4.32,0-8.63,0-12.97c4.3,0,8.6,0,12.93,0
		C37.96,28.77,37.96,33.08,37.96,37.43z M27,30.49c-0.01,3.02,2.13,5.38,4.91,5.62c1.57,0.14,2.96-0.34,4.14-1.4
		c0.33-0.3,0.42-0.66,0.3-1.08c-0.11-0.38-0.4-0.64-0.79-0.63c-0.29,0.01-0.64,0.12-0.87,0.3c-0.78,0.61-1.64,0.92-2.64,0.83
		c-1.27-0.11-2.48-1.04-2.87-2.23c-0.46-1.4-0.08-2.83,0.92-3.72c1.22-1.08,3.15-1.2,4.51-0.07c0.52,0.43,1.15,0.36,1.49-0.1
		c0.33-0.45,0.23-1.05-0.29-1.45c-1.74-1.35-3.66-1.64-5.67-0.72C28.1,26.78,27.1,28.48,27,30.49z"/>
	<path class="st1" d="M10.62,6.91c0.2,0,0.34,0,0.48,0c4.01,0,8.02,0,12.04-0.01c0.37,0,0.5,0.06,0.5,0.48
		c-0.01,4.11,0,8.23,0.01,12.34c0,0.15,0,0.31,0,0.51c-0.15,0.01-0.29,0.02-0.42,0.02c-4.06,0-8.13,0-12.19,0.01
		c-0.36,0-0.45-0.1-0.44-0.45c0.01-2.5,0-5,0.01-7.5c0-1.67,0.02-3.33,0.03-5C10.62,7.2,10.62,7.08,10.62,6.91z M17.26,16.28
		c0.82,0,1.64,0.01,2.46-0.01c0.23,0,0.34,0.07,0.44,0.27c0.19,0.41,0.39,0.81,0.59,1.2c0.31,0.59,0.84,0.8,1.37,0.54
		c0.51-0.25,0.68-0.83,0.39-1.42c-1.44-2.9-2.88-5.8-4.32-8.7c-0.19-0.37-0.47-0.61-0.9-0.61c-0.45-0.01-0.75,0.22-0.94,0.61
		C14.9,11.09,13.45,14,12,16.91c-0.28,0.56-0.1,1.14,0.4,1.39c0.51,0.25,1.05,0.06,1.35-0.5c0.2-0.38,0.41-0.77,0.58-1.17
		c0.11-0.26,0.25-0.36,0.55-0.35C15.67,16.3,16.46,16.28,17.26,16.28z"/>
	<path class="st1" d="M19.02,24.46c0,4.33,0,8.64,0,12.96c-4.32,0-8.62,0-12.96,0c0-4.31,0-8.62,0-12.96
		C10.36,24.46,14.68,24.46,19.02,24.46z M14.93,29.72c0.03-0.08,0.04-0.12,0.06-0.15c1.15-1.88-0.15-4.36-2.36-4.46
		c-0.51-0.02-1.02-0.03-1.54-0.03c-1.16,0-1.8,0.65-1.8,1.82c0,2.54,0,5.08,0,7.61c0,0.17,0.01,0.33,0.03,0.5
		c0.11,0.78,0.7,1.34,1.48,1.36c0.87,0.02,1.74,0.04,2.61-0.02c2.26-0.14,3.82-2.47,3.11-4.62C16.25,30.86,15.69,30.21,14.93,29.72z
		"/>
	<path class="st1" d="M9.05,19.38c-0.13-0.16-0.2-0.26-0.29-0.35c-0.8-0.9-1.61-1.79-2.4-2.7c-0.11-0.12-0.21-0.31-0.21-0.46
		C6.15,11.84,6.15,7.82,6.15,3.79c0-0.05,0.01-0.1,0.03-0.19c0.09,0.08,0.15,0.12,0.21,0.18c0.84,0.95,1.68,1.91,2.5,2.87
		c0.11,0.12,0.2,0.31,0.2,0.47C9.1,11.14,9.1,15.17,9.1,19.19C9.1,19.21,9.09,19.24,9.05,19.38z"/>
	<path class="st1" d="M1.6,21.23c0.97,1.11,1.9,2.17,2.82,3.24c0.06,0.08,0.08,0.21,0.08,0.32c0,3.99,0,7.98,0,11.97
		c0,0.06-0.01,0.12-0.11,0.26c-0.06-0.09-0.11-0.19-0.18-0.27c-0.82-0.92-1.64-1.83-2.46-2.76c-0.1-0.11-0.18-0.29-0.18-0.43
		c-0.01-4.04-0.01-8.08-0.01-12.12C1.57,21.39,1.58,21.36,1.6,21.23z"/>
	<path class="st1" d="M20.58,21.23c0.16,0.18,0.27,0.3,0.38,0.42c0.78,0.9,1.57,1.79,2.35,2.7c0.1,0.11,0.18,0.29,0.18,0.43
		c0.01,4.01,0.01,8.03,0.01,12.04c0,0.05-0.01,0.09-0.03,0.21c-0.45-0.5-0.85-0.95-1.26-1.4c-0.49-0.54-0.98-1.08-1.46-1.64
		c-0.1-0.12-0.19-0.31-0.19-0.47c-0.01-4.01-0.01-8.03-0.01-12.04C20.56,21.44,20.57,21.38,20.58,21.23z"/>
	<path class="st1" d="M22.6,5.18c-0.24,0-0.36,0-0.48,0c-3.87,0-7.74,0-11.62,0.01c-0.28,0-0.48-0.08-0.67-0.28
		C9.22,4.27,8.59,3.65,7.92,2.98c0.16-0.01,0.25-0.03,0.35-0.03c3.87,0,7.74,0,11.62,0.01c0.18,0,0.4,0.09,0.54,0.21
		C21.12,3.8,21.81,4.45,22.6,5.18z"/>
	<path class="st1" d="M23.42,21.67c0.7,0,1.29,0,1.91,0c0-0.39,0-0.76,0-1.16c0.16-0.01,0.28-0.03,0.41-0.03
		c2.83,0,5.67-0.01,8.5,0.01c0.19,0,0.42,0.09,0.57,0.22c0.7,0.62,1.38,1.26,2.13,1.96c-0.17,0.02-0.28,0.04-0.38,0.04
		c-3.92,0-7.84,0-11.77-0.01c-0.17,0-0.36-0.09-0.5-0.2C24.01,22.27,23.76,22,23.42,21.67z"/>
	<path class="st1" d="M17.99,22.68c-0.21,0.01-0.33,0.02-0.45,0.02c-3.88,0-7.77,0-11.65-0.01c-0.2,0-0.45-0.11-0.6-0.24
		c-0.65-0.61-1.28-1.25-1.98-1.94c0.22-0.01,0.34-0.03,0.46-0.03c1.28,0,2.56,0.01,3.84-0.01c0.27,0,0.48,0.05,0.62,0.28
		c0.48,0.78,1.18,0.95,2.08,0.92c2.04-0.07,4.07-0.01,6.11-0.03c0.33,0,0.59,0.08,0.81,0.33C17.45,22.21,17.69,22.41,17.99,22.68z"
		/>
	<path class="st0" d="M27,30.49c0.1-2,1.1-3.7,3.16-4.64c2-0.92,3.92-0.63,5.67,0.72c0.52,0.4,0.63,1,0.29,1.45
		c-0.35,0.46-0.97,0.53-1.49,0.1c-1.36-1.13-3.29-1.01-4.51,0.07c-1.01,0.9-1.38,2.33-0.92,3.72c0.39,1.2,1.6,2.12,2.87,2.23
		c1,0.09,1.85-0.22,2.64-0.83c0.23-0.18,0.57-0.29,0.87-0.3c0.38-0.01,0.67,0.24,0.79,0.63c0.12,0.41,0.03,0.78-0.3,1.08
		c-1.18,1.05-2.56,1.54-4.14,1.4C29.13,35.87,26.99,33.5,27,30.49z"/>
	<path class="st0" d="M17.26,16.28c-0.79,0-1.59,0.02-2.38-0.01c-0.29-0.01-0.43,0.09-0.55,0.35c-0.17,0.4-0.37,0.79-0.58,1.17
		c-0.3,0.56-0.84,0.76-1.35,0.5c-0.5-0.25-0.68-0.83-0.4-1.39c1.44-2.91,2.89-5.82,4.34-8.73c0.19-0.39,0.49-0.62,0.94-0.61
		c0.43,0.01,0.71,0.24,0.9,0.61c1.44,2.9,2.88,5.8,4.32,8.7c0.29,0.59,0.12,1.17-0.39,1.42c-0.52,0.26-1.06,0.05-1.37-0.54
		c-0.21-0.4-0.41-0.8-0.59-1.2c-0.09-0.2-0.21-0.28-0.44-0.27C18.9,16.29,18.08,16.28,17.26,16.28z M17.25,10.76
		c-0.61,1.22-1.18,2.37-1.76,3.54c1.2,0,2.34,0,3.53,0c-0.55-1.1-1.07-2.15-1.59-3.2C17.39,11.01,17.34,10.92,17.25,10.76z"/>
	<path class="st0" d="M14.93,29.71c0.77,0.5,1.32,1.15,1.6,2.01c0.7,2.15-0.85,4.49-3.11,4.62c-0.87,0.05-1.74,0.04-2.61,0.02
		c-0.78-0.02-1.37-0.58-1.48-1.36C9.3,34.84,9.3,34.67,9.3,34.5c0-2.54,0-5.08,0-7.61c0-1.17,0.64-1.82,1.8-1.82
		c0.51,0,1.02,0,1.54,0.03c2.21,0.1,3.51,2.58,2.36,4.46C14.97,29.59,14.96,29.63,14.93,29.71z M11.27,34.38
		c0.74,0,1.44,0.05,2.13-0.01c0.75-0.08,1.29-0.73,1.32-1.47c0.03-0.8-0.43-1.52-1.21-1.63c-0.73-0.1-1.49-0.02-2.24-0.02
		C11.27,32.28,11.27,33.32,11.27,34.38z M11.27,29.02c0.45,0,0.88,0.03,1.29-0.01c0.48-0.04,0.85-0.46,0.88-0.92
		c0.03-0.47-0.29-0.95-0.76-1.02c-0.46-0.06-0.93-0.01-1.41-0.01C11.27,27.72,11.27,28.35,11.27,29.02z"/>
	<path class="st1" d="M17.25,10.76c0.09,0.16,0.14,0.24,0.18,0.33c0.52,1.05,1.05,2.11,1.59,3.2c-1.19,0-2.33,0-3.53,0
		C16.08,13.14,16.65,11.98,17.25,10.76z"/>
	<path class="st1" d="M11.27,34.39c0-1.06,0-2.09,0-3.13c0.75,0,1.51-0.08,2.24,0.02c0.78,0.11,1.25,0.83,1.21,1.63
		c-0.03,0.73-0.57,1.39-1.32,1.47C12.71,34.44,12.01,34.39,11.27,34.39z"/>
	<path class="st1" d="M11.27,29.03c0-0.68,0-1.3,0-1.96c0.48,0,0.95-0.05,1.41,0.01c0.47,0.06,0.79,0.55,0.76,1.02
		c-0.03,0.46-0.4,0.88-0.88,0.92C12.15,29.06,11.73,29.03,11.27,29.03z"/>
</g>
</svg>
