<?xml version="1.0" encoding="utf-8"?>
<!-- Generator: Adobe Illustrator 27.0.0, SVG Export Plug-In . SVG Version: 6.00 Build 0)  -->
<svg version="1.1" id="Layer_1" xmlns="http://www.w3.org/2000/svg" xmlns:xlink="http://www.w3.org/1999/xlink" x="0px" y="0px"
	 viewBox="0 0 40 40" style="enable-background:new 0 0 40 40;" xml:space="preserve">
<style type="text/css">
	.st0{fill:none;stroke:#4664E4;stroke-width:2;stroke-miterlimit:10;stroke-dasharray:151,153;}
</style>
<path class="st0" d="M10.71,25.59l5.15,5.25c0.16,0.16,0.26,0.39,0.26,0.62v3.57c0,0.38,0.24,0.71,0.59,0.84
	c1.36,0.47,4.77,0.87,7.27,2.99c0.57,0.48,1.43,0.05,1.43-0.69v-3.78c0-1.4,1.07-2.54,2.46-2.69c2.24-0.25,5.19-1.76,5.02-8.07
	c-0.01-0.5,0.4-0.9,0.89-0.9h1.05c1.03,0,1.59-1.19,0.93-1.98l-3.07-3.73c-0.29-0.35-0.46-0.81-0.46-1.27v-5.47
	c0.02-4.08-3.36-9.33-9.78-9.33s-10.73,2.63-10.73,5.5"/>
<path class="st0" d="M27.11,5.98v18.01c0,0.98-0.79,1.77-1.77,1.77h-2.16c-0.23,0-0.44,0.11-0.55,0.31l-1.65,2.69
	c-0.06,0.09-0.17,0.1-0.25,0.04l-3.17-2.87c-0.12-0.1-0.28-0.17-0.44-0.17H5.72c-0.98,0-1.77-0.8-1.77-1.77V7.88
	c0-0.98,0.79-1.77,1.77-1.77h16.05"/>
<path class="st0" d="M15.22,17.56c0.95,0,1.73-0.78,1.73-1.73c0-0.96-0.77-1.73-1.73-1.73s-1.73,0.78-1.73,1.73
	C13.49,16.79,14.27,17.56,15.22,17.56z"/>
<path class="st0" d="M10.71,12.96c0.95,0,1.73-0.78,1.73-1.73c0-0.96-0.77-1.73-1.73-1.73s-1.73,0.78-1.73,1.73
	C8.98,12.19,9.76,12.96,10.71,12.96z"/>
<path class="st0" d="M19.74,12.96c0.95,0,1.73-0.78,1.73-1.73c0-0.96-0.77-1.73-1.73-1.73c-0.95,0-1.73,0.78-1.73,1.73
	C18.01,12.19,18.78,12.96,19.74,12.96z"/>
<path class="st0" d="M10.71,22.16c0.95,0,1.73-0.78,1.73-1.73s-0.77-1.73-1.73-1.73s-1.73,0.78-1.73,1.73S9.76,22.16,10.71,22.16z"
	/>
<path class="st0" d="M19.74,22.16c0.95,0,1.73-0.78,1.73-1.73s-0.77-1.73-1.73-1.73c-0.95,0-1.73,0.78-1.73,1.73
	S18.78,22.16,19.74,22.16z"/>
<path class="st0" d="M16.35,14.52l2.12-2.12"/>
<path class="st0" d="M13.92,14.7l-2.18-2.18"/>
<path class="st0" d="M13.86,17.72l-2.12,2.12"/>
<path class="st0" d="M16.29,17.55l2.18,2.18"/>
<path class="st0" d="M24.46,6.55c0.24,0,0.44-0.2,0.44-0.44c0-0.24-0.2-0.44-0.44-0.44c-0.24,0-0.44,0.2-0.44,0.44
	C24.02,6.35,24.22,6.55,24.46,6.55z"/>
</svg>
