<?xml version="1.0" encoding="utf-8"?>
<!-- Generator: Adobe Illustrator 27.0.0, SVG Export Plug-In . SVG Version: 6.00 Build 0)  -->
<svg version="1.1" id="Layer_1" xmlns="http://www.w3.org/2000/svg" xmlns:xlink="http://www.w3.org/1999/xlink" x="0px" y="0px"
	 viewBox="0 0 34 40" style="enable-background:new 0 0 34 40;" xml:space="preserve">
<style type="text/css">
	.st0{fill:none;stroke:#1AB69D;stroke-width:2;stroke-linejoin:round;stroke-miterlimit:10;stroke-dasharray:86,88;}
	
		.st1{fill:none;stroke:#1AB69D;stroke-width:2;stroke-linecap:round;stroke-linejoin:round;stroke-miterlimit:10;stroke-dasharray:81,83;}
	.st2{fill:none;stroke:#1AB69D;stroke-width:2;stroke-miterlimit:10;stroke-dasharray:11,13;}
	.st3{fill:none;stroke:#1AB69D;stroke-width:2;stroke-miterlimit:10;stroke-dasharray:3,5;}
	.st4{fill:none;stroke:#1AB69D;stroke-width:2;stroke-miterlimit:10;stroke-dasharray:4,6;}
	.st5{fill:none;stroke:#1AB69D;stroke-linecap:round;stroke-linejoin:round;stroke-miterlimit:10;stroke-dasharray:3,5;}
	.st6{fill:#1AB69D;stroke:#1AB69D;stroke-miterlimit:10;}
</style>
<path class="st0" d="M63.83,31.24l5.15,5.25c0.16,0.16,0.26,0.39,0.26,0.62v3.57c0,0.38,0.24,0.71,0.59,0.84
	c1.36,0.47,4.77,0.87,7.27,2.99c0.57,0.48,1.43,0.05,1.43-0.69v-3.78c0-1.4,1.07-2.54,2.46-2.69c2.24-0.25,5.19-1.76,5.02-8.07
	c-0.01-0.5,0.4-0.9,0.89-0.9h1.05c1.03,0,1.59-1.19,0.93-1.98l-3.07-3.73c-0.29-0.35-0.46-0.81-0.46-1.27v-5.47
	c0.02-4.08-3.36-9.33-9.78-9.33s-10.73,2.63-10.73,5.5"/>
<path class="st1" d="M80.23,11.63v18.01c0,0.98-0.79,1.77-1.77,1.77h-2.16c-0.23,0-0.44,0.11-0.55,0.31l-1.65,2.69
	c-0.06,0.09-0.17,0.1-0.25,0.04l-3.17-2.87c-0.12-0.1-0.28-0.17-0.44-0.17h-11.4c-0.98,0-1.77-0.8-1.77-1.77V13.53
	c0-0.98,0.79-1.77,1.77-1.77h16.05"/>
<path class="st2" d="M68.34,23.21c0.95,0,1.73-0.78,1.73-1.73c0-0.96-0.77-1.73-1.73-1.73s-1.73,0.78-1.73,1.73
	C66.62,22.43,67.39,23.21,68.34,23.21z"/>
<path class="st2" d="M63.83,18.61c0.95,0,1.73-0.78,1.73-1.73c0-0.96-0.77-1.73-1.73-1.73c-0.95,0-1.73,0.78-1.73,1.73
	C62.1,17.83,62.88,18.61,63.83,18.61z"/>
<path class="st2" d="M72.86,18.61c0.95,0,1.73-0.78,1.73-1.73c0-0.96-0.77-1.73-1.73-1.73c-0.95,0-1.73,0.78-1.73,1.73
	C71.13,17.83,71.9,18.61,72.86,18.61z"/>
<path class="st2" d="M63.83,27.81c0.95,0,1.73-0.78,1.73-1.73s-0.77-1.73-1.73-1.73c-0.95,0-1.73,0.78-1.73,1.73
	S62.88,27.81,63.83,27.81z"/>
<path class="st2" d="M72.86,27.81c0.95,0,1.73-0.78,1.73-1.73s-0.77-1.73-1.73-1.73c-0.95,0-1.73,0.78-1.73,1.73
	S71.9,27.81,72.86,27.81z"/>
<path class="st3" d="M69.47,20.17l2.12-2.12"/>
<path class="st4" d="M67.04,20.34l-2.18-2.18"/>
<path class="st3" d="M66.99,23.37l-2.12,2.12"/>
<path class="st4" d="M69.41,23.2l2.18,2.18"/>
<path class="st5" d="M77.58,12.19c0.24,0,0.44-0.2,0.44-0.44c0-0.24-0.2-0.44-0.44-0.44c-0.24,0-0.44,0.2-0.44,0.44
	C77.14,12,77.34,12.19,77.58,12.19z"/>
<g>
	<path class="st6" d="M17.43,27.78l0.15,0.25c0.1,0.15,0.05,0.35-0.15,0.45L2.12,35.61c-0.15,0.1-0.4,0-0.45-0.15
		c-0.05-0.05-0.05-0.1-0.05-0.2c0.05-2.76,0.75-4.72,1.76-6.28c1-1.55,2.36-2.71,3.76-3.76c0.1-0.05,0.2-0.1,0.3-0.05l9.74,2.41
		C17.28,27.58,17.38,27.68,17.43,27.78L17.43,27.78z M2.32,34.76l14.25-6.63l-9.14-2.26c-1.3,1-2.56,2.06-3.51,3.46
		C3.07,30.69,2.47,32.4,2.32,34.76L2.32,34.76z"/>
	<path class="st6" d="M16.97,28.03l0.2-0.35c0.05-0.1,0.15-0.15,0.25-0.15l9.94-2.06c0.1,0,0.2,0,0.25,0.05
		c1.46,1.11,2.71,2.11,3.66,3.61c1,1.46,1.61,3.36,1.66,6.13c0,0.1,0,0.15-0.05,0.2c-0.1,0.15-0.3,0.25-0.45,0.15l-15.31-7.13
		C16.92,28.38,16.88,28.18,16.97,28.03L16.97,28.03z M17.88,28.13l14.36,6.63c-0.1-2.36-0.65-3.97-1.51-5.27
		c-0.85-1.31-2.06-2.31-3.36-3.31L17.88,28.13z"/>
	<path class="st6" d="M7.44,12.25C7.29,12.2,7.19,12,7.24,11.8c0.05-0.15,0.2-0.3,0.4-0.25l6.63,1.81c0.2,0.05,0.3,0.25,0.25,0.4
		c-0.05,0.2-0.2,0.3-0.4,0.25L7.44,12.25z"/>
	<path class="st6" d="M7.44,15.78c-0.15-0.05-0.25-0.25-0.2-0.4c0.05-0.2,0.2-0.3,0.4-0.25l6.63,1.76c0.2,0.05,0.3,0.25,0.25,0.45
		c-0.05,0.15-0.2,0.3-0.4,0.25L7.44,15.78z"/>
	<path class="st6" d="M7.44,19.36c-0.15-0.05-0.25-0.25-0.2-0.45c0.05-0.15,0.2-0.3,0.4-0.25l6.63,1.81c0.2,0.05,0.3,0.25,0.25,0.4
		c-0.05,0.2-0.2,0.3-0.4,0.25L7.44,19.36z"/>
	<path class="st6" d="M26.31,11.55c0.2-0.05,0.35,0.1,0.4,0.25c0.05,0.2-0.05,0.4-0.2,0.45l-6.68,1.76c-0.2,0.05-0.35-0.05-0.4-0.25
		c-0.05-0.15,0.05-0.35,0.25-0.4L26.31,11.55z"/>
	<path class="st6" d="M26.31,15.13c0.2-0.05,0.35,0.05,0.4,0.25c0.05,0.15-0.05,0.35-0.2,0.4l-6.68,1.81
		c-0.2,0.05-0.35-0.1-0.4-0.25c-0.05-0.2,0.05-0.4,0.25-0.45L26.31,15.13z"/>
	<path class="st6" d="M26.31,18.66c0.2-0.05,0.35,0.1,0.4,0.25c0.05,0.2-0.05,0.4-0.2,0.45l-6.68,1.76c-0.2,0.05-0.35-0.05-0.4-0.25
		c-0.05-0.15,0.05-0.35,0.25-0.4L26.31,18.66z"/>
	<path class="st6" d="M12.06,26.42c0.15-0.1,0.35-0.05,0.45,0.1c0.1,0.15,0.05,0.4-0.1,0.45l-4.82,2.81c-0.15,0.1-0.35,0-0.45-0.15
		c-0.1-0.15-0.05-0.35,0.1-0.45L12.06,26.42z"/>
	<path class="st6" d="M22.85,26.98c-0.2-0.05-0.25-0.3-0.15-0.45c0.1-0.15,0.3-0.2,0.45-0.1l4.82,2.76c0.15,0.1,0.25,0.3,0.15,0.45
		c-0.1,0.15-0.3,0.25-0.5,0.15L22.85,26.98z"/>
	<path class="st6" d="M2.22,9.56l2.71,0.55c0.15,0,0.3,0.2,0.25,0.35L4.43,21.45l12.15,2.76l0.15-11.3c0-0.2,0.15-0.35,0.35-0.35
		l0.1,0.05c0.15,0,0.25,0.15,0.25,0.3l0.05,15.01c0,0.2-0.15,0.35-0.35,0.35c-0.05,0-0.1-0.05-0.1-0.05L0.81,24.22
		c-0.15-0.05-0.25-0.2-0.25-0.35l1.2-14c0.05-0.2,0.2-0.35,0.4-0.3H2.22z M4.48,10.71l-2.06-0.4l-1.16,13.3l15.51,3.87v-2.51
		l-12.8-2.86c-0.15-0.05-0.3-0.2-0.25-0.4L4.48,10.71z"/>
	<path class="st6" d="M31.78,10.31l-2.11,0.4l0.75,10.99c0,0.2-0.1,0.35-0.3,0.4l-12.65,2.81v2.56l15.21-3.21L31.78,10.31z
		 M29.22,10.11l2.86-0.55c0.2-0.05,0.35,0.1,0.35,0.3l0.95,14.66c0.05,0.15-0.1,0.3-0.25,0.35l-15.91,3.36
		c-0.05,0-0.1,0.05-0.1,0.05c-0.2,0-0.35-0.15-0.35-0.35V14.98c0-0.2,0.15-0.35,0.35-0.35c0.15,0,0.35,0.15,0.35,0.35l0.1,9.24
		l12.15-2.76l-0.8-10.99C28.92,10.31,29.07,10.16,29.22,10.11L29.22,10.11z"/>
	<path class="st6" d="M4.98,7.55C7.39,7.1,9.55,7.3,11.6,7.9c2.01,0.6,3.86,1.61,5.67,2.86c0.1,0.1,0.15,0.2,0.15,0.3l-0.15,13.6
		c0,0.15-0.15,0.3-0.35,0.3h-0.1L3.97,22.06c-0.15,0-0.3-0.15-0.25-0.35L4.68,7.85C4.68,7.7,4.83,7.55,4.98,7.55L4.98,7.55z
		 M11.4,8.55C9.55,8,7.54,7.8,5.38,8.2L4.43,21.45l12.15,2.76l0.15-13C15.02,10.06,13.26,9.1,11.4,8.55L11.4,8.55z"/>
	<path class="st6" d="M28.77,8.2c-2.16-0.4-4.17-0.2-6.02,0.35c-1.91,0.55-3.66,1.51-5.32,2.66l0.15,13l12.15-2.76L28.77,8.2z
		 M22.55,7.9c2.06-0.6,4.22-0.8,6.57-0.35c0.2,0,0.3,0.15,0.35,0.3l0.95,13.85c0,0.2-0.1,0.35-0.25,0.35l-12.9,2.91h-0.05
		c-0.2,0-0.35-0.15-0.35-0.3l-0.15-13.6c0-0.1,0.05-0.2,0.15-0.3C18.63,9.51,20.54,8.5,22.55,7.9L22.55,7.9z"/>
</g>
</svg>
