<?xml version="1.0" encoding="utf-8"?>
<!-- Generator: Adobe Illustrator 27.0.0, SVG Export Plug-In . SVG Version: 6.00 Build 0)  -->
<svg version="1.1" id="Layer_1" xmlns="http://www.w3.org/2000/svg" xmlns:xlink="http://www.w3.org/1999/xlink" x="0px" y="0px"
	 viewBox="0 0 380 190" style="enable-background:new 0 0 380 190;" xml:space="preserve">
<style type="text/css">
	.st0{fill:#FFFFFF;}
	.st1{fill:#FDEDEF;}
	.st2{fill:#EE4A62;}
	.st3{fill:#EF5269;}
	.st4{fill:#89898B;}
</style>
<g>
	<path shape-rendering="crispEdges" class="st0" d="M40,70c0-27.6,22.4-50,50-50h240c5.5,0,10,4.5,10,10v50c0,27.6-22.4,50-50,50H50
		c-5.5,0-10-4.5-10-10V70z"/>
	<circle class="st1" cx="281" cy="75" r="25"/>
	<path class="st2" d="M273.5,85.1c-0.9-0.4-1.4-1-1.9-1.8c-0.3-0.5-0.5-0.9-0.8-1.4c0,0,0-0.1-0.1-0.1c-0.1-0.2-0.3-0.6-0.1-1.1
		c0.1-0.3,0.4-0.6,0.8-1c0.9-0.9,2.9-2.1,3.8-2.5c0.7-0.3,1.1-0.6,1.6-0.6l0,0c0.6,0,1,0.3,1.5,0.7c0.1,0.1,0.1,0.1,0.2,0.2
		c0.5,0.4,0.6,0.5,0.9,0.4c0.5-0.1,2-0.9,3.3-2.2s2.1-2.8,2.3-3.3c0-0.2,0-0.4-0.4-0.9c-0.1-0.1-0.1-0.2-0.2-0.2
		c-0.3-0.5-0.6-0.9-0.6-1.5c0-0.5,0.2-0.9,0.5-1.6c0.5-1,1.7-2.9,2.6-3.8c0.4-0.4,0.7-0.7,1-0.8c0.5-0.2,0.8,0,1.1,0.1
		c0,0,0.1,0,0.1,0.1c0.5,0.2,1,0.5,1.4,0.7c0.8,0.5,1.4,1,1.8,1.9c0.3,0.7,0.6,2.5-1.2,5.7c-1.6,2.9-2.7,4.4-5.1,6.8
		c-2.4,2.4-4.3,3.7-6.8,5.1c-2,1.1-3.4,1.5-4.3,1.5C274.4,85.4,273.9,85.3,273.5,85.1z"/>
</g>
<g>
	<path class="st3" d="M87.7,86.3c0,0.1,0,0.2-0.1,0.2c-0.1,0.1-0.2,0.1-0.3,0.1h-3.6v3.6c0,0.1,0,0.2-0.1,0.3
		c-0.1,0.1-0.1,0.1-0.2,0.1h-0.8c-0.1,0-0.2,0-0.2-0.1c-0.1-0.1-0.1-0.2-0.1-0.3v-3.6h-3.6c-0.1,0-0.2,0-0.3-0.1
		c-0.1-0.1-0.1-0.1-0.1-0.2v-0.8c0-0.1,0-0.2,0.1-0.2s0.2-0.1,0.3-0.1h3.6v-3.6c0-0.1,0-0.2,0.1-0.3c0.1-0.1,0.1-0.1,0.2-0.1h0.8
		c0.1,0,0.2,0,0.2,0.1c0.1,0.1,0.1,0.2,0.1,0.3v3.6h3.6c0.1,0,0.2,0,0.3,0.1s0.1,0.1,0.1,0.2V86.3z"/>
	<path class="st3" d="M100.6,88c0,1.1-0.1,2.1-0.4,2.9s-0.6,1.4-1,1.9s-1,0.9-1.7,1.1c-0.7,0.2-1.5,0.3-2.4,0.3
		c-0.8,0-1.5,0-2.1-0.1s-1.1-0.2-1.5-0.2c-0.1,0-0.3-0.1-0.4-0.1S91,93.6,91,93.5v-0.8c0-0.1,0-0.2,0.1-0.3s0.2-0.1,0.3-0.1
		c0,0,0.1,0,0.1,0s0,0,0.1,0c0.5,0.1,1.1,0.2,1.7,0.2c0.6,0.1,1.2,0.1,1.9,0.1c0.8,0,1.5-0.1,1.9-0.3c0.5-0.2,0.8-0.6,1.1-1
		s0.4-0.9,0.5-1.5c0.1-0.6,0.1-1.2,0.1-1.9v-0.2c-0.4,0.1-0.9,0.2-1.4,0.3c-0.5,0.1-1.1,0.1-1.7,0.1c-0.7,0-1.3-0.1-2-0.2
		s-1.2-0.4-1.6-0.7c-0.5-0.3-0.9-0.8-1.1-1.3c-0.3-0.6-0.4-1.3-0.4-2.1v-0.1c0-1.7,0.4-3,1.3-3.9s2.1-1.4,3.9-1.4
		c0.8,0,1.5,0.1,2.1,0.4s1.2,0.6,1.6,1.1s0.8,1.1,1,1.9s0.4,1.7,0.4,2.7L100.6,88L100.6,88z M98.7,84.3c0-0.8-0.1-1.6-0.2-2.1
		s-0.4-1-0.6-1.3c-0.3-0.3-0.6-0.6-1-0.7s-0.9-0.2-1.4-0.2c-0.5,0-0.9,0.1-1.3,0.2c-0.4,0.1-0.8,0.3-1,0.6s-0.5,0.7-0.6,1.2
		s-0.2,1.1-0.2,1.8v0.1c0,0.6,0.1,1.1,0.3,1.4s0.4,0.7,0.7,0.9c0.3,0.2,0.6,0.4,1,0.5s0.8,0.1,1.2,0.1c0.2,0,0.5,0,0.8,0
		c0.3,0,0.6-0.1,0.9-0.1c0.3,0,0.6-0.1,0.8-0.1s0.5-0.1,0.7-0.1L98.7,84.3z"/>
	<path class="st3" d="M113.2,79.8c0,0.3-0.1,0.7-0.3,1.1l-6.1,12.9c-0.1,0.2-0.3,0.3-0.5,0.3h-1.3c-0.1,0-0.2,0-0.2-0.1
		s-0.1-0.1-0.1-0.2c0-0.1,0-0.2,0.1-0.2l6.3-13.2c0,0,0,0,0-0.1c0-0.1-0.1-0.2-0.1-0.2H104c-0.1,0-0.2,0-0.3-0.1
		c-0.1-0.1-0.1-0.2-0.1-0.3v-0.9c0-0.1,0-0.2,0.1-0.3s0.2-0.1,0.3-0.1h7.7c0.6,0,1,0.1,1.2,0.4C113.1,79.1,113.2,79.4,113.2,79.8z"
		/>
	<path class="st3" d="M126.6,89.6c0,0.2-0.1,0.4-0.4,0.4h-1.8v3.7c0,0.1,0,0.2-0.1,0.3s-0.1,0.1-0.3,0.1h-1.2c-0.1,0-0.2,0-0.3-0.1
		c-0.1-0.1-0.1-0.2-0.1-0.3v-3.7h-6.1c-0.3,0-0.6-0.1-0.7-0.2c-0.1-0.1-0.2-0.3-0.2-0.6v-0.8c0-0.3,0.1-0.6,0.2-0.8l6.2-8.7
		c0.1-0.1,0.1-0.2,0.2-0.2s0.2-0.1,0.4-0.1h1.2c0.4,0,0.6,0.2,0.6,0.5v9.4h1.8c0.1,0,0.2,0,0.3,0.1c0.1,0.1,0.1,0.2,0.1,0.3
		L126.6,89.6L126.6,89.6z M122.5,81.2c0-0.1,0-0.1-0.1-0.1h0c-0.1,0-0.1,0-0.2,0.1l-4.9,6.9c0,0.1-0.1,0.1-0.1,0.2
		c0,0.1,0.1,0.1,0.2,0.1h5L122.5,81.2L122.5,81.2z"/>
	<path class="st3" d="M143.6,89.7c0,0.8-0.1,1.5-0.4,2s-0.6,1-1.1,1.4s-1,0.6-1.6,0.8s-1.3,0.3-2.1,0.3c-0.7,0-1.3,0-1.9-0.1
		c-0.6-0.1-1.1-0.2-1.6-0.3c-0.1,0-0.2-0.1-0.3-0.1c-0.1-0.1-0.1-0.2-0.1-0.3v-0.7c0-0.2,0.1-0.4,0.4-0.4h0.1
		c0.6,0.1,1.2,0.2,1.9,0.2s1.2,0.1,1.7,0.1c1.1,0,2-0.2,2.5-0.7s0.8-1.2,0.8-2.2v-0.4c0-0.3,0-0.6-0.1-0.9s-0.2-0.6-0.4-0.8
		c-0.2-0.2-0.4-0.5-0.8-0.6c-0.3-0.2-0.7-0.2-1.2-0.2h-3.8c-0.3,0-0.4-0.1-0.4-0.4v-0.7c0-0.3,0.1-0.4,0.4-0.4h3.8
		c0.5,0,0.9-0.1,1.2-0.2s0.6-0.3,0.8-0.6c0.2-0.2,0.3-0.5,0.4-0.8s0.1-0.6,0.1-0.9v-0.3c0-0.9-0.2-1.5-0.8-1.9s-1.3-0.6-2.5-0.6
		c-0.6,0-1.2,0-1.7,0.1c-0.5,0.1-1.1,0.1-1.8,0.2h-0.1c-0.2,0-0.4-0.1-0.4-0.4v-0.7c0-0.1,0-0.2,0.1-0.2s0.2-0.1,0.3-0.2
		c0.5-0.1,1.1-0.2,1.6-0.3c0.6-0.1,1.2-0.1,1.9-0.1c0.8,0,1.5,0.1,2.1,0.2s1.2,0.4,1.6,0.7c0.4,0.3,0.8,0.8,1.1,1.3
		c0.2,0.5,0.4,1.2,0.4,1.9v0.3c0,0.7-0.2,1.4-0.5,1.9c-0.3,0.6-0.8,1-1.5,1.3c0.4,0.2,0.7,0.4,0.9,0.7s0.5,0.5,0.6,0.8
		s0.3,0.6,0.3,0.9s0.1,0.6,0.1,0.9L143.6,89.7L143.6,89.7z"/>
	<path class="st3" d="M156.2,89.7c0,0.8-0.1,1.5-0.4,2s-0.6,1-1.1,1.4s-1,0.6-1.6,0.8s-1.3,0.3-2.1,0.3c-0.7,0-1.3,0-1.9-0.1
		c-0.6-0.1-1.1-0.2-1.6-0.3c-0.1,0-0.2-0.1-0.3-0.1c-0.1-0.1-0.1-0.2-0.1-0.3v-0.7c0-0.2,0.1-0.4,0.4-0.4h0.1
		c0.6,0.1,1.2,0.2,1.9,0.2s1.2,0.1,1.7,0.1c1.1,0,2-0.2,2.5-0.7s0.8-1.2,0.8-2.2v-0.4c0-0.3,0-0.6-0.1-0.9s-0.2-0.6-0.4-0.8
		c-0.2-0.2-0.4-0.5-0.8-0.6c-0.3-0.2-0.7-0.2-1.2-0.2H148c-0.3,0-0.4-0.1-0.4-0.4v-0.7c0-0.3,0.1-0.4,0.4-0.4h3.8
		c0.5,0,0.9-0.1,1.2-0.2s0.6-0.3,0.8-0.6c0.2-0.2,0.3-0.5,0.4-0.8s0.1-0.6,0.1-0.9v-0.3c0-0.9-0.2-1.5-0.8-1.9s-1.3-0.6-2.5-0.6
		c-0.6,0-1.2,0-1.7,0.1c-0.5,0.1-1.1,0.1-1.8,0.2h-0.1c-0.2,0-0.4-0.1-0.4-0.4v-0.7c0-0.1,0-0.2,0.1-0.2s0.2-0.1,0.3-0.2
		c0.5-0.1,1.1-0.2,1.6-0.3c0.6-0.1,1.2-0.1,1.9-0.1c0.8,0,1.5,0.1,2.1,0.2s1.2,0.4,1.6,0.7c0.4,0.3,0.8,0.8,1.1,1.3
		c0.2,0.5,0.4,1.2,0.4,1.9v0.3c0,0.7-0.2,1.4-0.5,1.9c-0.3,0.6-0.8,1-1.5,1.3c0.4,0.2,0.7,0.4,0.9,0.7s0.5,0.5,0.6,0.8
		s0.3,0.6,0.3,0.9s0.1,0.6,0.1,0.9L156.2,89.7L156.2,89.7z"/>
	<path class="st3" d="M165.1,94.1c-0.1,0-0.2,0-0.3-0.1c-0.1-0.1-0.1-0.2-0.1-0.3v-0.9c0-0.1,0-0.2,0.1-0.3c0.1-0.1,0.2-0.1,0.3-0.1
		h3.3v-12l-3.3,1.4c-0.1,0-0.2,0.1-0.3,0.1s-0.2-0.1-0.2-0.2v-1.1c0-0.1,0-0.1,0.1-0.2c0,0,0.1-0.1,0.2-0.1l3.8-1.7
		c0.2-0.1,0.3-0.1,0.4-0.1h0.9c0.1,0,0.2,0,0.3,0.1s0.1,0.2,0.1,0.3v13.5h3.4c0.1,0,0.2,0,0.3,0.1c0.1,0.1,0.1,0.2,0.1,0.3v0.9
		c0,0.1,0,0.2-0.1,0.3c-0.1,0.1-0.2,0.1-0.3,0.1L165.1,94.1L165.1,94.1z"/>
	<path class="st3" d="M177.8,94.1c-0.1,0-0.2,0-0.3-0.1c-0.1-0.1-0.1-0.2-0.1-0.3v-0.9c0-0.1,0-0.2,0.1-0.3c0.1-0.1,0.2-0.1,0.3-0.1
		h3.3v-12l-3.3,1.4c-0.1,0-0.2,0.1-0.3,0.1s-0.2-0.1-0.2-0.2v-1.1c0-0.1,0-0.1,0.1-0.2c0,0,0.1-0.1,0.2-0.1l3.8-1.7
		c0.2-0.1,0.3-0.1,0.4-0.1h0.9c0.1,0,0.2,0,0.3,0.1s0.1,0.2,0.1,0.3v13.5h3.4c0.1,0,0.2,0,0.3,0.1c0.1,0.1,0.1,0.2,0.1,0.3v0.9
		c0,0.1,0,0.2-0.1,0.3c-0.1,0.1-0.2,0.1-0.3,0.1L177.8,94.1L177.8,94.1z"/>
	<path class="st3" d="M190.5,94.1c-0.1,0-0.2,0-0.3-0.1c-0.1-0.1-0.1-0.2-0.1-0.3v-0.9c0-0.1,0-0.2,0.1-0.3c0.1-0.1,0.2-0.1,0.3-0.1
		h3.3v-12l-3.3,1.4c-0.1,0-0.2,0.1-0.3,0.1s-0.2-0.1-0.2-0.2v-1.1c0-0.1,0-0.1,0.1-0.2c0,0,0.1-0.1,0.2-0.1l3.8-1.7
		c0.2-0.1,0.3-0.1,0.4-0.1h0.9c0.1,0,0.2,0,0.3,0.1s0.1,0.2,0.1,0.3v13.5h3.4c0.1,0,0.2,0,0.3,0.1c0.1,0.1,0.1,0.2,0.1,0.3v0.9
		c0,0.1,0,0.2-0.1,0.3c-0.1,0.1-0.2,0.1-0.3,0.1L190.5,94.1L190.5,94.1z"/>
	<path class="st3" d="M217.5,82.1c0,0.8-0.2,1.5-0.6,2.2s-1.1,1.2-2.1,1.9l-2,1.4c-0.6,0.4-1.1,0.8-1.5,1.1s-0.7,0.7-0.9,1
		s-0.4,0.7-0.5,1.1s-0.1,0.8-0.1,1.2v0.4h7.1c0.1,0,0.2,0,0.3,0.1c0.1,0.1,0.1,0.2,0.1,0.3v0.9c0,0.1,0,0.2-0.1,0.3
		c-0.1,0.1-0.2,0.1-0.3,0.1h-8.3c-0.1,0-0.2,0-0.3-0.1s-0.1-0.2-0.1-0.3V92c0-1.1,0.2-2.1,0.8-3s1.3-1.8,2.5-2.5l2.1-1.4
		c0.4-0.3,0.8-0.6,1.1-0.8c0.3-0.2,0.5-0.4,0.7-0.7s0.3-0.4,0.3-0.7c0.1-0.2,0.1-0.5,0.1-0.8c0-0.8-0.2-1.3-0.7-1.7
		c-0.5-0.3-1.3-0.5-2.4-0.5c-0.5,0-1.2,0-1.8,0.1c-0.7,0.1-1.3,0.1-1.9,0.2h-0.1c-0.2,0-0.3-0.1-0.3-0.4v-0.7c0-0.1,0-0.2,0.1-0.2
		c0.1-0.1,0.2-0.1,0.3-0.1c0.5-0.1,1.1-0.2,1.8-0.3c0.7-0.1,1.3-0.1,1.9-0.1c1.7,0,3,0.3,3.8,0.9C217.1,79.8,217.5,80.8,217.5,82.1z
		"/>
	<path class="st3" d="M231.1,89.6c0,0.2-0.1,0.4-0.4,0.4h-1.8v3.7c0,0.1,0,0.2-0.1,0.3s-0.1,0.1-0.3,0.1h-1.2c-0.1,0-0.2,0-0.3-0.1
		c-0.1-0.1-0.1-0.2-0.1-0.3v-3.7h-6.1c-0.3,0-0.5-0.1-0.7-0.2c-0.1-0.1-0.2-0.3-0.2-0.6v-0.8c0-0.3,0.1-0.6,0.2-0.8l6.2-8.7
		c0.1-0.1,0.1-0.2,0.2-0.2s0.2-0.1,0.4-0.1h1.2c0.4,0,0.5,0.2,0.5,0.5v9.4h1.8c0.1,0,0.2,0,0.3,0.1c0.1,0.1,0.1,0.2,0.1,0.3
		L231.1,89.6L231.1,89.6z M227,81.2c0-0.1,0-0.1-0.1-0.1h0c-0.1,0-0.1,0-0.2,0.1l-4.9,6.9c0,0.1-0.1,0.1-0.1,0.2
		c0,0.1,0.1,0.1,0.2,0.1h5L227,81.2L227,81.2z"/>
	<path class="st3" d="M243.4,87.7c0,1.2-0.1,2.2-0.4,3c-0.2,0.8-0.6,1.5-1,2s-1,0.9-1.6,1.2s-1.3,0.4-2.1,0.4s-1.5-0.1-2.1-0.4
		c-0.6-0.2-1.2-0.6-1.6-1.2c-0.5-0.5-0.8-1.2-1-2s-0.4-1.8-0.4-3v-2.8c0-1.2,0.1-2.2,0.4-3s0.6-1.5,1-2s1-0.9,1.6-1.2
		c0.6-0.2,1.4-0.4,2.1-0.4s1.5,0.1,2.1,0.4s1.2,0.6,1.6,1.2s0.8,1.2,1,2s0.4,1.8,0.4,3V87.7z M241.5,84.9c0-0.9-0.1-1.6-0.2-2.3
		c-0.1-0.6-0.4-1.1-0.6-1.5s-0.6-0.7-1-0.9s-0.8-0.3-1.3-0.3s-0.9,0.1-1.3,0.3s-0.7,0.5-1,0.9s-0.5,0.9-0.6,1.5
		c-0.1,0.6-0.2,1.4-0.2,2.3v2.8c0,0.9,0.1,1.6,0.2,2.3c0.1,0.6,0.4,1.1,0.6,1.5s0.6,0.7,1,0.9s0.8,0.3,1.3,0.3s0.9-0.1,1.3-0.3
		s0.7-0.5,1-0.9s0.5-0.9,0.6-1.5c0.1-0.6,0.2-1.4,0.2-2.3V84.9z"/>
</g>
<g>
	<path class="st4" d="M167.5,57.2c0-0.1,0-0.1,0.1-0.2c0,0,0.1-0.1,0.2-0.1h1.1c0.1,0,0.1,0,0.2,0.1c0,0,0.1,0.1,0.1,0.2v6.7
		c0,0.3,0.1,0.4,0.2,0.5c0.1,0.1,0.3,0.1,0.5,0.1h0.4v1.5h-0.8c-0.3,0-0.5,0-0.7-0.1c-0.2,0-0.4-0.1-0.6-0.3
		c-0.2-0.1-0.3-0.3-0.4-0.5s-0.1-0.5-0.1-0.9V57.2z"/>
	<path class="st4" d="M170,66.1c-0.1,0-0.2,0-0.3,0c-0.1,0-0.1-0.1-0.1-0.1v-1.2c0,0,0-0.1,0.1-0.1c0.1,0,0.2,0,0.3,0h2.7v1.5H170z"
		/>
	<path class="st4" d="M172.6,66.1c-0.1,0-0.2,0-0.3,0c-0.1,0-0.1-0.1-0.1-0.1v-1.2c0,0,0-0.1,0.1-0.1c0.1,0,0.2,0,0.3,0h2.7v1.5
		H172.6z"/>
	<path class="st4" d="M175.2,66.1c-0.1,0-0.2,0-0.3,0c-0.1,0-0.1-0.1-0.1-0.1v-1.2c0,0,0-0.1,0.1-0.1c0.1,0,0.2,0,0.3,0h2.7v1.5
		H175.2z"/>
	<path class="st4" d="M177.4,64.7c0,0,0-0.1,0.1-0.1c0.1,0,0.2,0,0.3,0h0.6c0.1,0,0.1,0,0.2,0s0.2,0,0.2-0.1c0.1,0,0.1-0.1,0.2-0.1
		c0-0.1,0.1-0.1,0.1-0.2v-3c0-0.1,0-0.1,0.1-0.2s0.1-0.1,0.2-0.1h1c0.1,0,0.1,0,0.2,0.1s0.1,0.1,0.1,0.2v3.2c0,0,0.1,0.1,0.1,0.1
		c0.1,0,0.1,0,0.2,0.1c0.1,0,0.2,0,0.2,0s0.1,0,0.2,0h0.3v1.5h-0.1c-0.3,0-0.6,0-0.9-0.1c-0.3-0.1-0.6-0.2-0.8-0.3
		c-0.1,0.1-0.2,0.1-0.4,0.2s-0.3,0.1-0.4,0.1c-0.1,0-0.3,0.1-0.4,0.1c-0.1,0-0.3,0-0.4,0h-0.3c-0.1,0-0.2,0-0.3,0
		c-0.1,0-0.1-0.1-0.1-0.1V64.7z M179,58.4c0-0.1,0-0.1,0.1-0.2c0.1-0.1,0.1-0.1,0.2-0.1h0.9c0.1,0,0.1,0,0.2,0.1
		c0.1,0.1,0.1,0.1,0.1,0.2v0.9c0,0.1,0,0.1-0.1,0.2c-0.1,0.1-0.1,0.1-0.2,0.1h-0.9c-0.1,0-0.2,0-0.2-0.1c-0.1-0.1-0.1-0.1-0.1-0.2
		V58.4z"/>
	<path class="st4" d="M181.1,64.7c0,0,0-0.1,0.1-0.1c0.1,0,0.2,0,0.3,0h1.7l-0.9-2.3c0,0,0-0.1,0-0.2c0-0.1,0-0.1,0-0.2l0-0.6
		c0-0.1,0-0.1,0.1-0.2s0.1-0.1,0.2-0.2c0.1-0.1,0.3-0.2,0.5-0.3c0.2-0.1,0.4-0.2,0.7-0.3s0.5-0.1,0.7-0.2c0.2,0,0.5-0.1,0.7-0.1
		c0.4,0,0.8,0,1.1,0.1c0.4,0.1,0.7,0.2,0.9,0.4c0.3,0.2,0.5,0.4,0.6,0.7s0.2,0.7,0.2,1.1v0.3c0,0.2,0,0.3,0,0.5
		c0,0.2-0.1,0.3-0.1,0.5c-0.1,0.2-0.1,0.3-0.2,0.4c-0.1,0.1-0.2,0.2-0.3,0.3h1.5v1.5h-7.4c-0.1,0-0.2,0-0.3,0
		c-0.1,0-0.1-0.1-0.1-0.1V64.7z M185.4,64.6c0.2,0,0.3-0.1,0.5-0.2c0.1-0.1,0.2-0.2,0.3-0.4c0.1-0.1,0.2-0.3,0.2-0.5
		c0-0.2,0.1-0.4,0.1-0.6v-0.1c0-0.4-0.1-0.8-0.4-1s-0.6-0.3-1-0.3c-0.2,0-0.4,0-0.7,0.1s-0.5,0.1-0.7,0.3l1.1,2.7H185.4z"/>
	<path class="st4" d="M188.4,64.7c0,0,0-0.1,0.1-0.1c0.1,0,0.2,0,0.3,0h0.4c0.1,0,0.1,0,0.2,0c0.1,0,0.1,0,0.2,0
		c0.1,0,0.1-0.1,0.2-0.1c0.1,0,0.1-0.1,0.1-0.2c0-0.1,0-0.2,0-0.3v-1c0-0.9,0.2-1.5,0.7-2c0.5-0.5,1.1-0.7,2-0.7
		c0.8,0,1.5,0.2,1.9,0.7c0.5,0.4,0.7,1.1,0.7,2v0.7c0,0.9-0.2,1.6-0.7,2c-0.5,0.4-1.1,0.6-2,0.6c-0.4,0-0.8,0-1.2-0.2
		c-0.4-0.1-0.7-0.3-0.9-0.5c-0.2,0.2-0.4,0.3-0.6,0.4c-0.3,0.1-0.6,0.1-0.9,0.1h-0.2c-0.1,0-0.2,0-0.3,0c-0.1,0-0.1-0.1-0.1-0.1
		V64.7z M191.4,63.5c0,0.2,0,0.4,0,0.5c0.1,0.3,0.2,0.5,0.4,0.6c0.2,0.1,0.4,0.2,0.7,0.2c0.4,0,0.7-0.1,0.9-0.3s0.3-0.6,0.3-1.1V63
		c0-0.5-0.1-0.8-0.3-1c-0.2-0.2-0.5-0.3-0.9-0.3s-0.7,0.1-0.9,0.3c-0.2,0.2-0.3,0.6-0.3,1V63.5z"/>
	<path class="st4" d="M200.7,62.5c0.1,0,0.2,0.1,0.2,0.2c0,0.2,0,0.3,0,0.5c0,0.2,0,0.3,0,0.4c0,0.4,0,0.9,0.1,1.2
		c0.1,0.4,0.2,0.7,0.3,0.9s0.4,0.5,0.7,0.6c0.3,0.1,0.7,0.2,1.3,0.2c0.1,0,0.3,0,0.5,0s0.3,0,0.5-0.1c0-0.4,0-0.7,0-1s0-0.6,0-0.9
		v-7.5c0-0.1,0-0.1,0.1-0.2c0,0,0.1-0.1,0.2-0.1h1.1c0.1,0,0.1,0,0.2,0.1c0,0,0.1,0.1,0.1,0.2v7.3h1.1v1.5h-1.1c0,0.3,0,0.5,0,0.8
		c0,0.3,0,0.6,0,0.8c0,0.1-0.1,0.2-0.3,0.3c-0.3,0.1-0.7,0.1-1,0.2c-0.4,0-0.8,0.1-1.1,0.1c-1.3,0-2.3-0.3-3-0.9
		c-0.6-0.6-1-1.6-1-2.9c0-0.1,0-0.2,0-0.3s0-0.3,0-0.4c0-0.2,0-0.3,0-0.5c0-0.2,0-0.3,0.1-0.4c0-0.1,0-0.1,0.1-0.2
		c0,0,0.1-0.1,0.2-0.1H200.7z"/>
	<path class="st4" d="M206.8,66.1c-0.1,0-0.2,0-0.3,0c-0.1,0-0.1-0.1-0.1-0.1v-1.2c0,0,0-0.1,0.1-0.1c0.1,0,0.2,0,0.3,0h2.7v1.5
		H206.8z"/>
	<path class="st4" d="M209.4,66.1c-0.1,0-0.2,0-0.3,0c-0.1,0-0.1-0.1-0.1-0.1v-1.2c0,0,0-0.1,0.1-0.1c0.1,0,0.2,0,0.3,0h2.7v1.5
		H209.4z"/>
	<path class="st4" d="M211.6,64.7c0,0,0-0.1,0.1-0.1c0.1,0,0.2,0,0.3,0h1.2v-4.1c0-0.1,0-0.1,0.1-0.2c0,0,0.1-0.1,0.2-0.1h1
		c0.1,0,0.1,0,0.2,0.1c0,0,0.1,0.1,0.1,0.2v0.4c0.2-0.2,0.4-0.3,0.7-0.4c0.2-0.1,0.5-0.2,0.7-0.2c0.2-0.1,0.5-0.1,0.7-0.1
		c0.2,0,0.4,0,0.5,0c0.5,0,1,0.1,1.4,0.2c0.4,0.1,0.8,0.3,1.1,0.5s0.5,0.6,0.7,1s0.2,0.9,0.2,1.5v0.5c0,0.3,0,0.6,0,0.9
		s-0.1,0.6-0.1,0.9c0,0.1-0.1,0.2-0.1,0.2c-0.1,0.1-0.1,0.1-0.3,0.1c-0.1,0-0.3,0-0.6,0c-0.3,0-0.5,0-0.8,0s-0.6,0-0.9,0
		s-0.5,0-0.7,0H212c-0.1,0-0.2,0-0.3,0c-0.1,0-0.1-0.1-0.1-0.1V64.7z M214.7,64.6c0.2,0,0.4,0,0.6,0c0.2,0,0.5,0,0.8,0h2.8
		c0.1,0,0.2,0,0.2-0.2c0-0.1,0-0.3,0-0.6v-0.2c0-0.4,0-0.7-0.1-0.9s-0.2-0.4-0.4-0.6c-0.2-0.2-0.4-0.3-0.7-0.3
		c-0.3-0.1-0.6-0.1-1-0.1c-0.1,0-0.3,0-0.5,0c-0.2,0-0.4,0-0.6,0.1s-0.4,0.1-0.6,0.2c-0.2,0.1-0.4,0.2-0.5,0.3V64.6z"/>
	<path class="st4" d="M222.4,57.2c0-0.1,0-0.1,0.1-0.2c0,0,0.1-0.1,0.2-0.1h1.1c0.1,0,0.1,0,0.2,0.1c0,0,0.1,0.1,0.1,0.2v8.6
		c0,0.1,0,0.1-0.1,0.2c0,0.1-0.1,0.1-0.2,0.1h-1.1c-0.1,0-0.1,0-0.2-0.1c0-0.1-0.1-0.1-0.1-0.2V57.2z"/>
	<path class="st4" d="M226,67.8c0-0.1,0.1-0.2,0.2-0.2h1.1c0.3,0,0.6,0,0.8,0c0.2,0,0.4-0.1,0.6-0.2s0.3-0.2,0.4-0.3
		c0.1-0.1,0.1-0.3,0.1-0.6v-0.4h-0.9c-0.9,0-1.6-0.2-2-0.7s-0.7-1.1-0.7-2v-0.2c0-0.9,0.3-1.7,0.8-2.2c0.6-0.5,1.3-0.8,2.4-0.8
		c0.2,0,0.3,0,0.5,0s0.3,0,0.5,0c0.2,0,0.3,0,0.4,0.1c0.1,0,0.2,0.1,0.3,0.1c0.1,0,0.1,0.1,0.2,0.1s0,0.1,0,0.1v3.9h1.1v1.5h-1.1
		v0.4c0,0.5-0.1,0.9-0.3,1.2s-0.4,0.6-0.7,0.7c-0.3,0.2-0.6,0.3-0.9,0.4s-0.7,0.1-1.2,0.1c-0.1,0-0.2,0-0.3,0c-0.1,0-0.3,0-0.4,0
		c-0.2,0-0.3,0-0.4,0s-0.2,0-0.3,0c-0.1,0-0.1,0-0.2-0.1s0-0.1,0-0.1V67.8z M227.1,63.3c0,0.5,0.1,0.8,0.3,1c0.2,0.2,0.5,0.3,1,0.3
		h0.9v-2.9c-0.2,0-0.5,0-0.7,0c-0.5,0-0.8,0.1-1.1,0.4c-0.3,0.3-0.4,0.6-0.4,1.1V63.3z"/>
	<path class="st4" d="M231.7,66.1c-0.1,0-0.2,0-0.3,0c-0.1,0-0.1-0.1-0.1-0.1v-1.2c0,0,0-0.1,0.1-0.1c0.1,0,0.2,0,0.3,0h2.7v1.5
		H231.7z"/>
	<path class="st4" d="M233.9,64.7c0,0,0-0.1,0.1-0.1c0.1,0,0.2,0,0.3,0h0.6c0.1,0,0.1,0,0.2,0c0.1,0,0.2,0,0.2-0.1
		c0.1,0,0.1-0.1,0.2-0.1c0-0.1,0.1-0.1,0.1-0.2v-3c0-0.1,0-0.1,0.1-0.2c0,0,0.1-0.1,0.2-0.1h1c0.1,0,0.1,0,0.2,0.1s0.1,0.1,0.1,0.2
		v3.2c0,0,0.1,0.1,0.1,0.1c0.1,0,0.1,0,0.2,0.1c0.1,0,0.2,0,0.2,0s0.1,0,0.2,0h0.3v1.5H238c-0.3,0-0.6,0-0.9-0.1
		c-0.3-0.1-0.6-0.2-0.8-0.3c-0.1,0.1-0.2,0.1-0.4,0.2c-0.1,0.1-0.3,0.1-0.4,0.1c-0.1,0-0.3,0.1-0.4,0.1c-0.1,0-0.3,0-0.4,0h-0.3
		c-0.1,0-0.2,0-0.3,0c-0.1,0-0.1-0.1-0.1-0.1V64.7z M234.5,58.4c0-0.1,0-0.1,0.1-0.2c0.1-0.1,0.1-0.1,0.2-0.1h0.8
		c0.1,0,0.1,0,0.2,0.1c0.1,0.1,0.1,0.1,0.1,0.2v0.9c0,0.1,0,0.1-0.1,0.2c-0.1,0.1-0.1,0.1-0.2,0.1h-0.8c-0.1,0-0.1,0-0.2-0.1
		c-0.1-0.1-0.1-0.1-0.1-0.2V58.4z M236.7,58.4c0-0.1,0-0.1,0.1-0.2c0.1-0.1,0.1-0.1,0.2-0.1h0.8c0.1,0,0.1,0,0.2,0.1
		c0.1,0.1,0.1,0.1,0.1,0.2v0.9c0,0.1,0,0.1-0.1,0.2c-0.1,0.1-0.1,0.1-0.2,0.1H237c-0.1,0-0.1,0-0.2-0.1c-0.1-0.1-0.1-0.1-0.1-0.2
		V58.4z"/>
	<path class="st4" d="M237.6,64.7c0,0,0-0.1,0.1-0.1c0.1,0,0.2,0,0.3,0h0.6c0.1,0,0.1,0,0.2,0s0.2,0,0.2-0.1c0.1,0,0.1-0.1,0.2-0.1
		c0-0.1,0.1-0.1,0.1-0.2v-6.9c0-0.1,0-0.1,0.1-0.2c0,0,0.1-0.1,0.2-0.1h1.1c0.1,0,0.1,0,0.2,0.1c0,0,0.1,0.1,0.1,0.2v7.1
		c0.1,0.1,0.2,0.1,0.3,0.2c0.2,0,0.3,0,0.4,0h0.3v1.5h-0.1c-0.3,0-0.6,0-0.9-0.1c-0.3-0.1-0.6-0.2-0.8-0.3c-0.1,0.1-0.2,0.1-0.4,0.2
		c-0.1,0.1-0.3,0.1-0.4,0.1c-0.1,0-0.3,0.1-0.4,0.1c-0.1,0-0.3,0-0.4,0H238c-0.1,0-0.2,0-0.3,0c-0.1,0-0.1-0.1-0.1-0.1V64.7z"/>
	<path class="st4" d="M241.5,64.7c0,0,0-0.1,0.1-0.1c0.1,0,0.2,0,0.3,0h0.8c0.2,0,0.3,0,0.4-0.1c0.1,0,0.1-0.2,0.1-0.3v-6.9
		c0-0.1,0-0.1,0.1-0.2c0,0,0.1-0.1,0.2-0.1h1.1c0.1,0,0.1,0,0.2,0.1c0,0,0.1,0.1,0.1,0.2v7c0,0.2,0,0.5,0,0.7c0,0.3,0,0.5,0,0.7
		c0,0.1,0,0.1-0.1,0.2c0,0.1-0.1,0.1-0.2,0.1c-0.1,0-0.2,0-0.4,0.1c-0.2,0-0.3,0-0.5,0c-0.2,0-0.4,0-0.6,0c-0.2,0-0.4,0-0.5,0h-0.5
		c-0.1,0-0.2,0-0.3,0c-0.1,0-0.1-0.1-0.1-0.1V64.7z"/>
</g>
</svg>
