<?xml version="1.0" encoding="utf-8"?>
<!-- Generator: Adobe Illustrator 27.0.0, SVG Export Plug-In . SVG Version: 6.00 Build 0)  -->
<svg version="1.1" id="Layer_1" xmlns="http://www.w3.org/2000/svg" xmlns:xlink="http://www.w3.org/1999/xlink" x="0px" y="0px"
	 viewBox="0 0 380 190" style="enable-background:new 0 0 380 190;" xml:space="preserve">
<style type="text/css">
	.st0{fill:#FFFFFF;}
	.st1{fill:#FDEDEF;}
	.st2{fill:#EE4A62;}
	.st3{fill:#89898B;}
	.st4{fill:#EF5269;}
</style>
<g>
	<path shape-rendering="crispEdges" class="st0" d="M40,70c0-27.61,22.39-50,50-50h240c5.52,0,10,4.48,10,10v50
		c0,27.61-22.39,50-50,50H50c-5.52,0-10-4.48-10-10V70z"/>
	<circle class="st1" cx="95" cy="75" r="25"/>
	<path class="st2" d="M101.09,85.44c-0.95,0-2.29-0.34-4.3-1.46c-2.44-1.37-4.32-2.63-6.75-5.05c-2.34-2.34-3.48-3.85-5.07-6.75
		c-1.8-3.27-1.49-4.99-1.15-5.72c0.41-0.88,1.01-1.4,1.79-1.92c0.44-0.29,0.91-0.54,1.4-0.74c0.05-0.02,0.09-0.04,0.13-0.06
		c0.24-0.11,0.61-0.27,1.07-0.1c0.31,0.12,0.59,0.35,1.02,0.78c0.89,0.88,2.1,2.82,2.55,3.78c0.3,0.64,0.5,1.07,0.5,1.55
		c0,0.56-0.28,0.99-0.62,1.46c-0.06,0.09-0.13,0.17-0.19,0.25c-0.37,0.49-0.45,0.63-0.4,0.88c0.11,0.51,0.92,2.01,2.26,3.35
		s2.8,2.09,3.31,2.2c0.26,0.06,0.41-0.03,0.91-0.41c0.07-0.06,0.15-0.11,0.22-0.17c0.52-0.39,0.93-0.66,1.48-0.66h0
		c0.48,0,0.88,0.21,1.56,0.55c0.88,0.44,2.89,1.64,3.77,2.53c0.43,0.43,0.67,0.71,0.78,1.02c0.18,0.47,0.01,0.83-0.1,1.07
		c-0.02,0.04-0.04,0.08-0.06,0.13c-0.21,0.49-0.46,0.95-0.75,1.4c-0.52,0.78-1.04,1.38-1.92,1.79
		C102.08,85.33,101.59,85.44,101.09,85.44z"/>
	<path class="st3" d="M140.12,66.09c-0.86,0-1.65-0.2-2.37-0.6c-0.71-0.4-1.28-0.95-1.7-1.66c-0.42-0.72-0.62-1.53-0.62-2.42
		s0.21-1.69,0.62-2.4c0.43-0.71,0.99-1.27,1.7-1.66c0.72-0.4,1.51-0.6,2.37-0.6c0.86,0,1.64,0.2,2.35,0.6
		c0.72,0.4,1.28,0.95,1.69,1.66c0.42,0.71,0.62,1.51,0.62,2.4s-0.21,1.7-0.62,2.42c-0.42,0.71-0.98,1.27-1.69,1.66
		C141.76,65.89,140.98,66.09,140.12,66.09z M140.12,64.06c0.73,0,1.31-0.24,1.74-0.73c0.44-0.49,0.66-1.13,0.66-1.92
		c0-0.81-0.22-1.45-0.66-1.92c-0.43-0.49-1.01-0.73-1.74-0.73c-0.74,0-1.33,0.24-1.77,0.72c-0.43,0.48-0.65,1.12-0.65,1.94
		c0,0.81,0.22,1.45,0.65,1.94C138.8,63.82,139.38,64.06,140.12,64.06z M154.58,66h-2.22l-3.72-5.63V66h-2.22v-9.13h2.22l3.72,5.65
		v-5.65h2.22V66z M158.8,64.28h2.91V66h-5.14v-9.13h2.22V64.28z M165.39,56.87V66h-2.22v-9.13H165.39z M175.55,66h-2.22l-3.72-5.63
		V66h-2.22v-9.13h2.22l3.72,5.65v-5.65h2.22V66z M179.78,58.65v1.85h2.98v1.72h-2.98v2h3.37V66h-5.59v-9.13h5.59v1.78H179.78z
		 M191.43,66.09c-0.67,0-1.26-0.11-1.79-0.33c-0.53-0.22-0.95-0.54-1.27-0.96c-0.31-0.42-0.48-0.94-0.49-1.53h2.37
		c0.04,0.34,0.15,0.6,0.35,0.78c0.2,0.17,0.46,0.26,0.78,0.26c0.33,0,0.59-0.07,0.78-0.22c0.19-0.16,0.29-0.37,0.29-0.64
		c0-0.23-0.08-0.41-0.23-0.56c-0.15-0.15-0.33-0.27-0.56-0.36c-0.22-0.1-0.53-0.2-0.94-0.33c-0.59-0.18-1.07-0.36-1.44-0.55
		s-0.69-0.45-0.96-0.81c-0.27-0.36-0.4-0.82-0.4-1.39c0-0.85,0.31-1.51,0.92-1.99c0.61-0.49,1.42-0.73,2.4-0.73
		c1.01,0,1.82,0.24,2.43,0.73c0.62,0.48,0.94,1.14,0.99,2h-2.4c-0.02-0.29-0.13-0.52-0.32-0.69c-0.2-0.17-0.46-0.26-0.77-0.26
		c-0.27,0-0.49,0.07-0.65,0.22c-0.17,0.14-0.25,0.34-0.25,0.61c0,0.29,0.14,0.52,0.42,0.69c0.28,0.16,0.71,0.34,1.3,0.53
		c0.59,0.2,1.07,0.39,1.43,0.57c0.37,0.18,0.69,0.45,0.96,0.79s0.4,0.79,0.4,1.34c0,0.52-0.13,0.99-0.4,1.42
		c-0.26,0.42-0.64,0.76-1.14,1.01C192.7,65.97,192.11,66.09,191.43,66.09z M198.7,56.87v5.46c0,0.55,0.13,0.97,0.4,1.26
		s0.66,0.44,1.18,0.44s0.92-0.15,1.2-0.44c0.28-0.29,0.42-0.72,0.42-1.26v-5.46h2.22v5.45c0,0.81-0.17,1.5-0.52,2.07
		s-0.82,0.99-1.4,1.27c-0.58,0.29-1.23,0.43-1.95,0.43c-0.72,0-1.36-0.14-1.94-0.42c-0.56-0.29-1.01-0.71-1.34-1.27
		c-0.33-0.57-0.49-1.27-0.49-2.08v-5.45H198.7z M213.02,59.81c0,0.53-0.12,1.01-0.36,1.46c-0.24,0.43-0.61,0.78-1.12,1.05
		s-1.13,0.4-1.87,0.4h-1.38V66h-2.22v-9.13h3.6c0.73,0,1.34,0.13,1.85,0.38s0.88,0.6,1.13,1.04
		C212.9,58.73,213.02,59.24,213.02,59.81z M209.5,60.96c0.43,0,0.74-0.1,0.95-0.3c0.21-0.2,0.31-0.48,0.31-0.85s-0.1-0.65-0.31-0.85
		c-0.21-0.2-0.52-0.3-0.95-0.3h-1.21v2.29H209.5z M221.52,59.81c0,0.53-0.12,1.01-0.36,1.46c-0.24,0.43-0.61,0.78-1.12,1.05
		c-0.5,0.27-1.13,0.4-1.87,0.4h-1.38V66h-2.22v-9.13h3.6c0.73,0,1.34,0.13,1.85,0.38c0.5,0.25,0.88,0.6,1.13,1.04
		C221.4,58.73,221.52,59.24,221.52,59.81z M218,60.96c0.43,0,0.74-0.1,0.95-0.3c0.21-0.2,0.31-0.48,0.31-0.85s-0.1-0.65-0.31-0.85
		c-0.21-0.2-0.52-0.3-0.95-0.3h-1.21v2.29H218z M227.39,66.09c-0.86,0-1.65-0.2-2.37-0.6c-0.71-0.4-1.28-0.95-1.7-1.66
		c-0.42-0.72-0.62-1.53-0.62-2.42s0.21-1.69,0.62-2.4c0.42-0.71,0.99-1.27,1.7-1.66c0.72-0.4,1.51-0.6,2.37-0.6
		c0.86,0,1.64,0.2,2.35,0.6c0.72,0.4,1.28,0.95,1.69,1.66c0.42,0.71,0.62,1.51,0.62,2.4s-0.21,1.7-0.62,2.42
		c-0.42,0.71-0.98,1.27-1.69,1.66C229.03,65.89,228.25,66.09,227.39,66.09z M227.39,64.06c0.73,0,1.31-0.24,1.74-0.73
		c0.44-0.49,0.66-1.13,0.66-1.92c0-0.81-0.22-1.45-0.66-1.92c-0.43-0.49-1.01-0.73-1.74-0.73c-0.74,0-1.33,0.24-1.77,0.72
		c-0.43,0.48-0.65,1.12-0.65,1.94c0,0.81,0.22,1.45,0.65,1.94C226.06,63.82,226.65,64.06,227.39,64.06z M238.34,66l-1.9-3.44h-0.53
		V66h-2.22v-9.13h3.73c0.72,0,1.33,0.13,1.83,0.38c0.51,0.25,0.89,0.6,1.14,1.04c0.25,0.43,0.38,0.92,0.38,1.46
		c0,0.61-0.17,1.15-0.52,1.62c-0.34,0.48-0.84,0.81-1.51,1.01l2.11,3.61H238.34z M235.9,60.98h1.38c0.41,0,0.71-0.1,0.91-0.3
		c0.21-0.2,0.31-0.48,0.31-0.84c0-0.35-0.1-0.62-0.31-0.82c-0.2-0.2-0.5-0.3-0.91-0.3h-1.38V60.98z M249.12,56.87v1.78h-2.42V66
		h-2.22v-7.35h-2.42v-1.78H249.12z"/>
</g>
<g>
	<path class="st4" d="M144.73,86.3c0,0.11-0.04,0.2-0.13,0.25c-0.08,0.06-0.18,0.08-0.29,0.08h-3.61v3.59
		c0,0.11-0.03,0.21-0.08,0.29c-0.06,0.08-0.14,0.13-0.25,0.13h-0.84c-0.11,0-0.2-0.04-0.25-0.13c-0.06-0.08-0.08-0.18-0.08-0.29
		v-3.59h-3.59c-0.11,0-0.21-0.03-0.29-0.08c-0.08-0.06-0.13-0.14-0.13-0.25v-0.84c0-0.11,0.04-0.2,0.13-0.25s0.18-0.08,0.29-0.08
		h3.59v-3.61c0-0.11,0.03-0.21,0.08-0.29c0.06-0.08,0.14-0.13,0.25-0.13h0.84c0.11,0,0.2,0.04,0.25,0.13
		c0.06,0.08,0.08,0.18,0.08,0.29v3.61h3.61c0.11,0,0.21,0.03,0.29,0.08s0.13,0.14,0.13,0.25V86.3z"/>
	<path class="st4" d="M157.58,87.98c0,1.12-0.12,2.08-0.35,2.87s-0.58,1.44-1.04,1.94s-1.04,0.87-1.72,1.1
		c-0.69,0.23-1.48,0.35-2.37,0.35c-0.84,0-1.54-0.04-2.11-0.11s-1.07-0.15-1.5-0.25c-0.14-0.03-0.26-0.07-0.36-0.13
		c-0.1-0.06-0.15-0.15-0.15-0.27v-0.82c0-0.13,0.03-0.22,0.1-0.28c0.07-0.06,0.16-0.09,0.27-0.09c0.03,0,0.05,0,0.06,0.01
		c0.01,0.01,0.03,0.01,0.06,0.01c0.53,0.11,1.1,0.2,1.69,0.25c0.59,0.06,1.23,0.08,1.9,0.08c0.81,0,1.46-0.12,1.93-0.35
		c0.48-0.23,0.84-0.55,1.09-0.96s0.41-0.9,0.48-1.47c0.07-0.57,0.1-1.2,0.1-1.89v-0.23c-0.45,0.1-0.93,0.19-1.44,0.28
		c-0.51,0.09-1.09,0.14-1.73,0.14c-0.69,0-1.34-0.07-1.96-0.21s-1.17-0.38-1.65-0.71c-0.48-0.34-0.85-0.79-1.13-1.35
		c-0.28-0.57-0.42-1.27-0.42-2.11v-0.13c0-1.67,0.42-2.97,1.27-3.91c0.85-0.94,2.13-1.41,3.85-1.41c0.78,0,1.49,0.12,2.12,0.36
		s1.17,0.6,1.61,1.08s0.78,1.1,1.02,1.86c0.24,0.76,0.36,1.65,0.36,2.67V87.98z M155.69,84.3c0-0.85-0.07-1.56-0.21-2.13
		c-0.14-0.57-0.35-1.02-0.62-1.35c-0.27-0.34-0.61-0.57-1.01-0.71c-0.4-0.14-0.85-0.21-1.35-0.21c-0.49,0-0.94,0.06-1.34,0.19
		c-0.41,0.13-0.75,0.34-1.03,0.63c-0.28,0.29-0.5,0.68-0.65,1.16c-0.15,0.48-0.23,1.07-0.23,1.79v0.13c0,0.57,0.09,1.05,0.27,1.42
		s0.43,0.67,0.74,0.88c0.31,0.22,0.65,0.37,1.04,0.46c0.39,0.09,0.79,0.14,1.21,0.14c0.25,0,0.53-0.01,0.82-0.03
		c0.29-0.02,0.58-0.05,0.87-0.08c0.29-0.04,0.56-0.08,0.81-0.13s0.48-0.09,0.67-0.14L155.69,84.3z"/>
	<path class="st4" d="M170.2,79.81c0,0.34-0.09,0.7-0.27,1.09l-6.05,12.87c-0.11,0.21-0.27,0.32-0.46,0.32h-1.26
		c-0.11,0-0.19-0.03-0.24-0.09c-0.05-0.06-0.07-0.14-0.07-0.22c0-0.07,0.02-0.15,0.06-0.23l6.34-13.19
		c0.01-0.01,0.02-0.04,0.02-0.08c0-0.1-0.05-0.15-0.15-0.15h-7.16c-0.11,0-0.21-0.03-0.29-0.09c-0.08-0.06-0.13-0.15-0.13-0.26
		v-0.88c0-0.11,0.04-0.21,0.13-0.28s0.18-0.12,0.29-0.12h7.67c0.59,0,1,0.13,1.23,0.39C170.09,79.14,170.2,79.45,170.2,79.81z"/>
	<path class="st4" d="M183.62,89.55c0,0.25-0.13,0.38-0.4,0.38h-1.83v3.74c0,0.11-0.03,0.21-0.09,0.29s-0.15,0.13-0.26,0.13h-1.22
		c-0.11,0-0.2-0.04-0.26-0.13c-0.06-0.08-0.09-0.18-0.09-0.29v-3.74h-6.07c-0.32,0-0.55-0.06-0.67-0.18
		c-0.13-0.12-0.19-0.33-0.19-0.64v-0.8c0-0.29,0.08-0.55,0.25-0.78l6.22-8.71c0.06-0.08,0.13-0.16,0.21-0.23s0.22-0.1,0.4-0.1h1.24
		c0.36,0,0.55,0.15,0.55,0.46v9.39h1.83c0.11,0,0.21,0.04,0.28,0.1c0.08,0.07,0.12,0.16,0.12,0.27V89.55z M179.48,81.15
		c0-0.08-0.03-0.13-0.08-0.13h-0.02c-0.06,0-0.11,0.04-0.17,0.13l-4.85,6.89c-0.04,0.07-0.06,0.13-0.06,0.17
		c0,0.08,0.06,0.13,0.17,0.13h5.02V81.15z"/>
	<path class="st4" d="M200.55,89.74c0,0.78-0.13,1.46-0.39,2.03c-0.26,0.57-0.62,1.03-1.08,1.4s-1.01,0.63-1.65,0.81
		s-1.34,0.26-2.11,0.26c-0.67,0-1.31-0.04-1.9-0.13c-0.6-0.08-1.14-0.18-1.65-0.29c-0.11-0.03-0.21-0.07-0.28-0.14
		c-0.08-0.06-0.12-0.15-0.12-0.26V92.7c0-0.24,0.12-0.36,0.36-0.36h0.06c0.63,0.08,1.25,0.15,1.87,0.21
		c0.62,0.06,1.17,0.08,1.66,0.08c1.15,0,1.98-0.23,2.5-0.69s0.78-1.2,0.78-2.21V89.3c0-0.28-0.04-0.57-0.12-0.87
		s-0.21-0.58-0.4-0.83c-0.19-0.25-0.44-0.46-0.76-0.62c-0.32-0.16-0.71-0.24-1.19-0.24h-3.82c-0.27,0-0.4-0.13-0.4-0.38v-0.74
		c0-0.27,0.13-0.4,0.4-0.4h3.82c0.5,0,0.92-0.08,1.24-0.23c0.32-0.15,0.57-0.35,0.75-0.6c0.17-0.25,0.3-0.51,0.37-0.81
		s0.11-0.58,0.11-0.86v-0.29c0-0.87-0.25-1.5-0.75-1.9c-0.5-0.4-1.34-0.6-2.53-0.6c-0.62,0-1.19,0.03-1.71,0.09
		c-0.53,0.06-1.13,0.14-1.82,0.22h-0.06c-0.24,0-0.36-0.12-0.36-0.36v-0.73c0-0.1,0.04-0.18,0.12-0.25
		c0.08-0.07,0.17-0.12,0.28-0.15c0.5-0.11,1.05-0.21,1.65-0.29c0.59-0.08,1.23-0.13,1.9-0.13c0.78,0,1.5,0.07,2.14,0.2
		c0.64,0.13,1.19,0.36,1.65,0.68c0.45,0.32,0.81,0.75,1.06,1.27c0.25,0.53,0.38,1.17,0.38,1.94v0.29c0,0.71-0.17,1.36-0.5,1.93
		c-0.34,0.57-0.83,1.02-1.49,1.34c0.38,0.18,0.69,0.4,0.94,0.65s0.46,0.52,0.61,0.82s0.27,0.6,0.34,0.9s0.11,0.62,0.11,0.92V89.74z"
		/>
	<path class="st4" d="M213.25,89.74c0,0.78-0.13,1.46-0.39,2.03c-0.26,0.57-0.62,1.03-1.08,1.4s-1.01,0.63-1.65,0.81
		s-1.34,0.26-2.11,0.26c-0.67,0-1.31-0.04-1.9-0.13c-0.6-0.08-1.14-0.18-1.65-0.29c-0.11-0.03-0.21-0.07-0.28-0.14
		c-0.08-0.06-0.12-0.15-0.12-0.26V92.7c0-0.24,0.12-0.36,0.36-0.36h0.06c0.63,0.08,1.25,0.15,1.87,0.21
		c0.62,0.06,1.17,0.08,1.66,0.08c1.15,0,1.98-0.23,2.5-0.69s0.78-1.2,0.78-2.21V89.3c0-0.28-0.04-0.57-0.12-0.87
		s-0.21-0.58-0.4-0.83c-0.19-0.25-0.44-0.46-0.76-0.62c-0.32-0.16-0.71-0.24-1.19-0.24h-3.82c-0.27,0-0.4-0.13-0.4-0.38v-0.74
		c0-0.27,0.13-0.4,0.4-0.4h3.82c0.5,0,0.92-0.08,1.24-0.23c0.32-0.15,0.57-0.35,0.75-0.6c0.17-0.25,0.3-0.51,0.37-0.81
		s0.11-0.58,0.11-0.86v-0.29c0-0.87-0.25-1.5-0.75-1.9c-0.5-0.4-1.34-0.6-2.53-0.6c-0.62,0-1.19,0.03-1.71,0.09
		c-0.53,0.06-1.13,0.14-1.82,0.22h-0.06c-0.24,0-0.36-0.12-0.36-0.36v-0.73c0-0.1,0.04-0.18,0.12-0.25
		c0.08-0.07,0.17-0.12,0.28-0.15c0.5-0.11,1.05-0.21,1.65-0.29c0.59-0.08,1.23-0.13,1.9-0.13c0.78,0,1.5,0.07,2.14,0.2
		c0.64,0.13,1.19,0.36,1.65,0.68c0.45,0.32,0.81,0.75,1.06,1.27c0.25,0.53,0.38,1.17,0.38,1.94v0.29c0,0.71-0.17,1.36-0.5,1.93
		c-0.34,0.57-0.83,1.02-1.49,1.34c0.38,0.18,0.69,0.4,0.94,0.65s0.46,0.52,0.61,0.82s0.27,0.6,0.34,0.9s0.11,0.62,0.11,0.92V89.74z"
		/>
	<path class="st4" d="M222.09,94.09c-0.11,0-0.21-0.04-0.29-0.11c-0.08-0.07-0.13-0.16-0.13-0.27v-0.92c0-0.11,0.04-0.2,0.13-0.26
		c0.08-0.06,0.18-0.09,0.29-0.09h3.34V80.46l-3.3,1.39c-0.08,0.03-0.18,0.05-0.29,0.05s-0.17-0.07-0.17-0.22v-1.07
		c0-0.07,0.02-0.12,0.05-0.16c0.04-0.03,0.09-0.07,0.16-0.12l3.76-1.72c0.17-0.08,0.31-0.13,0.44-0.13h0.86
		c0.11,0,0.21,0.04,0.28,0.12s0.12,0.17,0.12,0.28v13.54h3.36c0.11,0,0.21,0.03,0.29,0.09c0.08,0.06,0.13,0.15,0.13,0.26v0.92
		c0,0.11-0.04,0.2-0.13,0.27c-0.08,0.07-0.18,0.11-0.29,0.11H222.09z"/>
	<path class="st4" d="M234.8,94.09c-0.11,0-0.21-0.04-0.29-0.11c-0.08-0.07-0.13-0.16-0.13-0.27v-0.92c0-0.11,0.04-0.2,0.13-0.26
		c0.08-0.06,0.18-0.09,0.29-0.09h3.34V80.46l-3.3,1.39c-0.08,0.03-0.18,0.05-0.29,0.05s-0.17-0.07-0.17-0.22v-1.07
		c0-0.07,0.02-0.12,0.05-0.16c0.04-0.03,0.09-0.07,0.16-0.12l3.76-1.72c0.17-0.08,0.31-0.13,0.44-0.13h0.86
		c0.11,0,0.21,0.04,0.28,0.12s0.12,0.17,0.12,0.28v13.54h3.36c0.11,0,0.21,0.03,0.29,0.09c0.08,0.06,0.13,0.15,0.13,0.26v0.92
		c0,0.11-0.04,0.2-0.13,0.27c-0.08,0.07-0.18,0.11-0.29,0.11H234.8z"/>
	<path class="st4" d="M247.5,94.09c-0.11,0-0.21-0.04-0.29-0.11c-0.08-0.07-0.13-0.16-0.13-0.27v-0.92c0-0.11,0.04-0.2,0.13-0.26
		c0.08-0.06,0.18-0.09,0.29-0.09h3.34V80.46l-3.3,1.39c-0.08,0.03-0.18,0.05-0.29,0.05s-0.17-0.07-0.17-0.22v-1.07
		c0-0.07,0.02-0.12,0.05-0.16c0.04-0.03,0.09-0.07,0.16-0.12l3.76-1.72c0.17-0.08,0.31-0.13,0.44-0.13h0.86
		c0.11,0,0.21,0.04,0.28,0.12s0.12,0.17,0.12,0.28v13.54h3.36c0.11,0,0.21,0.03,0.29,0.09c0.08,0.06,0.13,0.15,0.13,0.26v0.92
		c0,0.11-0.04,0.2-0.13,0.27c-0.08,0.07-0.18,0.11-0.29,0.11H247.5z"/>
	<path class="st4" d="M274.55,82.1c0,0.83-0.21,1.54-0.63,2.15c-0.42,0.61-1.12,1.24-2.1,1.9l-2.02,1.37
		c-0.59,0.39-1.07,0.76-1.45,1.1c-0.38,0.34-0.67,0.69-0.89,1.04c-0.22,0.35-0.37,0.71-0.46,1.08s-0.14,0.79-0.14,1.25v0.44h7.08
		c0.11,0,0.21,0.03,0.29,0.09c0.08,0.06,0.13,0.15,0.13,0.26v0.92c0,0.11-0.04,0.2-0.13,0.27c-0.08,0.07-0.18,0.11-0.29,0.11h-8.34
		c-0.11,0-0.21-0.04-0.29-0.12s-0.13-0.17-0.13-0.28v-1.7c0-1.09,0.25-2.09,0.75-3c0.5-0.91,1.32-1.75,2.47-2.52l2.12-1.43
		c0.43-0.29,0.79-0.55,1.07-0.78c0.28-0.22,0.5-0.44,0.66-0.66s0.27-0.44,0.34-0.67c0.06-0.23,0.09-0.51,0.09-0.83
		c0-0.76-0.24-1.3-0.72-1.65c-0.48-0.34-1.29-0.51-2.42-0.51c-0.55,0-1.16,0.03-1.83,0.09c-0.67,0.06-1.3,0.14-1.89,0.22h-0.08
		c-0.22,0-0.34-0.13-0.34-0.38v-0.74c0-0.11,0.04-0.2,0.12-0.25c0.08-0.06,0.17-0.1,0.28-0.13c0.53-0.14,1.13-0.25,1.8-0.31
		c0.66-0.07,1.31-0.11,1.94-0.11c1.71,0,2.97,0.3,3.79,0.9C274.14,79.85,274.55,80.8,274.55,82.1z"/>
	<path class="st4" d="M288.12,89.55c0,0.25-0.13,0.38-0.4,0.38h-1.83v3.74c0,0.11-0.03,0.21-0.09,0.29
		c-0.06,0.08-0.15,0.13-0.26,0.13h-1.22c-0.11,0-0.2-0.04-0.26-0.13c-0.06-0.08-0.09-0.18-0.09-0.29v-3.74h-6.07
		c-0.32,0-0.55-0.06-0.67-0.18c-0.13-0.12-0.19-0.33-0.19-0.64v-0.8c0-0.29,0.08-0.55,0.25-0.78l6.22-8.71
		c0.06-0.08,0.13-0.16,0.21-0.23s0.22-0.1,0.4-0.1h1.24c0.36,0,0.55,0.15,0.55,0.46v9.39h1.83c0.11,0,0.21,0.04,0.28,0.1
		c0.08,0.07,0.12,0.16,0.12,0.27V89.55z M283.98,81.15c0-0.08-0.03-0.13-0.08-0.13h-0.02c-0.06,0-0.11,0.04-0.17,0.13l-4.85,6.89
		c-0.04,0.07-0.06,0.13-0.06,0.17c0,0.08,0.06,0.13,0.17,0.13h5.02V81.15z"/>
	<path class="st4" d="M300.42,87.71c0,1.16-0.12,2.16-0.36,2.98c-0.24,0.83-0.58,1.5-1.03,2.03c-0.45,0.53-0.99,0.91-1.62,1.16
		c-0.63,0.25-1.34,0.37-2.14,0.37s-1.52-0.12-2.15-0.37c-0.64-0.24-1.18-0.63-1.63-1.16c-0.45-0.52-0.79-1.2-1.03-2.03
		c-0.24-0.83-0.36-1.82-0.36-2.98v-2.83c0-1.16,0.12-2.16,0.36-2.98s0.58-1.5,1.03-2.03s0.99-0.91,1.63-1.16
		c0.64-0.24,1.35-0.37,2.15-0.37s1.51,0.12,2.14,0.37c0.63,0.25,1.17,0.63,1.62,1.16s0.79,1.2,1.03,2.03
		c0.24,0.83,0.36,1.82,0.36,2.98V87.71z M298.51,84.87c0-0.88-0.08-1.63-0.23-2.26c-0.15-0.62-0.37-1.13-0.65-1.52
		c-0.28-0.39-0.62-0.68-1.02-0.86c-0.4-0.18-0.84-0.27-1.33-0.27c-0.49,0-0.93,0.09-1.33,0.27c-0.4,0.18-0.74,0.47-1.02,0.86
		c-0.28,0.39-0.5,0.9-0.65,1.52c-0.15,0.62-0.23,1.38-0.23,2.26v2.83c0,0.88,0.08,1.63,0.23,2.26c0.15,0.62,0.37,1.13,0.65,1.52
		c0.28,0.39,0.62,0.68,1.02,0.86c0.4,0.18,0.84,0.27,1.33,0.27c0.49,0,0.93-0.09,1.33-0.27c0.4-0.18,0.74-0.47,1.02-0.86
		c0.28-0.39,0.5-0.9,0.65-1.52c0.15-0.62,0.23-1.38,0.23-2.26V84.87z"/>
</g>
</svg>
