<?xml version="1.0" encoding="utf-8"?>
<!-- Generator: Adobe Illustrator 27.0.0, SVG Export Plug-In . SVG Version: 6.00 Build 0)  -->
<svg version="1.1" id="Layer_1" xmlns="http://www.w3.org/2000/svg" xmlns:xlink="http://www.w3.org/1999/xlink" x="0px" y="0px"
	 viewBox="0 0 156 50" style="enable-background:new 0 0 156 50;" xml:space="preserve">
<style type="text/css">
	.st0{fill:none;stroke:#FFFFFF;stroke-width:0.15;stroke-miterlimit:10;}
	.st1{fill:none;stroke:#FFFFFF;stroke-width:0.1;stroke-miterlimit:10;}
	.st2{fill:#FFFFFF;}
	.st3{fill:#D6AC3B;stroke:#FFFFFF;stroke-width:0.1;stroke-miterlimit:10;}
	.st4{fill:#999207;stroke:#FFFFFF;stroke-width:0.1;stroke-miterlimit:10;}
	.st5{fill:none;}
	
		.st6{clip-path:url(#SVGID_00000103973884574575617140000009586962491326906243_);fill:#D6AC3B;stroke:#FFFFFF;stroke-width:0.1;stroke-miterlimit:10;}
	.st7{fill:#F3F4F5;stroke:#FFFFFF;stroke-width:0.1;stroke-miterlimit:10;}
	
		.st8{clip-path:url(#SVGID_00000039134238188349327500000009518169582210441631_);fill:#FFFFFF;stroke:#FFFFFF;stroke-width:0.1;stroke-miterlimit:10;}
	.st9{fill:#1E1E1E;}
</style>
<g>
	<g>
		<path class="st0" d="M9.15,6.33c0,0-1.82,6.46,0.82,8.84l7.86-6.36c0,0,0.13-1.82-0.26-2.54C17.57,6.27,16.88,8.34,9.15,6.33z"/>
	</g>
	<g>
		<path class="st1" d="M40.47,25.51c-0.88-0.65-12.06-12.16-18.94-15.08c0,0-5.58,1.55-18.46,14.86c0,0-2.42,2.57-1.94,0.22
			c0.48-2.35,4.11-11.43,4.11-11.43l2.66-2.31c0,0,0.24,3.57,1.78,4.24l8.4-6.74c0,0,0.87-0.27,0-3.64c0,0,0.77-0.85,0.42-2.98
			c0,0,1.12-1.91,2.98-2.6c0,0,9.96,5.1,16.2,14.05c0,0,3.37,8.61,3.96,10.86C42.22,27.22,41.35,26.15,40.47,25.51z"/>
	</g>
	<g>
	</g>
</g>
<g>
	<path class="st2" d="M55.61,21.67c0,0.16-0.08,0.24-0.25,0.24h-2.1c-0.08,0-0.15-0.02-0.19-0.08c-0.05-0.05-0.09-0.11-0.1-0.19
		l-0.54-2.46h-3.08l-0.54,2.46c-0.02,0.08-0.06,0.15-0.1,0.19c-0.05,0.05-0.12,0.08-0.19,0.08h-2.1c-0.17,0-0.25-0.08-0.25-0.24
		c0-0.01,0-0.02,0.01-0.03c0-0.01,0.01-0.02,0.01-0.04l2.24-9.3c0.09-0.36,0.22-0.65,0.39-0.87c0.17-0.22,0.37-0.39,0.59-0.5
		c0.23-0.12,0.47-0.19,0.73-0.23c0.26-0.04,0.52-0.06,0.78-0.06s0.52,0.02,0.77,0.06c0.26,0.04,0.5,0.12,0.72,0.23
		c0.23,0.11,0.42,0.28,0.59,0.5c0.17,0.22,0.3,0.51,0.39,0.87l2.23,9.3c0,0.02,0,0.04,0.01,0.04C55.6,21.65,55.61,21.66,55.61,21.67
		z M51.08,12.99c-0.02-0.08-0.04-0.14-0.06-0.17c-0.02-0.03-0.07-0.05-0.14-0.05c-0.11,0-0.18,0.07-0.21,0.23l-0.92,4.14h2.23
		L51.08,12.99z"/>
	<path class="st2" d="M63.05,21.54c0,0.17-0.1,0.28-0.3,0.31c-0.12,0.03-0.28,0.06-0.48,0.08s-0.41,0.04-0.64,0.06
		c-0.23,0.02-0.45,0.03-0.68,0.04c-0.23,0.01-0.44,0.01-0.65,0.01c-0.48,0-0.94-0.04-1.39-0.12c-0.44-0.08-0.83-0.23-1.17-0.47
		c-0.33-0.23-0.6-0.56-0.8-0.98c-0.2-0.42-0.3-0.98-0.3-1.66v-7.76c0-0.08,0.03-0.15,0.09-0.21s0.13-0.09,0.21-0.09h1.96
		c0.08,0,0.15,0.03,0.21,0.09s0.09,0.13,0.09,0.21v7.76c0,0.39,0.07,0.66,0.22,0.8c0.15,0.15,0.39,0.22,0.74,0.22h2.58
		c0.08,0,0.15,0.03,0.21,0.09c0.06,0.06,0.09,0.13,0.09,0.21V21.54z"/>
	<path class="st2" d="M73.04,21.73c0,0.12-0.08,0.18-0.23,0.18h-2.29c-0.08,0-0.14-0.03-0.18-0.09s-0.08-0.13-0.12-0.21l-2.01-3.8
		l-0.17,0.02c-0.16,0-0.34,0-0.55-0.02c-0.21-0.01-0.38-0.01-0.52-0.01v3.81c0,0.08-0.03,0.15-0.09,0.21
		c-0.06,0.06-0.13,0.09-0.21,0.09h-1.95c-0.08,0-0.15-0.03-0.21-0.09s-0.09-0.13-0.09-0.21V11.55c0-0.26,0.06-0.43,0.17-0.52
		c0.11-0.09,0.28-0.15,0.51-0.19c0.17-0.03,0.38-0.05,0.61-0.08c0.24-0.02,0.5-0.04,0.77-0.06c0.27-0.02,0.55-0.03,0.83-0.04
		c0.29-0.01,0.56-0.01,0.83-0.01c0.64,0,1.23,0.06,1.79,0.17c0.55,0.12,1.03,0.31,1.43,0.58c0.41,0.27,0.72,0.64,0.95,1.09
		c0.23,0.45,0.35,1,0.35,1.67v0.19c0,0.8-0.19,1.45-0.56,1.94c-0.37,0.49-0.83,0.85-1.38,1.06l2.27,4.23
		C73.02,21.63,73.04,21.68,73.04,21.73z M70.11,14.14c0-0.46-0.17-0.8-0.51-1.01c-0.34-0.21-0.83-0.32-1.46-0.32
		c-0.05,0-0.13,0-0.25,0.01c-0.12,0.01-0.23,0.01-0.35,0.02c-0.12,0.01-0.23,0.01-0.34,0.02c-0.11,0-0.19,0.01-0.23,0.01v2.88
		c0.04,0,0.11,0,0.21,0.01c0.1,0,0.21,0.01,0.32,0.01c0.12,0.01,0.22,0.01,0.32,0.01c0.1,0,0.17,0,0.21,0
		c0.39,0,0.72-0.03,0.98-0.08c0.26-0.05,0.48-0.14,0.64-0.25c0.16-0.11,0.27-0.25,0.34-0.44s0.1-0.4,0.1-0.66V14.14z"/>
	<path class="st2" d="M81.09,21.54c0,0.18-0.1,0.29-0.3,0.31c-0.26,0.04-0.61,0.08-1.04,0.13c-0.44,0.04-1.06,0.07-1.87,0.07
		c-0.48,0-0.94-0.04-1.38-0.12c-0.44-0.08-0.83-0.23-1.16-0.47c-0.33-0.23-0.6-0.56-0.8-0.98c-0.2-0.42-0.3-0.98-0.3-1.66v-4.98
		c0-0.68,0.1-1.23,0.3-1.65c0.2-0.42,0.47-0.74,0.8-0.97s0.73-0.39,1.17-0.47c0.44-0.08,0.91-0.12,1.39-0.12
		c0.4,0,0.75,0.01,1.06,0.02c0.3,0.01,0.57,0.03,0.8,0.05c0.23,0.02,0.43,0.04,0.59,0.06s0.31,0.04,0.44,0.06
		c0.2,0.03,0.3,0.13,0.3,0.3v1.4c0,0.08-0.03,0.15-0.09,0.21c-0.06,0.06-0.13,0.09-0.21,0.09h-3.04c-0.35,0-0.6,0.07-0.74,0.22
		c-0.15,0.15-0.22,0.41-0.22,0.8v1.36h3.88c0.08,0,0.15,0.03,0.21,0.09c0.06,0.06,0.09,0.13,0.09,0.21v1.42
		c0,0.08-0.03,0.15-0.09,0.21c-0.06,0.06-0.13,0.09-0.21,0.09h-3.88v1.59c0,0.39,0.07,0.66,0.22,0.8c0.15,0.15,0.39,0.22,0.74,0.22
		h3.04c0.08,0,0.15,0.03,0.21,0.09c0.06,0.06,0.09,0.13,0.09,0.21V21.54z"/>
	<path class="st2" d="M91.32,10.99c0,0.05,0,0.08-0.01,0.1l-2.26,5.19c-0.15,0.35-0.31,0.61-0.47,0.78
		c-0.16,0.17-0.33,0.3-0.51,0.38v4.17c0,0.08-0.03,0.15-0.09,0.21c-0.06,0.06-0.13,0.09-0.21,0.09H85.8c-0.08,0-0.15-0.03-0.21-0.09
		c-0.06-0.06-0.09-0.13-0.09-0.21v-4.17c-0.18-0.08-0.35-0.2-0.52-0.38c-0.17-0.17-0.32-0.43-0.47-0.78l-2.26-5.19
		c-0.01-0.02-0.02-0.05-0.02-0.1c0-0.06,0.02-0.11,0.06-0.16c0.04-0.04,0.1-0.07,0.18-0.07h2.16c0.08,0,0.14,0.02,0.19,0.08
		c0.05,0.05,0.08,0.11,0.11,0.18l1.62,4.23c0.04,0.1,0.08,0.16,0.1,0.19c0.03,0.03,0.07,0.04,0.12,0.04s0.09-0.01,0.12-0.04
		c0.03-0.02,0.07-0.09,0.11-0.19l1.62-4.23c0.02-0.07,0.05-0.13,0.1-0.18c0.05-0.05,0.12-0.08,0.2-0.08h2.16
		c0.08,0,0.14,0.02,0.18,0.07S91.32,10.93,91.32,10.99z"/>
	<path class="st2" d="M100.24,21.67c0,0.16-0.08,0.24-0.25,0.24h-2.1c-0.08,0-0.14-0.02-0.19-0.08c-0.05-0.05-0.08-0.11-0.11-0.19
		l-0.54-2.46h-3.07l-0.54,2.46c-0.02,0.08-0.06,0.15-0.11,0.19c-0.05,0.05-0.12,0.08-0.2,0.08h-2.1c-0.17,0-0.25-0.08-0.25-0.24
		c0-0.01,0-0.02,0.01-0.03c0-0.01,0.01-0.02,0.01-0.04l2.24-9.3c0.09-0.36,0.22-0.65,0.39-0.87c0.17-0.22,0.37-0.39,0.59-0.5
		c0.22-0.12,0.47-0.19,0.73-0.23c0.26-0.04,0.52-0.06,0.78-0.06c0.26,0,0.52,0.02,0.77,0.06c0.25,0.04,0.5,0.12,0.72,0.23
		c0.22,0.11,0.42,0.28,0.59,0.5c0.17,0.22,0.3,0.51,0.39,0.87l2.24,9.3c0,0.02,0,0.04,0.01,0.04
		C100.24,21.65,100.24,21.66,100.24,21.67z M95.71,12.99c-0.02-0.08-0.04-0.14-0.06-0.17c-0.02-0.03-0.07-0.05-0.13-0.05
		c-0.11,0-0.18,0.07-0.21,0.23l-0.92,4.14h2.23L95.71,12.99z"/>
	<path class="st2" d="M109.99,17.31c0,0.79-0.11,1.48-0.33,2.08c-0.22,0.59-0.54,1.09-0.94,1.48c-0.41,0.4-0.91,0.69-1.5,0.88
		c-0.59,0.2-1.26,0.29-2.01,0.29c-0.31,0-0.62-0.01-0.94-0.02c-0.31-0.01-0.61-0.03-0.9-0.05s-0.55-0.04-0.78-0.07
		c-0.24-0.02-0.43-0.05-0.58-0.08c-0.14-0.02-0.25-0.07-0.32-0.15c-0.07-0.08-0.11-0.2-0.11-0.38v-9.91c0-0.17,0.04-0.29,0.11-0.38
		c0.08-0.08,0.18-0.13,0.32-0.15c0.15-0.03,0.34-0.06,0.58-0.08c0.23-0.02,0.5-0.05,0.78-0.07s0.58-0.04,0.9-0.05
		c0.32-0.02,0.63-0.02,0.94-0.02c0.75,0,1.42,0.1,2.01,0.29c0.59,0.19,1.09,0.49,1.5,0.88c0.41,0.4,0.72,0.89,0.94,1.48
		c0.22,0.6,0.33,1.29,0.33,2.08V17.31z M107.43,15.37c0-0.51-0.05-0.93-0.16-1.26c-0.1-0.33-0.25-0.59-0.45-0.79
		c-0.2-0.2-0.43-0.33-0.7-0.41c-0.27-0.07-0.58-0.11-0.92-0.11c-0.19,0-0.39,0-0.59,0.01c-0.21,0.01-0.36,0.01-0.47,0.02v7.01
		c0.11,0.01,0.27,0.02,0.47,0.02c0.2,0,0.4,0.01,0.59,0.01c0.34,0,0.65-0.04,0.92-0.11c0.27-0.08,0.5-0.21,0.7-0.41
		c0.19-0.19,0.34-0.46,0.45-0.79c0.11-0.33,0.16-0.75,0.16-1.26V15.37z"/>
	<path class="st2" d="M120.27,21.67c0,0.16-0.08,0.24-0.25,0.24h-2.1c-0.08,0-0.14-0.02-0.19-0.08c-0.05-0.05-0.08-0.11-0.11-0.19
		l-0.54-2.46H114l-0.54,2.46c-0.02,0.08-0.06,0.15-0.11,0.19c-0.05,0.05-0.12,0.08-0.2,0.08h-2.1c-0.17,0-0.25-0.08-0.25-0.24
		c0-0.01,0-0.02,0.01-0.03c0-0.01,0.01-0.02,0.01-0.04l2.24-9.3c0.09-0.36,0.22-0.65,0.39-0.87c0.17-0.22,0.37-0.39,0.59-0.5
		c0.22-0.12,0.47-0.19,0.73-0.23c0.26-0.04,0.52-0.06,0.78-0.06c0.26,0,0.52,0.02,0.77,0.06c0.25,0.04,0.5,0.12,0.72,0.23
		c0.22,0.11,0.42,0.28,0.59,0.5c0.17,0.22,0.3,0.51,0.39,0.87l2.24,9.3c0,0.02,0,0.04,0.01,0.04
		C120.27,21.65,120.27,21.66,120.27,21.67z M115.74,12.99c-0.02-0.08-0.04-0.14-0.06-0.17c-0.02-0.03-0.07-0.05-0.13-0.05
		c-0.11,0-0.18,0.07-0.21,0.23l-0.92,4.14h2.23L115.74,12.99z"/>
	<path class="st2" d="M130.44,21.61c0,0.08-0.03,0.15-0.09,0.21c-0.06,0.06-0.13,0.09-0.21,0.09h-1.96c-0.08,0-0.15-0.03-0.21-0.09
		c-0.06-0.06-0.09-0.13-0.09-0.21v-4.33h-3.71v4.33c0,0.08-0.03,0.15-0.09,0.21c-0.06,0.06-0.13,0.09-0.21,0.09h-1.97
		c-0.08,0-0.15-0.03-0.21-0.09c-0.06-0.06-0.09-0.13-0.09-0.21V11.05c0-0.08,0.03-0.15,0.09-0.2c0.06-0.05,0.13-0.08,0.21-0.08h1.97
		c0.08,0,0.15,0.03,0.21,0.08c0.06,0.06,0.09,0.12,0.09,0.2v3.99h3.71v-3.99c0-0.08,0.03-0.15,0.09-0.2
		c0.06-0.05,0.13-0.08,0.21-0.08h1.96c0.08,0,0.15,0.03,0.21,0.08c0.06,0.06,0.09,0.12,0.09,0.2V21.61z"/>
	<path class="st2" d="M143.85,21.76c0,0.1-0.07,0.15-0.2,0.15h-1.17c-0.13,0-0.24-0.05-0.33-0.15l-4.23-5.15v5
		c0,0.08-0.03,0.15-0.08,0.21s-0.12,0.09-0.2,0.09h-0.82c-0.08,0-0.15-0.03-0.2-0.09s-0.08-0.13-0.08-0.21V11.05
		c0-0.08,0.03-0.15,0.08-0.2c0.05-0.05,0.12-0.08,0.2-0.08h0.79c0.08,0,0.15,0.03,0.2,0.08c0.06,0.06,0.08,0.12,0.08,0.2v4.84
		l4.32-4.99c0.05-0.05,0.09-0.08,0.13-0.11c0.04-0.02,0.09-0.03,0.17-0.03h1.08c0.14,0,0.21,0.06,0.21,0.17
		c0,0.06-0.02,0.11-0.06,0.15l-4.51,5.1l4.51,5.4C143.82,21.63,143.85,21.69,143.85,21.76z"/>
	<path class="st2" d="M151.47,21.46c0,0.19-0.09,0.3-0.27,0.33c-0.37,0.06-0.78,0.11-1.24,0.16c-0.46,0.04-1.04,0.07-1.75,0.07
		c-0.47,0-0.94-0.08-1.4-0.25s-0.88-0.43-1.25-0.79c-0.37-0.36-0.66-0.84-0.89-1.44c-0.23-0.59-0.34-1.32-0.34-2.18v-2.01
		c0-0.91,0.12-1.67,0.36-2.27c0.24-0.6,0.55-1.08,0.93-1.44s0.81-0.61,1.29-0.76c0.48-0.14,0.96-0.22,1.44-0.22
		c0.7,0,1.28,0.02,1.73,0.07s0.83,0.09,1.12,0.14c0.07,0.01,0.13,0.03,0.18,0.06s0.08,0.08,0.08,0.17v0.75c0,0.1-0.07,0.15-0.2,0.15
		h-0.06c-0.22-0.02-0.43-0.04-0.64-0.05c-0.21-0.02-0.42-0.02-0.64-0.03c-0.22,0-0.46-0.01-0.71-0.02c-0.26,0-0.54-0.01-0.86-0.01
		c-0.35,0-0.68,0.05-1,0.16s-0.6,0.29-0.85,0.55c-0.25,0.27-0.44,0.62-0.58,1.06c-0.14,0.45-0.22,1-0.22,1.67v2.01
		c0,0.62,0.06,1.15,0.19,1.58s0.31,0.79,0.54,1.07c0.23,0.28,0.5,0.48,0.8,0.61s0.63,0.19,0.98,0.19c0.46,0,0.84-0.01,1.16-0.03
		c0.31-0.02,0.55-0.04,0.73-0.06v-4.29c0-0.08,0.03-0.15,0.08-0.21c0.05-0.06,0.12-0.09,0.2-0.09h0.81c0.08,0,0.15,0.03,0.2,0.09
		c0.05,0.06,0.08,0.13,0.08,0.21V21.46z"/>
</g>
<g>
	<path class="st2" d="M53.45,27.97l-1.07,6.49c-0.03,0.2-0.1,0.33-0.21,0.39c-0.11,0.06-0.24,0.1-0.39,0.1h-0.41
		c-0.13,0-0.25-0.04-0.35-0.13c-0.1-0.09-0.16-0.2-0.2-0.35l-0.94-3.55c-0.01-0.04-0.02-0.07-0.03-0.08
		c-0.01-0.01-0.02-0.01-0.03-0.01h-0.02c-0.01,0-0.02,0-0.03,0.01c-0.01,0.01-0.02,0.03-0.03,0.08l-0.95,3.55
		c-0.04,0.15-0.11,0.26-0.2,0.35c-0.1,0.09-0.21,0.13-0.35,0.13h-0.4c-0.15,0-0.28-0.03-0.39-0.1c-0.11-0.06-0.17-0.2-0.21-0.39
		l-1.07-6.49v-0.03c0-0.11,0.05-0.16,0.16-0.16h0.56c0.09,0,0.14,0.05,0.16,0.16l0.93,6.12c0.01,0.05,0.02,0.09,0.02,0.11
		c0,0.02,0.01,0.03,0.03,0.03c0.03,0,0.05-0.05,0.07-0.14l0.94-3.55c0.06-0.26,0.21-0.38,0.45-0.38h0.61c0.24,0,0.39,0.13,0.45,0.38
		l0.94,3.55c0.02,0.1,0.04,0.14,0.07,0.14c0.02,0,0.03-0.01,0.03-0.03c0-0.02,0.01-0.06,0.02-0.11l0.93-6.12
		c0.02-0.11,0.07-0.16,0.16-0.16h0.56c0.11,0,0.16,0.05,0.16,0.16V27.97z"/>
	<path class="st2" d="M58.5,32.33c0,0.14-0.06,0.21-0.18,0.21H55.1v0.13c0,0.57,0.11,0.97,0.34,1.21c0.22,0.24,0.56,0.36,1,0.36
		c0.28,0,0.58-0.01,0.9-0.03c0.32-0.02,0.59-0.04,0.81-0.08h0.05c0.04,0,0.07,0.01,0.11,0.03c0.03,0.02,0.05,0.05,0.05,0.11v0.33
		c0,0.06-0.01,0.11-0.04,0.15c-0.03,0.04-0.08,0.06-0.15,0.07c-0.27,0.05-0.55,0.09-0.82,0.12c-0.27,0.03-0.57,0.04-0.9,0.04
		c-0.28,0-0.54-0.04-0.81-0.11c-0.26-0.07-0.49-0.2-0.7-0.37c-0.2-0.18-0.36-0.41-0.49-0.71c-0.12-0.29-0.19-0.67-0.19-1.11v-0.86
		c0-0.69,0.18-1.24,0.55-1.64s0.89-0.6,1.58-0.6c0.35,0,0.66,0.05,0.92,0.16s0.48,0.26,0.66,0.45c0.18,0.2,0.31,0.43,0.4,0.71
		c0.09,0.28,0.13,0.59,0.13,0.93V32.33z M57.64,31.81c0-0.54-0.1-0.93-0.31-1.16c-0.21-0.23-0.52-0.35-0.95-0.35
		c-0.42,0-0.73,0.12-0.96,0.36c-0.22,0.24-0.33,0.62-0.33,1.14v0.09h2.54V31.81z"/>
	<path class="st2" d="M67.94,34.72c0,0.05-0.02,0.1-0.06,0.13c-0.04,0.04-0.08,0.06-0.13,0.06h-0.47c-0.05,0-0.1-0.02-0.13-0.06
		c-0.04-0.04-0.06-0.08-0.06-0.13v-5.69c0-0.02,0-0.03-0.01-0.03c-0.01,0-0.01,0.01-0.02,0.02l-1.37,2.84
		c-0.05,0.1-0.11,0.17-0.16,0.21c-0.06,0.04-0.15,0.07-0.27,0.07h-0.44c-0.12,0-0.21-0.02-0.27-0.07c-0.06-0.04-0.11-0.12-0.16-0.21
		L63,29.01c-0.01-0.01-0.01-0.02-0.02-0.02s-0.01,0.01-0.01,0.03v5.69c0,0.05-0.02,0.1-0.06,0.13c-0.04,0.04-0.08,0.06-0.13,0.06
		h-0.47c-0.05,0-0.1-0.02-0.13-0.06c-0.04-0.04-0.06-0.08-0.06-0.13v-6.66c0-0.08,0.03-0.14,0.08-0.2c0.05-0.05,0.12-0.08,0.2-0.08
		h0.62c0.09,0,0.15,0.01,0.2,0.03c0.04,0.02,0.08,0.07,0.11,0.13l1.58,3.29c0.03,0.07,0.07,0.11,0.12,0.11
		c0.04,0,0.08-0.04,0.12-0.11l1.58-3.29c0.03-0.06,0.07-0.11,0.11-0.13c0.04-0.02,0.11-0.03,0.2-0.03h0.62
		c0.08,0,0.14,0.03,0.2,0.08c0.05,0.05,0.08,0.12,0.08,0.2V34.72z"/>
	<path class="st2" d="M73,34.72c0,0.05-0.02,0.1-0.06,0.13c-0.04,0.04-0.08,0.06-0.13,0.06h-0.44c-0.05,0-0.1-0.02-0.13-0.06
		c-0.04-0.04-0.06-0.08-0.06-0.13V34.5c-0.23,0.13-0.47,0.25-0.71,0.34c-0.24,0.09-0.5,0.13-0.77,0.13c-0.2,0-0.4-0.02-0.59-0.07
		c-0.19-0.05-0.35-0.13-0.5-0.25c-0.14-0.12-0.26-0.28-0.35-0.48c-0.09-0.2-0.13-0.45-0.13-0.75V33.3c0-0.26,0.04-0.48,0.12-0.68
		s0.21-0.36,0.39-0.49c0.18-0.13,0.42-0.23,0.71-0.29c0.29-0.06,0.66-0.1,1.08-0.1h0.71v-0.38c0-0.4-0.08-0.68-0.23-0.84
		s-0.42-0.24-0.8-0.24c-0.31,0-0.59,0.01-0.83,0.02c-0.24,0.02-0.45,0.03-0.64,0.05h-0.05c-0.04,0-0.08-0.01-0.12-0.03
		s-0.05-0.06-0.05-0.12v-0.34c0-0.1,0.07-0.16,0.2-0.18c0.2-0.03,0.41-0.06,0.65-0.09c0.23-0.03,0.51-0.04,0.84-0.04
		c0.67,0,1.14,0.16,1.44,0.48C72.86,30.36,73,30.8,73,31.37V34.72z M72.16,32.35h-0.71c-0.29,0-0.53,0.02-0.72,0.05
		c-0.19,0.04-0.34,0.09-0.45,0.16c-0.11,0.07-0.19,0.17-0.23,0.29c-0.04,0.12-0.07,0.26-0.07,0.44v0.12c0,0.35,0.08,0.58,0.23,0.7
		c0.15,0.12,0.37,0.18,0.65,0.18c0.22,0,0.44-0.03,0.64-0.1c0.2-0.06,0.42-0.16,0.65-0.29V32.35z"/>
	<path class="st2" d="M78.08,34.78c0,0.08-0.04,0.12-0.11,0.12h-0.69c-0.05,0-0.09-0.01-0.12-0.02c-0.03-0.02-0.06-0.05-0.1-0.1
		l-1.91-2.36v2.29c0,0.05-0.02,0.1-0.06,0.13c-0.04,0.04-0.08,0.06-0.13,0.06H74.5c-0.05,0-0.1-0.02-0.13-0.06
		c-0.04-0.04-0.06-0.08-0.06-0.13v-6.84c0-0.05,0.02-0.1,0.06-0.13c0.04-0.04,0.08-0.06,0.13-0.06h0.46c0.05,0,0.1,0.02,0.13,0.06
		c0.04,0.04,0.06,0.08,0.06,0.13v3.99l1.92-2.16c0.03-0.03,0.06-0.05,0.08-0.07s0.06-0.02,0.11-0.02h0.67c0.1,0,0.14,0.04,0.14,0.11
		c0,0.04-0.02,0.07-0.05,0.11l-2.11,2.28l2.13,2.57C78.07,34.72,78.08,34.74,78.08,34.78z"/>
	<path class="st2" d="M83.14,32.33c0,0.14-0.06,0.21-0.18,0.21h-3.22v0.13c0,0.57,0.11,0.97,0.34,1.21c0.22,0.24,0.56,0.36,1,0.36
		c0.28,0,0.58-0.01,0.9-0.03c0.32-0.02,0.59-0.04,0.81-0.08h0.05c0.04,0,0.07,0.01,0.11,0.03c0.03,0.02,0.05,0.05,0.05,0.11v0.33
		c0,0.06-0.01,0.11-0.04,0.15s-0.08,0.06-0.15,0.07c-0.28,0.05-0.55,0.09-0.82,0.12c-0.27,0.03-0.57,0.04-0.9,0.04
		c-0.28,0-0.54-0.04-0.81-0.11s-0.49-0.2-0.7-0.37c-0.2-0.18-0.37-0.41-0.49-0.71c-0.13-0.29-0.19-0.67-0.19-1.11v-0.86
		c0-0.69,0.18-1.24,0.55-1.64c0.36-0.4,0.89-0.6,1.58-0.6c0.35,0,0.66,0.05,0.92,0.16c0.26,0.11,0.48,0.26,0.66,0.45
		s0.31,0.43,0.4,0.71s0.13,0.59,0.13,0.93V32.33z M82.29,31.81c0-0.54-0.1-0.93-0.31-1.16c-0.21-0.23-0.52-0.35-0.95-0.35
		c-0.42,0-0.73,0.12-0.96,0.36s-0.33,0.62-0.33,1.14v0.09h2.54V31.81z"/>
	<path class="st2" d="M90.77,31.38c0,0.05-0.02,0.1-0.06,0.13s-0.08,0.06-0.13,0.06h-2.95v3.14c0,0.05-0.02,0.1-0.06,0.13
		c-0.04,0.04-0.08,0.06-0.13,0.06h-0.49c-0.05,0-0.1-0.02-0.13-0.06c-0.04-0.04-0.06-0.08-0.06-0.13v-5.22
		c0-0.64,0.17-1.1,0.51-1.37c0.34-0.28,0.85-0.41,1.53-0.41c0.14,0,0.3,0,0.47,0c0.18,0,0.35,0.01,0.52,0.01
		c0.17,0,0.34,0.01,0.49,0.02c0.15,0.01,0.28,0.02,0.38,0.02c0.03,0.01,0.06,0.02,0.07,0.05c0.02,0.03,0.02,0.05,0.02,0.09v0.48
		c0,0.08-0.04,0.12-0.11,0.12h-1.85c-0.26,0-0.46,0.02-0.61,0.05c-0.15,0.04-0.27,0.09-0.35,0.17c-0.08,0.08-0.14,0.18-0.17,0.31
		c-0.03,0.13-0.04,0.28-0.04,0.46v1.33h2.95c0.05,0,0.1,0.02,0.13,0.06c0.04,0.04,0.06,0.08,0.06,0.13V31.38z"/>
	<path class="st2" d="M96,34.72c0,0.05-0.02,0.1-0.05,0.13c-0.04,0.04-0.08,0.06-0.13,0.06h-0.48c-0.05,0-0.09-0.02-0.13-0.06
		c-0.04-0.04-0.05-0.08-0.05-0.13v-0.18c-0.27,0.15-0.52,0.26-0.75,0.33s-0.49,0.11-0.78,0.11c-0.58,0-1.01-0.17-1.27-0.52
		s-0.4-0.84-0.4-1.48v-3.16c0-0.05,0.02-0.1,0.06-0.13c0.04-0.04,0.08-0.06,0.13-0.06h0.46c0.05,0,0.1,0.02,0.13,0.06
		c0.04,0.04,0.06,0.08,0.06,0.13v3.16c0,0.24,0.02,0.45,0.06,0.61c0.04,0.16,0.11,0.29,0.19,0.39c0.09,0.1,0.2,0.17,0.33,0.21
		c0.13,0.04,0.29,0.06,0.48,0.06c0.21,0,0.42-0.04,0.63-0.11c0.22-0.07,0.44-0.16,0.66-0.27v-4.05c0-0.05,0.02-0.1,0.06-0.13
		c0.04-0.04,0.08-0.06,0.13-0.06h0.47c0.05,0,0.09,0.02,0.13,0.06c0.04,0.04,0.05,0.08,0.05,0.13V34.72z"/>
	<path class="st2" d="M100.11,34.76c0,0.09-0.06,0.14-0.17,0.16c-0.1,0.01-0.2,0.02-0.32,0.03s-0.22,0.01-0.31,0.01
		c-0.22,0-0.42-0.02-0.58-0.05s-0.3-0.1-0.4-0.2c-0.11-0.1-0.19-0.23-0.24-0.39C98.03,34.17,98,33.95,98,33.69v-3.35l-0.93-0.11
		c-0.12-0.01-0.18-0.07-0.18-0.17V29.8c0-0.11,0.06-0.17,0.18-0.17H98v-0.94c0-0.11,0.06-0.17,0.17-0.19l0.5-0.08h0.03
		c0.04,0,0.07,0.01,0.1,0.04c0.03,0.03,0.04,0.07,0.04,0.12v1.05h1.04c0.05,0,0.1,0.02,0.13,0.06c0.04,0.04,0.06,0.08,0.06,0.13
		v0.33c0,0.05-0.02,0.1-0.06,0.13c-0.04,0.04-0.08,0.06-0.13,0.06h-1.04v3.35c0,0.26,0.04,0.43,0.12,0.5s0.21,0.11,0.4,0.11h0.54
		c0.13,0,0.2,0.04,0.2,0.13V34.76z"/>
	<path class="st2" d="M105.04,34.72c0,0.05-0.02,0.1-0.05,0.13c-0.04,0.04-0.08,0.06-0.13,0.06h-0.48c-0.05,0-0.09-0.02-0.13-0.06
		c-0.04-0.04-0.05-0.08-0.05-0.13v-0.18c-0.27,0.15-0.52,0.26-0.75,0.33s-0.49,0.11-0.78,0.11c-0.58,0-1.01-0.17-1.27-0.52
		s-0.4-0.84-0.4-1.48v-3.16c0-0.05,0.02-0.1,0.06-0.13c0.04-0.04,0.08-0.06,0.13-0.06h0.46c0.05,0,0.1,0.02,0.13,0.06
		c0.04,0.04,0.06,0.08,0.06,0.13v3.16c0,0.24,0.02,0.45,0.06,0.61c0.04,0.16,0.11,0.29,0.19,0.39c0.09,0.1,0.2,0.17,0.33,0.21
		c0.13,0.04,0.29,0.06,0.48,0.06c0.21,0,0.42-0.04,0.63-0.11c0.22-0.07,0.44-0.16,0.66-0.27v-4.05c0-0.05,0.02-0.1,0.06-0.13
		c0.04-0.04,0.08-0.06,0.13-0.06h0.47c0.05,0,0.09,0.02,0.13,0.06c0.04,0.04,0.05,0.08,0.05,0.13V34.72z"/>
	<path class="st2" d="M108.72,30.13c0,0.11-0.07,0.16-0.2,0.16c-0.22,0-0.44,0.03-0.65,0.09c-0.21,0.06-0.43,0.17-0.68,0.31v4.02
		c0,0.05-0.02,0.1-0.06,0.13c-0.04,0.04-0.08,0.06-0.13,0.06h-0.47c-0.05,0-0.09-0.02-0.13-0.06c-0.04-0.04-0.05-0.08-0.05-0.13
		v-4.9c0-0.05,0.02-0.1,0.05-0.13c0.03-0.04,0.08-0.06,0.13-0.06h0.45c0.05,0,0.09,0.02,0.13,0.06c0.04,0.04,0.05,0.08,0.05,0.13
		v0.2c0.24-0.17,0.48-0.29,0.7-0.36s0.44-0.11,0.66-0.11c0.13,0,0.2,0.06,0.2,0.17V30.13z"/>
	<path class="st2" d="M113.7,32.33c0,0.14-0.06,0.21-0.18,0.21h-3.22v0.13c0,0.57,0.11,0.97,0.34,1.21c0.22,0.24,0.56,0.36,1,0.36
		c0.28,0,0.58-0.01,0.9-0.03c0.32-0.02,0.59-0.04,0.81-0.08h0.05c0.04,0,0.07,0.01,0.11,0.03c0.03,0.02,0.05,0.05,0.05,0.11v0.33
		c0,0.06-0.01,0.11-0.04,0.15s-0.08,0.06-0.15,0.07c-0.28,0.05-0.55,0.09-0.82,0.12c-0.27,0.03-0.57,0.04-0.9,0.04
		c-0.28,0-0.54-0.04-0.81-0.11s-0.49-0.2-0.7-0.37c-0.2-0.18-0.37-0.41-0.49-0.71c-0.12-0.29-0.19-0.67-0.19-1.11v-0.86
		c0-0.69,0.18-1.24,0.55-1.64c0.36-0.4,0.89-0.6,1.58-0.6c0.35,0,0.66,0.05,0.92,0.16c0.26,0.11,0.48,0.26,0.66,0.45
		s0.31,0.43,0.4,0.71s0.13,0.59,0.13,0.93V32.33z M112.84,31.81c0-0.54-0.1-0.93-0.31-1.16c-0.21-0.23-0.52-0.35-0.95-0.35
		c-0.42,0-0.73,0.12-0.96,0.36s-0.33,0.62-0.33,1.14v0.09h2.54V31.81z"/>
	<path class="st2" d="M121.83,29.92c0,0.4-0.07,0.74-0.2,1.01c-0.13,0.27-0.32,0.49-0.56,0.66c-0.24,0.17-0.52,0.29-0.85,0.36
		c-0.33,0.07-0.69,0.11-1.08,0.11c-0.15,0-0.32,0-0.5-0.01c-0.18-0.01-0.33-0.02-0.46-0.03v2.7c0,0.05-0.02,0.1-0.05,0.13
		c-0.03,0.04-0.07,0.06-0.12,0.06h-0.52c-0.05,0-0.09-0.02-0.12-0.06c-0.03-0.04-0.05-0.08-0.05-0.13v-6.69
		c0-0.14,0.08-0.22,0.23-0.24c0.2-0.03,0.45-0.04,0.74-0.06s0.57-0.02,0.85-0.02c0.39,0,0.75,0.04,1.08,0.11
		c0.33,0.07,0.61,0.19,0.85,0.36c0.24,0.16,0.43,0.38,0.56,0.64c0.13,0.27,0.2,0.59,0.2,0.97V29.92z M120.96,29.79
		c0-0.49-0.15-0.83-0.44-1.04c-0.29-0.21-0.75-0.31-1.37-0.31c-0.15,0-0.32,0-0.5,0.01c-0.19,0.01-0.34,0.02-0.46,0.03v2.81
		c0.06,0,0.13,0,0.21,0.01c0.08,0.01,0.17,0.01,0.26,0.01c0.09,0,0.18,0.01,0.26,0.01c0.09,0,0.16,0,0.23,0
		c0.66,0,1.13-0.11,1.4-0.34c0.27-0.22,0.41-0.58,0.41-1.08V29.79z"/>
	<path class="st2" d="M123.88,28.59c0,0.05-0.02,0.1-0.06,0.13c-0.04,0.04-0.08,0.06-0.13,0.06h-0.49c-0.05,0-0.1-0.02-0.13-0.06
		c-0.04-0.04-0.06-0.08-0.06-0.13v-0.77c0-0.05,0.02-0.1,0.06-0.13c0.04-0.04,0.08-0.06,0.13-0.06h0.49c0.05,0,0.1,0.02,0.13,0.06
		c0.04,0.04,0.06,0.08,0.06,0.13V28.59z M123.87,34.72c0,0.05-0.02,0.1-0.06,0.13c-0.04,0.04-0.08,0.06-0.13,0.06h-0.46
		c-0.05,0-0.1-0.02-0.13-0.06c-0.04-0.04-0.06-0.08-0.06-0.13v-4.9c0-0.05,0.02-0.1,0.06-0.13c0.04-0.04,0.08-0.06,0.13-0.06h0.46
		c0.05,0,0.1,0.02,0.13,0.06c0.04,0.04,0.06,0.08,0.06,0.13V34.72z"/>
	<path class="st2" d="M129.38,32.63c0,0.35-0.04,0.67-0.13,0.96c-0.09,0.29-0.22,0.54-0.4,0.74c-0.18,0.21-0.4,0.36-0.67,0.48
		c-0.27,0.11-0.58,0.17-0.93,0.17c-0.35,0-0.66-0.06-0.93-0.17s-0.49-0.27-0.67-0.48c-0.18-0.2-0.31-0.45-0.4-0.74
		c-0.09-0.29-0.13-0.61-0.13-0.96V31.9c0-0.35,0.04-0.67,0.13-0.96s0.22-0.53,0.4-0.74c0.18-0.2,0.4-0.36,0.67-0.47
		c0.27-0.11,0.57-0.17,0.93-0.17c0.35,0,0.66,0.06,0.93,0.17c0.27,0.11,0.49,0.27,0.67,0.47c0.18,0.21,0.31,0.45,0.4,0.74
		c0.09,0.29,0.13,0.61,0.13,0.96V32.63z M128.54,31.9c0-0.49-0.1-0.88-0.31-1.17c-0.2-0.29-0.53-0.43-0.99-0.43
		c-0.45,0-0.77,0.14-0.98,0.43c-0.21,0.29-0.31,0.68-0.31,1.18v0.73c0,0.49,0.1,0.88,0.3,1.17c0.2,0.29,0.53,0.43,0.98,0.43
		c0.45,0,0.78-0.14,0.98-0.43c0.21-0.29,0.31-0.68,0.31-1.18V31.9z"/>
	<path class="st2" d="M134.56,34.72c0,0.05-0.02,0.1-0.06,0.13c-0.04,0.04-0.08,0.06-0.13,0.06h-0.46c-0.05,0-0.1-0.02-0.13-0.06
		c-0.04-0.04-0.06-0.08-0.06-0.13v-3.16c0-0.24-0.02-0.45-0.06-0.61s-0.11-0.29-0.19-0.39c-0.09-0.1-0.2-0.17-0.33-0.21
		c-0.13-0.04-0.29-0.06-0.47-0.06c-0.21,0-0.42,0.04-0.63,0.11s-0.44,0.16-0.66,0.27v4.05c0,0.05-0.02,0.1-0.06,0.13
		c-0.04,0.04-0.08,0.06-0.13,0.06h-0.47c-0.05,0-0.09-0.02-0.13-0.06c-0.04-0.04-0.05-0.08-0.05-0.13v-4.9
		c0-0.05,0.02-0.1,0.05-0.13c0.03-0.04,0.08-0.06,0.13-0.06h0.48c0.05,0,0.09,0.02,0.13,0.06c0.04,0.04,0.05,0.08,0.05,0.13V30
		c0.27-0.15,0.52-0.26,0.75-0.33s0.49-0.11,0.78-0.11c0.58,0,1.01,0.17,1.27,0.52c0.27,0.34,0.4,0.84,0.4,1.48V34.72z"/>
	<path class="st2" d="M139.94,32.33c0,0.14-0.06,0.21-0.18,0.21h-3.22v0.13c0,0.57,0.11,0.97,0.34,1.21c0.22,0.24,0.56,0.36,1,0.36
		c0.28,0,0.58-0.01,0.9-0.03c0.32-0.02,0.59-0.04,0.81-0.08h0.05c0.04,0,0.07,0.01,0.11,0.03c0.03,0.02,0.05,0.05,0.05,0.11v0.33
		c0,0.06-0.01,0.11-0.04,0.15s-0.08,0.06-0.15,0.07c-0.28,0.05-0.55,0.09-0.82,0.12c-0.27,0.03-0.57,0.04-0.9,0.04
		c-0.28,0-0.54-0.04-0.81-0.11s-0.49-0.2-0.7-0.37c-0.2-0.18-0.37-0.41-0.49-0.71c-0.12-0.29-0.19-0.67-0.19-1.11v-0.86
		c0-0.69,0.18-1.24,0.55-1.64c0.36-0.4,0.89-0.6,1.58-0.6c0.35,0,0.66,0.05,0.92,0.16c0.26,0.11,0.48,0.26,0.66,0.45
		s0.31,0.43,0.4,0.71s0.13,0.59,0.13,0.93V32.33z M139.08,31.81c0-0.54-0.1-0.93-0.31-1.16c-0.21-0.23-0.52-0.35-0.95-0.35
		c-0.42,0-0.73,0.12-0.96,0.36s-0.33,0.62-0.33,1.14v0.09h2.54V31.81z"/>
	<path class="st2" d="M145.16,32.33c0,0.14-0.06,0.21-0.18,0.21h-3.22v0.13c0,0.57,0.11,0.97,0.34,1.21c0.22,0.24,0.56,0.36,1,0.36
		c0.28,0,0.58-0.01,0.9-0.03c0.32-0.02,0.59-0.04,0.81-0.08h0.05c0.04,0,0.07,0.01,0.11,0.03c0.03,0.02,0.05,0.05,0.05,0.11v0.33
		c0,0.06-0.01,0.11-0.04,0.15s-0.08,0.06-0.15,0.07c-0.28,0.05-0.55,0.09-0.82,0.12c-0.27,0.03-0.57,0.04-0.9,0.04
		c-0.28,0-0.54-0.04-0.81-0.11s-0.49-0.2-0.7-0.37c-0.2-0.18-0.37-0.41-0.49-0.71c-0.12-0.29-0.19-0.67-0.19-1.11v-0.86
		c0-0.69,0.18-1.24,0.55-1.64c0.36-0.4,0.89-0.6,1.58-0.6c0.35,0,0.66,0.05,0.92,0.16c0.26,0.11,0.48,0.26,0.66,0.45
		s0.31,0.43,0.4,0.71s0.13,0.59,0.13,0.93V32.33z M144.3,31.81c0-0.54-0.1-0.93-0.31-1.16c-0.21-0.23-0.52-0.35-0.95-0.35
		c-0.42,0-0.73,0.12-0.96,0.36s-0.33,0.62-0.33,1.14v0.09h2.54V31.81z"/>
	<path class="st2" d="M148.68,30.13c0,0.11-0.07,0.16-0.2,0.16c-0.22,0-0.44,0.03-0.65,0.09c-0.21,0.06-0.43,0.17-0.68,0.31v4.02
		c0,0.05-0.02,0.1-0.06,0.13c-0.04,0.04-0.08,0.06-0.13,0.06h-0.47c-0.05,0-0.09-0.02-0.13-0.06c-0.04-0.04-0.05-0.08-0.05-0.13
		v-4.9c0-0.05,0.02-0.1,0.05-0.13c0.03-0.04,0.08-0.06,0.13-0.06h0.45c0.05,0,0.09,0.02,0.13,0.06c0.04,0.04,0.05,0.08,0.05,0.13
		v0.2c0.24-0.17,0.48-0.29,0.7-0.36s0.44-0.11,0.66-0.11c0.13,0,0.2,0.06,0.2,0.17V30.13z"/>
	<path class="st2" d="M152.93,33.58c0,0.24-0.04,0.45-0.13,0.63c-0.09,0.18-0.21,0.32-0.37,0.43c-0.16,0.11-0.35,0.2-0.57,0.25
		c-0.22,0.05-0.47,0.08-0.73,0.08c-0.09,0-0.2,0-0.32,0s-0.26-0.01-0.39-0.02c-0.14-0.01-0.28-0.03-0.42-0.04
		c-0.14-0.02-0.27-0.04-0.38-0.07c-0.13-0.03-0.2-0.1-0.2-0.19V34.3c0-0.04,0.02-0.08,0.05-0.11c0.03-0.03,0.07-0.04,0.12-0.04h0.04
		c0.12,0.01,0.24,0.03,0.38,0.04s0.28,0.02,0.42,0.03c0.14,0.01,0.27,0.02,0.39,0.02c0.12,0.01,0.23,0.01,0.32,0.01
		c0.31,0,0.55-0.05,0.71-0.14c0.16-0.1,0.24-0.28,0.24-0.54c0-0.15-0.05-0.28-0.15-0.38c-0.1-0.11-0.29-0.25-0.57-0.41l-0.97-0.58
		c-0.29-0.18-0.53-0.38-0.71-0.59c-0.18-0.21-0.27-0.47-0.27-0.78c0-0.25,0.04-0.46,0.13-0.62s0.21-0.29,0.37-0.39
		c0.15-0.1,0.34-0.17,0.55-0.21c0.21-0.04,0.44-0.06,0.69-0.06c0.27,0,0.53,0.01,0.78,0.03s0.49,0.05,0.71,0.09
		c0.12,0.02,0.18,0.08,0.18,0.19v0.32c0,0.11-0.05,0.16-0.16,0.16h-0.03c-0.17-0.01-0.39-0.03-0.67-0.05
		c-0.28-0.02-0.55-0.03-0.82-0.03s-0.49,0.03-0.65,0.1c-0.16,0.06-0.24,0.22-0.24,0.46c0,0.15,0.05,0.27,0.16,0.38
		c0.11,0.11,0.27,0.22,0.5,0.35l0.95,0.57c0.4,0.24,0.67,0.47,0.83,0.69C152.86,33.05,152.93,33.3,152.93,33.58z"/>
</g>
<g>
	<path class="st3" d="M2.39,36.48c0,0-0.03-4.59,3-8.07c3.03-3.48,2.97-3.6,2.49-3.45c0,0-6.36,5.01-6.03,11.28
		c0.33,6.27,3.01,6.06,3.01,6.06s3.37,0.3,3.38-5.01C8.24,33.61,4.46,33.27,2.39,36.48 M5.21,39.87c-0.87,0.29-1.21-0.17-1.49-0.6
		c-0.25-0.39-0.26-0.8-0.14-1.14c0.13-0.34,1.52-1.22,1.96-1.19C6.59,36.99,7.85,39,5.21,39.87"/>
	<path class="st1" d="M2.39,36.48c0,0-0.03-4.59,3-8.07c3.03-3.48,2.97-3.6,2.49-3.45c0,0-6.36,5.01-6.03,11.28
		c0.33,6.27,3.01,6.06,3.01,6.06s3.37,0.3,3.38-5.01C8.24,33.61,4.46,33.27,2.39,36.48z M5.21,39.87c-0.87,0.29-1.21-0.17-1.49-0.6
		c-0.25-0.39-0.26-0.8-0.14-1.14c0.13-0.34,1.52-1.22,1.96-1.19C6.59,36.99,7.85,39,5.21,39.87z"/>
	<polygon class="st3" points="6.2,28.02 5.31,29.69 6.47,30.96 5.64,32.4 7.04,33.58 8.04,31.89 6.78,30.77 7.59,29.45 	"/>
	<polygon class="st1" points="6.2,28.02 5.31,29.69 6.47,30.96 5.64,32.4 7.04,33.58 8.04,31.89 6.78,30.77 7.59,29.45 	"/>
	<path class="st3" d="M9.56,34.32c0,0,1.62-2.25,3.57-2.13c1.95,0.12,1.65,2.13,1.65,2.13s0.54,9.18-12.54,12.87
		c0,0-0.48,0.51,0.96,0.15c1.44-0.36,7.71-0.57,10.74-4.59c3.03-4.02,3.54-14.31-1.44-14.1c0,0-1.56,0.24-3.03,2.28
		c0,0-1.92-5.49,2.55-10.32c0,0,3.24-4.11,3.9-1.5c0,0,0.93,1.53,0.9,9.54c-0.03,8.01,2.31,10.83,4.32,10.89
		c2.01,0.06,2.91-2.22,2.91-2.22s1.08-3.84-0.54-5.94c-0.4-0.52-0.72-0.98-0.9-0.84c-0.34,0.26-0.69,2.13-0.69,2.13
		s1.44,1.17,1.47,2.55c0,0-1.32,3-2.91,1.08c-1.59-1.92-1.74-6.39-1.74-6.39s-0.63-8.79-1.02-10.8c-0.39-2.01-1.8-4.92-5.07-1.56
		C9.38,20.91,7.46,28.26,9.56,34.32"/>
	<path class="st1" d="M9.56,34.32c0,0,1.62-2.25,3.57-2.13c1.95,0.12,1.65,2.13,1.65,2.13s0.54,9.18-12.54,12.87
		c0,0-0.48,0.51,0.96,0.15c1.44-0.36,7.71-0.57,10.74-4.59c3.03-4.02,3.54-14.31-1.44-14.1c0,0-1.56,0.24-3.03,2.28
		c0,0-1.92-5.49,2.55-10.32c0,0,3.24-4.11,3.9-1.5c0,0,0.93,1.53,0.9,9.54c-0.03,8.01,2.31,10.83,4.32,10.89
		c2.01,0.06,2.91-2.22,2.91-2.22s1.08-3.84-0.54-5.94c-0.4-0.52-0.72-0.98-0.9-0.84c-0.34,0.26-0.69,2.13-0.69,2.13
		s1.44,1.17,1.47,2.55c0,0-1.32,3-2.91,1.08c-1.59-1.92-1.74-6.39-1.74-6.39s-0.63-8.79-1.02-10.8c-0.39-2.01-1.8-4.92-5.07-1.56
		C9.38,20.91,7.46,28.26,9.56,34.32z"/>
	<path class="st4" d="M11.32,23.52c0,0.19,0.03,0.38,0.31,0.51c0.72,0.33,0.06-1.08,0.57,0.15c0.51,1.23,0.24,1.62,0.66,1.41
		c0.42-0.21-0.18-1.98,0.57-2.61c0.75-0.63-0.21,1,0.72-0.3c0.81-1.14-1.5-1.47-1.5,1.74c0,0-0.08-0.83-0.48-1.23
		C12.03,23.05,11.31,22.74,11.32,23.52"/>
	<path class="st5" d="M11.32,23.52c0,0.19,0.03,0.38,0.31,0.51c0.72,0.33,0.06-1.08,0.57,0.15c0.51,1.23,0.24,1.62,0.66,1.41
		c0.42-0.21-0.18-1.98,0.57-2.61c0.75-0.63-0.21,1,0.72-0.3c0.81-1.14-1.5-1.47-1.5,1.74c0,0-0.08-0.83-0.48-1.23
		C12.03,23.05,11.31,22.74,11.32,23.52z"/>
	<path class="st3" d="M26.07,21.87l-5.47,4.47c0,0-0.33,0.54-0.33-0.42c0,0,4.28-3.65,5.55-4.47
		C26.38,21.09,26.07,21.87,26.07,21.87"/>
	<path class="st1" d="M26.07,21.87l-5.47,4.47c0,0-0.33,0.54-0.33-0.42c0,0,4.28-3.65,5.55-4.47
		C26.38,21.09,26.07,21.87,26.07,21.87z"/>
	<path class="st3" d="M21.47,20.16c0,0-0.18,1.38,0.63,1.35s0.36-1.5,0.36-1.5s-0.17-0.51,0.12-0.54c0.3-0.03,0.33,0.66,0.33,0.66
		s0.3,0.93,0.78,0.6c0.48-0.33,0-1.26,0-1.26s-0.23-0.54,0.21-0.33c0,0,0.76,1.33,0.24,1.92c-0.72,0.81-1.12-0.25-1.24,0.3
		c-0.11,0.54-0.41,1.35-1.07,0.81c-0.66-0.54-0.78-2.01-0.78-2.01S21.35,19.68,21.47,20.16"/>
	<path class="st1" d="M21.47,20.16c0,0-0.18,1.38,0.63,1.35s0.36-1.5,0.36-1.5s-0.17-0.51,0.12-0.54c0.3-0.03,0.33,0.66,0.33,0.66
		s0.3,0.93,0.78,0.6c0.48-0.33,0-1.26,0-1.26s-0.23-0.54,0.21-0.33c0,0,0.76,1.33,0.24,1.92c-0.72,0.81-1.12-0.25-1.24,0.3
		c-0.11,0.54-0.41,1.35-1.07,0.81c-0.66-0.54-0.78-2.01-0.78-2.01S21.35,19.68,21.47,20.16z"/>
	<polygon class="st3" points="20.15,41.79 20.93,40.53 22.43,41.91 21.41,43.62 20.27,42.63 19.4,43.77 17.69,42.15 18.68,40.53 	
		"/>
	<polygon class="st1" points="20.15,41.79 20.93,40.53 22.43,41.91 21.41,43.62 20.27,42.63 19.4,43.77 17.69,42.15 18.68,40.53 	
		"/>
	<path class="st3" d="M36.41,35.01l-2.46-13.86c0,0-0.21-0.87,0.24-0.69c0.45,0.18,5.67,5.67,6.51,12.24
		c0.84,6.57,0.42,12.48-5.34,15.15c0,0-3.03,1.53-11.19,0.18c0,0-1.05,2.01-2.94,1.62c-1.89-0.39-5.1-2.79-5.04-6.21
		c0.06-3.42,0.18-4.2,0.51-4.47c0.33-0.27,0.06,1.89,0.06,1.89s-0.06,3.9,0.93,5.01c0.99,1.11,2.64,1.89,3.66,1.47
		c1.07-0.44,1.95-0.93,2.4-4.5c0.16-1.25,0.51-2.26,0.89-3.11c1.24-2.8,3.74-3.82,4.78-4.63c1.22-0.95,2.61-2.28,2.65-3.36
		c0.06-2.01-0.18-6.69-3.96-11.73l0.9,9.15c0,0,0,1.39-0.47,0c-0.13-0.39-0.33-1.3-0.55-2.01l-0.9-9.54c0,0-0.24-2.01,0.48-1.26
		c0.72,0.75,5.46,6.27,5.58,12.6c0.04,2.3-0.1,3.66-0.12,4.63c-0.06,2.87-4.23,5.08-5.51,6.16c-0.86,0.73-1.67,1.52-1.93,2.11
		c-0.66,1.47-0.73,4.67-1.32,5.76c0,0,3.48,0.87,7.92-0.81c0,0,5.8-1.47,7.26-7.08c1.43-5.5,0.15-9.87-4.53-15.96l1.89,9.75
		C36.8,33.51,36.89,35.52,36.41,35.01"/>
	<path class="st1" d="M36.41,35.01l-2.46-13.86c0,0-0.21-0.87,0.24-0.69c0.45,0.18,5.67,5.67,6.51,12.24
		c0.84,6.57,0.42,12.48-5.34,15.15c0,0-3.03,1.53-11.19,0.18c0,0-1.05,2.01-2.94,1.62c-1.89-0.39-5.1-2.79-5.04-6.21
		c0.06-3.42,0.18-4.2,0.51-4.47c0.33-0.27,0.06,1.89,0.06,1.89s-0.06,3.9,0.93,5.01c0.99,1.11,2.64,1.89,3.66,1.47
		c1.07-0.44,1.95-0.93,2.4-4.5c0.16-1.25,0.51-2.26,0.89-3.11c1.24-2.8,3.74-3.82,4.78-4.63c1.22-0.95,2.61-2.28,2.65-3.36
		c0.06-2.01-0.18-6.69-3.96-11.73l0.9,9.15c0,0,0,1.39-0.47,0c-0.13-0.39-0.33-1.3-0.55-2.01l-0.9-9.54c0,0-0.24-2.01,0.48-1.26
		c0.72,0.75,5.46,6.27,5.58,12.6c0.04,2.3-0.1,3.66-0.12,4.63c-0.06,2.87-4.23,5.08-5.51,6.16c-0.86,0.73-1.67,1.52-1.93,2.11
		c-0.66,1.47-0.73,4.67-1.32,5.76c0,0,3.48,0.87,7.92-0.81c0,0,5.8-1.47,7.26-7.08c1.43-5.5,0.15-9.87-4.53-15.96l1.89,9.75
		C36.8,33.51,36.89,35.52,36.41,35.01z"/>
	<g>
		<defs>
			<path id="SVGID_1_" d="M9.09,6.3c0,0-1.81,6.43,0.82,8.8l7.83-6.33c0,0,0.13-1.82-0.26-2.53C17.47,6.24,16.78,8.31,9.09,6.3"/>
		</defs>
		<use xlink:href="#SVGID_1_"  style="overflow:visible;fill:#D6AC3B;"/>
		<clipPath id="SVGID_00000075140478419337072090000001156370347931631745_">
			<use xlink:href="#SVGID_1_"  style="overflow:visible;"/>
		</clipPath>
		
			<rect x="7.27" y="6.24" style="clip-path:url(#SVGID_00000075140478419337072090000001156370347931631745_);fill:#D6AC3B;stroke:#FFFFFF;stroke-width:0.1;stroke-miterlimit:10;" width="10.59" height="8.86"/>
		<use xlink:href="#SVGID_1_"  style="overflow:visible;fill:none;stroke:#FFFFFF;stroke-width:0.1;stroke-miterlimit:10;"/>
	</g>
	<g>
		<path class="st1" d="M11.44,2.67c-0.95,0.53-0.85,2.62-0.85,2.62c1.16,0.46,2.33,0.65,3.33,0.65c0.97,0,1.77-0.18,2.25-0.46
			c0.98-0.58,0.4-2.8,0.4-2.8S12.39,2.15,11.44,2.67z"/>
		<path class="st7" d="M17.86,2.07c0,0-1.54-0.51-3.8-0.51c-1.13,0-2.44,0.13-3.84,0.51c0,0-1.03,0.85-1.01,3.73
			c0,0,5.58,1.6,7.72,0.42C18.77,5.21,17.86,2.07,17.86,2.07z M16.17,5.48c-0.48,0.29-1.29,0.46-2.25,0.46c-1,0-2.17-0.19-3.33-0.65
			c0,0-0.11-2.09,0.85-2.62c0.95-0.53,5.13,0,5.13,0S17.15,4.9,16.17,5.48z"/>
	</g>
	<g>
		<defs>
			<path id="SVGID_00000048472488536848545430000017164678752074519710_" d="M18.52,2.89C18.86,5,18.1,5.85,18.1,5.85
				c0.87,3.36,0,3.62,0,3.62l-8.36,6.71c-1.53-0.67-1.77-4.22-1.77-4.22l-2.65,2.3c0,0-3.62,9.05-4.09,11.38
				c-0.48,2.34,1.93-0.22,1.93-0.22c12.83-13.25,18.39-14.79,18.39-14.79C28.38,13.54,39.52,25,40.39,25.64
				c0.87,0.65,1.75,1.71,1.16-0.54c-0.58-2.25-3.94-10.82-3.94-10.82C31.4,5.37,21.48,0.3,21.48,0.3
				C19.63,0.98,18.52,2.89,18.52,2.89"/>
		</defs>
		<use xlink:href="#SVGID_00000048472488536848545430000017164678752074519710_"  style="overflow:visible;fill:#FFFFFF;"/>
		<clipPath id="SVGID_00000026850584686087223990000006446731682378025150_">
			<use xlink:href="#SVGID_00000048472488536848545430000017164678752074519710_"  style="overflow:visible;"/>
		</clipPath>
		
			<rect x="0.74" y="0.3" style="clip-path:url(#SVGID_00000026850584686087223990000006446731682378025150_);fill:#FFFFFF;stroke:#FFFFFF;stroke-width:0.1;stroke-miterlimit:10;" width="41.39" height="27.69"/>
		
			<use xlink:href="#SVGID_00000048472488536848545430000017164678752074519710_"  style="overflow:visible;fill:none;stroke:#FFFFFF;stroke-width:0.1;stroke-miterlimit:10;"/>
	</g>
</g>
<g>
	<path class="st9" d="M25.4,9.88c-0.21-0.13-0.36-0.27-0.47-0.42c-0.11-0.15-0.17-0.3-0.2-0.46c-0.03-0.15-0.03-0.3,0.01-0.45
		c0.04-0.15,0.09-0.28,0.17-0.41c0.1-0.16,0.22-0.29,0.37-0.4c0.14-0.11,0.3-0.19,0.46-0.24c0.16-0.05,0.33-0.06,0.5-0.04
		c0.17,0.02,0.34,0.08,0.49,0.18c0.15,0.09,0.26,0.2,0.35,0.33c0.09,0.13,0.15,0.26,0.18,0.4c0.03,0.14,0.03,0.29,0,0.44
		c-0.03,0.15-0.1,0.3-0.19,0.45l-0.38,0.6l0.36,0.23c0.05,0.03,0.07,0.07,0.08,0.11c0,0.04,0,0.08-0.03,0.12l-0.2,0.31
		c-0.02,0.03-0.05,0.05-0.09,0.07c-0.04,0.02-0.09,0.01-0.14-0.02L25.4,9.88z M26.41,6.58c0.05-0.08,0.12-0.13,0.22-0.15
		c0.09-0.02,0.18,0,0.27,0.05c0.09,0.06,0.14,0.13,0.16,0.22c0.02,0.09,0.01,0.18-0.05,0.26c-0.05,0.08-0.12,0.13-0.22,0.15
		c-0.09,0.02-0.18,0-0.27-0.05c-0.09-0.06-0.14-0.13-0.16-0.22C26.34,6.75,26.35,6.66,26.41,6.58z M26.11,9.5l0.29-0.45
		c0.12-0.19,0.18-0.36,0.17-0.51c-0.01-0.15-0.08-0.27-0.22-0.36c-0.06-0.04-0.13-0.06-0.2-0.07C26.07,8.1,26,8.1,25.93,8.12
		c-0.07,0.02-0.14,0.05-0.21,0.1c-0.07,0.05-0.13,0.11-0.18,0.19c-0.06,0.09-0.1,0.18-0.11,0.27c-0.01,0.08,0,0.16,0.02,0.24
		c0.02,0.07,0.06,0.14,0.12,0.2s0.12,0.11,0.19,0.16L26.11,9.5z M27.2,7.08c0.05-0.08,0.12-0.13,0.22-0.15
		c0.09-0.02,0.18,0,0.27,0.05c0.09,0.06,0.14,0.13,0.16,0.22c0.02,0.09,0.01,0.18-0.05,0.26c-0.05,0.08-0.12,0.13-0.22,0.15
		c-0.09,0.02-0.18,0-0.27-0.05c-0.09-0.06-0.14-0.13-0.16-0.22C27.13,7.25,27.14,7.16,27.2,7.08z"/>
	<path class="st9" d="M26.64,10.67c-0.05-0.03-0.08-0.07-0.08-0.11c0-0.04,0.01-0.08,0.03-0.11l0.19-0.3
		c0.02-0.04,0.06-0.07,0.1-0.09c0.04-0.02,0.09-0.01,0.14,0.02l0.7,0.45l0.91-1.43l0.58,0.37l-0.27,0.43
		c0.26-0.1,0.52-0.13,0.79-0.11C30,9.8,30.23,9.87,30.44,10c0.19,0.12,0.34,0.26,0.44,0.41c0.1,0.16,0.17,0.32,0.19,0.5
		c0.03,0.18,0.01,0.36-0.04,0.54c-0.05,0.19-0.13,0.37-0.25,0.55l-0.58,0.92L26.64,10.67z M30.18,11.68
		c0.09-0.14,0.15-0.27,0.18-0.39c0.03-0.12,0.04-0.22,0.02-0.31c-0.02-0.09-0.06-0.18-0.12-0.25c-0.06-0.08-0.14-0.14-0.24-0.2
		c-0.11-0.07-0.24-0.12-0.39-0.14c-0.15-0.02-0.3-0.02-0.45,0.01c-0.15,0.03-0.31,0.08-0.46,0.17c-0.15,0.08-0.29,0.2-0.41,0.35
		L30,11.97L30.18,11.68z M30.45,9.15c0.05-0.08,0.12-0.13,0.22-0.15c0.1-0.02,0.18,0,0.27,0.05c0.09,0.06,0.14,0.13,0.16,0.22
		c0.02,0.09,0.01,0.18-0.04,0.26c-0.05,0.08-0.12,0.13-0.22,0.15c-0.1,0.02-0.19,0-0.27-0.05c-0.08-0.05-0.14-0.13-0.16-0.22
		C30.39,9.32,30.4,9.23,30.45,9.15z"/>
	<path class="st9" d="M31.98,14.05c-0.21-0.13-0.37-0.27-0.47-0.42s-0.17-0.3-0.2-0.45c-0.03-0.15-0.02-0.3,0.01-0.45
		c0.04-0.15,0.09-0.28,0.17-0.41c0.1-0.16,0.22-0.29,0.37-0.4c0.14-0.11,0.3-0.19,0.46-0.24c0.16-0.05,0.33-0.06,0.5-0.04
		c0.17,0.02,0.34,0.08,0.49,0.18c0.15,0.09,0.27,0.2,0.36,0.33c0.09,0.13,0.15,0.26,0.18,0.4c0.03,0.14,0.03,0.29-0.01,0.44
		c-0.03,0.15-0.1,0.3-0.19,0.45l-0.71,1.12c-0.13,0.21-0.28,0.37-0.44,0.48c-0.16,0.11-0.33,0.17-0.5,0.19
		c-0.18,0.02-0.36,0-0.55-0.06c-0.19-0.06-0.38-0.15-0.57-0.27c-0.07-0.04-0.15-0.1-0.23-0.16c-0.08-0.06-0.17-0.13-0.27-0.21
		l0.4-0.54c0.09,0.08,0.18,0.15,0.26,0.21c0.09,0.06,0.16,0.11,0.22,0.15c0.09,0.06,0.19,0.11,0.28,0.15
		c0.09,0.04,0.18,0.06,0.27,0.06c0.09,0,0.18-0.02,0.26-0.06c0.08-0.04,0.17-0.12,0.25-0.23L31.98,14.05z M32.7,13.68l0.29-0.45
		c0.12-0.19,0.18-0.36,0.17-0.52c-0.01-0.15-0.08-0.27-0.22-0.36c-0.06-0.04-0.13-0.06-0.2-0.07c-0.07-0.01-0.15-0.01-0.22,0.01
		c-0.07,0.02-0.15,0.05-0.21,0.1c-0.07,0.05-0.13,0.11-0.18,0.19c-0.06,0.09-0.1,0.18-0.11,0.27c-0.01,0.08,0,0.16,0.02,0.24
		c0.02,0.07,0.06,0.14,0.12,0.2c0.06,0.06,0.12,0.11,0.19,0.16L32.7,13.68z"/>
	<path class="st9" d="M34.62,15.61c-0.1,0.15-0.21,0.28-0.33,0.39c-0.12,0.11-0.26,0.18-0.4,0.23c-0.14,0.05-0.29,0.06-0.45,0.04
		c-0.15-0.02-0.31-0.08-0.46-0.18c-0.06-0.04-0.12-0.08-0.17-0.12c-0.05-0.04-0.09-0.08-0.13-0.11c-0.02-0.02-0.04-0.04-0.06-0.05
		c-0.02-0.02-0.04-0.04-0.06-0.06l0.43-0.54l0.12,0.12c0.04,0.03,0.07,0.07,0.12,0.1c0.04,0.03,0.08,0.06,0.12,0.08
		c0.15,0.09,0.28,0.11,0.39,0.05c0.11-0.06,0.22-0.18,0.34-0.37l1.2-1.89l0.58,0.37L34.62,15.61z"/>
</g>
</svg>
