<?xml version="1.0" encoding="utf-8"?>
<!-- Generator: Adobe Illustrator 27.0.0, SVG Export Plug-In . SVG Version: 6.00 Build 0)  -->
<svg version="1.1" id="Layer_1" xmlns="http://www.w3.org/2000/svg" xmlns:xlink="http://www.w3.org/1999/xlink" x="0px" y="0px"
	 viewBox="0 0 156 50" style="enable-background:new 0 0 156 50;" xml:space="preserve">
<style type="text/css">
	.st0{fill:none;stroke:#FFFFFF;stroke-width:0.15;stroke-miterlimit:10;}
	.st1{fill:none;stroke:#FFFFFF;stroke-width:0.1;stroke-miterlimit:10;}
	.st2{fill:#D6AC3B;stroke:#FFFFFF;stroke-width:0.1;stroke-miterlimit:10;}
	.st3{fill:#999207;stroke:#FFFFFF;stroke-width:0.1;stroke-miterlimit:10;}
	.st4{fill:none;}
	.st5{fill:#D6AC3B;}
	
		.st6{clip-path:url(#SVGID_00000061455674022886444330000009624808368262609068_);fill:#D6AC3B;stroke:#FFFFFF;stroke-width:0.1;stroke-miterlimit:10;}
	.st7{fill:#F3F4F5;stroke:#FFFFFF;stroke-width:0.1;stroke-miterlimit:10;}
	.st8{fill:#FFFFFF;}
	
		.st9{clip-path:url(#SVGID_00000119832209227448968820000005105479572360411321_);fill:#FFFFFF;stroke:#FFFFFF;stroke-width:0.1;stroke-miterlimit:10;}
	.st10{fill:#1E1E1E;}
</style>
<g>
	<g>
		<g>
			<g>
				<path class="st0" d="M120.9,6.5c0,0-1.8,6.5,0.8,8.8l7.9-6.4c0,0,0.1-1.8-0.3-2.5C129.3,6.4,128.7,8.5,120.9,6.5z"/>
			</g>
			<g>
				<path class="st1" d="M152.2,25.6c-0.9-0.6-12.1-12.2-18.9-15.1c0,0-5.6,1.6-18.5,14.9c0,0-2.4,2.6-1.9,0.2
					c0.5-2.4,4.1-11.4,4.1-11.4l2.7-2.3c0,0,0.2,3.6,1.8,4.2l8.4-6.7c0,0,0.9-0.3,0-3.6c0,0,0.8-0.8,0.4-3c0,0,1.1-1.9,3-2.6
					c0,0,10,5.1,16.2,14.1c0,0,3.4,8.6,4,10.9C154,27.3,153.1,26.3,152.2,25.6z"/>
			</g>
		</g>
		<g>
			<path class="st2" d="M114.2,36.6c0,0,0-4.6,3-8.1s3-3.6,2.5-3.5c0,0-6.4,5-6,11.3s3,6.1,3,6.1s3.4,0.3,3.4-5
				C120,33.7,116.2,33.4,114.2,36.6 M117,40c-0.9,0.3-1.2-0.2-1.5-0.6c-0.2-0.4-0.3-0.8-0.1-1.1c0.1-0.3,1.5-1.2,2-1.2
				C118.4,37.1,119.6,39.1,117,40"/>
			<path class="st1" d="M114.2,36.6c0,0,0-4.6,3-8.1s3-3.6,2.5-3.5c0,0-6.4,5-6,11.3s3,6.1,3,6.1s3.4,0.3,3.4-5
				C120,33.7,116.2,33.4,114.2,36.6z M117,40c-0.9,0.3-1.2-0.2-1.5-0.6c-0.2-0.4-0.3-0.8-0.1-1.1c0.1-0.3,1.5-1.2,2-1.2
				C118.4,37.1,119.6,39.1,117,40z"/>
			<polygon class="st2" points="118,28.1 117.1,29.8 118.2,31.1 117.4,32.5 118.8,33.7 119.8,32 118.6,30.9 119.4,29.6 			"/>
			<polygon class="st1" points="118,28.1 117.1,29.8 118.2,31.1 117.4,32.5 118.8,33.7 119.8,32 118.6,30.9 119.4,29.6 			"/>
			<path class="st2" d="M121.3,34.4c0,0,1.6-2.2,3.6-2.1s1.7,2.1,1.7,2.1s0.5,9.2-12.5,12.9c0,0-0.5,0.5,1,0.2
				c1.4-0.4,7.7-0.6,10.7-4.6s3.5-14.3-1.4-14.1c0,0-1.6,0.2-3,2.3c0,0-1.9-5.5,2.6-10.3c0,0,3.2-4.1,3.9-1.5c0,0,0.9,1.5,0.9,9.5
				s2.3,10.8,4.3,10.9c2,0.1,2.9-2.2,2.9-2.2s1.1-3.8-0.5-5.9c-0.4-0.5-0.7-1-0.9-0.8c-0.3,0.3-0.7,2.1-0.7,2.1s1.4,1.2,1.5,2.5
				c0,0-1.3,3-2.9,1.1c-1.6-1.9-1.7-6.4-1.7-6.4s-0.6-8.8-1-10.8s-1.8-4.9-5.1-1.6S119.2,28.4,121.3,34.4"/>
			<path class="st1" d="M121.3,34.4c0,0,1.6-2.2,3.6-2.1s1.7,2.1,1.7,2.1s0.5,9.2-12.5,12.9c0,0-0.5,0.5,1,0.2
				c1.4-0.4,7.7-0.6,10.7-4.6s3.5-14.3-1.4-14.1c0,0-1.6,0.2-3,2.3c0,0-1.9-5.5,2.6-10.3c0,0,3.2-4.1,3.9-1.5c0,0,0.9,1.5,0.9,9.5
				s2.3,10.8,4.3,10.9c2,0.1,2.9-2.2,2.9-2.2s1.1-3.8-0.5-5.9c-0.4-0.5-0.7-1-0.9-0.8c-0.3,0.3-0.7,2.1-0.7,2.1s1.4,1.2,1.5,2.5
				c0,0-1.3,3-2.9,1.1c-1.6-1.9-1.7-6.4-1.7-6.4s-0.6-8.8-1-10.8s-1.8-4.9-5.1-1.6S119.2,28.4,121.3,34.4z"/>
			<path class="st3" d="M123.1,23.6c0,0.2,0,0.4,0.3,0.5c0.7,0.3,0.1-1.1,0.6,0.1s0.2,1.6,0.7,1.4c0.4-0.2-0.2-2,0.6-2.6
				c0.8-0.6-0.2,1,0.7-0.3c0.8-1.1-1.5-1.5-1.5,1.7c0,0-0.1-0.8-0.5-1.2C123.8,23.2,123.1,22.9,123.1,23.6"/>
			<path class="st4" d="M123.1,23.6c0,0.2,0,0.4,0.3,0.5c0.7,0.3,0.1-1.1,0.6,0.1s0.2,1.6,0.7,1.4c0.4-0.2-0.2-2,0.6-2.6
				c0.8-0.6-0.2,1,0.7-0.3c0.8-1.1-1.5-1.5-1.5,1.7c0,0-0.1-0.8-0.5-1.2C123.8,23.2,123.1,22.9,123.1,23.6z"/>
			<path class="st2" d="M137.8,22l-5.5,4.5c0,0-0.3,0.5-0.3-0.4c0,0,4.3-3.6,5.6-4.5C138.2,21.2,137.8,22,137.8,22"/>
			<path class="st1" d="M137.8,22l-5.5,4.5c0,0-0.3,0.5-0.3-0.4c0,0,4.3-3.6,5.6-4.5C138.2,21.2,137.8,22,137.8,22z"/>
			<path class="st2" d="M133.2,20.3c0,0-0.2,1.4,0.6,1.4s0.4-1.5,0.4-1.5s-0.2-0.5,0.1-0.5c0.3,0,0.3,0.7,0.3,0.7s0.3,0.9,0.8,0.6
				s0-1.3,0-1.3s-0.2-0.5,0.2-0.3c0,0,0.8,1.3,0.2,1.9c-0.7,0.8-1.1-0.2-1.2,0.3c-0.1,0.5-0.4,1.4-1.1,0.8s-0.8-2-0.8-2
				S133.1,19.8,133.2,20.3"/>
			<path class="st1" d="M133.2,20.3c0,0-0.2,1.4,0.6,1.4s0.4-1.5,0.4-1.5s-0.2-0.5,0.1-0.5c0.3,0,0.3,0.7,0.3,0.7s0.3,0.9,0.8,0.6
				s0-1.3,0-1.3s-0.2-0.5,0.2-0.3c0,0,0.8,1.3,0.2,1.9c-0.7,0.8-1.1-0.2-1.2,0.3c-0.1,0.5-0.4,1.4-1.1,0.8s-0.8-2-0.8-2
				S133.1,19.8,133.2,20.3z"/>
			<polygon class="st2" points="131.9,41.9 132.7,40.7 134.2,42 133.2,43.7 132,42.8 131.2,43.9 129.5,42.3 130.5,40.7 			"/>
			<polygon class="st1" points="131.9,41.9 132.7,40.7 134.2,42 133.2,43.7 132,42.8 131.2,43.9 129.5,42.3 130.5,40.7 			"/>
			<path class="st2" d="M148.2,35.1l-2.5-13.9c0,0-0.2-0.9,0.2-0.7c0.5,0.2,5.7,5.7,6.5,12.2c0.8,6.6,0.4,12.5-5.3,15.2
				c0,0-3,1.5-11.2,0.2c0,0-1.1,2-2.9,1.6s-5.1-2.8-5-6.2c0.1-3.4,0.2-4.2,0.5-4.5s0.1,1.9,0.1,1.9s-0.1,3.9,0.9,5
				c1,1.1,2.6,1.9,3.7,1.5c1.1-0.4,2-0.9,2.4-4.5c0.2-1.2,0.5-2.3,0.9-3.1c1.2-2.8,3.7-3.8,4.8-4.6c1.2-1,2.6-2.3,2.6-3.4
				c0.1-2-0.2-6.7-4-11.7l0.9,9.1c0,0,0,1.4-0.5,0c-0.1-0.4-0.3-1.3-0.5-2l-0.9-9.5c0,0-0.2-2,0.5-1.3c0.7,0.8,5.5,6.3,5.6,12.6
				c0,2.3-0.1,3.7-0.1,4.6c-0.1,2.9-4.2,5.1-5.5,6.2c-0.9,0.7-1.7,1.5-1.9,2.1c-0.7,1.5-0.7,4.7-1.3,5.8c0,0,3.5,0.9,7.9-0.8
				c0,0,5.8-1.5,7.3-7.1c1.4-5.5,0.2-9.9-4.5-16l1.9,9.8C148.6,33.6,148.7,35.6,148.2,35.1"/>
			<path class="st1" d="M148.2,35.1l-2.5-13.9c0,0-0.2-0.9,0.2-0.7c0.5,0.2,5.7,5.7,6.5,12.2c0.8,6.6,0.4,12.5-5.3,15.2
				c0,0-3,1.5-11.2,0.2c0,0-1.1,2-2.9,1.6s-5.1-2.8-5-6.2c0.1-3.4,0.2-4.2,0.5-4.5s0.1,1.9,0.1,1.9s-0.1,3.9,0.9,5
				c1,1.1,2.6,1.9,3.7,1.5c1.1-0.4,2-0.9,2.4-4.5c0.2-1.2,0.5-2.3,0.9-3.1c1.2-2.8,3.7-3.8,4.8-4.6c1.2-1,2.6-2.3,2.6-3.4
				c0.1-2-0.2-6.7-4-11.7l0.9,9.1c0,0,0,1.4-0.5,0c-0.1-0.4-0.3-1.3-0.5-2l-0.9-9.5c0,0-0.2-2,0.5-1.3c0.7,0.8,5.5,6.3,5.6,12.6
				c0,2.3-0.1,3.7-0.1,4.6c-0.1,2.9-4.2,5.1-5.5,6.2c-0.9,0.7-1.7,1.5-1.9,2.1c-0.7,1.5-0.7,4.7-1.3,5.8c0,0,3.5,0.9,7.9-0.8
				c0,0,5.8-1.5,7.3-7.1c1.4-5.5,0.2-9.9-4.5-16l1.9,9.8C148.6,33.6,148.7,35.6,148.2,35.1z"/>
			<g>
				<g>
					<path id="SVGID_1_" class="st5" d="M120.9,6.4c0,0-1.8,6.4,0.8,8.8l7.8-6.3c0,0,0.1-1.8-0.3-2.5C129.2,6.4,128.6,8.4,120.9,6.4
						"/>
				</g>
				<g>
					<defs>
						<path id="SVGID_00000168109296669916909520000003314970041293134999_" d="M120.9,6.4c0,0-1.8,6.4,0.8,8.8l7.8-6.3
							c0,0,0.1-1.8-0.3-2.5C129.2,6.4,128.6,8.4,120.9,6.4"/>
					</defs>
					<clipPath id="SVGID_00000140003418326529679940000009656953991296761745_">
						<use xlink:href="#SVGID_00000168109296669916909520000003314970041293134999_"  style="overflow:visible;"/>
					</clipPath>
					
						<rect x="119" y="6.4" style="clip-path:url(#SVGID_00000140003418326529679940000009656953991296761745_);fill:#D6AC3B;stroke:#FFFFFF;stroke-width:0.1;stroke-miterlimit:10;" width="10.6" height="8.9"/>
				</g>
				<g>
					<path id="SVGID_00000062168065362975776030000002424436462580903858_" class="st1" d="M120.9,6.4c0,0-1.8,6.4,0.8,8.8l7.8-6.3
						c0,0,0.1-1.8-0.3-2.5C129.2,6.4,128.6,8.4,120.9,6.4"/>
				</g>
			</g>
			<g>
				<path class="st1" d="M123.2,2.8c-0.9,0.5-0.8,2.6-0.8,2.6c1.2,0.5,2.3,0.7,3.3,0.7c1,0,1.8-0.2,2.2-0.5c1-0.6,0.4-2.8,0.4-2.8
					S124.2,2.3,123.2,2.8z"/>
				<path class="st7" d="M129.6,2.2c0,0-1.5-0.5-3.8-0.5c-1.1,0-2.4,0.1-3.8,0.5c0,0-1,0.9-1,3.7c0,0,5.6,1.6,7.7,0.4
					C130.5,5.3,129.6,2.2,129.6,2.2z M127.9,5.6c-0.5,0.3-1.3,0.5-2.2,0.5c-1,0-2.2-0.2-3.3-0.7c0,0-0.1-2.1,0.8-2.6
					c1-0.5,5.1,0,5.1,0S128.9,5,127.9,5.6z"/>
			</g>
			<g>
				<g>
					<path id="SVGID_00000048472488536848545430000017164678752074519710_" class="st8" d="M130.3,3c0.3,2.1-0.4,3-0.4,3
						c0.9,3.4,0,3.6,0,3.6l-8.4,6.7c-1.5-0.7-1.8-4.2-1.8-4.2l-2.7,2.3c0,0-3.6,9.1-4.1,11.4c-0.5,2.3,1.9-0.2,1.9-0.2
						c12.8-13.3,18.4-14.8,18.4-14.8c6.8,2.9,18,14.4,18.8,15c0.9,0.6,1.8,1.7,1.2-0.5c-0.6-2.2-3.9-10.8-3.9-10.8
						c-6.2-8.9-16.1-14-16.1-14C131.4,1.1,130.3,3,130.3,3"/>
				</g>
				<g>
					<defs>
						<path id="SVGID_00000093134661724354691140000010551111629316614036_" d="M130.3,3c0.3,2.1-0.4,3-0.4,3c0.9,3.4,0,3.6,0,3.6
							l-8.4,6.7c-1.5-0.7-1.8-4.2-1.8-4.2l-2.7,2.3c0,0-3.6,9.1-4.1,11.4c-0.5,2.3,1.9-0.2,1.9-0.2c12.8-13.3,18.4-14.8,18.4-14.8
							c6.8,2.9,18,14.4,18.8,15c0.9,0.6,1.8,1.7,1.2-0.5c-0.6-2.2-3.9-10.8-3.9-10.8c-6.2-8.9-16.1-14-16.1-14
							C131.4,1.1,130.3,3,130.3,3"/>
					</defs>
					<clipPath id="SVGID_00000141441802827799363090000000252741866387240111_">
						<use xlink:href="#SVGID_00000093134661724354691140000010551111629316614036_"  style="overflow:visible;"/>
					</clipPath>
					
						<rect x="112.5" y="0.4" style="clip-path:url(#SVGID_00000141441802827799363090000000252741866387240111_);fill:#FFFFFF;stroke:#FFFFFF;stroke-width:0.1;stroke-miterlimit:10;" width="41.4" height="27.7"/>
				</g>
				<g>
					<path id="SVGID_00000129197094878296554360000003138935724056702387_" class="st1" d="M130.3,3c0.3,2.1-0.4,3-0.4,3
						c0.9,3.4,0,3.6,0,3.6l-8.4,6.7c-1.5-0.7-1.8-4.2-1.8-4.2l-2.7,2.3c0,0-3.6,9.1-4.1,11.4c-0.5,2.3,1.9-0.2,1.9-0.2
						c12.8-13.3,18.4-14.8,18.4-14.8c6.8,2.9,18,14.4,18.8,15c0.9,0.6,1.8,1.7,1.2-0.5c-0.6-2.2-3.9-10.8-3.9-10.8
						c-6.2-8.9-16.1-14-16.1-14C131.4,1.1,130.3,3,130.3,3"/>
				</g>
			</g>
		</g>
		<g>
			<path class="st10" d="M137.2,10c-0.2-0.1-0.4-0.3-0.5-0.4s-0.2-0.3-0.2-0.5c0-0.1,0-0.3,0-0.4c0-0.1,0.1-0.3,0.2-0.4
				c0.1-0.2,0.2-0.3,0.4-0.4c0.1-0.1,0.3-0.2,0.5-0.2c0.2-0.1,0.3-0.1,0.5,0s0.3,0.1,0.5,0.2c0.1,0.1,0.3,0.2,0.3,0.3
				s0.2,0.3,0.2,0.4c0,0.1,0,0.3,0,0.4s-0.1,0.3-0.2,0.4l-0.4,0.6l0.4,0.2c0.1,0,0.1,0.1,0.1,0.1c0,0,0,0.1,0,0.1l-0.2,0.3
				c0,0-0.1,0.1-0.1,0.1c0,0-0.1,0-0.1,0L137.2,10z M138.2,6.7c0.1-0.1,0.1-0.1,0.2-0.2c0.1,0,0.2,0,0.3,0.1
				c0.1,0.1,0.1,0.1,0.2,0.2c0,0.1,0,0.2,0,0.3c-0.1,0.1-0.1,0.1-0.2,0.2c-0.1,0-0.2,0-0.3-0.1c-0.1-0.1-0.1-0.1-0.2-0.2
				C138.1,6.9,138.1,6.8,138.2,6.7z M137.9,9.6l0.3-0.4c0.1-0.2,0.2-0.4,0.2-0.5c0-0.1-0.1-0.3-0.2-0.4c-0.1,0-0.1-0.1-0.2-0.1
				c-0.1,0-0.2,0-0.2,0c-0.1,0-0.1,0.1-0.2,0.1c-0.1,0.1-0.1,0.1-0.2,0.2c-0.1,0.1-0.1,0.2-0.1,0.3c0,0.1,0,0.2,0,0.2
				c0,0.1,0.1,0.1,0.1,0.2s0.1,0.1,0.2,0.2L137.9,9.6z M139,7.2c0-0.1,0.1-0.1,0.2-0.2c0.1,0,0.2,0,0.3,0.1c0.1,0.1,0.1,0.1,0.2,0.2
				c0,0.1,0,0.2-0.1,0.3c-0.1,0.1-0.1,0.1-0.2,0.2c-0.1,0-0.2,0-0.3-0.1c-0.1-0.1-0.1-0.1-0.2-0.2C138.9,7.4,138.9,7.3,139,7.2z"/>
			<path class="st10" d="M138.4,10.8c0,0-0.1-0.1-0.1-0.1s0-0.1,0-0.1l0.2-0.3c0,0,0.1-0.1,0.1-0.1c0,0,0.1,0,0.1,0l0.7,0.4l0.9-1.4
				l0.6,0.4l-0.3,0.4c0.3-0.1,0.5-0.1,0.8-0.1c0.3,0,0.5,0.1,0.7,0.2c0.2,0.1,0.3,0.3,0.4,0.4c0.1,0.2,0.2,0.3,0.2,0.5
				c0,0.2,0,0.4,0,0.5c0,0.2-0.1,0.4-0.2,0.6L142,13L138.4,10.8z M142,11.8c0.1-0.1,0.1-0.3,0.2-0.4s0-0.2,0-0.3s-0.1-0.2-0.1-0.2
				c-0.1-0.1-0.1-0.1-0.2-0.2c-0.1-0.1-0.2-0.1-0.4-0.1s-0.3,0-0.4,0c-0.2,0-0.3,0.1-0.5,0.2c-0.1,0.1-0.3,0.2-0.4,0.4l1.7,1.1
				L142,11.8z M142.2,9.3c0-0.1,0.1-0.1,0.2-0.1c0.1,0,0.2,0,0.3,0.1c0.1,0.1,0.1,0.1,0.2,0.2s0,0.2,0,0.3c0,0.1-0.1,0.1-0.2,0.1
				c-0.1,0-0.2,0-0.3-0.1s-0.1-0.1-0.2-0.2S142.2,9.4,142.2,9.3z"/>
			<path class="st10" d="M143.8,14.2c-0.2-0.1-0.4-0.3-0.5-0.4c-0.1-0.1-0.2-0.3-0.2-0.4c0-0.1,0-0.3,0-0.4c0-0.1,0.1-0.3,0.2-0.4
				c0.1-0.2,0.2-0.3,0.4-0.4c0.1-0.1,0.3-0.2,0.5-0.2s0.3-0.1,0.5,0s0.3,0.1,0.5,0.2c0.1,0.1,0.3,0.2,0.4,0.3
				c0.1,0.1,0.1,0.3,0.2,0.4c0,0.1,0,0.3,0,0.4c0,0.1-0.1,0.3-0.2,0.4l-0.7,1.1c-0.1,0.2-0.3,0.4-0.4,0.5s-0.3,0.2-0.5,0.2
				c-0.2,0-0.4,0-0.6-0.1s-0.4-0.1-0.6-0.3c-0.1,0-0.2-0.1-0.2-0.2c-0.1-0.1-0.2-0.1-0.3-0.2l0.4-0.5c0.1,0.1,0.2,0.1,0.3,0.2
				c0.1,0.1,0.2,0.1,0.2,0.1c0.1,0.1,0.2,0.1,0.3,0.1c0.1,0,0.2,0.1,0.3,0.1s0.2,0,0.3-0.1c0.1,0,0.2-0.1,0.2-0.2L143.8,14.2z
				 M144.5,13.8l0.3-0.4c0.1-0.2,0.2-0.4,0.2-0.5c0-0.1-0.1-0.3-0.2-0.4c-0.1,0-0.1-0.1-0.2-0.1c-0.1,0-0.2,0-0.2,0
				c-0.1,0-0.2,0.1-0.2,0.1c-0.1,0.1-0.1,0.1-0.2,0.2c-0.1,0.1-0.1,0.2-0.1,0.3c0,0.1,0,0.2,0,0.2c0,0.1,0.1,0.1,0.1,0.2
				c0.1,0.1,0.1,0.1,0.2,0.2L144.5,13.8z"/>
			<path class="st10" d="M146.4,15.7c-0.1,0.1-0.2,0.3-0.3,0.4c-0.1,0.1-0.3,0.2-0.4,0.2s-0.3,0.1-0.4,0c-0.2,0-0.3-0.1-0.5-0.2
				c-0.1,0-0.1-0.1-0.2-0.1c0,0-0.1-0.1-0.1-0.1c0,0,0,0-0.1-0.1c0,0,0,0-0.1-0.1l0.4-0.5l0.1,0.1c0,0,0.1,0.1,0.1,0.1
				c0,0,0.1,0.1,0.1,0.1c0.2,0.1,0.3,0.1,0.4,0.1c0.1-0.1,0.2-0.2,0.3-0.4l1.2-1.9l0.6,0.4L146.4,15.7z"/>
		</g>
	</g>
	<g>
		<path class="st8" d="M1.9,18.5c0-1,0.3-1.8,0.9-2.3c0.6-0.5,1.4-0.8,2.6-0.8c0.2,0,0.3,0,0.5,0s0.3,0,0.5,0c0.2,0,0.3,0,0.4,0.1
			s0.2,0,0.3,0.1c0.1,0,0.1,0.1,0.2,0.1c0,0,0,0.1,0,0.1v3.3c0,0.2,0,0.4,0.1,0.5c0.1,0.1,0.3,0.1,0.5,0.1h0.4v1.9H7.7
			c-0.3,0-0.7,0-1-0.1S6.2,21.1,6,20.9c-0.2,0.1-0.4,0.2-0.7,0.3s-0.5,0.1-0.7,0.1H4.4c-0.4,0-0.7,0-1-0.1c-0.3-0.1-0.6-0.2-0.8-0.4
			c-0.2-0.2-0.4-0.5-0.6-0.8s-0.2-0.7-0.2-1.1V18.5z M2.7,13c0-0.1,0-0.1,0.1-0.2c0.1-0.1,0.1-0.1,0.2-0.1h1c0.1,0,0.1,0,0.2,0.1
			c0.1,0.1,0.1,0.1,0.1,0.2v1.1c0,0.1,0,0.1-0.1,0.2c-0.1,0.1-0.1,0.1-0.2,0.1H3c-0.1,0-0.1,0-0.2-0.1c-0.1-0.1-0.1-0.1-0.1-0.2V13z
			 M3.6,18.4c0,0.4,0.1,0.7,0.2,0.8c0.2,0.2,0.4,0.2,0.7,0.2h0.1c0.2,0,0.4,0,0.5-0.1c0.1-0.1,0.2-0.2,0.2-0.4V17
			c-0.1,0-0.1,0-0.2,0c-0.1,0-0.2,0-0.2,0c-0.4,0-0.8,0.1-1,0.3c-0.2,0.2-0.4,0.5-0.4,0.9V18.4z M5.1,13c0-0.1,0-0.1,0.1-0.2
			c0.1-0.1,0.1-0.1,0.2-0.1h1c0.1,0,0.1,0,0.2,0.1c0.1,0.1,0.1,0.1,0.1,0.2v1.1c0,0.1,0,0.1-0.1,0.2c-0.1,0.1-0.1,0.1-0.2,0.1h-1
			c-0.1,0-0.1,0-0.2-0.1c-0.1-0.1-0.1-0.1-0.1-0.2V13z"/>
		<path class="st8" d="M7.9,19.8c0,0,0-0.1,0.1-0.1c0.1,0,0.2,0,0.2,0h0.6c0.1,0,0.1,0,0.2,0c0.1,0,0.1,0,0.2,0
			c0.1,0,0.1-0.1,0.1-0.1c0-0.1,0.1-0.1,0.1-0.2v-2.9c0-0.1,0-0.1,0.1-0.2c0,0,0.1-0.1,0.2-0.1H11c0.1,0,0.1,0,0.2,0.1
			c0,0,0.1,0.1,0.1,0.2v3.1c0,0,0.1,0.1,0.1,0.1s0.1,0,0.2,0c0.1,0,0.1,0,0.2,0c0.1,0,0.1,0,0.2,0h0.4v1.9h-0.2c-0.3,0-0.7,0-1-0.1
			c-0.3-0.1-0.6-0.2-0.8-0.3c-0.1,0.1-0.2,0.1-0.4,0.2c-0.1,0.1-0.3,0.1-0.5,0.1c-0.2,0-0.3,0.1-0.5,0.1c-0.2,0-0.3,0-0.5,0H8.3
			c-0.1,0-0.2,0-0.2,0c-0.1,0-0.1-0.1-0.1-0.1V19.8z M8.2,22.8c0-0.1,0-0.1,0.1-0.2c0.1-0.1,0.1-0.1,0.2-0.1h1c0.1,0,0.1,0,0.2,0.1
			c0.1,0.1,0.1,0.1,0.1,0.2v1.2c0,0.1,0,0.1-0.1,0.2c-0.1,0.1-0.1,0.1-0.2,0.1h-1c-0.1,0-0.1,0-0.2-0.1c-0.1-0.1-0.1-0.1-0.1-0.2
			V22.8z M10.6,22.8c0-0.1,0-0.1,0.1-0.2c0.1-0.1,0.1-0.1,0.2-0.1h1c0.1,0,0.1,0,0.2,0.1c0.1,0.1,0.1,0.1,0.1,0.2v1.2
			c0,0.1,0,0.1-0.1,0.2c-0.1,0.1-0.1,0.1-0.2,0.1h-1c-0.1,0-0.1,0-0.2-0.1c-0.1-0.1-0.1-0.1-0.1-0.2V22.8z"/>
		<path class="st8" d="M11.8,19.8c0,0,0-0.1,0.1-0.1c0.1,0,0.2,0,0.2,0h0.4c0.1,0,0.2,0,0.3,0s0.2-0.1,0.2-0.2c0,0,0-0.1,0-0.1
			s0-0.1,0-0.1v-0.9c0-0.5,0.1-0.9,0.2-1.2c0.1-0.3,0.3-0.6,0.6-0.9c0.2-0.2,0.5-0.4,0.9-0.5c0.3-0.1,0.7-0.2,1.1-0.2
			c0.4,0,0.8,0.1,1.1,0.2c0.3,0.1,0.6,0.3,0.9,0.5c0.2,0.2,0.4,0.5,0.6,0.9c0.1,0.3,0.2,0.7,0.2,1.2v0.7c0,0.1,0,0.1,0,0.2
			c0,0.1,0,0.1,0,0.2c0,0.1,0.1,0.1,0.1,0.1c0.1,0,0.1,0.1,0.2,0.1s0.1,0,0.2,0c0.1,0,0.1,0,0.2,0h0.3v1.9h-0.3
			c-0.3,0-0.5,0-0.8-0.1c-0.3-0.1-0.5-0.2-0.8-0.3c-0.2,0.2-0.5,0.4-0.8,0.5c-0.3,0.1-0.7,0.1-1.1,0.1c-0.2,0-0.4,0-0.6,0
			c-0.2,0-0.4-0.1-0.6-0.1c-0.2,0-0.4-0.1-0.5-0.2c-0.2-0.1-0.3-0.2-0.4-0.3c-0.2,0.1-0.4,0.2-0.6,0.3c-0.3,0.1-0.5,0.1-0.8,0.1
			h-0.3c-0.1,0-0.2,0-0.2,0c-0.1,0-0.1-0.1-0.1-0.1V19.8z M15,18.3v0.5c0,0.2,0,0.3,0,0.5c0,0.3,0.2,0.4,0.3,0.5
			C15.5,20,15.7,20,16,20c0.3,0,0.6-0.1,0.7-0.3c0.2-0.2,0.3-0.5,0.3-0.9v-0.5c0-0.4-0.1-0.8-0.2-0.9s-0.4-0.3-0.8-0.3
			c-0.3,0-0.6,0.1-0.8,0.3S15,17.9,15,18.3z"/>
		<path class="st8" d="M19.3,19.8c0,0,0-0.1,0.1-0.1c0.1,0,0.2,0,0.2,0h0.7c0.2,0,0.3,0,0.3,0c0.1,0,0.1-0.1,0.1-0.3v-6.7
			c0-0.1,0-0.1,0.1-0.2c0,0,0.1-0.1,0.2-0.1h1.4c0.1,0,0.1,0,0.2,0.1c0,0,0.1,0.1,0.1,0.2v7c0,0.2,0,0.5,0,0.7c0,0.3,0,0.5-0.1,0.7
			c0,0.1,0,0.1-0.1,0.2c0,0.1-0.1,0.1-0.2,0.1c-0.1,0-0.2,0-0.4,0.1c-0.2,0-0.4,0-0.6,0c-0.2,0-0.4,0-0.6,0s-0.4,0-0.6,0h-0.5
			c-0.1,0-0.2,0-0.2,0c-0.1,0-0.1-0.1-0.1-0.1V19.8z"/>
		<path class="st8" d="M24.4,12.5c0-0.1,0-0.1,0.1-0.2c0,0,0.1-0.1,0.2-0.1h1.4c0.1,0,0.1,0,0.2,0.1c0,0,0.1,0.1,0.1,0.2v6.6
			c0,0.2,0,0.4,0.1,0.4s0.2,0.1,0.5,0.1h0.4v1.9h-1c-0.3,0-0.5,0-0.8-0.1c-0.2,0-0.4-0.1-0.6-0.3c-0.2-0.1-0.3-0.3-0.4-0.5
			c-0.1-0.2-0.1-0.5-0.1-0.9V12.5z"/>
		<path class="st8" d="M26.9,19.8c0,0,0-0.1,0.1-0.1c0.1,0,0.2,0,0.2,0h1.5L28,17.7c0,0-0.1-0.1-0.1-0.2c0-0.1,0-0.2,0-0.2l0-0.8
			c0-0.1,0-0.1,0.1-0.2c0-0.1,0.1-0.1,0.2-0.2c0.2-0.1,0.3-0.2,0.6-0.3s0.4-0.2,0.7-0.3c0.2-0.1,0.5-0.1,0.7-0.2s0.5-0.1,0.7-0.1
			c0.4,0,0.8,0,1.2,0.1c0.4,0.1,0.7,0.2,1,0.4c0.3,0.2,0.5,0.4,0.7,0.8c0.2,0.3,0.2,0.7,0.2,1.2v0.3c0,0.3,0,0.6-0.1,0.9
			c-0.1,0.3-0.2,0.5-0.4,0.7h1.3v1.9h-7.5c-0.1,0-0.2,0-0.2,0c-0.1,0-0.1-0.1-0.1-0.1V19.8z M31.2,19.7c0.2,0,0.3,0,0.4-0.1
			s0.2-0.2,0.3-0.3c0.1-0.1,0.1-0.3,0.2-0.5c0-0.2,0.1-0.3,0.1-0.5v-0.1c0-0.4-0.1-0.7-0.3-0.9c-0.2-0.2-0.5-0.3-0.9-0.3
			c-0.2,0-0.4,0-0.6,0c-0.2,0-0.4,0.1-0.6,0.2l0.9,2.4H31.2z"/>
		<path class="st8" d="M34.3,19.8c0,0,0-0.1,0.1-0.1c0.1,0,0.2,0,0.2,0h0.7c0.2,0,0.3,0,0.3,0c0.1,0,0.1-0.1,0.1-0.3v-6.7
			c0-0.1,0-0.1,0.1-0.2c0,0,0.1-0.1,0.2-0.1h1.4c0.1,0,0.1,0,0.2,0.1c0,0,0.1,0.1,0.1,0.2v7c0,0.2,0,0.5,0,0.7c0,0.3,0,0.5-0.1,0.7
			c0,0.1,0,0.1-0.1,0.2c0,0.1-0.1,0.1-0.2,0.1c-0.1,0-0.2,0-0.4,0.1c-0.2,0-0.4,0-0.6,0c-0.2,0-0.4,0-0.6,0s-0.4,0-0.6,0h-0.5
			c-0.1,0-0.2,0-0.2,0c-0.1,0-0.1-0.1-0.1-0.1V19.8z"/>
		<path class="st8" d="M39.4,12.5c0-0.1,0-0.1,0.1-0.2c0,0,0.1-0.1,0.2-0.1H41c0.1,0,0.1,0,0.2,0.1c0,0,0.1,0.1,0.1,0.2v8.7
			c0,0.1,0,0.1-0.1,0.2c0,0.1-0.1,0.1-0.2,0.1h-1.4c-0.1,0-0.1,0-0.2-0.1c0-0.1-0.1-0.1-0.1-0.2V12.5z"/>
		<path class="st8" d="M45.9,18.6c0-1,0.3-1.8,0.8-2.3c0.6-0.5,1.4-0.8,2.5-0.8c0.2,0,0.3,0,0.5,0c0.2,0,0.4,0,0.5,0
			c0.2,0,0.3,0,0.5,0.1s0.3,0.1,0.3,0.1c0.1,0,0.1,0.1,0.2,0.1c0,0,0,0.1,0,0.1v3.4c0,0.3,0,0.6,0,1c0,0.4,0,0.7-0.1,0.9
			c0,0.1,0,0.1-0.1,0.2c0,0-0.1,0.1-0.2,0.1c-0.3,0-0.6,0.1-1,0.1c-0.3,0-0.6,0-0.9,0H49c-1,0-1.8-0.2-2.3-0.7
			c-0.5-0.5-0.8-1.1-0.8-2V18.6z M46.7,13c0-0.1,0-0.1,0.1-0.2c0.1-0.1,0.1-0.1,0.2-0.1h1c0.1,0,0.1,0,0.2,0.1
			c0.1,0.1,0.1,0.1,0.1,0.2v1.1c0,0.1,0,0.1-0.1,0.2c-0.1,0.1-0.1,0.1-0.2,0.1h-1c-0.1,0-0.1,0-0.2-0.1c-0.1-0.1-0.1-0.1-0.1-0.2V13
			z M47.7,18.5c0,0.4,0.1,0.7,0.3,0.9c0.2,0.2,0.5,0.3,0.9,0.3c0.1,0,0.2,0,0.3,0s0.2,0,0.3,0v-2.5c-0.1,0-0.1,0-0.2,0
			c-0.1,0-0.2,0-0.3,0c-0.4,0-0.8,0.1-1,0.3c-0.2,0.2-0.3,0.5-0.3,0.9V18.5z M49.1,13c0-0.1,0-0.1,0.1-0.2c0.1-0.1,0.1-0.1,0.2-0.1
			h1c0.1,0,0.1,0,0.2,0.1c0.1,0.1,0.1,0.1,0.1,0.2v1.1c0,0.1,0,0.1-0.1,0.2c-0.1,0.1-0.1,0.1-0.2,0.1h-1c-0.1,0-0.1,0-0.2-0.1
			c-0.1-0.1-0.1-0.1-0.1-0.2V13z"/>
		<path class="st8" d="M52.7,19.9c0-0.1,0-0.1,0.1-0.2s0.1-0.1,0.2-0.1h3l0-0.9c0-0.3-0.1-0.5-0.1-0.7c-0.1-0.2-0.2-0.4-0.3-0.5
			c-0.2-0.1-0.4-0.3-0.6-0.3c-0.3-0.1-0.6-0.1-0.9-0.1c0,0-0.1,0-0.1,0s-0.1,0-0.2,0c-0.1,0-0.1,0-0.2,0c-0.1,0-0.1,0-0.2,0
			c-0.1,0-0.2-0.1-0.2-0.2v-1.1c0-0.1,0-0.1,0.1-0.2c0-0.1,0.1-0.1,0.2-0.1c0.2,0,0.5-0.1,0.7-0.1c0.2,0,0.4,0,0.6,0
			c0.6,0,1.2,0.1,1.6,0.3c0.4,0.2,0.7,0.5,1,0.8c0.2,0.3,0.4,0.7,0.5,1.1c0.1,0.4,0.2,0.8,0.2,1.2c0,0.1,0,0.2,0,0.3s0,0.2,0,0.4
			c0,0.1,0,0.3,0,0.4c0,0.1,0,0.3,0,0.4c0,0.1,0,0.3,0,0.5c0,0.2,0,0.4,0,0.5c0,0.1,0,0.1-0.1,0.2s-0.1,0.1-0.2,0.1H53
			c-0.1,0-0.1,0-0.2-0.1s-0.1-0.1-0.1-0.2V19.9z"/>
		<path class="st8" d="M59.5,12.5c0-0.1,0-0.1,0.1-0.2c0,0,0.1-0.1,0.2-0.1h1.4c0.1,0,0.1,0,0.2,0.1c0,0,0.1,0.1,0.1,0.2v6.6
			c0,0.2,0,0.4,0.1,0.4s0.2,0.1,0.5,0.1h0.4v1.9h-1c-0.3,0-0.5,0-0.8-0.1c-0.2,0-0.4-0.1-0.6-0.3c-0.2-0.1-0.3-0.3-0.4-0.5
			c-0.1-0.2-0.1-0.5-0.1-0.9V12.5z"/>
		<path class="st8" d="M61.6,22.8c0-0.1,0-0.1,0.1-0.2c0.1-0.1,0.1-0.1,0.2-0.1h1c0.1,0,0.2,0,0.2,0.1c0.1,0.1,0.1,0.1,0.1,0.2v1.2
			c0,0.1,0,0.1-0.1,0.2c-0.1,0.1-0.1,0.1-0.2,0.1h-1c-0.1,0-0.1,0-0.2-0.1c-0.1-0.1-0.1-0.1-0.1-0.2V22.8z M61.9,19.8
			c0,0,0-0.1,0.1-0.1c0.1,0,0.2,0,0.2,0H63c0.2,0,0.3,0,0.4,0c0.1,0,0.1-0.1,0.1-0.3c0-0.4,0-0.8,0-1.3c0-0.5,0-1,0-1.6
			c0-0.1,0-0.1,0.1-0.2s0.1-0.1,0.2-0.1H65c0.1,0,0.2,0,0.2,0.1s0.1,0.1,0.1,0.2c0,0.2,0,0.5,0,0.7s0,0.4,0,0.6c0,0.2,0,0.4,0,0.5
			c0,0.2,0,0.4,0,0.6c0,0.6,0,1.1,0,1.4c0,0.4,0,0.7,0,0.9c0,0.1,0,0.1-0.1,0.2S65,21.3,65,21.4c-0.1,0-0.2,0-0.4,0.1
			c-0.2,0-0.4,0-0.6,0c-0.2,0-0.4,0-0.6,0s-0.4,0-0.6,0h-0.5c-0.1,0-0.2,0-0.2,0c-0.1,0-0.1-0.1-0.1-0.1V19.8z M64,22.8
			c0-0.1,0-0.1,0.1-0.2c0.1-0.1,0.1-0.1,0.2-0.1h1c0.1,0,0.1,0,0.2,0.1c0.1,0.1,0.1,0.1,0.1,0.2v1.2c0,0.1,0,0.1-0.1,0.2
			c-0.1,0.1-0.1,0.1-0.2,0.1h-1c-0.1,0-0.1,0-0.2-0.1C64.1,24.1,64,24,64,23.9V22.8z"/>
		<path class="st8" d="M65.6,23c0-0.1,0.1-0.2,0.2-0.2h0.2c0.2,0,0.4,0,0.5,0s0.3-0.1,0.4-0.1s0.2-0.2,0.2-0.3
			c0-0.1,0.1-0.3,0.1-0.5v-5.4c0-0.1,0-0.1,0.1-0.2c0,0,0.1-0.1,0.2-0.1h1.4c0.1,0,0.1,0,0.2,0.1c0,0,0.1,0.1,0.1,0.2v3.3h1v1.9
			h-1.1v0.4c0,0.3,0,0.5-0.1,0.8c0,0.2-0.1,0.5-0.2,0.6c-0.2,0.4-0.5,0.7-0.8,0.8c-0.3,0.2-0.8,0.2-1.3,0.2c0,0-0.1,0-0.2,0
			c-0.1,0-0.2,0-0.2,0s-0.2,0-0.3,0s-0.2,0-0.2,0c-0.1,0-0.2-0.1-0.2-0.2V23z"/>
		<path class="st8" d="M69.7,19.8c0,0,0-0.1,0.1-0.1c0.1,0,0.2,0,0.2,0h0.7c0.2,0,0.3,0,0.3,0c0.1,0,0.1-0.1,0.1-0.3v-6.7
			c0-0.1,0-0.1,0.1-0.2c0,0,0.1-0.1,0.2-0.1h1.4c0.1,0,0.1,0,0.2,0.1c0,0,0.1,0.1,0.1,0.2v7c0,0.2,0,0.5,0,0.7c0,0.3,0,0.5-0.1,0.7
			c0,0.1,0,0.1-0.1,0.2c0,0.1-0.1,0.1-0.2,0.1c-0.1,0-0.2,0-0.4,0.1c-0.2,0-0.4,0-0.6,0c-0.2,0-0.4,0-0.6,0s-0.4,0-0.6,0H70
			c-0.1,0-0.2,0-0.2,0c-0.1,0-0.1-0.1-0.1-0.1V19.8z"/>
		<path class="st8" d="M74.8,12.5c0-0.1,0-0.1,0.1-0.2c0,0,0.1-0.1,0.2-0.1h1.4c0.1,0,0.1,0,0.2,0.1c0,0,0.1,0.1,0.1,0.2v8.7
			c0,0.1,0,0.1-0.1,0.2c0,0.1-0.1,0.1-0.2,0.1h-1.4c-0.1,0-0.1,0-0.2-0.1c0-0.1-0.1-0.1-0.1-0.2V12.5z"/>
		<path class="st8" d="M81.3,18.5c0-1,0.3-1.8,0.9-2.3c0.6-0.5,1.4-0.8,2.6-0.8c0.2,0,0.3,0,0.5,0c0.2,0,0.3,0,0.5,0s0.3,0,0.5,0.1
			c0.1,0,0.2,0,0.3,0.1c0.1,0,0.1,0.1,0.2,0.1c0,0,0,0.1,0,0.1v3.3c0,0.2,0,0.4,0.1,0.5c0.1,0.1,0.3,0.1,0.5,0.1h0.4v1.9h-0.6
			c-0.3,0-0.7,0-1-0.1s-0.6-0.3-0.8-0.5c-0.2,0.1-0.4,0.2-0.7,0.3s-0.5,0.1-0.7,0.1h-0.1c-0.4,0-0.7,0-1-0.1
			c-0.3-0.1-0.6-0.2-0.8-0.4c-0.2-0.2-0.4-0.5-0.6-0.8c-0.1-0.3-0.2-0.7-0.2-1.1V18.5z M82.1,13c0-0.1,0-0.1,0.1-0.2
			c0.1-0.1,0.1-0.1,0.2-0.1h1c0.1,0,0.2,0,0.2,0.1c0.1,0.1,0.1,0.1,0.1,0.2v1.1c0,0.1,0,0.1-0.1,0.2c-0.1,0.1-0.1,0.1-0.2,0.1h-1
			c-0.1,0-0.1,0-0.2-0.1c-0.1-0.1-0.1-0.1-0.1-0.2V13z M83.1,18.4c0,0.4,0.1,0.7,0.2,0.8c0.2,0.2,0.4,0.2,0.7,0.2h0.1
			c0.2,0,0.4,0,0.5-0.1c0.1-0.1,0.2-0.2,0.2-0.4V17c-0.1,0-0.1,0-0.2,0c-0.1,0-0.2,0-0.2,0c-0.4,0-0.8,0.1-1,0.3
			c-0.2,0.2-0.4,0.5-0.4,0.9V18.4z M84.5,13c0-0.1,0-0.1,0.1-0.2c0.1-0.1,0.1-0.1,0.2-0.1h1c0.1,0,0.1,0,0.2,0.1
			c0.1,0.1,0.1,0.1,0.1,0.2v1.1c0,0.1,0,0.1-0.1,0.2c-0.1,0.1-0.1,0.1-0.2,0.1h-1c-0.1,0-0.1,0-0.2-0.1c-0.1-0.1-0.1-0.1-0.1-0.2V13
			z"/>
		<path class="st8" d="M87.3,19.8c0,0,0-0.1,0.1-0.1c0.1,0,0.2,0,0.2,0h1.1v-4c0-0.1,0-0.1,0.1-0.2c0.1,0,0.1-0.1,0.2-0.1h1.3
			c0.1,0,0.1,0,0.2,0.1c0,0,0.1,0.1,0.1,0.2v0.4c0.2-0.2,0.4-0.3,0.7-0.4c0.2-0.1,0.5-0.2,0.7-0.2c0.2,0,0.5-0.1,0.7-0.1
			s0.4,0,0.5,0c0.5,0,1,0.1,1.4,0.2c0.4,0.1,0.8,0.3,1.1,0.6c0.3,0.3,0.6,0.6,0.7,1c0.2,0.4,0.3,1,0.3,1.6v0.4c0,0.1,0,0.3,0,0.5
			c0,0.2,0,0.3,0,0.5c0,0.2,0,0.3,0,0.5c0,0.2,0,0.3-0.1,0.4c0,0.1-0.1,0.2-0.1,0.2s-0.1,0.1-0.2,0.1c-0.1,0-0.3,0-0.6,0
			c-0.3,0-0.5,0-0.9,0c-0.3,0-0.6,0-0.9,0s-0.5,0-0.7,0h-5.6c-0.1,0-0.2,0-0.2,0s-0.1-0.1-0.1-0.1V19.8z M90.7,19.7
			c0.2,0,0.4,0,0.6,0c0.3,0,0.5,0,0.8,0h2.5c0.1,0,0.2,0,0.2-0.1c0-0.1,0.1-0.2,0.1-0.5v-0.2c0-0.6-0.2-1-0.5-1.3s-0.9-0.4-1.7-0.4
			c-0.1,0-0.3,0-0.5,0c-0.2,0-0.4,0-0.6,0.1c-0.2,0-0.4,0.1-0.6,0.2s-0.3,0.2-0.5,0.3V19.7z M92,12.9c0-0.1,0-0.1,0.1-0.2
			c0.1-0.1,0.1-0.1,0.2-0.1h1.2c0.1,0,0.1,0,0.2,0.1c0.1,0.1,0.1,0.1,0.1,0.2V14c0,0.1,0,0.1-0.1,0.2c-0.1,0.1-0.1,0.1-0.2,0.1h-1.2
			c-0.1,0-0.2,0-0.2-0.1C92,14.2,92,14.1,92,14V12.9z"/>
		<path class="st8" d="M98.5,23c0-0.1,0.1-0.2,0.2-0.2h1.1c0.3,0,0.6,0,0.8,0c0.2,0,0.4-0.1,0.5-0.1c0.1-0.1,0.2-0.2,0.3-0.3
			c0.1-0.1,0.1-0.3,0.1-0.5l0-0.4c0,0-0.1,0.1-0.2,0.1c-0.1,0-0.2,0-0.2,0c-0.1,0-0.2,0-0.3,0s-0.2,0-0.2,0c-0.8,0-1.5-0.2-2-0.7
			c-0.5-0.5-0.7-1.1-0.7-2v-0.2c0-1,0.3-1.8,0.9-2.3c0.6-0.5,1.4-0.8,2.5-0.8c0.2,0,0.3,0,0.5,0c0.2,0,0.4,0,0.5,0
			c0.2,0,0.3,0,0.5,0.1c0.1,0,0.3,0.1,0.3,0.1c0.1,0,0.1,0.1,0.2,0.1c0,0,0,0.1,0,0.1v5.5c0,0.6-0.1,1.2-0.3,1.5
			c-0.2,0.4-0.4,0.7-0.7,0.9c-0.3,0.2-0.7,0.4-1.1,0.4c-0.4,0.1-0.8,0.1-1.2,0.1c-0.1,0-0.2,0-0.3,0c-0.2,0-0.3,0-0.5,0
			c-0.2,0-0.3,0-0.5,0c-0.1,0-0.2,0-0.3,0c-0.1,0-0.1,0-0.1-0.1c0,0,0-0.1,0-0.2V23z M101.7,17.2c-0.1,0-0.2,0-0.3,0s-0.2,0-0.3,0
			c-0.4,0-0.7,0.1-0.9,0.3s-0.3,0.5-0.3,0.9v0.1c0,0.4,0.1,0.7,0.2,0.9s0.4,0.3,0.8,0.3c0.5,0,0.7-0.1,0.7-0.3V17.2z"/>
		<path class="st8" d="M103.9,23c0-0.1,0.1-0.2,0.2-0.2h0.2c0.2,0,0.4,0,0.5,0c0.1,0,0.3-0.1,0.4-0.1s0.2-0.2,0.2-0.3
			c0-0.1,0.1-0.3,0.1-0.5v-5.4c0-0.1,0-0.1,0.1-0.2c0,0,0.1-0.1,0.2-0.1h1.4c0.1,0,0.1,0,0.2,0.1c0,0,0.1,0.1,0.1,0.2v5.2
			c0,0.3,0,0.6-0.1,0.9s-0.1,0.6-0.2,0.8c-0.2,0.4-0.5,0.7-0.8,0.8c-0.3,0.2-0.8,0.2-1.3,0.2c0,0-0.1,0-0.2,0s-0.2,0-0.2,0
			s-0.2,0-0.3,0s-0.2,0-0.2,0c-0.1,0-0.2-0.1-0.2-0.2V23z"/>
	</g>
	<g>
		<path class="st8" d="M4.6,34.5c0.1,0,0.2,0.1,0.2,0.3c0,0.2,0,0.4,0,0.6c0,0.2,0,0.4,0,0.5c0,0.4,0,0.8,0.1,1.2
			c0.1,0.4,0.2,0.7,0.4,1c0.2,0.3,0.5,0.5,0.8,0.6s0.8,0.2,1.5,0.2c0.2,0,0.3,0,0.5,0c0.2,0,0.4,0,0.5-0.1c0-0.2,0-0.4,0-0.6
			s0-0.3,0-0.5c0-0.2,0-0.3,0-0.4c0-0.1,0-0.3,0-0.5v-7.7c0-0.1,0-0.1,0.1-0.2s0.1-0.1,0.2-0.1h0.6c0.1,0,0.1,0,0.2,0.1
			s0.1,0.1,0.1,0.2v7.8h1.1v1H9.5c0,0.1,0,0.3,0,0.4c0,0.1,0,0.3,0,0.4c0,0.1,0,0.3,0,0.4c0,0.1,0,0.3,0,0.3c0,0.1,0,0.1-0.1,0.2
			s-0.1,0.1-0.2,0.1c-0.3,0.1-0.6,0.1-0.9,0.1c-0.3,0-0.6,0-1,0c-0.7,0-1.3-0.1-1.8-0.2c-0.5-0.2-0.9-0.4-1.1-0.7
			c-0.3-0.3-0.5-0.7-0.6-1.1s-0.2-1-0.2-1.5c0-0.1,0-0.2,0-0.3s0-0.3,0-0.4c0-0.1,0-0.3,0-0.4c0-0.1,0-0.3,0.1-0.4
			c0-0.2,0.1-0.2,0.2-0.2H4.6z"/>
		<path class="st8" d="M10.6,37.9c-0.1,0-0.2,0-0.3,0c-0.1,0-0.1-0.1-0.1-0.1V37c0,0,0-0.1,0.1-0.1c0.1,0,0.2,0,0.3,0h2.7v1H10.6z"
			/>
		<path class="st8" d="M12.7,37c0,0,0-0.1,0.1-0.1c0.1,0,0.2,0,0.3,0h0.5c0.1,0,0.2,0,0.3,0c0.1,0,0.2,0,0.3-0.1s0.2-0.1,0.2-0.1
			c0.1-0.1,0.1-0.1,0.1-0.2v-3.1c0-0.1,0-0.1,0.1-0.2c0,0,0.1-0.1,0.2-0.1h0.6c0.1,0,0.1,0,0.2,0.1c0,0,0.1,0.1,0.1,0.2v3.3
			c0,0.1,0.1,0.1,0.1,0.1c0.1,0,0.2,0.1,0.3,0.1c0.1,0,0.2,0,0.3,0c0.1,0,0.2,0,0.3,0h0.2v1h-0.1c-0.2,0-0.5,0-0.8-0.1
			c-0.3-0.1-0.5-0.2-0.7-0.3c-0.2,0.2-0.4,0.3-0.7,0.3c-0.3,0.1-0.5,0.1-0.8,0.1h-0.4c-0.1,0-0.2,0-0.3,0c-0.1,0-0.1-0.1-0.1-0.1V37
			z M14.4,39.2c0-0.1,0-0.1,0.1-0.2c0.1,0,0.1-0.1,0.2-0.1h0.5c0.1,0,0.1,0,0.2,0.1c0.1,0,0.1,0.1,0.1,0.2v0.6c0,0.1,0,0.1-0.1,0.2
			c-0.1,0.1-0.1,0.1-0.2,0.1h-0.5c-0.1,0-0.1,0-0.2-0.1c-0.1-0.1-0.1-0.1-0.1-0.2V39.2z"/>
		<path class="st8" d="M16.6,37.9c-0.1,0-0.2,0-0.3,0c-0.1,0-0.1-0.1-0.1-0.1V37c0,0,0-0.1,0.1-0.1c0.1,0,0.2,0,0.3,0h2.7v1H16.6z"
			/>
		<path class="st8" d="M18.7,37c0,0,0-0.1,0.1-0.1c0.1,0,0.2,0,0.3,0h1.6c-0.2-0.2-0.4-0.4-0.5-0.7c-0.1-0.3-0.2-0.6-0.2-1v-0.3
			c0-0.8,0.2-1.4,0.7-1.9c0.5-0.4,1.2-0.7,2-0.7c0.3,0,0.6,0,1,0c0.3,0,0.6,0.1,0.8,0.1c0.1,0,0.1,0,0.2,0.1c0,0,0,0.1,0,0.1v4.2h1
			v1h-6.7c-0.1,0-0.2,0-0.3,0c-0.1,0-0.1-0.1-0.1-0.1V37z M23.8,36.8v-3.6c-0.2,0-0.3,0-0.5,0c-0.2,0-0.4,0-0.6,0
			c-0.6,0-1,0.1-1.3,0.4c-0.3,0.3-0.4,0.7-0.4,1.2v0.3c0,0.6,0.1,1,0.4,1.3c0.3,0.3,0.6,0.4,1.2,0.4H23.8z M21.1,30.1
			c0-0.1,0-0.1,0.1-0.2c0.1,0,0.1-0.1,0.2-0.1h0.5c0.1,0,0.1,0,0.2,0.1c0.1,0,0.1,0.1,0.1,0.2v0.6c0,0.1,0,0.1-0.1,0.2
			c-0.1,0-0.1,0.1-0.2,0.1h-0.5c-0.1,0-0.1,0-0.2-0.1c-0.1,0-0.1-0.1-0.1-0.2V30.1z M23.1,30.1c0-0.1,0-0.1,0.1-0.2
			c0.1,0,0.1-0.1,0.2-0.1h0.5c0.1,0,0.1,0,0.2,0.1c0.1,0,0.1,0.1,0.1,0.2v0.6c0,0.1,0,0.1-0.1,0.2c-0.1,0-0.1,0.1-0.2,0.1h-0.5
			c-0.1,0-0.1,0-0.2-0.1s-0.1-0.1-0.1-0.2V30.1z"/>
		<path class="st8" d="M25.4,37c0,0,0-0.1,0.1-0.1c0.1,0,0.2,0,0.3,0h0.5c0.1,0,0.2,0,0.3,0c0.1,0,0.2,0,0.3-0.1s0.2-0.1,0.2-0.1
			c0.1-0.1,0.1-0.1,0.1-0.2v-3.1c0-0.1,0-0.1,0.1-0.2c0,0,0.1-0.1,0.2-0.1H28c0.1,0,0.1,0,0.2,0.1c0,0,0.1,0.1,0.1,0.2v3.3
			c0,0.1,0.1,0.1,0.1,0.1c0.1,0,0.2,0.1,0.3,0.1c0.1,0,0.2,0,0.3,0c0.1,0,0.2,0,0.3,0h0.2v1h-0.1c-0.2,0-0.5,0-0.8-0.1
			c-0.3-0.1-0.5-0.2-0.7-0.3c-0.2,0.2-0.4,0.3-0.7,0.3c-0.3,0.1-0.5,0.1-0.8,0.1h-0.4c-0.1,0-0.2,0-0.3,0c-0.1,0-0.1-0.1-0.1-0.1V37
			z M26.2,30.5c0-0.1,0-0.1,0.1-0.2s0.1-0.1,0.2-0.1h0.5c0.1,0,0.1,0,0.2,0.1c0.1,0,0.1,0.1,0.1,0.2v0.6c0,0.1,0,0.1-0.1,0.2
			c-0.1,0-0.1,0.1-0.2,0.1h-0.5c-0.1,0-0.1,0-0.2-0.1s-0.1-0.1-0.1-0.2V30.5z M28.1,30.5c0-0.1,0-0.1,0.1-0.2c0.1,0,0.1-0.1,0.2-0.1
			h0.5c0.1,0,0.1,0,0.2,0.1c0.1,0,0.1,0.1,0.1,0.2v0.6c0,0.1,0,0.1-0.1,0.2c-0.1,0-0.1,0.1-0.2,0.1h-0.5c-0.1,0-0.1,0-0.2-0.1
			c-0.1,0-0.1-0.1-0.1-0.2V30.5z"/>
		<path class="st8" d="M28.8,37c0,0,0-0.1,0.1-0.1c0.1,0,0.2,0,0.3,0h0.5c0.1,0,0.2,0,0.3,0s0.2,0,0.3-0.1s0.2-0.1,0.2-0.1
			c0.1-0.1,0.1-0.1,0.1-0.2v-2.6c0-0.1,0-0.1,0.1-0.2c0,0,0.1-0.1,0.2-0.1h0.6c0.1,0,0.1,0,0.2,0.1c0,0,0.1,0.1,0.1,0.2v2.8
			c0,0.1,0.1,0.1,0.1,0.2s0.2,0.1,0.3,0.1c0.1,0,0.2,0,0.3,0c0.1,0,0.2,0,0.3,0h0.3c0.1,0,0.2,0,0.2,0c0.1,0,0.2,0,0.3-0.1
			c0.1,0,0.1-0.1,0.2-0.1c0.1-0.1,0.1-0.1,0.1-0.2v-3c0-0.1,0-0.1,0.1-0.2s0.1-0.1,0.2-0.1h0.6c0.1,0,0.1,0,0.2,0.1s0.1,0.1,0.1,0.2
			v3.2c0,0.1,0.2,0.2,0.4,0.2s0.4,0,0.6,0h0.2c0.1,0,0.2,0,0.3,0c0.1,0,0.2,0,0.3-0.1c0.1,0,0.2-0.1,0.2-0.1
			c0.1-0.1,0.1-0.1,0.1-0.2v-3.5c0-0.1,0-0.1,0.1-0.2s0.1-0.1,0.2-0.1h0.6c0.1,0,0.1,0,0.2,0.1s0.1,0.1,0.1,0.2v3.6
			c0,0.1,0.1,0.1,0.2,0.1s0.2,0.1,0.3,0.1c0.1,0,0.2,0,0.3,0c0.1,0,0.2,0,0.3,0h0.2v1h-0.2c-0.2,0-0.5,0-0.7-0.1
			c-0.3-0.1-0.5-0.2-0.7-0.3c-0.2,0.2-0.4,0.3-0.7,0.3c-0.3,0.1-0.5,0.1-0.7,0.1h-0.2c-0.3,0-0.5,0-0.8-0.1
			c-0.2-0.1-0.4-0.2-0.7-0.3c-0.3,0.3-0.8,0.4-1.4,0.4h-0.2c-0.2,0-0.4,0-0.7-0.1c-0.3-0.1-0.5-0.2-0.7-0.3
			c-0.1,0.1-0.2,0.2-0.3,0.2c-0.1,0-0.3,0.1-0.4,0.1c-0.1,0-0.3,0.1-0.4,0.1s-0.2,0-0.3,0h-0.4c-0.1,0-0.2,0-0.3,0
			c-0.1,0-0.1-0.1-0.1-0.1V37z"/>
		<path class="st8" d="M38.2,37c0,0,0-0.1,0.1-0.1c0.1,0,0.2,0,0.3,0H39c0.1,0,0.1,0,0.2,0c0.1,0,0.2,0,0.3,0c0.1,0,0.2-0.1,0.2-0.1
			c0.1,0,0.1-0.1,0.1-0.2c0-0.1,0-0.2,0-0.3V35c0-0.8,0.2-1.5,0.6-1.9c0.4-0.4,1-0.7,1.8-0.7c0.8,0,1.4,0.2,1.8,0.6
			c0.4,0.4,0.6,1.1,0.6,1.9v0.7c0,0.1,0,0.2,0,0.3c0,0.1,0,0.2,0,0.3c0,0.1,0,0.2,0.1,0.3c0.1,0.1,0.2,0.1,0.2,0.2
			c0.1,0,0.2,0.1,0.3,0.1c0.1,0,0.2,0,0.2,0h0.2v1h-0.2c-0.3,0-0.5,0-0.8-0.1c-0.3-0.1-0.5-0.2-0.6-0.4c-0.4,0.5-1,0.8-1.9,0.8
			c-0.4,0-0.8-0.1-1.2-0.2c-0.3-0.1-0.6-0.3-0.8-0.6c-0.2,0.2-0.4,0.3-0.6,0.4c-0.3,0.1-0.5,0.1-0.8,0.1h-0.3c-0.1,0-0.2,0-0.3,0
			c-0.1,0-0.1-0.1-0.1-0.1V37z M40.9,35.1v0.6c0,0.3,0,0.5,0,0.7c0.1,0.3,0.2,0.6,0.5,0.7c0.2,0.2,0.6,0.2,0.9,0.2
			c0.5,0,0.9-0.1,1.1-0.4c0.2-0.3,0.3-0.7,0.3-1.2v-0.6c0-0.5-0.1-1-0.3-1.3c-0.2-0.3-0.6-0.4-1.1-0.4c-0.5,0-0.9,0.1-1.1,0.4
			S40.9,34.5,40.9,35.1z"/>
		<path class="st8" d="M45.3,37c0,0,0-0.1,0.1-0.1c0.1,0,0.2,0,0.3,0h1c0.2,0,0.4,0,0.4-0.1s0.1-0.2,0.1-0.4v-7.3
			c0-0.1,0-0.1,0.1-0.2s0.1-0.1,0.2-0.1H48c0.1,0,0.1,0,0.2,0.1c0,0,0.1,0.1,0.1,0.2V36c0,0.1,0,0.2,0,0.3c0,0.1,0,0.2,0,0.4
			s0,0.3,0,0.4s0,0.2,0,0.3c0,0.1,0,0.1-0.1,0.2s-0.1,0.1-0.2,0.1c-0.1,0-0.2,0-0.3,0.1c-0.1,0-0.3,0-0.4,0c-0.1,0-0.3,0-0.5,0
			c-0.2,0-0.3,0-0.4,0h-0.6c-0.1,0-0.2,0-0.3,0c-0.1,0-0.1-0.1-0.1-0.1V37z"/>
		<path class="st8" d="M50.2,29.1c0-0.1,0-0.1,0.1-0.2c0,0,0.1-0.1,0.2-0.1h0.6c0.1,0,0.1,0,0.2,0.1c0,0,0.1,0.1,0.1,0.2v8.5
			c0,0.1,0,0.1-0.1,0.2c0,0-0.1,0.1-0.2,0.1h-0.6c-0.1,0-0.1,0-0.2-0.1c0,0-0.1-0.1-0.1-0.2V29.1z"/>
		<path class="st8" d="M55.9,37c0-0.1,0-0.1,0.1-0.2s0.1-0.1,0.2-0.1h3.3l0-1.5c0-0.7-0.2-1.2-0.5-1.6c-0.3-0.3-0.9-0.5-1.6-0.5
			c-0.1,0-0.2,0-0.4,0s-0.3,0-0.4,0c-0.2,0-0.2,0-0.2-0.2v-0.5c0-0.1,0-0.1,0.1-0.2s0.1-0.1,0.2-0.1c0.2,0,0.4-0.1,0.6-0.1
			s0.3,0,0.4,0c0.5,0,1,0.1,1.4,0.2c0.4,0.1,0.7,0.3,0.9,0.6c0.2,0.3,0.4,0.6,0.5,0.9s0.2,0.8,0.2,1.2c0,0,0,0.1,0,0.2
			c0,0.1,0,0.3,0,0.4c0,0.2,0,0.3,0,0.4s0,0.2,0,0.3c0,0.1,0,0.1,0,0.2c0,0.1,0,0.2,0,0.3s0,0.2,0,0.3c0,0.1,0,0.2,0,0.2
			c0,0.2-0.1,0.2-0.3,0.2h-4c-0.1,0-0.1,0-0.2-0.1s-0.1-0.1-0.1-0.2V37z"/>
		<path class="st8" d="M62.4,29.1c0-0.1,0-0.1,0.1-0.2c0,0,0.1-0.1,0.2-0.1h0.6c0.1,0,0.1,0,0.2,0.1c0,0,0.1,0.1,0.1,0.2v8.5
			c0,0.1,0,0.1-0.1,0.2c0,0-0.1,0.1-0.2,0.1h-0.6c-0.1,0-0.1,0-0.2-0.1c0,0-0.1-0.1-0.1-0.2V29.1z"/>
		<path class="st8" d="M65.7,39.9c0-0.1,0.1-0.2,0.2-0.2c0.1,0,0.3,0,0.5,0s0.4,0,0.5,0c0.3,0,0.6,0,0.9-0.1c0.3,0,0.5-0.1,0.7-0.2
			c0.2-0.1,0.3-0.2,0.4-0.4c0.1-0.2,0.1-0.4,0.1-0.7v-0.7c-0.1,0-0.1,0.1-0.2,0.1c-0.1,0-0.2,0.1-0.4,0.1c-0.1,0-0.3,0-0.4,0
			c-0.1,0-0.2,0-0.3,0c-0.7,0-1.3-0.2-1.7-0.6s-0.6-1-0.6-1.9V35c0-0.8,0.2-1.5,0.7-2c0.5-0.5,1.2-0.7,2.1-0.7c0.3,0,0.6,0,0.9,0
			c0.3,0,0.6,0.1,0.8,0.1c0.1,0,0.1,0,0.2,0.1c0,0,0,0.1,0,0.1v5.4c0,0.5-0.1,0.9-0.2,1.2c-0.1,0.3-0.3,0.6-0.6,0.8
			s-0.6,0.3-0.9,0.4c-0.4,0.1-0.7,0.1-1.2,0.1c-0.1,0-0.2,0-0.3,0s-0.2,0-0.4,0s-0.2,0-0.3,0c-0.1,0-0.2,0-0.2,0
			c-0.1,0-0.1,0-0.2-0.1c0,0,0-0.1,0-0.1V39.9z M69,33.3c-0.2,0-0.3,0-0.5,0c-0.2,0-0.3,0-0.5,0c-0.5,0-0.9,0.1-1.3,0.4
			c-0.3,0.3-0.5,0.7-0.5,1.3v0.2c0,0.6,0.1,1,0.4,1.2c0.2,0.3,0.6,0.4,1.2,0.4c0.3,0,0.6,0,0.8-0.1c0.2,0,0.3-0.2,0.3-0.3V33.3z"/>
		<path class="st8" d="M70.5,39.9c0-0.1,0.1-0.2,0.2-0.2H71c0.3,0,0.5,0,0.6,0c0.2,0,0.3-0.1,0.4-0.2c0.1-0.1,0.2-0.2,0.2-0.4
			s0.1-0.4,0.1-0.6v-5.3c0-0.1,0-0.1,0.1-0.2c0,0,0.1-0.1,0.2-0.1h0.6c0.1,0,0.1,0,0.1,0.1c0,0,0.1,0.1,0.1,0.2v5.2
			c0,0.3,0,0.5,0,0.8c0,0.2-0.1,0.5-0.2,0.6c-0.2,0.3-0.4,0.5-0.7,0.6c-0.3,0.1-0.7,0.2-1.1,0.2c0,0-0.1,0-0.3,0c-0.1,0-0.2,0-0.3,0
			c-0.1,0-0.1,0-0.2-0.1c0,0,0-0.1,0-0.1V39.9z"/>
		<path class="st8" d="M81,40c0.2,0,0.3,0.1,0.3,0.2v0.5c0,0.1-0.1,0.2-0.2,0.2c-0.1,0-0.1,0-0.2,0c-0.1,0-0.1,0-0.1,0
			c-1,0-1.7-0.2-2.1-0.7c-0.4-0.5-0.6-1.1-0.6-2c0-0.1,0-0.2,0-0.3c0-0.1,0-0.2,0-0.3c0-0.1,0-0.2,0-0.3c0-0.1,0-0.2,0-0.3
			c0-0.1,0-0.1,0.1-0.2s0.1-0.1,0.2-0.1c0.1,0,0.2,0,0.4,0c0.2,0,0.4,0,0.5,0h0.4l-1.1-2.9c0,0,0-0.1,0-0.1s0-0.1,0-0.1l0-0.3
			c0-0.1,0-0.1,0.1-0.2c0,0,0.1-0.1,0.1-0.2c0.3-0.2,0.7-0.4,1.1-0.6c0.5-0.1,0.9-0.2,1.4-0.2c0.4,0,0.8,0,1.1,0.1
			c0.3,0.1,0.6,0.2,0.9,0.4c0.2,0.2,0.4,0.4,0.6,0.7c0.1,0.3,0.2,0.6,0.2,1.1v0.2c0,0.2,0,0.4-0.1,0.6c0,0.2-0.1,0.4-0.2,0.6
			c-0.1,0.2-0.2,0.3-0.3,0.5c-0.1,0.1-0.2,0.2-0.3,0.3h1.6v1h-4.8c-0.1,0-0.3,0-0.5,0c-0.2,0-0.4,0-0.5,0c0,0.1,0,0.1,0,0.2
			s0,0.2,0,0.2c0,0.3,0,0.5,0.1,0.8c0.1,0.2,0.2,0.4,0.3,0.5c0.1,0.1,0.3,0.2,0.6,0.3c0.2,0.1,0.5,0.1,0.9,0.1H81z M81.5,36.8
			c0.4-0.1,0.8-0.3,1-0.7c0.2-0.4,0.3-0.8,0.3-1.3v-0.1c0-0.5-0.1-0.9-0.4-1.1c-0.3-0.2-0.7-0.4-1.2-0.4c-0.1,0-0.2,0-0.4,0
			c-0.1,0-0.3,0-0.4,0.1c-0.2,0-0.3,0.1-0.5,0.1c-0.2,0.1-0.3,0.1-0.5,0.3l1.2,3.2H81.5z"/>
		<path class="st8" d="M84.6,37.9c-0.1,0-0.2,0-0.3,0c-0.1,0-0.1-0.1-0.1-0.1V37c0,0,0-0.1,0.1-0.1c0.1,0,0.2,0,0.3,0h2.7v1H84.6z"
			/>
		<path class="st8" d="M87.2,37.9c-0.1,0-0.2,0-0.3,0c-0.1,0-0.1-0.1-0.1-0.1V37c0,0,0-0.1,0.1-0.1c0.1,0,0.2,0,0.3,0h2.7v1H87.2z"
			/>
		<path class="st8" d="M89.7,37.9c-0.1,0-0.2,0-0.3,0c-0.1,0-0.1-0.1-0.1-0.1V37c0,0,0-0.1,0.1-0.1c0.1,0,0.2,0,0.3,0h2.7v1H89.7z"
			/>
		<path class="st8" d="M91.9,37c0,0,0-0.1,0.1-0.1c0.1,0,0.2,0,0.3,0h0.5c0.1,0,0.2,0,0.3,0c0.1,0,0.2,0,0.3-0.1s0.2-0.1,0.2-0.1
			c0.1-0.1,0.1-0.1,0.1-0.2v-3.1c0-0.1,0-0.1,0.1-0.2c0,0,0.1-0.1,0.2-0.1h0.6c0.1,0,0.1,0,0.2,0.1c0,0,0.1,0.1,0.1,0.2v3.3
			c0,0.1,0.1,0.1,0.1,0.1c0.1,0,0.2,0.1,0.3,0.1c0.1,0,0.2,0,0.3,0c0.1,0,0.2,0,0.3,0h0.2v1h-0.1c-0.2,0-0.5,0-0.8-0.1
			c-0.3-0.1-0.5-0.2-0.7-0.3c-0.2,0.2-0.4,0.3-0.7,0.3c-0.3,0.1-0.5,0.1-0.8,0.1h-0.4c-0.1,0-0.2,0-0.3,0c-0.1,0-0.1-0.1-0.1-0.1V37
			z M93.7,30.5c0-0.1,0-0.1,0.1-0.2s0.1-0.1,0.2-0.1h0.5c0.1,0,0.1,0,0.2,0.1c0.1,0,0.1,0.1,0.1,0.2v0.6c0,0.1,0,0.1-0.1,0.2
			c-0.1,0-0.1,0.1-0.2,0.1H94c-0.1,0-0.1,0-0.2-0.1s-0.1-0.1-0.1-0.2V30.5z"/>
		<path class="st8" d="M95.3,37c0,0,0-0.1,0.1-0.1c0.1,0,0.2,0,0.3,0h1.4v-4.2c0-0.1,0-0.1,0.1-0.2s0.1-0.1,0.2-0.1h0.6
			c0.1,0,0.1,0,0.2,0.1s0.1,0.1,0.1,0.2v0.5c0.2-0.2,0.4-0.3,0.7-0.4c0.3-0.1,0.5-0.2,0.8-0.2s0.5-0.1,0.7-0.1c0.2,0,0.4,0,0.5,0
			c0.5,0,1,0.1,1.4,0.2c0.4,0.1,0.7,0.3,1,0.5c0.3,0.2,0.5,0.6,0.6,1s0.2,0.9,0.2,1.4v0.2c0,0.1,0,0.2,0,0.3s0,0.2,0,0.3
			s0,0.2,0,0.3c0,0.1,0,0.2-0.1,0.2h1v1h-9.1c-0.1,0-0.2,0-0.3,0c-0.1,0-0.1-0.1-0.1-0.1V37z M98.1,36.8c0.2,0,0.4,0,0.6,0
			s0.5,0,0.8,0h3.1c0.1,0,0.2-0.1,0.2-0.2s0.1-0.4,0.1-0.8v-0.2c0-0.4,0-0.8-0.2-1.1c-0.1-0.3-0.2-0.5-0.4-0.7
			c-0.2-0.2-0.5-0.3-0.8-0.4c-0.3-0.1-0.7-0.1-1.1-0.1c-0.1,0-0.3,0-0.5,0c-0.2,0-0.4,0.1-0.7,0.1c-0.2,0-0.5,0.1-0.7,0.2
			c-0.2,0.1-0.4,0.2-0.6,0.3V36.8z"/>
		<path class="st8" d="M104.4,37c0,0,0-0.1,0.1-0.1c0.1,0,0.2,0,0.3,0h0.8c0.2,0,0.4,0,0.4-0.1s0.1-0.2,0.1-0.4c0-0.3,0-0.5,0-0.8
			s0-0.5,0-0.7s0-0.5,0-0.8c0-0.3,0-0.6,0-0.9c0-0.1,0-0.1,0.1-0.2s0.1-0.1,0.2-0.1h0.6c0.1,0,0.1,0,0.2,0.1c0,0,0.1,0.1,0.1,0.2
			c0,0.3,0,0.5,0,0.7c0,0.2,0,0.4,0,0.5s0,0.3,0,0.5s0,0.4,0,0.6c0,0.4,0,0.7,0,1.1s0,0.6,0,0.8c0,0.1,0,0.1-0.1,0.2
			c0,0.1-0.1,0.1-0.2,0.1c-0.1,0-0.2,0-0.3,0.1c-0.1,0-0.2,0-0.4,0c-0.1,0-0.3,0-0.4,0c-0.2,0-0.3,0-0.4,0h-0.5c-0.1,0-0.2,0-0.3,0
			c-0.1,0-0.1-0.1-0.1-0.1V37z M106.1,30.5c0-0.1,0-0.1,0.1-0.2c0.1,0,0.1-0.1,0.2-0.1h0.5c0.1,0,0.1,0,0.2,0.1s0.1,0.1,0.1,0.2v0.6
			c0,0.1,0,0.1-0.1,0.2s-0.1,0.1-0.2,0.1h-0.5c-0.1,0-0.1,0-0.2-0.1s-0.1-0.1-0.1-0.2V30.5z"/>
	</g>
</g>
</svg>
